<svg width="100" height="84" viewBox="0 0 100 84" fill="none" xmlns="http://www.w3.org/2000/svg">
<path d="M41.1902 83.7843C41.1902 82.6711 41.4157 81.5004 41.1278 80.4688C40.8303 79.4036 40.2642 77.9162 39.4293 77.5803C34.9239 75.7859 33.8923 72.2113 33.9307 67.9314C33.9307 67.4708 33.8731 67.015 33.8587 66.7607C29.7132 66.7607 25.7307 66.9718 21.7867 66.6935C18.5528 66.4632 15.2421 66.0265 12.1761 65.0285C1.66831 61.6219 -2.95226 50.3752 1.97539 40.3903C3.38123 37.5403 5.43001 35.0165 6.91742 32.2C9.02858 28.208 10.871 24.0768 12.8766 20.032C13.1166 19.5522 13.6347 19.2068 14.0234 18.7989C14.3545 19.2451 14.9254 19.6674 14.9782 20.1424C15.3045 23.242 17.2861 24.9645 19.8867 26.1112C25.1406 28.4239 30.7255 28.6782 36.3297 28.3615C37.0302 28.3231 37.9659 27.0181 38.2682 26.1256C41.2142 17.4938 44.0451 8.82849 46.9671 0C47.2694 0.537386 47.9027 1.18993 48.0179 1.92403C49.9131 14.0488 59.1686 20.7757 73.4142 15.6658C76.4514 14.5766 76.461 14.6006 79.3302 16.4383C74.2538 24.5806 69.1679 32.7278 64.0435 40.9421C68.8704 40.7886 73.1887 40.5967 77.5117 40.5391C80.8416 40.4911 84.2867 41.1484 87.4726 40.4863C90.2075 39.9153 92.856 38.1976 95.1351 36.4559C96.6897 35.2708 97.8988 34.4503 100 35.5059C99.9284 41.0669 98.6329 46.5127 96.2195 51.6755C91.5414 61.6747 83.9268 68.0369 72.8912 69.8554C70.7225 70.2153 68.4434 69.8122 66.2218 69.9322C62.1818 70.1481 58.0699 70.0857 54.1402 70.8774C48.8192 71.9522 45.5517 75.8051 43.3877 80.6367C42.8791 81.7739 42.3177 82.8822 41.7804 84.005L41.1806 83.7891L41.1902 83.7843ZM12.6703 27.8337C10.5448 33.6106 8.29927 38.8214 6.73029 44.224C5.00778 50.1593 5.9626 55.6579 11.3509 59.6211C14.4648 61.9146 18.0346 62.9174 21.8539 63.1333C27.1942 63.4404 32.3089 62.3368 37.3709 60.7726C38.153 60.5327 39.3189 60.5711 39.9043 61.0125C40.2977 61.3052 40.1106 62.5671 39.9523 63.354C39.6788 64.755 39.1558 66.1033 38.8727 67.5043C38.3209 70.2297 39.3813 72.312 41.8043 73.6939C43.0183 74.3848 43.9011 74.4232 44.8463 73.1613C49.4525 67.0101 55.9827 65.3356 63.0023 66.7127C74.8824 69.0349 89.8764 59.1989 93.6477 48.1537C94.0604 46.9541 94.1563 45.6442 94.3531 44.6367C88.1347 44.6367 82.3146 44.651 76.4993 44.6367C68.9711 44.6127 61.7836 45.5051 56.6832 52.1121C55.2006 51.0037 53.8763 50.0105 52.4705 48.9597C57.6093 39.4307 65.6557 31.9601 70.1227 21.8121C62.1914 21.505 54.6584 21.078 47.9507 17.0236C46.2234 22.004 44.5585 26.7973 42.6776 32.2048C36.4641 32.2048 29.9291 32.3631 23.4037 32.1424C19.6851 32.0177 15.8419 31.6866 12.6655 27.8385L12.6703 27.8337Z" fill="#0E60BF"/>
</svg>
