<svg width="21" height="25" viewBox="0 0 21 25" fill="none" xmlns="http://www.w3.org/2000/svg">
<path d="M5.65691 6.1C5.65691 3.53334 7.83309 1.35711 10.3996 1.35711C12.966 1.35711 15.1422 3.53334 15.1422 6.1C15.1422 8.66666 12.966 10.8429 10.3996 10.8429C7.83309 10.8429 5.65691 8.66666 5.65691 6.1ZM19.942 23.6429H0.857113V21.4814C0.868403 21.4573 0.881271 21.4303 0.895752 21.4006C0.971023 21.2462 1.0895 21.019 1.2561 20.7432C1.58999 20.1906 2.1128 19.45 2.86221 18.7098C4.34971 17.2406 6.74172 15.7571 10.3996 15.7571C14.0574 15.7571 16.4494 17.2406 17.9369 18.7098C18.6863 19.45 19.2091 20.1906 19.543 20.7432C19.7096 21.019 19.8281 21.2462 19.9034 21.4006C19.9178 21.4303 19.9307 21.4573 19.942 21.4814V23.6429Z" stroke="currentColor" stroke-width="1.71423"/>
</svg>
