<svg width="16" height="16" viewBox="0 0 16 16" fill="none" xmlns="http://www.w3.org/2000/svg">
<g clip-path="url(#clip0_680_12221)">
<path d="M3.49292 8H5.36792C5.69944 8 6.01738 8.1317 6.2518 8.36612C6.48622 8.60054 6.61792 8.91848 6.61792 9.25V12.375C6.61792 12.7065 6.48622 13.0245 6.2518 13.2589C6.01738 13.4933 5.69944 13.625 5.36792 13.625H3.49292C3.1614 13.625 2.84346 13.4933 2.60904 13.2589C2.37462 13.0245 2.24292 12.7065 2.24292 12.375V8C2.24292 4.54813 5.04105 1.75 8.49292 1.75C11.9448 1.75 14.7429 4.54813 14.7429 8V12.375C14.7429 12.7065 14.6112 13.0245 14.3768 13.2589C14.1424 13.4933 13.8244 13.625 13.4929 13.625H11.6179C11.2864 13.625 10.9685 13.4933 10.734 13.2589C10.4996 13.0245 10.3679 12.7065 10.3679 12.375V9.25C10.3679 8.91848 10.4996 8.60054 10.734 8.36612C10.9685 8.1317 11.2864 8 11.6179 8H13.4929C13.4929 6.67392 12.9661 5.40215 12.0285 4.46447C11.0908 3.52678 9.819 3 8.49292 3C7.16684 3 5.89507 3.52678 4.95739 4.46447C4.0197 5.40215 3.49292 6.67392 3.49292 8Z" fill="#33BBC5"/>
</g>
<defs>
<clipPath id="clip0_680_12221">
<rect width="15" height="15" fill="white" transform="translate(0.99292 0.5)"/>
</clipPath>
</defs>
</svg>
