<?xml version="1.0" encoding="UTF-8"?>
<svg id="Layer_1" data-name="Layer 1" xmlns="http://www.w3.org/2000/svg" width="44" height="44" viewBox="0 0 48 48">
  <g>
    <path d="M33.5194,38.9999c-2.4051,0-4.3621-1.9569-4.3621-4.3621,0-1.8632,1.1892-3.512,2.9297-4.1161,.6102-2.0867,2.5011-3.5175,4.704-3.5175h0v-2.2148c0-8.7205-7.0689-15.7894-15.7894-15.7894s-15.7895,7.069-15.7895,15.7894v11.0527c0,.8375,.3327,1.6408,.9249,2.233,.5922,.5922,1.3954,.9249,2.233,.9249h4.7369c.8375,0,1.6407-.3327,2.2329-.9249,.5922-.5922,.925-1.3955,.925-2.233v-7.8948c0-.8375-.3328-1.6407-.925-2.2329-.5922-.5922-1.3954-.925-2.2329-.925h-4.7369c0-3.35,1.3308-6.563,3.6997-8.9318,2.3689-2.3689,5.5818-3.6997,8.9319-3.6997s6.563,1.3308,8.932,3.6997c2.3687,2.3688,3.6995,5.5818,3.6995,8.9318h-4.7368c-.8375,0-1.6406,.3328-2.233,.925-.5922,.5922-.9249,1.3954-.9249,2.2329v7.8948c0,.8375,.3327,1.6408,.9249,2.233,.5924,.5922,1.3955,.9249,2.233,.9249h4.623Z" fill="#33bbc5"/>
    <path d="M41.6831,31.5234c-.1985-2.5251-2.3168-4.5191-4.8921-4.5191-2.2028,0-4.0938,1.4308-4.7039,3.5175-1.7405,.6041-2.9297,2.253-2.9297,4.1162,0,2.4052,1.9569,4.3621,4.3621,4.3621h7.0884c2.1047,0,3.8168-1.7121,3.8168-3.8168,0-1.717-1.1286-3.1909-2.7416-3.6598Zm-2.3255,2.9548l-2.181,2.181c-.1063,.1063-.2459,.1597-.3855,.1597s-.2792-.0534-.3855-.1597l-2.181-2.181c-.1559-.156-.2028-.3904-.1183-.5944,.0845-.2034,.2835-.3364,.5038-.3364h1.0905v-2.181c0-.602,.4886-1.0905,1.0905-1.0905s1.0905,.4886,1.0905,1.0905v2.181h1.0905c.2203,0,.4193,.133,.5038,.3364,.0845,.204,.0376,.4384-.1183,.5944Z" fill="#8d9eff"/>
  </g>
  <path d="M41.6831,31.5234c-.1985-2.5251-2.3168-4.5191-4.8921-4.5191-2.2028,0-4.0938,1.4308-4.7039,3.5175-1.7405,.6041-2.9297,2.253-2.9297,4.1162,0,2.4052,1.9569,4.3621,4.3621,4.3621h7.0884c2.1047,0,3.8168-1.7121,3.8168-3.8168,0-1.717-1.1286-3.1909-2.7416-3.6598Zm-2.3255,2.9548l-2.181,2.181c-.1063,.1063-.2459,.1597-.3855,.1597s-.2792-.0534-.3855-.1597l-2.181-2.181c-.1559-.156-.2028-.3904-.1183-.5944,.0845-.2034,.2835-.3364,.5038-.3364h1.0905v-2.181c0-.602,.4886-1.0905,1.0905-1.0905s1.0905,.4886,1.0905,1.0905v2.181h1.0905c.2203,0,.4193,.133,.5038,.3364,.0845,.204,.0376,.4384-.1183,.5944Z" fill="#8d9eff"/>
</svg>