<svg width="100" height="100" viewBox="0 0 100 100" fill="none" xmlns="http://www.w3.org/2000/svg">
<g clip-path="url(#clip0_1367_65540)">
<path d="M50.0065 49.9984C59.2113 49.9984 66.6732 42.5365 66.6732 33.3317C66.6732 24.127 59.2113 16.665 50.0065 16.665C40.8018 16.665 33.3398 24.127 33.3398 33.3317C33.3398 42.5365 40.8018 49.9984 50.0065 49.9984Z" fill="#4D9EFC"/>
<path d="M49.9935 58.335C24.5768 58.335 16.6602 75.0016 16.6602 75.0016V83.335H83.3268V75.0016C83.3268 75.0016 75.4102 58.335 49.9935 58.335Z" fill="#4D9EFC"/>
<rect x="70" y="69" width="29" height="30.5" rx="14.5" fill="#0E60BF"/>
<path fill-rule="evenodd" clip-rule="evenodd" d="M90.332 79.25V77.5833H91.9987V79.25H93.6654V80.9167H91.9987V82.5833H90.332V80.9167H88.6654V79.25H90.332ZM80.2795 79.1211C80.3386 79.0391 80.4042 78.9386 80.4878 78.8031C80.5346 78.7272 80.7056 78.4444 80.7335 78.3987C81.4244 77.2687 81.9265 76.75 82.832 76.75H86.9987V78.4167H82.832C82.7598 78.4167 82.5324 78.6514 82.1555 79.268C82.1313 79.3076 81.9578 79.5946 81.9061 79.6784C81.8036 79.8444 81.7185 79.9749 81.6325 80.0944C81.259 80.6137 80.8857 80.9167 80.332 80.9167H77.832C77.3718 80.9167 76.9987 81.2898 76.9987 81.75V89.25C76.9987 89.7102 77.3718 90.0833 77.832 90.0833H91.1654C91.6256 90.0833 91.9987 89.7102 91.9987 89.25V84.25H93.6654V89.25C93.6654 90.6307 92.5461 91.75 91.1654 91.75H77.832C76.4513 91.75 75.332 90.6307 75.332 89.25V81.75C75.332 80.3693 76.4513 79.25 77.832 79.25H80.1789C80.2066 79.2183 80.2406 79.1753 80.2795 79.1211ZM84.4987 89.25C82.1975 89.25 80.332 87.3845 80.332 85.0833C80.332 82.7821 82.1975 80.9167 84.4987 80.9167C86.7999 80.9167 88.6654 82.7821 88.6654 85.0833C88.6654 87.3845 86.7999 89.25 84.4987 89.25ZM84.4987 87.5833C85.8794 87.5833 86.9987 86.464 86.9987 85.0833C86.9987 83.7026 85.8794 82.5833 84.4987 82.5833C83.118 82.5833 81.9987 83.7026 81.9987 85.0833C81.9987 86.464 83.118 87.5833 84.4987 87.5833Z" fill="white"/>
</g>
<defs>
<clipPath id="clip0_1367_65540">
<rect width="100" height="100" fill="white"/>
</clipPath>
</defs>
</svg>
