<svg width="29" height="24" viewBox="0 0 29 24" fill="none" xmlns="http://www.w3.org/2000/svg">
<path d="M14.4879 23.2147C10.0814 23.2147 5.67425 23.2147 1.26769 23.2147C1.09157 23.2147 0.911524 23.2332 0.750493 23.1342C0.518451 22.9905 0.5 22.7624 0.5 22.5214C0.501118 20.0713 0.5 17.6206 0.5 15.1705C0.5 12.3474 0.5 9.52433 0.5 6.70183C0.5 5.94364 0.607354 5.83796 1.37673 5.83796C1.73066 5.83796 2.08515 5.82678 2.43853 5.84188C2.6756 5.85194 2.76227 5.75633 2.73822 5.53044C2.7304 5.45663 2.73543 5.38171 2.73822 5.30679C2.7522 4.91539 2.93616 4.72585 3.33035 4.72249C4.07568 4.71634 4.82101 4.72026 5.56634 4.7197C6.39553 4.7197 7.22473 4.71299 8.05393 4.72361C8.26752 4.72641 8.38606 4.65987 8.48894 4.46529C9.48029 2.59611 11.0056 1.38446 13.0733 0.943308C16.1206 0.293595 18.9828 1.66403 20.4964 4.44013C20.611 4.65036 20.7379 4.72585 20.9733 4.72473C22.4825 4.71522 23.9921 4.7197 25.5012 4.72026C26.1157 4.72026 26.2594 4.86395 26.2639 5.47285C26.2658 5.71514 26.3923 5.83685 26.6435 5.83796C27.0349 5.83908 27.4263 5.83685 27.8172 5.83852C28.3282 5.84076 28.4993 6.01185 28.4993 6.53185C28.5004 10.3608 28.4999 14.1903 28.4999 18.0193C28.4999 19.4914 28.4999 20.9631 28.4999 22.4353C28.4999 23.0794 28.3623 23.2147 27.7076 23.2147C23.301 23.2147 18.8939 23.2147 14.4874 23.2147H14.4879ZM25.1026 12.8489C25.1026 10.6409 25.0986 8.43346 25.1076 6.22544C25.1087 5.95538 25.0237 5.87375 24.7565 5.87654C23.6203 5.88885 22.4836 5.88605 21.3468 5.87822C21.1316 5.87654 21.0684 5.93861 21.1081 6.15443C21.3558 7.49356 21.2719 8.80696 20.7598 10.0779C20.6748 10.2892 20.7525 10.3144 20.9331 10.3133C21.6969 10.3088 22.4606 10.3122 23.225 10.3116C24.0352 10.3116 24.0223 10.311 24.0341 11.1218C24.0385 11.4148 23.9317 11.4819 23.6606 11.4785C22.6362 11.4656 21.6108 11.4891 20.5864 11.4651C20.1833 11.4556 19.8623 11.5132 19.6521 11.899C19.5744 12.041 19.4234 12.1416 19.3133 12.268C19.2501 12.3407 19.1097 12.3932 19.1584 12.504C19.1981 12.5945 19.3278 12.5459 19.4167 12.5459C20.6932 12.5487 21.9692 12.5476 23.2457 12.5476C23.769 12.5476 24.0296 12.8057 24.0273 13.322C24.0257 13.7067 24.0257 13.7083 23.6404 13.7083C21.6096 13.7089 19.5789 13.7083 17.5481 13.7094C17.4368 13.7094 17.3144 13.6932 17.2159 13.7318C16.5981 13.9756 15.9679 14.1674 15.3059 14.2406C15.127 14.2602 15.0761 14.3597 15.0806 14.5252C15.0879 14.8042 15.0817 15.0844 15.0817 15.3634C15.0817 16.8261 15.0851 18.2888 15.0784 19.7509C15.0772 19.9796 15.1169 20.059 15.3574 19.9511C15.6325 19.828 15.9322 19.813 16.2335 19.8135C19.0656 19.8163 21.8976 19.8152 24.7296 19.8152C25.1009 19.8152 25.1026 19.8141 25.1026 19.4428C25.1026 17.2443 25.1026 15.0458 25.1026 12.8473V12.8489ZM3.89843 12.8204C3.89843 15.0189 3.89843 17.2175 3.89843 19.416C3.89843 19.8152 3.89899 19.8163 4.29877 19.8163C7.12129 19.8163 9.94437 19.818 12.7669 19.8146C13.0878 19.8146 13.4015 19.8431 13.6962 19.9701C13.884 20.0511 13.921 19.9835 13.921 19.8085C13.9182 18.0478 13.9165 16.2871 13.9232 14.5263C13.9237 14.3139 13.8209 14.2468 13.6414 14.23C13.1555 14.1853 12.6813 14.074 12.234 13.89C11.851 13.7324 11.4658 13.7044 11.0621 13.7061C9.27341 13.7128 7.48473 13.7094 5.69605 13.7089C5.21333 13.7089 4.97235 13.4685 4.97309 12.9876C4.97346 12.695 5.12201 12.5485 5.41872 12.5481C6.80706 12.5481 8.19484 12.5487 9.58317 12.5464C9.67207 12.5464 9.80179 12.5945 9.84149 12.5045C9.89014 12.3932 9.74924 12.3412 9.68717 12.268C9.53061 12.084 9.35225 11.9163 9.21023 11.7217C9.06877 11.5277 8.90326 11.4645 8.66507 11.4673C7.70559 11.4802 6.74611 11.4724 5.78664 11.4729C4.96191 11.4729 4.9703 11.4735 4.96806 10.646C4.9675 10.396 5.03963 10.3026 5.30075 10.306C6.20431 10.3189 7.10787 10.3049 8.01144 10.3149C8.25187 10.3177 8.32512 10.2797 8.22167 10.0242C7.7246 8.79914 7.66142 7.52878 7.87277 6.23607C7.92477 5.91624 7.90017 5.88214 7.57084 5.88158C6.47158 5.88046 5.37232 5.88102 4.27305 5.88158C3.90067 5.88158 3.89899 5.88325 3.89899 6.25228C3.89899 8.44129 3.89899 10.6309 3.89843 12.8199V12.8204ZM14.5013 1.97211C11.3383 2.07164 8.9547 4.40546 8.95806 7.53661C8.96141 10.6929 11.3439 13.0787 14.5002 13.0793C17.6543 13.0793 20.0418 10.6924 20.0424 7.53773C20.0424 4.38645 17.6644 2.07947 14.5013 1.97211ZM1.66244 14.4978C1.66244 16.8831 1.66244 19.2678 1.66244 21.6531C1.66244 22.0523 1.663 22.0534 2.06279 22.0534C5.8733 22.0534 9.68382 22.0534 13.4943 22.0534C13.9165 22.0534 13.9573 21.988 13.7823 21.6039C13.6772 21.3729 13.51 21.2069 13.2763 21.1073C13.0403 21.0067 12.7949 20.9765 12.5393 20.9765C9.53005 20.9787 6.52078 20.9782 3.51151 20.9776C2.87913 20.9776 2.7371 20.8367 2.7371 20.2088C2.7371 16.0349 2.7371 11.8615 2.7371 7.68758C2.7371 7.22722 2.50376 6.99798 2.03707 6.99984C1.66412 7.00152 1.66244 7.00152 1.66244 7.37055C1.66244 9.74631 1.66244 12.1221 1.66244 14.4978ZM27.3391 14.556C27.3391 12.2641 27.3419 9.9722 27.3374 7.68031C27.3358 6.8869 27.4476 7.01103 26.6598 7.00152C26.265 6.99649 26.2645 7.00152 26.2645 7.40577C26.2645 11.682 26.2645 15.9583 26.2645 20.2345C26.2645 20.8272 26.1129 20.9782 25.5202 20.9782C23.3027 20.9787 21.0857 20.9782 18.8682 20.9782C18.0205 20.9782 17.1723 20.9692 16.3247 20.9821C15.8427 20.9894 15.4234 21.142 15.2092 21.6268C15.0521 21.9818 15.0979 22.0528 15.4765 22.0528C19.3054 22.0528 23.135 22.0528 26.9639 22.0528C27.3369 22.0528 27.3386 22.0512 27.3391 21.6827C27.3391 19.3069 27.3391 16.9312 27.3391 14.5554V14.556Z" fill="currentColor"/>
<path d="M20.0927 15.9463C18.8917 15.9463 17.6907 15.9407 16.4896 15.9508C16.2369 15.953 16.1508 15.8747 16.1514 15.617C16.1536 14.7844 16.1447 14.7844 16.9632 14.7844C19.1886 14.7844 21.4134 14.7844 23.6388 14.7844C24.0257 14.7844 24.0257 14.7861 24.0279 15.1685C24.0313 15.6871 23.7717 15.9461 23.249 15.9457C22.1968 15.9457 21.145 15.9457 20.0927 15.9457V15.9463Z" fill="currentColor"/>
<path d="M20.0905 18.1826C18.8895 18.1826 17.6884 18.1765 16.4874 18.1871C16.2319 18.1893 16.1508 18.106 16.1514 17.8516C16.1525 17.0202 16.1441 17.0208 16.9655 17.0208C19.1908 17.0208 21.4156 17.0208 23.641 17.0208C24.0251 17.0208 24.0251 17.0219 24.0274 17.4077C24.03 17.9239 23.7698 18.1821 23.2468 18.1821C22.1945 18.1821 21.1428 18.1821 20.0905 18.1821V18.1826Z" fill="currentColor"/>
<path d="M8.92184 14.7852C10.1134 14.7852 11.3054 14.7919 12.497 14.7802C12.7614 14.7774 12.8733 14.8551 12.8481 15.1274C12.8296 15.3303 12.8408 15.5367 12.8425 15.7413C12.8436 15.8811 12.7782 15.9471 12.639 15.9443C12.5741 15.9426 12.5087 15.9465 12.4433 15.9465C10.0781 15.9465 7.71354 15.9465 5.34839 15.9465C4.97545 15.9465 4.97545 15.9448 4.97321 15.5764C4.9721 15.4086 4.98272 15.2403 4.97098 15.0737C4.95532 14.8551 5.04478 14.7796 5.26229 14.7818C6.12783 14.7902 6.99393 14.7846 7.86004 14.7846C8.21397 14.7846 8.5679 14.7846 8.92128 14.7846L8.92184 14.7852Z" fill="currentColor"/>
<path d="M8.91122 18.1821C7.7102 18.1821 6.50917 18.1765 5.30815 18.1866C5.0571 18.1888 4.96819 18.1139 4.96875 17.8544C4.97043 17.0197 4.96092 17.0202 5.78006 17.0208C8.00542 17.0208 10.2302 17.0208 12.4556 17.0208C12.8431 17.0208 12.8431 17.0219 12.8453 17.4049C12.8479 17.9234 12.5887 18.1827 12.0676 18.1827C11.0153 18.1827 9.96352 18.1827 8.91122 18.1827V18.1821Z" fill="currentColor"/>
<path d="M12.8017 9.90826C12.8017 9.46095 12.8017 9.0142 12.8017 8.56689C12.8017 8.26757 12.6472 8.11791 12.3382 8.11791C12.124 8.11791 11.9093 8.12294 11.6952 8.11567C11.3323 8.10393 11.1333 7.91998 11.1288 7.56381C11.1198 6.80003 11.1198 6.03626 11.1288 5.27248C11.1333 4.91687 11.3323 4.73347 11.6963 4.72229C11.9474 4.71446 12.2001 4.70552 12.4506 4.72341C12.7128 4.74242 12.828 4.65911 12.8056 4.38066C12.7855 4.13073 12.7972 3.878 12.804 3.62639C12.814 3.24674 12.998 3.04936 13.3698 3.04545C14.1241 3.03762 14.8789 3.03706 15.6332 3.04545C16.0045 3.04936 16.1884 3.24786 16.1974 3.62807C16.2035 3.88862 16.2097 4.1503 16.1962 4.4103C16.1845 4.63563 16.2583 4.73627 16.4965 4.72173C16.7565 4.70608 17.0182 4.71446 17.2787 4.72061C17.6757 4.72956 17.8697 4.9124 17.8736 5.30155C17.8809 6.04688 17.8809 6.7922 17.8736 7.53697C17.8703 7.91383 17.6774 8.10281 17.3033 8.11455C17.0612 8.12238 16.8191 8.11623 16.577 8.11679C16.2007 8.11791 16.1996 8.11791 16.199 8.48358C16.1985 9.43355 16.2001 10.3841 16.1979 11.334C16.1968 11.8652 16.0302 12.0285 15.4906 12.0302C14.8107 12.0318 14.1308 12.033 13.4503 12.0302C12.9868 12.0279 12.8051 11.8484 12.8012 11.3888C12.7972 10.8951 12.8 10.4014 12.8 9.9077L12.8017 9.90826ZM15.0383 9.08745C15.0383 8.59373 15.036 8.10002 15.0388 7.60686C15.0416 7.14334 15.2217 6.9633 15.6796 6.95659C15.7635 6.95547 15.8473 6.95827 15.9312 6.95659C16.8633 6.93311 16.6967 7.13663 16.7168 6.13075C16.7201 5.95294 16.6508 5.87578 16.4702 5.88082C16.2097 5.88809 15.9485 5.88417 15.688 5.88082C15.2228 5.87578 15.0461 5.70022 15.0388 5.23949C15.0377 5.15562 15.0399 5.07175 15.0377 4.98788C15.0125 4.05916 15.2228 4.22075 14.2107 4.20509C14.2012 4.20509 14.1923 4.20621 14.1828 4.20509C14.0307 4.19782 13.9614 4.26883 13.963 4.42204C13.9664 4.6921 13.9647 4.96216 13.9619 5.23222C13.9569 5.69574 13.7796 5.87355 13.3195 5.88026C13.2356 5.88138 13.1517 5.87858 13.0679 5.88082C12.1386 5.90542 12.303 5.70078 12.2856 6.71001C12.2856 6.71952 12.2868 6.72846 12.2856 6.73797C12.2784 6.89117 12.3516 6.95771 12.5043 6.95603C12.7743 6.95268 13.0444 6.95379 13.3144 6.95715C13.7774 6.96274 13.9591 7.13999 13.9608 7.60071C13.9642 8.42935 13.9625 9.25854 13.9625 10.0872C13.9625 10.8946 13.9625 10.889 14.762 10.8739C14.9661 10.87 15.0439 10.8029 15.0399 10.5965C15.0304 10.0939 15.0366 9.59067 15.0371 9.08801L15.0383 9.08745Z" fill="currentColor"/>
</svg>
