<svg width="34" height="27" viewBox="0 0 34 27" fill="none" xmlns="http://www.w3.org/2000/svg">
<path d="M16.986 26.4984C11.8786 26.4984 6.77053 26.4984 1.66311 26.4984C1.45897 26.4984 1.25029 26.5198 1.06365 26.4051C0.794702 26.2386 0.773315 25.9741 0.773315 25.6948C0.774612 22.855 0.773315 20.0145 0.773315 17.1747C0.773315 13.9026 0.773315 10.6306 0.773315 7.35914C0.773315 6.48036 0.897744 6.35788 1.78949 6.35788C2.19971 6.35788 2.61059 6.34492 3.02017 6.36241C3.29495 6.37408 3.3954 6.26326 3.36753 6.00144C3.35846 5.9159 3.36429 5.82906 3.36753 5.74222C3.38373 5.28857 3.59695 5.06888 4.05383 5.06499C4.91771 5.05786 5.78158 5.0624 6.64546 5.06175C7.60654 5.06175 8.56763 5.05397 9.52871 5.06628C9.77627 5.06952 9.91366 4.9924 10.0329 4.76688C11.1819 2.6004 12.9499 1.19604 15.3464 0.684721C18.8784 -0.0683297 22.1958 1.52008 23.9502 4.73772C24.083 4.98139 24.2301 5.06888 24.503 5.06758C26.2521 5.05656 28.0019 5.06175 29.751 5.0624C30.4632 5.0624 30.6298 5.22895 30.635 5.93469C30.6371 6.21552 30.7838 6.35658 31.075 6.35788C31.5287 6.35917 31.9823 6.35658 32.4353 6.35852C33.0276 6.36112 33.226 6.55942 33.226 7.16212C33.2273 11.6001 33.2266 16.0387 33.2266 20.4766C33.2266 22.183 33.2266 23.8887 33.2266 25.595C33.2266 26.3416 33.0672 26.4984 32.3083 26.4984C27.2009 26.4984 22.0928 26.4984 16.9854 26.4984H16.986ZM29.2889 14.484C29.2889 11.9247 29.2844 9.36619 29.2948 6.80699C29.2961 6.49397 29.1976 6.39935 28.8878 6.40259C27.5709 6.41685 26.2534 6.41361 24.9359 6.40454C24.6864 6.40259 24.6131 6.47453 24.6591 6.72468C24.9462 8.2768 24.849 9.7991 24.2554 11.2721C24.1569 11.5171 24.247 11.5463 24.4563 11.545C25.3416 11.5398 26.2268 11.5437 27.1127 11.543C28.0518 11.543 28.0369 11.5424 28.0505 12.4821C28.0557 12.8217 27.9319 12.8994 27.6176 12.8956C26.4303 12.8806 25.2418 12.9079 24.0545 12.88C23.5872 12.869 23.2153 12.9357 22.9716 13.3829C22.8815 13.5475 22.7065 13.6642 22.5789 13.8106C22.5056 13.8949 22.343 13.9558 22.3993 14.0841C22.4453 14.1891 22.5957 14.1327 22.6987 14.1327C24.1783 14.1359 25.6572 14.1346 27.1367 14.1346C27.7433 14.1346 28.0453 14.4338 28.0427 15.0322C28.0408 15.4781 28.0408 15.48 27.5942 15.48C25.2405 15.4807 22.8867 15.48 20.5329 15.4813C20.4039 15.4813 20.262 15.4625 20.1479 15.5072C19.4318 15.7898 18.7015 16.0121 17.9341 16.097C17.7268 16.1197 17.6678 16.235 17.673 16.4269C17.6814 16.7502 17.6743 17.0749 17.6743 17.3983C17.6743 19.0936 17.6782 20.789 17.6704 22.4837C17.6691 22.7487 17.7151 22.8407 17.9938 22.7157C18.3126 22.5731 18.66 22.5556 19.0093 22.5562C22.2918 22.5595 25.5742 22.5582 28.8567 22.5582C29.287 22.5582 29.2889 22.5569 29.2889 22.1266C29.2889 19.5784 29.2889 17.0302 29.2889 14.482V14.484ZM4.71227 14.4509C4.71227 16.9991 4.71227 19.5473 4.71227 22.0955C4.71227 22.5582 4.71292 22.5595 5.17629 22.5595C8.44773 22.5595 11.7198 22.5614 14.9913 22.5575C15.3633 22.5575 15.7268 22.5906 16.0684 22.7377C16.2861 22.8317 16.3289 22.7533 16.3289 22.5504C16.3256 20.5097 16.3237 18.4689 16.3315 16.4281C16.3321 16.1819 16.2129 16.1041 16.0049 16.0847C15.4417 16.0328 14.8921 15.9039 14.3737 15.6907C13.9297 15.5079 13.4832 15.4755 13.0153 15.4774C10.9421 15.4852 8.86898 15.4813 6.79581 15.4807C6.23631 15.4807 5.95699 15.202 5.95786 14.6447C5.95829 14.3055 6.13046 14.1357 6.47437 14.1353C8.08352 14.1353 9.69202 14.1359 11.3012 14.1334C11.4042 14.1334 11.5546 14.1891 11.6006 14.0847C11.657 13.9558 11.4937 13.8955 11.4217 13.8106C11.2403 13.5974 11.0335 13.403 10.8689 13.1775C10.705 12.9526 10.5131 12.8793 10.237 12.8826C9.12496 12.8975 8.01288 12.8884 6.9008 12.8891C5.9449 12.8891 5.95462 12.8897 5.95202 11.9306C5.95138 11.6409 6.03498 11.5327 6.33763 11.5366C7.3849 11.5515 8.43218 11.5353 9.47946 11.5469C9.75813 11.5502 9.84302 11.5061 9.72313 11.2099C9.147 9.79003 9.07377 8.31762 9.31874 6.8193C9.37901 6.44861 9.35049 6.40907 8.96878 6.40843C7.69468 6.40713 6.42058 6.40778 5.14648 6.40843C4.71486 6.40843 4.71292 6.41037 4.71292 6.83809C4.71292 9.37527 4.71292 11.9131 4.71227 14.4503V14.4509ZM17.0016 1.87716C13.3355 1.99252 10.5727 4.69754 10.5766 8.3267C10.5805 11.985 13.3419 14.7503 17.0003 14.751C20.656 14.751 23.4233 11.9844 23.4239 8.32799C23.4239 4.6755 20.6677 2.00159 17.0016 1.87716ZM2.12065 16.3951C2.12065 19.1597 2.12065 21.9237 2.12065 24.6884C2.12065 25.1511 2.1213 25.1524 2.58466 25.1524C7.00125 25.1524 11.4178 25.1524 15.8344 25.1524C16.3237 25.1524 16.371 25.0766 16.1682 24.6313C16.0463 24.3637 15.8526 24.1712 15.5817 24.0559C15.3082 23.9392 15.0237 23.9042 14.7275 23.9042C11.2396 23.9068 7.75171 23.9062 4.26381 23.9055C3.53084 23.9055 3.36623 23.7422 3.36623 23.0144C3.36623 18.1766 3.36623 13.3395 3.36623 8.50167C3.36623 7.9681 3.09577 7.70239 2.55485 7.70455C2.12259 7.7065 2.12065 7.7065 2.12065 8.13422C2.12065 10.8878 2.12065 13.6415 2.12065 16.3951ZM31.8812 16.4625C31.8812 13.8061 31.8845 11.1497 31.8793 8.49325C31.8773 7.57365 32.0069 7.71752 31.0938 7.7065C30.6363 7.70067 30.6356 7.7065 30.6356 8.17505C30.6356 13.1314 30.6356 18.0878 30.6356 23.0442C30.6356 23.7312 30.46 23.9062 29.7731 23.9062C27.2028 23.9068 24.6332 23.9062 22.063 23.9062C21.0805 23.9062 20.0974 23.8958 19.1149 23.9107C18.5563 23.9191 18.0702 24.096 17.822 24.6579C17.6399 25.0694 17.6931 25.1517 18.1318 25.1517C22.5698 25.1517 27.0084 25.1517 31.4464 25.1517C31.8786 25.1517 31.8806 25.1498 31.8812 24.7227C31.8812 21.9691 31.8812 19.2155 31.8812 16.4618V16.4625Z" fill="#CC00FF"/>
<path d="M23.4823 18.0735C22.0902 18.0735 20.6982 18.0671 19.3061 18.0787C19.0132 18.0813 18.9134 17.9906 18.9141 17.6918C18.9167 16.7269 18.9063 16.7269 19.8551 16.7269C22.4344 16.7269 25.013 16.7269 27.5923 16.7269C28.0408 16.7269 28.0408 16.7288 28.0434 17.1721C28.0473 17.7731 27.7464 18.0733 27.1406 18.0729C25.921 18.0729 24.702 18.0729 23.4823 18.0729V18.0735Z" fill="#CC00FF"/>
<path d="M23.4797 20.6661C22.0877 20.6661 20.6956 20.6589 19.3036 20.6713C19.0074 20.6739 18.9134 20.5773 18.9141 20.2824C18.9154 19.3187 18.9056 19.3194 19.8577 19.3194C22.437 19.3194 25.0156 19.3194 27.5949 19.3194C28.0402 19.3194 28.0402 19.3207 28.0427 19.7679C28.0458 20.3662 27.7442 20.6654 27.138 20.6654C25.9184 20.6654 24.6994 20.6654 23.4797 20.6654V20.6661Z" fill="#CC00FF"/>
<path d="M10.5345 16.728C11.9155 16.728 13.2972 16.7358 14.6783 16.7222C14.9848 16.719 15.1144 16.809 15.0852 17.1246C15.0639 17.3599 15.0768 17.599 15.0788 17.8362C15.0801 17.9982 15.0042 18.0747 14.8429 18.0715C14.7677 18.0695 14.6919 18.0741 14.616 18.0741C11.8747 18.0741 9.13404 18.0741 6.39271 18.0741C5.96045 18.0741 5.96045 18.0721 5.95786 17.645C5.95656 17.4506 5.96887 17.2555 5.95526 17.0624C5.93712 16.809 6.04081 16.7215 6.29291 16.7241C7.29612 16.7339 8.29997 16.7274 9.30383 16.7274C9.71406 16.7274 10.1243 16.7274 10.5339 16.7274L10.5345 16.728Z" fill="#CC00FF"/>
<path d="M10.5222 20.6659C9.13012 20.6659 7.73807 20.6595 6.34602 20.6711C6.05503 20.6737 5.95199 20.5869 5.95264 20.2862C5.95458 19.3186 5.94357 19.3193 6.89299 19.3199C9.4723 19.3199 12.051 19.3199 14.6303 19.3199C15.0794 19.3199 15.0794 19.3212 15.082 19.7651C15.085 20.3661 14.7845 20.6666 14.1805 20.6666C12.9608 20.6666 11.7418 20.6666 10.5222 20.6666V20.6659Z" fill="#CC00FF"/>
<path d="M15.0315 11.0757C15.0315 10.5573 15.0315 10.0395 15.0315 9.521C15.0315 9.17407 14.8524 9.00061 14.4943 9.00061C14.2461 9.00061 13.9972 9.00644 13.749 8.99802C13.3284 8.98441 13.0977 8.77119 13.0925 8.35838C13.0821 7.47312 13.0821 6.58786 13.0925 5.70261C13.0977 5.29044 13.3284 5.07787 13.7503 5.06491C14.0413 5.05584 14.3342 5.04547 14.6245 5.06621C14.9285 5.08824 15.062 4.99168 15.036 4.66895C15.0127 4.37926 15.0263 4.08634 15.0341 3.79471C15.0458 3.35467 15.259 3.12591 15.6899 3.12137C16.5642 3.1123 17.4391 3.11165 18.3133 3.12137C18.7436 3.12591 18.9569 3.35597 18.9672 3.79665C18.9744 4.09865 18.9815 4.40194 18.9659 4.70329C18.9523 4.96446 19.0379 5.08112 19.3139 5.06427C19.6153 5.04612 19.9186 5.05584 20.2206 5.06297C20.6807 5.07334 20.9056 5.28526 20.9101 5.73631C20.9186 6.60018 20.9186 7.46405 20.9101 8.32727C20.9062 8.76406 20.6827 8.98311 20.2491 8.99672C19.9685 9.00579 19.6879 8.99866 19.4073 8.99931C18.9711 9.00061 18.9698 9.00061 18.9692 9.42444C18.9685 10.5255 18.9705 11.6272 18.9679 12.7283C18.9666 13.3439 18.7735 13.5332 18.1481 13.5351C17.36 13.5371 16.572 13.5384 15.7833 13.5351C15.246 13.5325 15.0354 13.3245 15.0309 12.7918C15.0263 12.2195 15.0296 11.6473 15.0296 11.0751L15.0315 11.0757ZM17.6238 10.1244C17.6238 9.55211 17.6212 8.97987 17.6244 8.40828C17.6277 7.87103 17.8364 7.66236 18.3671 7.65458C18.4643 7.65328 18.5615 7.65652 18.6587 7.65458C19.7391 7.62736 19.546 7.86326 19.5693 6.69739C19.5732 6.4913 19.4928 6.40187 19.2835 6.4077C18.9815 6.41613 18.6788 6.41159 18.3768 6.4077C17.8376 6.40187 17.6329 6.19838 17.6244 5.66437C17.6231 5.56716 17.6257 5.46995 17.6231 5.37274C17.594 4.29631 17.8376 4.4836 16.6646 4.46545C16.6536 4.46545 16.6433 4.46675 16.6322 4.46545C16.456 4.45703 16.3756 4.53933 16.3775 4.7169C16.3814 5.02992 16.3795 5.34293 16.3763 5.65595C16.3704 6.19319 16.165 6.39928 15.6316 6.40705C15.5344 6.40835 15.4372 6.40511 15.34 6.4077C14.2629 6.43622 14.4534 6.19903 14.4333 7.36878C14.4333 7.3798 14.4346 7.39017 14.4333 7.40119C14.4249 7.57875 14.5098 7.65587 14.6867 7.65393C14.9998 7.65004 15.3128 7.65134 15.6258 7.65523C16.1624 7.66171 16.373 7.86714 16.375 8.40115C16.3788 9.36158 16.3769 10.3227 16.3769 11.2831C16.3769 12.2189 16.3769 12.2124 17.3036 12.1949C17.5402 12.1904 17.6303 12.1126 17.6257 11.8735C17.6147 11.2909 17.6218 10.7076 17.6225 10.125L17.6238 10.1244Z" fill="#CC00FF"/>
</svg>
