<svg width="23" height="30" viewBox="0 0 23 30" fill="none" xmlns="http://www.w3.org/2000/svg">
<g clip-path="url(#clip0_459_4151)">
<path d="M22.5207 15.0139C22.5207 19.7805 22.5207 24.5466 22.5207 29.3132C22.5207 29.8312 22.3554 30 21.8443 30C15.8282 30 9.81214 30.0005 3.79655 29.999C2.20239 29.9985 0.866966 28.8891 0.541678 27.3262C0.457252 26.9214 0.474634 26.5246 0.496486 26.1189C0.530753 25.4748 0.543168 24.8297 0.547141 24.1846C0.559557 22.1573 0.540685 20.1296 0.577435 18.1024C0.621138 15.7027 0.574455 13.3031 0.627097 10.9044C0.677256 8.59606 0.63405 6.28726 0.67974 3.97946C0.691162 3.40487 0.652425 2.82332 0.800419 2.2527C1.14309 0.93367 2.32456 0.00150829 3.68928 0.00101167C9.73864 -0.000478198 15.7875 1.84245e-05 21.8369 1.84245e-05C22.3405 1.84245e-05 22.5207 0.180789 22.5207 0.689331C22.5207 5.46386 22.5207 10.2389 22.5207 15.0134V15.0139ZM5.69067 12.1668C5.69067 15.7747 5.69067 19.3827 5.69067 22.9907C5.69067 23.3423 5.69414 23.3468 6.02638 23.3468C11.0825 23.3468 16.1386 23.3468 21.1947 23.3468C21.5041 23.3468 21.5116 23.3388 21.5116 23.023C21.5116 15.7986 21.5121 8.57421 21.5116 1.34984C21.5116 1.00965 21.5101 1.00866 21.161 1.00866C16.1212 1.00866 11.0815 1.00866 6.04228 1.00866C5.8082 1.00866 5.691 1.12801 5.69067 1.36672C5.69067 4.96625 5.69067 8.56627 5.69067 12.1658V12.1668ZM12.3628 28.9581C15.2998 28.9581 18.2364 28.9581 21.1734 28.9581C21.5091 28.9581 21.5126 28.9551 21.5126 28.6318C21.5131 27.3247 21.5066 26.0176 21.518 24.7105C21.52 24.4582 21.4436 24.3877 21.1938 24.3882C15.9489 24.3946 10.7041 24.3921 5.45924 24.3936C4.78135 24.3936 4.09303 24.3326 3.42706 24.4264C2.25701 24.5918 1.45894 25.5622 1.49172 26.7596C1.52797 28.0855 2.68361 28.979 3.77619 28.968C6.63822 28.9397 9.50076 28.9586 12.3633 28.9576L12.3628 28.9581ZM4.68054 12.1688C4.68054 8.61146 4.68054 5.05365 4.68054 1.49634C4.68054 1.41341 4.67607 1.33047 4.68054 1.24803C4.68898 1.08315 4.62243 1.0027 4.44911 1.00767C4.20129 1.01512 3.95199 0.999224 3.70467 1.01412C2.4646 1.08911 1.72761 1.87924 1.71669 3.12328C1.70229 4.72787 1.72215 6.33196 1.67845 7.93705C1.62233 9.9876 1.68838 12.0396 1.62829 14.0907C1.59104 15.3556 1.59005 16.6215 1.58161 17.8869C1.56969 19.6489 1.5677 21.4114 1.55827 23.1734C1.55678 23.4709 1.5384 23.7684 1.53045 24.0659C1.52748 24.1831 1.5677 24.2278 1.67348 24.1384C2.43282 23.4943 3.33916 23.3388 4.29615 23.3473C4.68103 23.3507 4.68203 23.3473 4.68203 22.9658C4.68203 19.3668 4.68203 15.7683 4.68203 12.1693L4.68054 12.1688Z" fill="currentColor"/>
<path d="M12.1409 9.11454C12.1409 8.4446 12.1344 7.77465 12.1443 7.10471C12.1478 6.88917 12.0773 6.81518 11.8588 6.81816C11.0895 6.82858 10.3202 6.82263 9.55098 6.82114C9.46009 6.82114 9.36772 6.82213 9.27932 6.80375C9.0618 6.75856 8.89295 6.5614 8.88053 6.35232C8.86812 6.14225 9.03449 5.90636 9.25102 5.85322C9.36971 5.82392 9.49635 5.81498 9.61901 5.81448C10.355 5.811 11.0915 5.80554 11.8275 5.81696C12.0624 5.82044 12.1597 5.74595 12.1433 5.50508C12.128 5.27465 12.1344 5.04174 12.1419 4.81031C12.1538 4.45125 12.3708 4.21635 12.6777 4.21933C12.9687 4.22181 13.1674 4.45224 13.1793 4.81379C13.1868 5.04521 13.1942 5.27763 13.1783 5.50856C13.1614 5.7534 13.2657 5.81994 13.4971 5.81647C14.2247 5.80554 14.9527 5.8115 15.6808 5.81398C15.796 5.81398 15.9137 5.81895 16.0255 5.84229C16.3001 5.8994 16.4342 6.08117 16.4218 6.35729C16.4098 6.61553 16.237 6.80028 15.9599 6.81518C15.6714 6.83107 15.3813 6.82213 15.0918 6.82213C14.5624 6.82262 14.0325 6.83355 13.5036 6.81716C13.2548 6.80922 13.1743 6.88421 13.1763 7.13848C13.1877 8.41232 13.1818 9.68615 13.1808 10.96C13.1808 11.0673 13.1818 11.176 13.1664 11.2818C13.1222 11.5847 12.93 11.7601 12.6583 11.7571C12.3857 11.7536 12.1672 11.5485 12.1473 11.249C12.1304 11.0022 12.1409 10.7529 12.1404 10.5051C12.1399 10.0417 12.1404 9.57888 12.1404 9.11553L12.1409 9.11454Z" fill="currentColor"/>
<path d="M12.1847 17.7697C13.7143 17.7697 15.2439 17.7687 16.774 17.7707C17.142 17.7707 17.357 17.9549 17.3625 18.2623C17.367 18.4982 17.2547 18.6551 17.0342 18.7336C16.9076 18.7788 16.7755 18.7808 16.6424 18.7808C13.682 18.7803 10.7222 18.7803 7.76179 18.7808C7.62919 18.7808 7.49709 18.7803 7.36896 18.7396C7.14201 18.668 7.00146 18.4595 7.02381 18.2285C7.04715 17.9882 7.21004 17.8104 7.44743 17.7786C7.53682 17.7667 7.62919 17.7702 7.72008 17.7702C9.20845 17.7702 10.6968 17.7702 12.1852 17.7702L12.1847 17.7697Z" fill="currentColor"/>
<path d="M11.491 20.5582C12.7406 20.5582 13.9896 20.5582 15.2391 20.5587C15.3379 20.5587 15.4392 20.5557 15.536 20.5726C15.77 20.6138 15.9587 20.8318 15.9661 21.0548C15.9741 21.2937 15.8201 21.5052 15.5763 21.5643C15.4571 21.5931 15.3309 21.6016 15.2078 21.6016C12.7425 21.6036 10.2768 21.6036 7.81157 21.6016C7.67996 21.6016 7.54538 21.5941 7.41824 21.5653C7.17142 21.5092 7.0135 21.2967 7.02392 21.0613C7.03386 20.8298 7.21314 20.6163 7.44754 20.5731C7.54389 20.5552 7.6452 20.5582 7.74403 20.5582C8.99353 20.5572 10.2425 20.5577 11.492 20.5577L11.491 20.5582Z" fill="currentColor"/>
<path d="M11.4819 27.1822C9.57984 27.1822 7.67727 27.1817 5.77521 27.1822C5.54179 27.1822 5.32874 27.1484 5.20558 26.914C5.05858 26.6354 5.18869 26.3032 5.49312 26.2182C5.61827 26.1835 5.75435 26.1745 5.88546 26.1745C9.60715 26.1725 13.3288 26.1725 17.0505 26.174C17.1821 26.174 17.3162 26.181 17.4449 26.2063C17.6763 26.252 17.8486 26.4621 17.8481 26.6761C17.8471 26.9095 17.6748 27.1216 17.4354 27.1658C17.3306 27.1852 17.2214 27.1817 17.1141 27.1817C15.2369 27.1827 13.3591 27.1822 11.4819 27.1817V27.1822Z" fill="currentColor"/>
</g>
<defs>
<clipPath id="clip0_459_4151">
<rect width="22.0426" height="30" fill="currentColor" transform="translate(0.478516)"/>
</clipPath>
</defs>
</svg>
