<svg width="39" height="38" viewBox="0 0 39 38" fill="none" xmlns="http://www.w3.org/2000/svg">
<rect x="0.341797" width="38" height="38" rx="19" fill="#E6F1FF"/>
<path d="M18.5918 13H13.3418C12.944 13 12.5624 13.158 12.2811 13.4393C11.9998 13.7206 11.8418 14.1022 11.8418 14.5V25C11.8418 25.3978 11.9998 25.7794 12.2811 26.0607C12.5624 26.342 12.944 26.5 13.3418 26.5H23.8418C24.2396 26.5 24.6212 26.342 24.9025 26.0607C25.1838 25.7794 25.3418 25.3978 25.3418 25V19.75" stroke="#0E60BF" stroke-width="1.5" stroke-linecap="round" stroke-linejoin="round"/>
<path d="M24.2168 11.8742C24.5152 11.5758 24.9198 11.4082 25.3418 11.4082C25.7638 11.4082 26.1684 11.5758 26.4668 11.8742C26.7652 12.1726 26.9328 12.5772 26.9328 12.9992C26.9328 13.4211 26.7652 13.8258 26.4668 14.1242L19.3418 21.2492L16.3418 21.9992L17.0918 18.9992L24.2168 11.8742Z" stroke="#0E60BF" stroke-width="1.5" stroke-linecap="round" stroke-linejoin="round"/>
</svg>
