<svg width="32" height="32" viewBox="0 0 32 32" fill="none" xmlns="http://www.w3.org/2000/svg">
<rect width="32" height="32" rx="16" fill="#0E60BF"/>
<path fill-rule="evenodd" clip-rule="evenodd" d="M22.1195 10.7543V9.00566H23.8682V10.7543H25.6168V12.5029H23.8682V14.2516H22.1195V12.5029H20.3709V10.7543H22.1195ZM11.5727 10.6191C11.6346 10.533 11.7034 10.4276 11.7911 10.2854C11.8403 10.2058 12.0197 9.90906 12.049 9.86111C12.7738 8.67551 13.3007 8.13135 14.2507 8.13135H18.6223V9.87998H14.2507C14.1749 9.87998 13.9364 10.1263 13.5409 10.7732C13.5155 10.8147 13.3335 11.1158 13.2792 11.2038C13.1717 11.378 13.0824 11.5148 12.9922 11.6402C12.6003 12.185 12.2086 12.5029 11.6277 12.5029H9.00479C8.52191 12.5029 8.13047 12.8944 8.13047 13.3772V21.2461C8.13047 21.729 8.52191 22.1204 9.00479 22.1204H22.9939C23.4767 22.1204 23.8682 21.729 23.8682 21.2461V16.0002H25.6168V21.2461C25.6168 22.6947 24.4425 23.8691 22.9939 23.8691H9.00479C7.55617 23.8691 6.38184 22.6947 6.38184 21.2461V13.3772C6.38184 11.9286 7.55617 10.7543 9.00479 10.7543H11.467C11.4961 10.721 11.5318 10.6759 11.5727 10.6191ZM15.9993 21.2461C13.585 21.2461 11.6277 19.2889 11.6277 16.8745C11.6277 14.4602 13.585 12.5029 15.9993 12.5029C18.4137 12.5029 20.3709 14.4602 20.3709 16.8745C20.3709 19.2889 18.4137 21.2461 15.9993 21.2461ZM15.9993 19.4975C17.4479 19.4975 18.6223 18.3231 18.6223 16.8745C18.6223 15.4259 17.4479 14.2516 15.9993 14.2516C14.5507 14.2516 13.3764 15.4259 13.3764 16.8745C13.3764 18.3231 14.5507 19.4975 15.9993 19.4975Z" fill="white"/>
</svg>
