<svg width="16" height="17" viewBox="0 0 16 17" fill="none" xmlns="http://www.w3.org/2000/svg">
<path d="M12.8566 16.5C12.5328 16.46 12.2852 16.3168 12.0691 16.0994C10.8029 14.8279 9.52806 13.5649 8.26969 12.2849C8.04639 12.0576 7.91766 12.0636 7.69765 12.2875C6.45438 13.5511 5.19667 14.8003 3.94356 16.0541C3.35706 16.6412 2.90915 16.6412 2.31412 16.0495C1.67048 15.4091 1.02816 14.7668 0.389127 14.1212C-0.119212 13.6076 -0.122496 13.094 0.393068 12.5739C1.64881 11.3076 2.90652 10.042 4.17671 8.79023C4.40921 8.56101 4.42431 8.429 4.18262 8.19125C2.93345 6.96441 1.70201 5.71983 0.465969 4.48051C-0.142856 3.86971 -0.157305 3.43099 0.435757 2.82217C1.09975 2.1411 1.77425 1.46988 2.45138 0.802604C2.88156 0.378332 3.41158 0.401976 3.87328 0.862371C4.98191 1.96706 6.08528 3.07634 7.19062 4.18365C7.36861 4.36163 7.55907 4.52911 7.72063 4.72089C7.90781 4.94287 8.04639 4.92908 8.24933 4.72351C9.49457 3.46186 10.7536 2.21334 12.0047 0.958258C12.2103 0.752033 12.4297 0.57799 12.7292 0.542524C13.0201 0.508373 13.2736 0.599006 13.4792 0.801291C14.218 1.52965 14.9615 2.25472 15.6846 2.99818C16.0918 3.41654 16.0471 3.94393 15.5979 4.39447C14.3927 5.60293 13.1804 6.80481 11.9772 8.01589C11.4274 8.56889 11.4274 8.40864 11.987 8.97215C13.1817 10.176 14.3849 11.3713 15.5828 12.5719C16.0826 13.0724 16.0912 13.58 15.592 14.091C14.9044 14.7951 14.2062 15.4886 13.51 16.1835C13.3262 16.3667 13.0956 16.4613 12.8553 16.5H12.8566ZM3.10552 2.81888C3.07268 2.84318 3.02671 2.87011 2.98862 2.90689C2.82377 3.06649 2.6714 3.24119 2.49473 3.38633C2.26486 3.57548 2.29901 3.71603 2.49932 3.91372C3.76163 5.15632 5.01475 6.40813 6.26721 7.66124C6.85633 8.25102 6.85567 8.74097 6.27115 9.32746C5.12771 10.4742 3.98231 11.6183 2.83493 12.761C2.23596 13.3574 2.24318 13.3456 2.83953 13.9564C3.05823 14.1803 3.19024 14.1889 3.41617 13.9597C4.64302 12.7111 5.88497 11.4777 7.12429 10.241C7.23988 10.1261 7.3581 10.0052 7.49668 9.92315C7.90059 9.6854 8.3577 9.7583 8.72352 10.1222C10.0108 11.4029 11.2967 12.6855 12.5735 13.9767C12.7712 14.1764 12.9137 14.2158 13.1002 13.98C13.2079 13.8434 13.3347 13.7173 13.472 13.6102C13.7104 13.4244 13.6664 13.2819 13.4674 13.0855C12.2142 11.8475 10.9716 10.599 9.72575 9.35373C9.10182 8.7298 9.11298 8.24117 9.74283 7.61724C11.0019 6.372 12.253 5.11889 13.51 3.87103C13.6578 3.72457 13.715 3.60241 13.5179 3.44281C13.3662 3.32 13.2263 3.17551 13.1081 3.01986C12.9124 2.76306 12.7659 2.82085 12.563 3.02642C11.2784 4.32551 9.98452 5.61606 8.68806 6.90333C8.2651 7.323 7.71801 7.31578 7.2852 6.90727C7.22149 6.8475 7.15844 6.78642 7.0967 6.72469C5.85935 5.48668 4.62266 4.24736 3.38465 3.01C3.30912 2.93448 3.24476 2.83924 3.10618 2.81888H3.10552Z" fill="#8A2424"/>
</svg>
