<svg width="32" height="32" viewBox="0 0 32 32" fill="none" xmlns="http://www.w3.org/2000/svg">
<g clip-path="url(#clip0_842_4065)">
<path d="M16.1054 27.5149L16.451 27.6732C16.6747 27.1849 16.8533 26.819 17.1118 26.5141C17.2254 26.3802 17.329 26.3331 17.4641 26.3333L17.4642 26.3333C18.9539 26.3353 20.4438 26.3358 21.9338 26.3333L16.1054 27.5149ZM16.1054 27.5149L15.6441 27.8197L15.6431 27.8187L15.397 27.5729L15.4506 27.456C15.2945 27.1047 15.1185 26.8071 14.9084 26.5326L14.9083 26.5325C14.7986 26.389 14.6854 26.3328 14.5151 26.3333L14.5147 26.3333C13.0326 26.3368 11.5509 26.3368 10.0692 26.3333L10.0689 26.3333C9.90534 26.3328 9.79343 26.3879 9.67955 26.5373C9.46833 26.8152 9.2932 27.1035 9.16216 27.4113C9.16186 27.4123 9.15988 27.418 9.1538 27.4351C9.1468 27.4548 9.13048 27.5006 9.10446 27.5498C9.07836 27.5991 9.02978 27.677 8.94447 27.745C8.85078 27.8196 8.73416 27.8651 8.60698 27.8702L8.587 27.3706L8.60845 27.8701C8.48479 27.8754 8.35526 27.8426 8.24348 27.7609C8.14207 27.6867 8.08845 27.5963 8.06171 27.5424C8.03669 27.4919 8.02136 27.4439 8.01581 27.4265L8.01514 27.4244C8.01363 27.4197 8.01247 27.4161 8.01161 27.4135C7.8748 27.1052 7.71081 26.8197 7.51279 26.5574C7.38882 26.3938 7.26616 26.3315 7.08274 26.3323L7.08251 26.3323C5.60817 26.3378 4.13462 26.3368 2.66107 26.3328L2.66102 26.3328C2.48849 26.3323 2.36856 26.3914 2.23561 26.5663L2.23538 26.5666C1.74271 27.2135 1.49425 27.9818 1.28217 28.8459L1.28213 28.846C1.10905 29.5504 1.04228 30.2593 0.971596 31.0099C0.956386 31.1714 0.940995 31.3348 0.924324 31.5005H0.945082H1.0048H1.06452H1.12424H1.18396H1.24368H1.30339H1.36311H1.42283H1.48255H1.54227H1.60199H1.66171H1.72143H1.78115H1.84087H1.90058H1.9603H2.02002H2.07974H2.13946H2.19918H2.2589H2.31862H2.37834H2.43806H2.49777H2.55749H2.61721H2.67693H2.73665H2.79637H2.85609H2.91581H2.97553H3.03525H3.09497H3.15469H3.2144H3.27412H3.33384H3.39356H3.45328H3.513H3.57272H3.63244H3.69216H3.75188H3.8116H3.87132H3.93104H3.99076H4.05047H4.11019H4.16991H4.22963H4.28935H4.34907H4.40879H4.46851H4.52823H4.58795H4.64767H4.70739H4.76711H4.82683H4.88655H4.94627H5.00599H5.06571H5.12542H5.18514H5.24486H5.30458H5.3643H5.42402H5.48374H5.54346H5.60318H5.6629H5.72262H5.78234H5.84206H5.90178H5.9615H6.02122H6.08094H6.14066H6.20038H6.2601H6.31982H6.37954H6.43926H6.49898H6.55869H6.61841H6.67813H6.73785H6.79757H6.85729H6.91701H6.97673H7.03645H7.09617H7.15589H7.21561H7.27533H7.33505H7.39477H7.45449H7.51421H7.57393H7.63365H7.69337H7.75309H7.81281H7.87253H7.93225H7.99197H8.05169H8.11141H8.17113H8.23085H8.29057H8.35029H8.41001H8.46973H8.52945H8.58917H8.64889H8.70861H8.76833H8.82805H8.88777H8.94749H9.00721H9.06693H9.12665H9.18637H9.24609H9.30581H9.36553H9.42525H9.48497H9.54469H9.60441H9.66413H9.72385H9.78357H9.84329H9.90301H9.96273H10.0224H10.0822H10.1419H10.2016H10.2613H10.321H10.3808H10.4405H10.5002H10.5599H10.6196H10.6794H10.7391H10.7988H10.8585H10.9182H10.978H11.0377H11.0974H11.1571H11.2168H11.2766H11.3363H11.396H11.4557H11.5154H11.5752H11.6349H11.6946H11.7543H11.814H11.8738H11.9335H11.9932H12.0529H12.1126H12.1724H12.2321H12.2918H12.3515H12.4113H12.471H12.5307H12.5904H12.6501H12.7099H12.7696H12.8293H12.889H12.9487H13.0085H13.0682H13.1279H13.1876H13.2473H13.3071H13.3668H13.4265H13.4862H13.5459H13.6057H13.6654H13.7251H13.7848H13.8445H13.9043H13.964H14.0237H14.0834H14.1431H14.2029H14.2626H14.3223H14.382H14.4417H14.5015H14.5612H14.6209H14.6806H14.7403H14.8001H14.8598H14.9195H14.9792H15.0389H15.0987H15.1584H15.2181H15.2778H15.3375H15.3973H15.457H15.5167H15.5764H15.6361H15.6959H15.7556H15.8153H15.875H15.9347H15.9945H16.0542H16.1139H16.1736H16.2333H16.2931H16.3528H16.4125H16.4722H16.5319H16.5917H16.6514H16.7111H16.7708H16.8305H16.8903H16.95H17.0097H17.0694H17.1291H17.1889H17.2486H17.3083H17.368H17.4277H17.4875H17.5472H17.6069H17.6666H17.7264H17.7861H17.8458H17.9055H17.9652H18.025H18.0847H18.1444H18.2041H18.2638H18.3236H18.3833H18.443H18.5027H18.5624H18.6222H18.6819H18.7416H18.8013H18.861H18.9208H18.9805H19.0402H19.0999H19.1596H19.2194H19.2791H19.3388H19.3985H19.4582H19.518H19.5777H19.6374H19.6971H19.7568H19.8166H19.8763H19.936H19.9957H20.0554H20.1152H20.1749H20.2346H20.2943H20.354H20.4138H20.4735H20.5332H20.5929H20.6526H20.7124H20.7721H20.8318H20.8915H20.9512H21.011H21.0707H21.1304H21.1901H21.2498H21.3096H21.3693H21.429H21.4887H21.5484H21.6082H21.6679H21.7276H21.7873H21.847H21.9068H21.9665H22.0262H22.0859H22.1456H22.2054H22.2651H22.3248H22.3845H22.4442H22.504H22.5637H22.6234H22.6831H22.7428H22.8026H22.8623H22.922H22.9817H23.0414H23.1012H23.1609H23.2206H23.2803H23.34H23.3998H23.4595H23.5192H23.5789H23.6386H23.6984H23.7581H23.8178H23.8775H23.9372H23.997H24.0567H24.1164H24.1761H24.2358H24.2956H24.3553H24.415H24.4747H24.5344H24.5942H24.6539H24.7136H24.7733H24.833H24.8928H24.9525H25.0122H25.0719H25.1316H25.1914H25.2511H25.3108H25.3705H25.4302H25.49H25.5497H25.6094H25.6691H25.7288H25.7885H25.8483H25.908H25.9677H26.0274H26.0871H26.1469H26.2066H26.2663H26.326H26.3857H26.4455H26.5052H26.5649H26.6246H26.6843H26.7441H26.8038H26.8635H26.9232H26.9829H27.0427H27.1024H27.1621H27.2218H27.2815H27.3413H27.401H27.4607H27.5204H27.5801H27.6399H27.6996H27.7593H27.819H27.8787H27.9385H27.9982H28.0579H28.1176H28.1773H28.237H28.2968H28.3565H28.4162H28.4759H28.5356H28.5954H28.6551H28.7148H28.7745H28.8342H28.894H28.9537H29.0134H29.0731H29.1328H29.1926H29.2523H29.312H29.3717H29.4314H29.4912H29.5509H29.6106H29.6703H29.73H29.7897H29.8495H29.9092H29.9689H30.0286H30.0883H30.1481H30.2078H30.2675H30.3272H30.3869H30.4467H30.5064H30.5661H30.6258H30.6855H30.7453H30.805H30.8647H30.9244H30.9841H31.0438H31.0753C31.0609 31.3564 31.0485 31.2136 31.0366 31.0739L31.0322 31.0219C31.016 30.8318 31.0003 30.6478 30.9808 30.4644C30.8788 29.5103 30.7015 28.5916 30.387 27.711L30.3869 27.7108C30.2252 27.2572 30.0096 26.848 29.7149 26.4999L29.7148 26.4998C29.611 26.3772 29.515 26.3348 29.4034 26.3348H29.4032C28.7548 26.3346 28.1059 26.3346 27.4569 26.3347C26.5914 26.3348 25.7256 26.3349 24.8604 26.3343C24.733 26.3343 24.6408 26.3785 24.5542 26.4847C24.4393 26.6269 24.3367 26.7861 24.217 26.9724L24.2165 26.9732C24.0975 27.1575 24.0072 27.3658 23.8805 27.6636L23.427 28.7304L22.9623 27.6684C22.7604 27.2068 22.5698 26.8432 22.3174 26.5303C22.2002 26.3852 22.09 26.3331 21.9339 26.3333L16.1054 27.5149Z" fill="currentColor"/>
<path d="M11.4415 7.03048C11.8075 6.5926 12.2005 6.23761 12.7562 6.1008C12.879 6.07034 12.8845 5.957 12.902 5.86164C13.0008 5.31891 12.9928 4.76819 13.0093 4.22097C13.0353 3.36419 13.0687 2.5129 13.26 1.6706C13.4826 0.688495 14.4972 -0.302097 15.8038 0.0908448C15.9362 0.130788 16.0625 0.130289 16.1953 0.0898462C17.4425 -0.288616 18.4186 0.608609 18.6862 1.47438C18.9054 2.18387 18.9484 2.91333 18.9713 3.64329C18.9963 4.42518 19.0397 5.20407 19.1161 5.98197C19.1306 6.13176 19.1965 6.22363 19.3178 6.30052C19.8865 6.6615 20.4467 7.03597 21.0209 7.38797C21.2845 7.54924 21.3924 7.76493 21.3385 8.05502C21.303 8.24575 21.3574 8.39054 21.4703 8.53833C22.3336 9.67072 23.0056 10.909 23.5044 12.2416C23.7316 12.8477 23.6332 13.4229 23.2882 13.9551C23.1903 14.1054 23.1704 14.2297 23.2363 14.3935C23.452 14.9322 23.5144 15.5034 23.5618 16.0751C23.5948 16.4726 23.6287 16.871 23.6102 17.2709C23.6027 17.4327 23.6781 17.4916 23.8354 17.4896C24.2348 17.4846 24.6343 17.4941 25.0337 17.4866C25.2249 17.4831 25.3073 17.5605 25.3068 17.7502C25.3043 18.4328 25.3038 19.1148 25.3083 19.7973C25.3093 19.9556 25.2379 20.0634 25.1216 20.1573C24.5779 20.5952 24.2184 21.1534 24.0696 21.8359C24.0182 22.0731 23.9173 22.1819 23.6657 22.159C23.4595 22.1395 23.2498 22.1525 23.042 22.154C22.9042 22.155 22.8274 22.0961 22.8039 21.9548C22.7639 21.7156 22.6885 21.4869 22.5757 21.2712C22.5198 21.1644 22.4958 21.0645 22.6626 21.0286C22.8338 20.9916 22.8269 20.8363 22.8508 20.7105C22.9537 20.1793 23.0041 19.641 23.0455 19.1028C23.104 18.3489 23.1649 17.593 23.1489 16.8365C23.1364 16.2469 23.103 15.6567 22.9966 15.0745C22.9786 14.9767 22.9592 14.8778 22.9287 14.7835C22.8418 14.5168 22.8124 14.5093 22.5762 14.6506C22.3331 14.7959 22.0824 14.9268 21.8133 15.0181C21.6221 15.083 21.4937 15.2093 21.4004 15.3906C21.2481 15.6862 21.0853 15.9768 20.9116 16.2604C20.7174 16.5779 20.5236 16.5674 20.3534 16.2429C20.238 16.0232 20.1247 15.802 20.0144 15.5888C19.9579 15.5833 19.9474 15.6158 19.9345 15.6452C19.7048 16.1725 19.211 16.4022 18.6922 16.2234C18.2169 16.0596 17.9543 15.5249 18.1016 15.0016C18.2369 14.5208 18.4611 14.0864 18.8415 13.7524C18.9893 13.6231 18.9993 13.5158 18.8974 13.349C18.7132 13.0469 18.7322 12.967 19.0318 12.7873C19.214 12.6779 19.2784 12.5436 19.2619 12.3374C19.2345 11.9904 19.2255 11.6419 19.207 11.2505C19.0377 11.3553 18.8989 11.4367 18.7641 11.5251C17.6937 12.2296 16.5258 12.7289 15.329 13.1687C14.4153 13.5048 13.4647 13.722 12.543 14.032C12.4107 14.0765 12.3188 14.0106 12.2219 13.9456C11.8125 13.669 11.3696 13.5068 10.8669 13.5128C9.79638 13.5257 9.18775 14.025 9.00251 15.074C8.7973 16.2374 8.85672 17.4092 8.91464 18.5801C8.94809 19.2536 9.03796 19.9207 9.13582 20.5867C9.16378 20.7774 9.13133 20.9951 9.40444 21.057C9.5043 21.0795 9.45786 21.1814 9.4314 21.2488C9.33454 21.4964 9.2207 21.7376 9.18126 22.0047C9.16528 22.114 9.0799 22.151 8.97905 22.1515C8.71292 22.153 8.4463 22.152 8.18018 22.1515C8.06135 22.1515 7.99994 22.0856 7.97547 21.9732C7.81121 21.2243 7.44772 20.5967 6.84059 20.1189C6.74722 20.0455 6.71976 19.9471 6.72026 19.8323C6.72225 19.1333 6.72425 18.4343 6.71926 17.7353C6.71776 17.551 6.79615 17.4846 6.9744 17.4876C7.34038 17.4941 7.70685 17.4776 8.07233 17.4931C8.307 17.5031 8.39288 17.4297 8.39238 17.1845C8.38988 16.4606 8.45779 15.7401 8.57562 15.0251C8.62755 14.7106 8.73439 14.4125 8.8727 14.1279C9.21072 13.4334 9.8533 13.2107 10.5448 13.1118C10.9992 13.0469 11.4595 13.0824 11.8884 13.2891C12.0662 13.375 12.1286 13.3335 12.0881 13.1268C12.0307 12.8332 11.9883 12.5366 11.9548 12.2391C11.9313 12.0324 11.837 11.967 11.6283 11.9675C10.9028 11.9695 10.2053 11.8277 9.56272 11.4782C8.94959 11.1446 8.5861 10.6568 8.57162 9.92536C8.55615 9.14447 8.52219 8.36258 8.45928 7.58419C8.41884 7.08889 8.32098 6.59659 8.22861 6.10729C8.19017 5.90308 8.19067 5.71984 8.26656 5.52462C8.42034 5.12718 8.61157 4.74972 8.84474 4.39522C8.95358 4.22996 8.97655 4.0622 8.95508 3.87397C8.90415 3.4276 8.88168 2.97924 8.87469 2.52988C8.8712 2.29221 8.97605 2.15042 9.18725 2.07802C9.41542 1.99963 9.64959 1.93173 9.89275 1.93173C10.061 1.93173 10.1029 1.86682 10.091 1.70455C10.067 1.38151 10.069 1.05647 10.055 0.731933C10.044 0.475298 10.1529 0.310033 10.3551 0.29106C10.5538 0.272087 10.7116 0.419877 10.7281 0.671519C10.7685 1.30212 10.798 1.93323 10.8309 2.56383C10.8404 2.74657 10.8494 2.92931 10.8544 3.11205C10.8604 3.33074 10.9103 3.51148 11.137 3.61783C11.2788 3.68424 11.3362 3.82953 11.3417 3.9933C11.3726 4.9075 11.4076 5.8212 11.44 6.7349C11.4435 6.83376 11.44 6.93262 11.44 7.03148L11.4415 7.03048ZM18.1195 7.39945C18.0312 7.4334 18.0057 7.4384 17.9862 7.45138C17.1659 8.0011 16.2572 8.11144 15.3095 7.96065C14.4343 7.82135 13.7243 7.38747 13.1965 6.66749C13.1222 6.56564 13.0587 6.49624 12.897 6.50822C12.2414 6.55765 11.2698 7.79339 11.5983 8.46044C11.6587 8.58277 11.6657 8.73406 11.6857 8.87336C11.7022 8.99169 11.6577 9.09404 11.5339 9.126C11.4031 9.15995 11.3187 9.07207 11.2918 8.96373C11.2159 8.65766 11.098 8.36208 11.0721 8.04404C11.0251 7.47185 11.0251 6.89817 11.0142 6.32448C11.0097 6.09581 10.9812 5.86813 10.9632 5.63946L10.8748 5.57704C10.8134 5.66392 10.762 5.75929 10.6896 5.83518C10.4425 6.09431 10.1723 6.32748 9.87028 6.5232C9.77691 6.58361 9.68604 6.6615 9.59517 6.52719C9.5063 6.39588 9.60316 6.33147 9.69653 6.26956C10.081 6.01492 10.3965 5.68389 10.7181 5.35786C10.9053 5.16813 11.0072 4.95693 10.9582 4.68681C10.9452 4.61391 10.9602 4.51605 10.8918 4.4821C10.798 4.43517 10.749 4.53852 10.6896 4.58995C10.0995 5.10372 9.50729 5.61449 8.78083 5.93304C8.67248 5.98047 8.6615 6.04937 8.68147 6.15223C8.73689 6.43782 8.79181 6.72341 8.83275 7.011C8.96856 7.95966 8.92912 8.91829 8.99153 9.87194C9.02947 10.4546 9.28062 10.862 9.79738 11.1162C10.6706 11.5456 11.6013 11.5945 12.5485 11.5271C12.6393 11.5206 12.7402 11.4797 12.8186 11.5261C13.0293 11.6524 13.221 11.567 13.4147 11.4951C14.9061 10.9439 16.1653 10.0622 17.1694 8.82792C17.5189 8.39853 17.8449 7.94967 18.12 7.39945H18.1195ZM20.8961 7.98362C20.9011 7.86279 20.8522 7.75944 20.7338 7.73647C20.615 7.71351 20.627 7.84132 20.599 7.90973C20.3843 8.43748 20.0957 8.92229 19.7387 9.36416C18.4091 11.0098 16.6187 11.941 14.668 12.621C14.5631 12.6575 14.4697 12.663 14.4208 12.5386C14.3684 12.4048 14.4598 12.3599 14.5596 12.324C14.958 12.1797 15.355 12.0334 15.7444 11.8656C16.9237 11.3583 18.0027 10.6993 18.9169 9.79055C19.4996 9.21138 19.9794 8.5588 20.2984 7.79489C20.3823 7.59318 20.3559 7.45987 20.1557 7.34153C19.8411 7.1558 19.5385 6.94959 19.2375 6.74189C19.0572 6.61756 18.9663 6.63704 18.873 6.85373C18.4686 7.79189 17.9273 8.64967 17.2438 9.4081C15.9841 10.8046 14.4403 11.7368 12.6054 12.1717C12.4281 12.2136 12.3762 12.2885 12.4182 12.4682C12.4836 12.7508 12.538 13.0379 12.5714 13.3255C12.5949 13.5257 12.6928 13.5267 12.8436 13.4848C14.3664 13.0604 15.8712 12.5846 17.2877 11.8686C18.3397 11.3369 19.3333 10.7197 20.1012 9.80154C20.5416 9.27529 20.8626 8.69112 20.8971 7.98362H20.8961ZM23.1973 12.8817C23.2123 12.7084 23.1559 12.5501 23.099 12.3944C22.6591 11.1836 22.048 10.0647 21.3005 9.01715C21.1902 8.86237 21.1517 8.92578 21.0918 9.0526C20.7853 9.70018 20.3609 10.2599 19.8126 10.7207C19.6868 10.8266 19.7228 10.9025 19.7937 11.0143C20.0383 11.4003 20.266 11.7962 20.4547 12.2136C20.5416 12.4053 20.4872 12.5347 20.3024 12.6175C20.1811 12.672 20.0588 12.7239 19.9345 12.7718C19.7687 12.8362 19.7248 12.9176 19.8291 13.0889C20.0962 13.5287 20.3484 13.9786 20.598 14.429C20.6554 14.5328 20.7888 14.6671 20.598 14.766C20.4303 14.8524 20.3858 14.6906 20.3274 14.5897C20.0693 14.1444 19.8171 13.695 19.5595 13.2491C19.5216 13.1837 19.4986 13.0594 19.3922 13.1078C19.2749 13.1613 19.3548 13.2651 19.3788 13.348C19.3857 13.372 19.3962 13.3949 19.4077 13.4169C19.7772 14.1514 20.1462 14.8858 20.5186 15.6188C20.5511 15.6827 20.5726 15.787 20.6494 15.788C20.7458 15.789 20.7513 15.6712 20.7922 15.6033C20.8651 15.4825 20.9385 15.3611 21 15.2338C21.1602 14.9013 21.4004 14.6721 21.7659 14.5748C22.0005 14.5123 22.2067 14.3775 22.4089 14.2492C22.9077 13.9332 23.1539 13.4628 23.1988 12.8817H23.1973ZM15.9971 4.4831C16.5443 4.47162 16.8608 4.78217 17.0471 5.25201C17.119 5.43275 17.1914 5.43225 17.3342 5.3304C17.7261 5.05129 17.9842 4.67233 18.1785 4.24194C18.2294 4.1291 18.1939 4.0577 18.0831 4.00228C17.3112 3.61633 16.7026 3.02967 16.1394 2.39307C16.019 2.25726 15.9746 2.27574 15.8623 2.39906C15.2961 3.02068 14.7014 3.61184 13.9365 3.9938C13.7997 4.0622 13.7862 4.15107 13.8411 4.27739C14.0209 4.68831 14.2775 5.03631 14.6375 5.31092C14.8162 5.44723 14.9011 5.44323 14.986 5.21106C15.1697 4.70828 15.5103 4.47811 15.9971 4.4831ZM16.0001 5.75928V5.77127C16.1079 5.76528 16.2163 5.76078 16.3236 5.75379C16.5303 5.74031 16.6052 5.64295 16.5333 5.43874C16.4589 5.22804 16.3351 5.07626 16.1049 5.03282C15.8508 4.98489 15.67 5.09573 15.5342 5.29894C15.348 5.57704 15.4224 5.73482 15.7509 5.75829C15.8338 5.76428 15.9172 5.75928 16.0001 5.75928Z" fill="currentColor"/>
<path d="M14.4379 22.607L14.4382 22.5993C14.4774 21.4849 13.6026 20.4368 12.3308 20.4271C11.0392 20.4173 10.1653 21.3388 10.1368 22.5654L14.4379 22.607ZM14.4379 22.607L14.4379 22.6148M14.4379 22.607L14.4379 22.6148M14.4379 22.6148C14.433 23.7944 13.4828 24.7429 12.2981 24.7466L14.4379 22.6148ZM12.2981 24.7466C11.101 24.7502 10.1095 23.7587 10.1368 22.5655L12.2981 24.7466Z" fill="currentColor"/>
<path d="M19.6876 19.9277C21.2953 19.9187 22.3548 21.1674 22.3673 22.5759M19.6876 19.9277C18.0886 19.9366 17.0282 21.2349 17.0608 22.5933L17.085 22.5933M19.6876 19.9277L19.6904 20.4277M19.6876 19.9277L19.6904 20.4277M22.3673 22.5759L19.6904 20.4277C20.9967 20.4204 21.857 21.4207 21.8673 22.5803L21.8673 22.5805C21.8782 23.7619 20.8979 24.7437 19.7045 24.7461H19.7045C18.5306 24.7485 17.5613 23.7807 17.5608 22.5934C17.5608 22.5933 17.5608 22.5933 17.5608 22.5932L17.085 22.5933M22.3673 22.5759C22.3807 24.0398 21.1715 25.2431 19.7055 25.2461L22.3673 22.5759ZM17.085 22.5933L17.5607 22.5817C17.534 21.4824 18.391 20.435 19.6904 20.4277M17.085 22.5933L19.6904 20.4277" fill="currentColor"/>
<path d="M27.1329 24.7466C28.3656 24.7144 29.2974 23.8018 29.2845 22.5677L29.2845 22.5675C29.2722 21.3636 28.404 20.4394 27.1358 20.4292L27.1329 24.7466ZM27.1329 24.7466C25.9406 24.7481 24.951 23.7545 24.969 22.5936L24.969 22.5936C24.988 21.3578 25.8949 20.4195 27.1357 20.4292L27.1329 24.7466Z" fill="currentColor"/>
<path d="M2.72517 22.6034C2.73452 23.7869 3.69421 24.7466 4.86443 24.7466C6.0688 24.7466 7.03878 23.7837 7.02667 22.583C7.01432 21.3588 6.13266 20.4366 4.89662 20.4297L2.72517 22.6034ZM2.72517 22.6034C2.71615 21.4552 3.57284 20.4224 4.89659 20.4297L7.52664 22.5779C7.54162 24.0628 6.34083 25.2466 4.86443 25.2466C3.41499 25.2466 2.23667 24.0608 2.22518 22.6074L2.72517 22.6034Z" fill="currentColor"/>
<path d="M15.9957 21.5319C16.1035 21.5319 16.2134 21.5174 16.3182 21.5359C16.444 21.5578 16.6502 21.4335 16.6697 21.6811C16.6957 22.0142 16.5778 22.1515 16.2922 22.1535C16.0771 22.155 15.8614 22.158 15.6462 22.152C15.4285 22.146 15.3186 21.9837 15.3271 21.6891C15.3336 21.467 15.5064 21.5438 15.6232 21.5339C15.7465 21.5234 15.8713 21.5314 15.9957 21.5319Z" fill="currentColor"/>
</g>
<defs>
<clipPath id="clip0_842_4065">
<rect width="31.2101" height="32" fill="white" transform="translate(0.39502)"/>
</clipPath>
</defs>
</svg>
