<svg width="30" height="20" viewBox="0 0 30 20" fill="none" xmlns="http://www.w3.org/2000/svg">
<g clip-path="url(#clip0_668_5028)">
<path d="M14.4911 17.0335C14.5864 16.7978 14.6627 16.6053 14.7419 16.4142C15.3364 14.9813 16.309 13.8575 17.5654 12.9676C17.6797 12.8869 17.8036 12.83 17.6442 12.6803C17.1547 12.2214 16.7805 11.677 16.4558 11.0593C16.3843 11.189 16.3299 11.3023 16.2628 11.4073C15.8982 11.9799 15.3466 12.2569 14.702 12.3794C14.2534 12.4645 13.7994 12.4518 13.3459 12.4411C13.2122 12.4382 13.0951 12.4086 13.0936 12.2457C13.0868 11.3635 13.1933 10.5071 13.7984 9.80764C14.2728 9.25887 14.9115 9.04986 15.6178 9.01972C15.975 9.00417 15.9906 8.98278 15.8584 8.63622C15.6178 8.0053 15.417 7.36175 15.4102 6.68126C15.3957 5.19438 15.8501 3.87374 16.8947 2.79419C18.0185 1.63298 19.4169 1.08323 21.0165 0.983105C22.4003 0.897071 23.7127 1.12309 24.9225 1.81768C26.0969 2.49185 26.9295 3.45864 27.3694 4.75255C27.6897 5.69503 27.7694 6.64869 27.5322 7.61985C27.4457 7.97419 27.3096 8.31298 27.173 8.6508C27.0476 8.96091 27.0826 9.00708 27.418 9.01778C28.9885 9.06687 29.7929 10.0351 29.9592 11.52C29.9844 11.7451 29.9908 11.9721 29.9995 12.1981C30.0044 12.323 29.9645 12.4295 29.8158 12.4343C29.1022 12.4572 28.3911 12.4791 27.7164 12.1704C27.2046 11.9361 26.8474 11.5643 26.6301 10.9995C26.4989 11.2245 26.3934 11.4199 26.2748 11.6066C26.0351 11.9838 25.7571 12.3318 25.4363 12.6424C25.3274 12.7478 25.2929 12.8305 25.4426 12.9277C26.4799 13.6033 27.297 14.4953 27.9259 15.55C28.3843 16.3185 28.6896 17.156 28.8509 18.0421C28.9136 18.3843 28.9948 18.7231 28.9933 19.074C28.9924 19.3569 28.8359 19.5523 28.5987 19.5649C28.3853 19.5761 28.1806 19.3909 28.1641 19.128C28.1393 18.7294 28.0567 18.3434 27.9726 17.956C27.8696 17.4782 27.6931 17.0272 27.504 16.579C27.4452 16.439 27.3874 16.388 27.2372 16.4813C26.7968 16.7545 26.3496 17.016 25.9034 17.279C25.7838 17.3494 25.7819 17.4593 25.7819 17.5745C25.7819 18.0931 25.7814 18.6113 25.78 19.1299C25.7795 19.3452 25.6584 19.4789 25.4674 19.5465C25.2886 19.6101 25.152 19.5153 25.0416 19.387C24.9648 19.2981 24.9483 19.1804 24.9478 19.0662C24.9459 18.4504 24.9498 17.835 24.9449 17.2192C24.9425 16.9266 25.1121 16.7691 25.3444 16.6344C25.8276 16.3545 26.2991 16.0546 26.7827 15.776C26.949 15.6803 26.9742 15.6025 26.8571 15.4426C26.267 14.6352 25.553 13.9635 24.7096 13.4274C24.6085 13.3632 24.524 13.3579 24.4195 13.4225C23.3632 14.0763 22.2069 14.329 20.9801 14.2182C20.1659 14.1448 19.3935 13.8964 18.6912 13.4667C18.5264 13.3661 18.4156 13.3749 18.2561 13.4789C17.4663 13.9941 16.8048 14.6382 16.2463 15.395C16.116 15.5719 16.1165 15.673 16.3197 15.7892C16.8048 16.0657 17.2724 16.3724 17.7584 16.6466C18.0296 16.7992 18.1541 17.0014 18.1478 17.3125C18.1366 17.8632 18.1448 18.4139 18.1439 18.9651C18.1439 19.0375 18.1414 19.1114 18.1288 19.1829C18.0885 19.4142 17.8989 19.58 17.6986 19.5654C17.4945 19.5503 17.3156 19.3671 17.3117 19.1372C17.303 18.6268 17.3035 18.1164 17.3098 17.6061C17.3122 17.4233 17.2485 17.3106 17.0842 17.2182C16.6609 16.9805 16.2472 16.7253 15.8326 16.4716C15.7184 16.4016 15.6567 16.404 15.5945 16.5406C15.2455 17.3062 15.0185 18.1043 14.9446 18.9423C14.9101 19.3326 14.7555 19.563 14.4955 19.562C14.234 19.561 14.0867 19.336 14.0478 18.9457C13.9647 18.1092 13.7382 17.3106 13.3901 16.545C13.3328 16.4186 13.2745 16.3943 13.1515 16.4701C12.7106 16.7419 12.2654 17.0077 11.8187 17.2702C11.6904 17.3455 11.6836 17.4588 11.6836 17.5837C11.6836 18.0941 11.6836 18.6045 11.6802 19.1148C11.6792 19.3156 11.5747 19.4458 11.3924 19.5246C11.233 19.5931 11.1071 19.5256 10.9904 19.4327C10.8806 19.3447 10.8529 19.2125 10.8519 19.0818C10.8475 18.4416 10.849 17.802 10.85 17.1618C10.85 16.8959 11.0313 16.7652 11.234 16.6451C11.7215 16.3569 12.2027 16.0575 12.6941 15.7756C12.8696 15.6749 12.8686 15.5889 12.7553 15.4392C12.1653 14.6561 11.4794 13.9781 10.6473 13.4517C10.5131 13.3671 10.4081 13.353 10.2706 13.4366C9.35968 13.9883 8.36179 14.2469 7.30508 14.2182C6.35434 14.1924 5.4488 13.9475 4.62881 13.4463C4.46549 13.3462 4.34105 13.3545 4.18551 13.4565C3.37719 13.9863 2.69037 14.6391 2.12654 15.4251C2.0162 15.5787 2.01231 15.6628 2.1873 15.7644C2.68406 16.0526 3.16672 16.3661 3.66639 16.6495C3.9279 16.7978 4.05476 16.9922 4.0499 17.294C4.04115 17.8608 4.04844 18.428 4.04747 18.9953C4.04747 19.0599 4.0431 19.125 4.03094 19.1882C3.98817 19.4167 3.79472 19.5829 3.5964 19.5654C3.39274 19.5479 3.21921 19.3637 3.21533 19.1318C3.20706 18.6458 3.20317 18.1597 3.21435 17.6736C3.2197 17.4466 3.15408 17.3033 2.9407 17.19C2.52706 16.9693 2.12994 16.7161 1.73039 16.4697C1.60791 16.3938 1.55395 16.4201 1.49562 16.5479C1.14225 17.3208 0.918178 18.1267 0.842352 18.9739C0.833117 19.0779 0.822423 19.1873 0.784024 19.2825C0.706254 19.4726 0.553629 19.5912 0.346079 19.5523C0.142417 19.5144 0 19.3885 0 19.1503C0 18.5029 0.15068 17.8802 0.329553 17.2663C0.744653 15.8387 1.53597 14.6425 2.62427 13.6378C2.89841 13.3846 3.18908 13.1508 3.50308 12.9505C3.66542 12.847 3.70188 12.778 3.54779 12.6268C2.61601 11.7111 2.04293 10.6121 1.88837 9.30602C1.85774 9.04597 1.74643 8.80828 1.67158 8.56088C1.18017 6.94228 0.952689 5.28965 1.03969 3.5996C1.07955 2.82432 1.15878 2.05099 1.23072 1.27766C1.26474 0.911653 1.58992 0.750279 1.90392 0.940331C2.73558 1.44244 3.61293 1.44195 4.50437 1.16538C5.20577 0.947622 5.87362 0.631193 6.61438 0.529605C8.44491 0.278795 10.2001 0.494608 11.8561 1.33647C12.6251 1.72727 13.2419 2.29208 13.6137 3.08777C13.7581 3.39691 13.8538 3.72646 13.8645 4.07011C13.9078 5.45005 13.6862 6.79403 13.3167 8.12001C13.187 8.58566 13.0402 9.04451 12.9663 9.53009C12.7821 10.7443 12.2168 11.7777 11.3341 12.6322C11.2053 12.7571 11.2106 12.8402 11.3555 12.9364C12.3631 13.6072 13.1646 14.4748 13.796 15.5034C14.0424 15.9048 14.2242 16.3379 14.391 16.7773C14.4187 16.8498 14.4473 16.9217 14.4911 17.034V17.0335ZM12.4656 7.88038C12.5036 7.85316 12.522 7.84684 12.5279 7.83421C12.5449 7.79775 12.5604 7.75984 12.5701 7.72095C12.8545 6.56314 13.0601 5.39464 13.0309 4.19552C13.0217 3.82027 12.9094 3.48051 12.7101 3.16749C12.3247 2.56379 11.7555 2.19049 11.1188 1.90177C10.3809 1.56736 9.60126 1.40841 8.80022 1.318C7.62103 1.18482 6.47245 1.28884 5.37103 1.74283C4.33911 2.16813 3.29455 2.35624 2.20431 1.99169C2.06189 1.94406 2.0162 1.98878 2.0094 2.13071C1.99627 2.40533 1.98363 2.68093 1.94815 2.95313C1.74012 4.54937 1.92045 6.11596 2.29569 7.66846C2.31124 7.73311 2.2918 7.83421 2.38707 7.84587C2.45949 7.85462 2.48331 7.76859 2.51879 7.71804C2.92223 7.14156 3.32177 6.56169 3.72715 5.98618C3.97845 5.6299 4.10337 5.5881 4.50534 5.73391C5.11536 5.95556 5.73898 6.12374 6.37961 6.22776C6.9556 6.32157 7.52673 6.37358 8.11584 6.28268C8.89501 6.16263 9.65424 5.98424 10.396 5.71933C10.7474 5.59393 10.8952 5.64885 11.1013 5.94292C11.3472 6.29435 11.5922 6.64626 11.8391 6.9972C12.0467 7.29224 12.2566 7.58583 12.4661 7.8799L12.4656 7.88038ZM7.48298 13.3856C7.6988 13.4011 7.95252 13.3389 8.20771 13.3C10.3027 12.9826 11.9592 11.2503 12.1764 9.16214C12.1934 9.00077 12.1444 8.88119 12.0578 8.7587C11.5956 8.10446 11.129 7.45313 10.6798 6.79014C10.5564 6.60786 10.4519 6.58016 10.2443 6.65161C9.36892 6.95345 8.46484 7.15809 7.53937 7.16975C6.5303 7.18191 5.54844 6.96463 4.59235 6.64237C4.45917 6.59765 4.34835 6.54856 4.23752 6.71042C3.76798 7.39821 3.28483 8.07724 2.80557 8.7587C2.72877 8.86807 2.68065 8.97889 2.7035 9.11985C2.7628 9.48732 2.8289 9.84992 2.95577 10.2043C3.62945 12.0892 5.35742 13.3248 7.48298 13.3851V13.3856ZM16.2463 6.61953C16.2594 6.99963 16.3386 7.47549 16.5019 7.93822C16.5646 8.11613 16.6521 8.15598 16.8295 8.09377C17.6184 7.81671 18.3869 7.49736 19.0898 7.03706C20.0424 6.41344 20.808 5.63962 21.1341 4.50708C21.1954 4.29419 21.3689 4.19843 21.5872 4.22031C21.801 4.24169 21.9036 4.39286 21.9605 4.58583C22.0946 5.04078 22.3002 5.45977 22.6001 5.82967C23.5625 7.01762 24.8739 7.64124 26.2811 8.11321C26.4439 8.16765 26.493 8.08502 26.5445 7.9567C27.0131 6.79257 26.9062 5.64496 26.3798 4.54305C25.7046 3.13103 24.5186 2.32076 23.0313 1.96787C21.8302 1.68304 20.6262 1.73991 19.4412 2.13654C17.5494 2.77037 16.2643 4.51486 16.2468 6.61904L16.2463 6.61953ZM21.5386 13.4026C22.1962 13.4113 22.8261 13.2791 23.423 13.0059C25.0256 12.273 25.9554 11.0252 26.2485 9.29289C26.2835 9.08631 26.2276 8.96674 26.0074 8.89772C25.2808 8.66975 24.577 8.38346 23.9144 8.00239C22.9899 7.47014 22.1845 6.80861 21.6265 5.88265C21.5434 5.74509 21.505 5.7762 21.4336 5.88897C21.0938 6.42704 20.6768 6.89416 20.1776 7.29224C19.2399 8.04078 18.1711 8.53025 17.04 8.89286C16.8014 8.96917 16.7649 9.09166 16.796 9.30407C17.1474 11.6834 19.1481 13.4142 21.5381 13.4026H21.5386ZM15.7485 10.2106C15.7515 9.88298 15.6985 9.85041 15.3845 9.88443C14.5032 9.9797 14.1134 10.6451 13.9841 11.366C13.9545 11.5303 14.0128 11.6202 14.1887 11.6007C14.3492 11.5827 14.5105 11.5643 14.6685 11.5317C15.3636 11.3874 15.7422 10.9217 15.7485 10.2111V10.2106ZM28.8699 11.6007C29.0643 11.6236 29.1533 11.5555 29.0901 11.3519C29.076 11.3057 29.0726 11.2566 29.0614 11.209C28.8747 10.388 28.4227 9.97095 27.609 9.87034C27.4865 9.85527 27.3538 9.82999 27.3456 10.0196C27.3334 10.3039 27.3349 10.5858 27.4671 10.8498C27.7583 11.433 28.3056 11.5341 28.8699 11.6002V11.6007Z" fill="currentColor"/>
<path d="M7.41005 11.9113C6.57985 11.9482 5.82159 11.6367 5.127 11.137C4.86355 10.9474 4.80668 10.7262 4.95444 10.5177C5.11387 10.2927 5.34476 10.2727 5.61015 10.4609C6.76844 11.2838 8.16394 11.2731 9.3164 10.4322C9.58033 10.2397 9.82094 10.2528 9.9755 10.4677C10.116 10.6626 10.0528 10.9119 9.81559 11.0995C9.12781 11.6435 8.35059 11.9108 7.41005 11.9118V11.9113Z" fill="currentColor"/>
<path d="M21.6398 11.9535C20.6497 11.9521 19.8598 11.6614 19.1603 11.1175C18.9445 10.9498 18.8945 10.6834 19.0388 10.4997C19.1924 10.3038 19.4257 10.2815 19.661 10.4545C20.6312 11.1695 21.6757 11.2614 22.782 10.8336C23.0095 10.7457 23.2102 10.6081 23.4032 10.4594C23.6278 10.2868 23.8757 10.2985 24.0312 10.4827C24.1892 10.6698 24.16 10.908 23.9335 11.0976C23.2418 11.6755 22.4369 11.9453 21.6398 11.9535Z" fill="currentColor"/>
</g>
<defs>
<clipPath id="clip0_668_5028">
<rect width="30" height="19.1364" fill="white" transform="translate(0 0.431885)"/>
</clipPath>
</defs>
</svg>
