<svg width="33" height="32" viewBox="0 0 33 32" fill="none" xmlns="http://www.w3.org/2000/svg">
<g clip-path="url(#clip0_842_1469)">
<path d="M16.4707 31.9972C11.3938 31.9972 6.31646 31.9972 1.23956 31.9972C0.967224 31.9969 0.831055 31.8587 0.831055 31.5827C0.831055 31.4079 0.831055 31.2331 0.831055 31.0584C0.831055 30.77 0.979376 30.6259 1.27602 30.6259C1.48427 30.6259 1.69252 30.6174 1.90027 30.6274C2.10552 30.6374 2.18243 30.554 2.17544 30.3487C2.15446 29.721 2.2039 29.1042 2.4521 28.5134C2.97198 27.2739 3.87339 26.4634 5.16384 26.0983C5.39157 26.0339 5.46897 25.9455 5.49544 25.7013C5.68521 23.9574 6.56915 22.7034 8.23964 22.1116C9.84022 21.5443 11.5596 22.0812 12.6239 23.3901C12.8421 23.6583 12.8376 23.6618 13.0618 23.3856C14.6884 21.3785 17.7427 21.4105 19.3273 23.4575C19.4696 23.6413 19.543 23.6203 19.6769 23.453C20.5738 22.3304 21.7589 21.786 23.1792 21.9139C25.1478 22.0911 26.5396 23.5429 26.8033 25.4057C26.8617 25.8202 26.9581 26.0409 27.4131 26.1837C29.0906 26.7086 30.1503 28.2278 30.1698 29.9991C30.1777 30.6978 30.0604 30.6214 30.7905 30.6254C31.1651 30.6274 31.5396 30.6299 31.9142 30.6249C32.0894 30.6224 32.1748 30.6838 32.1689 30.8716C32.1599 31.1627 32.1579 31.4544 32.1694 31.7455C32.1778 31.9478 32.0899 32.0157 31.9022 31.9982C31.8363 31.9922 31.7693 31.9977 31.7024 31.9977C26.6255 31.9977 21.5481 31.9977 16.4712 31.9977L16.4707 31.9972ZM9.52959 23.2972C8.16773 23.2927 7.01112 24.3514 6.89076 25.7028C6.87129 25.92 6.92472 26.0309 7.15595 26.0883C8.05936 26.3116 8.79897 26.799 9.3583 27.5451C9.47416 27.6994 9.54107 27.7229 9.66543 27.5541C10.1798 26.8544 10.868 26.3965 11.688 26.1238C11.8458 26.0714 12.088 26.1213 12.1454 25.955C12.1959 25.8092 12.113 25.6144 12.08 25.4431C11.8378 24.1846 10.7861 23.3012 9.52909 23.2972H9.52959ZM22.7012 23.2967C22.4431 23.3047 22.0765 23.3696 21.7339 23.5364C20.7576 24.0118 20.3011 24.8299 20.1843 25.8776C20.1668 26.0354 20.2577 26.0279 20.3556 26.0509C21.3049 26.2736 22.088 26.7615 22.6758 27.5426C22.8131 27.7254 22.8745 27.6929 22.9944 27.5326C23.5487 26.793 24.2873 26.3166 25.1783 26.0908C25.4235 26.0284 25.4734 25.9096 25.4509 25.6868C25.3146 24.3389 24.1735 23.2987 22.7017 23.2972L22.7012 23.2967ZM13.5687 25.7827C13.4344 26.0339 13.6486 26.0494 13.8419 26.0888C13.9393 26.1088 14.0352 26.1383 14.1286 26.1717C14.9096 26.4489 15.5523 26.9163 16.0502 27.58C16.1162 27.6679 16.1661 27.7488 16.27 27.6105C16.8822 26.7935 17.6858 26.2681 18.6841 26.0454C18.7505 26.0304 18.8029 26.0264 18.7969 25.924C18.762 25.3382 18.6092 24.8009 18.2441 24.326C17.5659 23.444 16.4732 23.0949 15.3666 23.423C14.3818 23.7152 13.6366 24.676 13.5682 25.7822L13.5687 25.7827ZM19.5116 30.6259C20.3021 30.6259 21.0927 30.6229 21.8827 30.6279C22.0695 30.6289 22.1529 30.5679 22.1519 30.3687C22.1504 29.7689 22.0505 29.1996 21.7564 28.6647C21.0437 27.3683 19.2025 26.9493 18.0104 27.8242C17.1569 28.451 16.8273 29.3095 16.8713 30.3457C16.8807 30.5665 16.9517 30.6324 17.1644 30.6299C17.9465 30.6209 18.7285 30.6264 19.5106 30.6259H19.5116ZM12.8211 30.6264C13.6117 30.6264 14.4017 30.6264 15.1923 30.6264C15.3301 30.6264 15.461 30.6329 15.4659 30.4306C15.4769 29.9452 15.456 29.4698 15.2707 29.0088C14.5381 27.189 12.3077 26.9198 11.1072 28.022C10.436 28.6383 10.2058 29.4133 10.1938 30.2848C10.1893 30.6149 10.2018 30.6254 10.5249 30.6259C11.2905 30.6269 12.056 30.6259 12.8211 30.6259V30.6264ZM6.17712 30.6264C6.9427 30.6264 7.70878 30.6189 8.47436 30.6309C8.71707 30.6349 8.80796 30.549 8.78449 30.3123C8.7715 30.1804 8.78449 30.0461 8.78149 29.9132C8.75402 28.8555 8.25213 28.0714 7.31575 27.6255C6.40435 27.191 5.48146 27.2659 4.64547 27.8647C3.82146 28.4545 3.54279 29.3095 3.54529 30.2838C3.54629 30.6089 3.56077 30.6264 3.87939 30.6269C4.64497 30.6284 5.41104 30.6269 6.17662 30.6269L6.17712 30.6264ZM26.1596 30.6264C26.9421 30.6264 27.7242 30.6219 28.5068 30.6294C28.7205 30.6314 28.8194 30.558 28.7979 30.3397C28.7819 30.1744 28.7709 30.0081 28.76 29.8423C28.686 28.7367 28.1312 27.9326 27.1149 27.5461C26.1331 27.173 25.1728 27.3243 24.3747 28.066C23.72 28.6747 23.4968 29.4508 23.5542 30.3312C23.5692 30.5605 23.6376 30.6334 23.8623 30.6304C24.6279 30.6204 25.3935 30.6264 26.1596 30.6264Z" fill="currentColor"/>
<path d="M9.4763 16.247C9.4763 15.8245 9.4758 15.4205 9.4763 15.017C9.4768 14.6479 9.47929 14.6459 9.85684 14.6454C10.1065 14.6449 10.3567 14.6524 10.6059 14.6429C10.8117 14.6349 10.8856 14.7213 10.8826 14.9241C10.8751 15.5149 10.8806 16.1056 10.8806 16.6969C10.8806 18.1367 10.8806 19.5765 10.8801 21.0167C10.8801 21.3389 10.8651 21.3528 10.5405 21.3543C10.2823 21.3558 10.0241 21.3458 9.76645 21.3573C9.55221 21.3668 9.4708 21.2849 9.4728 21.0672C9.48079 20.2432 9.46881 19.4192 9.48029 18.5952C9.48329 18.3679 9.41088 18.2061 9.25107 18.0478C8.05701 16.8642 6.87293 15.6712 5.67986 14.4871C5.53903 14.3473 5.47511 14.2029 5.47711 14.0042C5.4851 13.2051 5.4866 12.4061 5.47711 11.6071C5.47461 11.3798 5.55252 11.3009 5.78074 11.3019C7.12912 11.3094 8.4775 11.3059 9.82588 11.3049C10.1615 11.3049 10.1625 11.3034 10.1635 10.9758C10.1645 10.5179 10.1924 10.0579 10.1575 9.60297C10.0926 8.75299 10.4911 8.14972 11.1253 7.66381C11.787 7.15692 12.5451 6.8358 13.3277 6.56663C13.4061 6.53966 13.4865 6.51718 13.5644 6.48722C13.6877 6.43978 13.7127 6.37336 13.6168 6.26449C13.0205 5.58581 12.7763 4.78826 12.8148 3.89234C12.8348 3.4279 12.8013 2.96496 12.9047 2.50152C13.2008 1.17861 14.4338 0.110393 15.7887 0.0130097C16.9153 -0.0678929 17.8982 0.232246 18.6847 1.06724C19.1442 1.55515 19.4263 2.14594 19.4888 2.80515C19.5567 3.5148 19.5906 4.23243 19.4173 4.94008C19.304 5.40352 19.0827 5.80704 18.7871 6.1736C18.5953 6.41131 18.5963 6.42829 18.898 6.52767C19.5477 6.74241 20.1754 7.0026 20.7652 7.35418C21.1418 7.57841 21.4764 7.84908 21.754 8.18518C22.0262 8.51428 22.184 8.89183 22.179 9.3303C22.173 9.85467 22.178 10.379 22.178 10.9034C22.178 11.1704 22.3079 11.3041 22.5675 11.3044C23.8745 11.3044 25.1809 11.3044 26.4878 11.3044C26.8594 11.3044 26.8604 11.3059 26.8609 11.683C26.8614 12.4485 26.8549 13.2146 26.8649 13.9802C26.8679 14.1979 26.797 14.3528 26.6426 14.5056C25.4431 15.6951 24.253 16.8942 23.0545 18.0853C22.9196 18.2191 22.8607 18.3569 22.8627 18.5462C22.8702 19.3782 22.8592 20.2107 22.8697 21.0432C22.8727 21.2849 22.7843 21.3708 22.5486 21.3578C22.2914 21.3438 22.0322 21.3428 21.775 21.3573C21.5368 21.3703 21.4559 21.2799 21.4569 21.0407C21.4644 19.3512 21.4609 17.6618 21.4609 15.9718C21.4609 15.6222 21.4679 15.2726 21.4584 14.9231C21.4529 14.7198 21.5303 14.6354 21.736 14.6424C22.0187 14.6519 22.3024 14.6544 22.585 14.6424C22.8088 14.6329 22.8752 14.7333 22.8687 14.942C22.8582 15.2911 22.8642 15.6412 22.8677 15.9908C22.8687 16.0702 22.8412 16.1561 22.9536 16.2959C23.0759 16.1501 23.1828 16.0043 23.3087 15.8769C23.9354 15.2442 24.5611 14.6104 25.2009 13.9912C25.3902 13.8084 25.4686 13.6196 25.4621 13.3565C25.4461 12.7102 25.4576 12.7092 24.8103 12.7092C18.9594 12.7092 13.1084 12.7092 7.25747 12.7092C6.88591 12.7092 6.91538 12.7127 6.87792 13.0808C6.83048 13.5452 6.98979 13.8723 7.33288 14.188C8.00007 14.8017 8.62282 15.4629 9.26505 16.1036C9.31549 16.1541 9.35794 16.219 9.4763 16.247ZM16.1732 11.3044C17.613 11.3044 19.0523 11.3004 20.492 11.3084C20.7258 11.3099 20.8201 11.2445 20.8112 10.9988C20.7957 10.5498 20.7887 10.0994 20.8122 9.65141C20.8341 9.23491 20.6449 8.96124 20.3257 8.73152C19.9442 8.45635 19.5297 8.24511 19.0937 8.0803C18.1504 7.72373 17.196 7.4176 16.1692 7.40562C15.4831 7.39762 14.8324 7.56492 14.1871 7.7542C13.4191 7.97893 12.6744 8.26508 12.0132 8.73502C11.6921 8.96324 11.5064 9.23941 11.5303 9.65591C11.5548 10.0874 11.5348 10.5209 11.5363 10.9538C11.5373 11.3034 11.5383 11.3049 11.8799 11.3049C13.3112 11.3054 14.7425 11.3049 16.1737 11.3049L16.1732 11.3044ZM18.1529 3.70457C18.1529 3.57972 18.1593 3.45487 18.1519 3.33052C18.1154 2.74622 17.9456 2.22285 17.4742 1.83282C17.0512 1.48224 16.5608 1.39585 16.0274 1.41233C15.1475 1.43879 14.4538 1.99263 14.254 2.8496C14.1522 3.28607 14.1706 3.72854 14.1976 4.16601C14.2456 4.94508 14.6216 5.53237 15.3607 5.82152C16.1712 6.13864 16.9323 6.02677 17.584 5.424C18.0849 4.96056 18.1633 4.3443 18.1529 3.70507V3.70457Z" fill="currentColor"/>
<path d="M16.1744 14.6451C17.3979 14.6451 18.621 14.6446 19.8445 14.6451C20.1686 14.6451 20.1801 14.6576 20.1806 14.9837C20.1806 16.9978 20.1806 19.0119 20.1806 21.0255C20.1806 21.3366 20.1656 21.3511 19.8595 21.3531C19.6098 21.3546 19.3596 21.3431 19.1109 21.3561C18.8826 21.3681 18.8047 21.2787 18.8062 21.0514C18.8137 19.8529 18.8097 18.6548 18.8092 17.4563C18.8092 17.0902 18.8097 16.7241 18.8087 16.3576C18.8077 16.025 18.7992 16.0155 18.4781 16.0155C16.9385 16.015 15.3988 16.015 13.8592 16.0155C13.5476 16.0155 13.5341 16.028 13.5341 16.3381C13.5331 17.8693 13.5341 19.4009 13.5336 20.9321C13.5336 21.2124 13.3896 21.3527 13.1016 21.3531C12.9018 21.3531 12.7021 21.3546 12.5023 21.3531C12.1742 21.3506 12.1627 21.3406 12.1627 21.018C12.1617 19.5532 12.1622 18.0885 12.1622 16.6238C12.1622 16.0829 12.1622 15.5421 12.1627 15.0007C12.1632 14.6476 12.1662 14.6441 12.5303 14.6441C13.7453 14.6436 14.9604 14.6441 16.1754 14.6441L16.1744 14.6451Z" fill="currentColor"/>
</g>
<defs>
<clipPath id="clip0_842_1469">
<rect width="31.3383" height="32" fill="white" transform="translate(0.831055)"/>
</clipPath>
</defs>
</svg>
