<svg width="24" height="24" viewBox="0 0 24 24" fill="none" xmlns="http://www.w3.org/2000/svg">
<g clip-path="url(#clip0_668_10625)">
<path d="M11.7298 23.9977C7.92209 23.9977 4.11405 23.9977 0.306381 23.9977C0.102127 23.9974 0 23.8938 0 23.6868C0 23.5557 0 23.4246 0 23.2935C0 23.0773 0.111241 22.9692 0.333723 22.9692C0.489911 22.9692 0.646098 22.9628 0.80191 22.9703C0.95585 22.9778 1.01353 22.9152 1.00829 22.7613C0.992556 22.2905 1.02964 21.8279 1.21579 21.3848C1.60569 20.4552 2.28175 19.8473 3.24959 19.5735C3.42038 19.5252 3.47844 19.4589 3.49829 19.2757C3.64062 17.9678 4.30357 17.0273 5.55644 16.5835C6.75687 16.158 8.04644 16.5606 8.84461 17.5423C9.00829 17.7435 9.00492 17.7461 9.17309 17.539C10.393 16.0336 12.6837 16.0576 13.8722 17.5929C13.9789 17.7307 14.034 17.715 14.1344 17.5895C14.8071 16.7475 15.6959 16.3393 16.7611 16.4352C18.2376 16.5681 19.2814 17.6569 19.4792 19.054C19.523 19.3649 19.5953 19.5304 19.9365 19.6376C21.1946 20.0312 21.9894 21.1706 22.004 22.4991C22.01 23.0231 21.922 22.9658 22.4696 22.9688C22.7505 22.9703 23.0314 22.9722 23.3123 22.9684C23.4438 22.9666 23.5078 23.0126 23.5033 23.1535C23.4966 23.3718 23.4951 23.5906 23.5037 23.8089C23.5101 23.9606 23.4442 24.0115 23.3033 23.9984C23.2539 23.9939 23.2037 23.9981 23.1535 23.9981C19.3458 23.9981 15.5378 23.9981 11.7301 23.9981L11.7298 23.9977ZM6.5239 17.4727C5.5025 17.4693 4.63505 18.2633 4.54478 19.2769C4.53017 19.4398 4.57025 19.523 4.74367 19.566C5.42123 19.7334 5.97593 20.099 6.39543 20.6586C6.48233 20.7743 6.53252 20.7919 6.62578 20.6653C7.01156 20.1406 7.52769 19.7971 8.1427 19.5926C8.26106 19.5533 8.44272 19.5907 8.48579 19.466C8.52362 19.3566 8.46144 19.2106 8.43672 19.0821C8.25507 18.1382 7.46627 17.4757 6.52353 17.4727H6.5239ZM16.4026 17.4723C16.209 17.4783 15.9341 17.527 15.6771 17.6521C14.9449 18.0086 14.6026 18.6222 14.5149 19.408C14.5018 19.5263 14.57 19.5207 14.6434 19.5379C15.3554 19.705 15.9427 20.0709 16.3835 20.6567C16.4865 20.7938 16.5326 20.7695 16.6225 20.6492C17.0382 20.0945 17.5922 19.7372 18.2604 19.5679C18.4443 19.5211 18.4818 19.4319 18.4649 19.2649C18.3627 18.254 17.5068 17.4738 16.403 17.4727L16.4026 17.4723ZM9.55326 19.3368C9.4525 19.5252 9.61318 19.5368 9.75813 19.5664C9.83117 19.5814 9.90308 19.6035 9.97313 19.6286C10.5589 19.8364 11.041 20.187 11.4144 20.6848C11.4638 20.7507 11.5013 20.8114 11.5792 20.7076C12.0384 20.0949 12.641 19.7009 13.3898 19.5338C13.4396 19.5226 13.4789 19.5196 13.4744 19.4428C13.4482 19.0034 13.3336 18.6004 13.0598 18.2442C12.5511 17.5828 11.7316 17.321 10.9016 17.5671C10.163 17.7862 9.60419 18.5068 9.55288 19.3364L9.55326 19.3368ZM14.0104 22.9692C14.6033 22.9692 15.1962 22.9669 15.7888 22.9707C15.9288 22.9714 15.9914 22.9257 15.9906 22.7763C15.9895 22.3265 15.9146 21.8995 15.694 21.4983C15.1595 20.526 13.7785 20.2117 12.8845 20.868C12.2444 21.338 11.9972 21.9819 12.0302 22.7591C12.0373 22.9246 12.0905 22.974 12.25 22.9722C12.8366 22.9654 13.4231 22.9696 14.0096 22.9692H14.0104ZM8.99256 22.9696C9.58547 22.9696 10.178 22.9696 10.7709 22.9696C10.8743 22.9696 10.9724 22.9744 10.9762 22.8227C10.9844 22.4587 10.9687 22.1021 10.8297 21.7564C10.2803 20.3915 8.60752 20.1896 7.7071 21.0163C7.20371 21.4785 7.03104 22.0598 7.02205 22.7134C7.01868 22.9609 7.02804 22.9688 7.27038 22.9692C7.84456 22.9699 8.41875 22.9692 8.99256 22.9692V22.9696ZM4.00955 22.9696C4.58374 22.9696 5.15829 22.9639 5.73248 22.9729C5.91451 22.9759 5.98268 22.9115 5.96507 22.734C5.95533 22.6351 5.96507 22.5343 5.96283 22.4347C5.94223 21.6414 5.5658 21.0534 4.86352 20.7189C4.17997 20.393 3.4878 20.4492 2.86081 20.8983C2.2428 21.3406 2.0338 21.9819 2.03568 22.7126C2.03642 22.9564 2.04729 22.9696 2.28625 22.9699C2.86043 22.9711 3.43499 22.9699 4.00918 22.9699L4.00955 22.9696ZM18.9964 22.9696C19.5833 22.9696 20.1699 22.9662 20.7568 22.9718C20.9171 22.9733 20.9912 22.9182 20.9751 22.7546C20.9632 22.6306 20.9549 22.5059 20.9467 22.3815C20.8912 21.5523 20.4751 20.9492 19.7129 20.6593C18.9765 20.3795 18.2563 20.493 17.6578 21.0492C17.1667 21.5058 16.9993 22.0879 17.0424 22.7482C17.0536 22.9201 17.1049 22.9748 17.2735 22.9726C17.8477 22.9651 18.4218 22.9696 18.9964 22.9696Z" fill="#00C0FD"/>
<path d="M6.48381 12.185C6.48381 11.8681 6.48344 11.5651 6.48381 11.2625C6.48418 10.9857 6.48606 10.9842 6.76922 10.9838C6.95649 10.9834 7.14414 10.9891 7.33104 10.982C7.48535 10.976 7.54079 11.0408 7.53854 11.1928C7.53292 11.6359 7.53704 12.079 7.53704 12.5225C7.53704 13.6023 7.53704 14.6821 7.53667 15.7623C7.53667 16.0039 7.52543 16.0144 7.28197 16.0155C7.08833 16.0166 6.89469 16.0092 6.70142 16.0178C6.54074 16.0249 6.47969 15.9635 6.48119 15.8002C6.48718 15.1821 6.47819 14.5641 6.48681 13.9461C6.48905 13.7757 6.43474 13.6544 6.31489 13.5356C5.41934 12.6479 4.53128 11.7531 3.63649 10.8651C3.53086 10.7602 3.48292 10.652 3.48442 10.5029C3.49041 9.90362 3.49153 9.30435 3.48442 8.70507C3.48255 8.53465 3.54098 8.47547 3.71214 8.47622C4.72343 8.48184 5.73471 8.47921 6.74599 8.47846C6.99769 8.47846 6.99844 8.47734 6.99919 8.23164C6.99994 7.88817 7.02091 7.54321 6.9947 7.202C6.946 6.56452 7.24489 6.11206 7.72057 5.74762C8.21685 5.36746 8.78542 5.12662 9.37233 4.92474C9.43114 4.90451 9.49144 4.88766 9.54987 4.86519C9.64238 4.8296 9.66111 4.77979 9.5892 4.69814C9.14199 4.18913 8.95883 3.59097 8.98767 2.91903C9.00265 2.5707 8.97756 2.22349 9.05509 1.87591C9.2772 0.883727 10.202 0.0825656 11.2181 0.00952843C12.0631 -0.0511486 12.8002 0.173956 13.3901 0.800202C13.7347 1.16614 13.9463 1.60923 13.9932 2.10363C14.0441 2.63587 14.0696 3.1741 13.9396 3.70483C13.8546 4.05241 13.6886 4.35505 13.4669 4.62997C13.3231 4.80826 13.3238 4.82099 13.5501 4.89553C14.0373 5.05658 14.5082 5.25172 14.9505 5.5154C15.2329 5.68358 15.4839 5.88658 15.6921 6.13865C15.8962 6.38548 16.0146 6.66864 16.0108 6.9975C16.0064 7.39077 16.0101 7.78405 16.0101 8.17733C16.0101 8.37759 16.1075 8.47784 16.3022 8.47809C17.2824 8.47809 18.2623 8.47809 19.2425 8.47809C19.5211 8.47809 19.5219 8.47921 19.5222 8.762C19.5226 9.33618 19.5178 9.91074 19.5252 10.4849C19.5275 10.6482 19.4743 10.7643 19.3586 10.879C18.4589 11.7711 17.5664 12.6704 16.6674 13.5637C16.5663 13.6641 16.5221 13.7675 16.5236 13.9094C16.5292 14.5334 16.521 15.1578 16.5288 15.7822C16.5311 15.9635 16.4648 16.0279 16.288 16.0181C16.0951 16.0077 15.9007 16.0069 15.7078 16.0178C15.5292 16.0275 15.4685 15.9597 15.4692 15.7803C15.4749 14.5132 15.4722 13.2461 15.4722 11.9786C15.4722 11.7164 15.4775 11.4543 15.4704 11.1921C15.4663 11.0396 15.5243 10.9763 15.6786 10.9816C15.8906 10.9887 16.1034 10.9906 16.3154 10.9816C16.4832 10.9745 16.533 11.0497 16.5281 11.2063C16.5202 11.4681 16.5247 11.7307 16.5274 11.9929C16.5281 12.0524 16.5075 12.1168 16.5918 12.2217C16.6835 12.1123 16.7637 12.003 16.8581 11.9075C17.3281 11.4329 17.7974 10.9576 18.2772 10.4932C18.4192 10.3561 18.478 10.2145 18.4731 10.0171C18.4611 9.53245 18.4698 9.5317 17.9843 9.5317C13.5961 9.5317 9.20791 9.5317 4.81969 9.5317C4.54102 9.5317 4.56312 9.53432 4.53503 9.81036C4.49945 10.1587 4.61893 10.404 4.87624 10.6407C5.37664 11.1011 5.84371 11.597 6.32538 12.0775C6.36321 12.1153 6.39504 12.164 6.48381 12.185ZM11.5065 8.47809C12.5863 8.47809 13.6658 8.47509 14.7456 8.48109C14.9209 8.48221 14.9917 8.43314 14.985 8.24887C14.9733 7.91215 14.9681 7.5743 14.9857 7.23833C15.0022 6.92596 14.8602 6.7207 14.6209 6.54841C14.3347 6.34203 14.0239 6.1836 13.6969 6.06C12.9894 5.79257 12.2736 5.56297 11.5035 5.55398C10.9889 5.54799 10.5009 5.67346 10.0169 5.81542C9.44088 5.98397 8.88242 6.19858 8.38652 6.55103C8.14569 6.7222 8.00635 6.92933 8.02433 7.2417C8.04268 7.56531 8.0277 7.89042 8.02883 8.21516C8.02957 8.47734 8.03032 8.47846 8.28652 8.47846C9.35997 8.47884 10.4334 8.47846 11.5069 8.47846L11.5065 8.47809ZM12.9912 2.7782C12.9912 2.68456 12.9961 2.59092 12.9905 2.49766C12.9631 2.05944 12.8358 1.66691 12.4822 1.37439C12.165 1.11145 11.7972 1.04666 11.3971 1.05902C10.7372 1.07887 10.2169 1.49424 10.0671 2.13697C9.99072 2.46432 10.0046 2.79618 10.0248 3.12428C10.0608 3.70858 10.3428 4.14905 10.8971 4.36591C11.505 4.60375 12.0758 4.51985 12.5646 4.06777C12.9403 3.72019 12.9991 3.258 12.9912 2.77857V2.7782Z" fill="#00C0FD"/>
<path d="M11.5076 10.9836C12.4253 10.9836 13.3426 10.9832 14.2602 10.9836C14.5033 10.9836 14.5119 10.9929 14.5123 11.2375C14.5123 12.7481 14.5123 14.2586 14.5123 15.7688C14.5123 16.0022 14.501 16.013 14.2714 16.0145C14.0842 16.0157 13.8965 16.007 13.71 16.0168C13.5388 16.0258 13.4804 15.9587 13.4815 15.7883C13.4871 14.8894 13.4841 13.9908 13.4838 13.0919C13.4838 12.8174 13.4841 12.5428 13.4834 12.2679C13.4826 12.0185 13.4763 12.0113 13.2354 12.0113C12.0807 12.011 10.926 12.011 9.77123 12.0113C9.53751 12.0113 9.52739 12.0207 9.52739 12.2533C9.52664 13.4017 9.52739 14.5504 9.52702 15.6988C9.52702 15.909 9.41902 16.0143 9.20303 16.0145C9.05321 16.0145 8.90339 16.0157 8.75358 16.0145C8.5075 16.0127 8.49888 16.0052 8.49888 15.7632C8.49813 14.6647 8.49851 13.5661 8.49851 12.4675C8.49851 12.0619 8.49851 11.6563 8.49888 11.2503C8.49926 10.9855 8.5015 10.9828 8.77455 10.9828C9.68583 10.9825 10.5971 10.9828 11.5084 10.9828L11.5076 10.9836Z" fill="#00C0FD"/>
</g>
<defs>
<clipPath id="clip0_668_10625">
<rect width="23.5037" height="24" fill="white"/>
</clipPath>
</defs>
</svg>
