<svg width="30" height="30" viewBox="0 0 30 30" fill="none" xmlns="http://www.w3.org/2000/svg">
<g clip-path="url(#clip0_1872_10499)">
<path d="M23.1279 12.737C23.3503 12.4803 23.5483 12.1965 23.7997 11.9727C24.8048 11.0785 26.2251 11.0468 27.2711 11.9107C27.8638 12.4004 28.4445 12.9224 28.8636 13.5718C29.5935 14.7037 29.3883 16.054 28.4056 17.0333C26.6481 18.7836 24.9005 20.5437 23.1417 22.2926C22.9939 22.4398 22.9899 22.5968 22.9899 22.7724C22.9899 24.2903 22.9952 25.8076 22.9873 27.3255C22.9807 28.6302 22.101 29.6974 20.8279 29.9574C20.6471 29.9944 20.4563 29.9984 20.2709 29.9984C14.4196 30.0003 8.56907 30.001 2.71782 29.9984C1.16558 29.9977 0.00338792 28.8447 0.00272795 27.2925C-0.00123183 19.1096 -0.000571867 10.9274 0.00272795 2.74446C0.00272795 1.18827 1.18406 0.0036298 2.73762 0.00296984C8.56642 -0.000989947 14.3959 -0.000989947 20.2247 0.00296984C21.8218 0.00428977 22.986 1.17903 22.988 2.78406C22.9919 5.94067 22.9893 9.09728 22.9893 12.2532C22.9893 12.3832 22.9893 12.5126 22.9893 12.6426C23.0355 12.6743 23.0817 12.7053 23.1279 12.737ZM21.113 24.4197C21.0866 24.4019 21.0602 24.3834 21.0338 24.3656C20.686 24.7272 20.3375 25.0882 19.9897 25.4505C19.4334 26.03 18.7946 26.4398 17.9643 26.5052C17.2608 26.5606 16.5553 26.5698 15.8557 26.5203C14.7595 26.4425 14.1114 25.696 14.1095 24.5926C14.1088 24.0204 14.1246 23.4482 14.1055 22.8767C14.0771 22.0293 14.3965 21.3482 14.9918 20.7575C16.9664 18.7974 18.9279 16.8241 20.8979 14.8594C21.0378 14.7195 21.1222 14.5789 21.1216 14.3717C21.1176 10.5004 21.1176 6.62901 21.1196 2.75766C21.1196 2.44748 21.0087 2.20395 20.7606 2.01916C20.5402 1.85483 20.2854 1.87067 20.032 1.87067C14.3457 1.87067 8.65948 1.87067 2.97323 1.87067C2.12979 1.87067 1.86977 2.13003 1.86977 2.97215C1.86977 8.17465 1.86977 13.3765 1.86977 18.579C1.86977 21.4498 1.87307 24.32 1.86581 27.1909C1.86515 27.4971 1.93774 27.7545 2.16411 27.961C2.38124 28.1597 2.65446 28.1293 2.91581 28.1293C8.63506 28.1307 14.3537 28.1307 20.0729 28.13C20.1831 28.13 20.2933 28.1313 20.4029 28.1214C20.785 28.0864 21.1005 27.8 21.1071 27.4185C21.1236 26.4187 21.1123 25.4189 21.1123 24.419L21.113 24.4197ZM15.9785 23.5149C15.9785 23.7788 15.9897 24.0435 15.9752 24.3068C15.9607 24.5728 16.0531 24.6863 16.3335 24.6738C16.7506 24.6553 17.1691 24.6678 17.5868 24.6685C17.9584 24.6685 18.2692 24.5338 18.5319 24.2705C20.6583 22.1388 22.7847 20.0065 24.9184 17.8814C25.1005 17.6999 25.0781 17.5857 24.9111 17.4227C24.3455 16.869 23.7746 16.3186 23.2355 15.7398C22.9985 15.4857 22.8679 15.5161 22.6395 15.7471C20.6807 17.723 18.7253 19.7029 16.7322 21.6445C16.1798 22.1831 15.7963 22.7163 15.9785 23.5155V23.5149ZM27.3998 15.0416C27.4064 14.8066 27.3688 14.6146 27.2197 14.4634C26.8646 14.1051 26.5181 13.7368 26.1466 13.3963C25.7803 13.0604 25.3625 13.0749 24.9936 13.4088C24.8147 13.5705 24.657 13.7553 24.4775 13.9163C24.3099 14.0668 24.3053 14.1863 24.4722 14.3486C24.9527 14.8146 25.4153 15.299 25.8944 15.7662C26.5841 16.4387 26.3373 16.4301 27.0672 15.726C27.2665 15.5339 27.4506 15.324 27.3998 15.0416Z" fill="#D5D5D5"/>
<path d="M11.5074 8.83067C13.8278 8.83067 16.1476 8.82869 18.468 8.83199C19.1273 8.83265 19.4811 9.21279 19.4309 9.84701C19.4025 10.2107 19.1511 10.5123 18.7742 10.6317C18.5835 10.6918 18.3862 10.701 18.1869 10.701C13.7334 10.6997 9.28 10.701 4.8259 10.6984C4.65101 10.6984 4.47216 10.6898 4.30254 10.6522C3.76599 10.5347 3.48551 10.1249 3.55283 9.58303C3.61222 9.10653 3.95342 8.83331 4.51307 8.83265C6.84407 8.83001 9.17572 8.83133 11.5067 8.83133L11.5074 8.83067Z" fill="#D5D5D5"/>
<path d="M11.4628 14.1604C9.14238 14.1604 6.8226 14.163 4.50217 14.159C3.8521 14.1577 3.49836 13.7624 3.5571 13.1282C3.5901 12.7698 3.85012 12.4689 4.2296 12.356C4.39921 12.3052 4.5741 12.292 4.75163 12.292C9.24929 12.2927 13.7463 12.292 18.2439 12.2946C18.407 12.2946 18.5752 12.3111 18.733 12.3514C19.2306 12.4788 19.4919 12.8761 19.4352 13.3935C19.383 13.8653 19.0478 14.1584 18.5225 14.159C16.169 14.163 13.8162 14.161 11.4628 14.161V14.1604Z" fill="#D5D5D5"/>
<path d="M9.7124 15.8408C11.4283 15.8408 13.1442 15.8421 14.8601 15.8395C15.1822 15.8395 15.4739 15.9048 15.6963 16.153C16.1695 16.6809 15.9246 17.4947 15.2363 17.6709C15.1004 17.7059 14.9532 17.7092 14.8113 17.7092C11.4237 17.7111 8.03609 17.7118 4.64783 17.7105C3.95157 17.7105 3.56087 17.3818 3.55097 16.8011C3.54107 16.2091 3.91329 15.8467 4.56402 15.8434C5.90573 15.8362 7.24809 15.8408 8.5898 15.8408C8.964 15.8408 9.33754 15.8408 9.71174 15.8408H9.7124Z" fill="#D5D5D5"/>
<path d="M11.495 3.55101C12.6381 3.55101 13.7818 3.54903 14.9248 3.55167C15.499 3.55299 15.897 3.88033 15.9352 4.37332C15.9755 4.89733 15.6376 5.29661 15.068 5.38835C14.9387 5.40947 14.806 5.41804 14.6747 5.41804C12.5529 5.42002 10.4311 5.42134 8.30935 5.41672C8.11335 5.41672 7.9114 5.39627 7.72265 5.34677C7.27783 5.23127 7.01054 4.80824 7.0607 4.33768C7.10756 3.89551 7.46724 3.55827 7.93318 3.55497C9.12045 3.54705 10.3077 3.55233 11.495 3.55233V3.55101Z" fill="#D5D5D5"/>
<path d="M7.98726 19.3898C9.11909 19.3898 10.2509 19.3872 11.3828 19.3898C12.0018 19.3912 12.3886 19.7185 12.4183 20.2551C12.446 20.7547 12.079 21.152 11.5022 21.2371C11.3617 21.2575 11.2178 21.2582 11.0752 21.2582C8.9871 21.2595 6.89964 21.2582 4.81151 21.2595C4.61286 21.2595 4.41553 21.2549 4.22414 21.1962C3.73907 21.0483 3.483 20.6392 3.55494 20.1283C3.61895 19.6749 3.95091 19.3951 4.46041 19.3925C5.63646 19.3865 6.81186 19.3905 7.98792 19.3905L7.98726 19.3898Z" fill="#D5D5D5"/>
</g>
<defs>
<clipPath id="clip0_1872_10499">
<rect width="29.3004" height="30" fill="white"/>
</clipPath>
</defs>
</svg>
