<svg width="24" height="24" viewBox="0 0 24 24" fill="none" xmlns="http://www.w3.org/2000/svg">
<g clip-path="url(#clip0_632_4732)">
<path d="M6.02535 8.96946C6.02535 9.60577 6.01188 10.2425 6.02947 10.878C6.04407 11.3976 5.74949 11.551 5.33177 11.5391C5.07649 11.5319 4.82084 11.5267 4.56557 11.5252C3.64777 11.5192 3.00921 10.8859 3.00734 9.97409C3.00584 9.31906 3.00434 8.66402 3.00809 8.00899C3.01258 7.1582 3.64103 6.51814 4.48808 6.49418C4.56893 6.49194 4.65315 6.46611 4.72988 6.48108C4.97206 6.52824 5.01922 6.39162 5.04131 6.19511C5.10868 5.59773 5.25354 5.01943 5.47325 4.45834C5.76783 3.70749 6.17694 3.02775 6.70658 2.42101C7.76062 1.21463 9.07555 0.44281 10.645 0.13663C12.0434 -0.135864 13.4119 -0.00448283 14.7324 0.554353C15.5465 0.899087 16.2708 1.37969 16.9008 1.99505C17.6187 2.69649 18.1599 3.51884 18.5312 4.45535C18.7674 5.05199 18.898 5.67146 18.9845 6.30217C19.0055 6.45413 19.0702 6.50392 19.2151 6.49456C19.6148 6.46911 20.0022 6.5114 20.3395 6.75432C20.7471 7.04778 20.9941 7.43444 20.996 7.95097C20.9986 8.65579 21.0024 9.36098 20.9949 10.0658C20.9874 10.7946 20.4057 11.4309 19.6815 11.5151C19.5272 11.5331 19.373 11.5581 19.2162 11.5286C19.0654 11.5001 18.9845 11.5619 18.9647 11.7217C18.8969 12.2701 18.7521 12.799 18.5144 13.2979C17.8938 14.6016 16.9277 15.5497 15.5892 16.1059C15.1322 16.2957 14.6602 16.4305 14.1642 16.4743C14.0385 16.4855 13.9325 16.5169 13.8651 16.655C13.5754 17.2506 13.069 17.5193 12.4289 17.5208C12.0932 17.5216 11.7559 17.5418 11.4206 17.5126C10.459 17.4291 9.84924 16.636 10.0136 15.6875C10.1075 15.1455 10.608 14.6087 11.1492 14.5181C11.6923 14.4272 12.2455 14.4306 12.7886 14.508C13.2659 14.5762 13.6196 14.8655 13.8449 15.2926C13.9089 15.4135 13.9752 15.4487 14.1084 15.4288C15.4215 15.2349 16.4531 14.5848 17.2051 13.5C17.6546 12.8514 17.8915 12.1196 17.9511 11.3321C18.0087 10.5722 17.9656 9.81089 17.9791 9.05031C17.984 8.78043 18.0873 8.60788 18.2935 8.52665C18.675 8.37656 19.0639 8.68386 19.0238 9.13041C18.9882 9.52343 19.0534 9.91495 19.0103 10.3065C18.9957 10.4393 19.0534 10.506 19.1934 10.4955C19.2742 10.4895 19.3558 10.4974 19.4367 10.4925C19.7507 10.4738 19.9214 10.3177 19.9409 10.0074C19.9843 9.31681 19.9723 8.62584 19.9356 7.93563C19.9229 7.69533 19.7144 7.53363 19.4168 7.52651C19.1301 7.51978 18.843 7.52577 18.5559 7.52389C18.1704 7.52165 17.9967 7.35246 17.9776 6.97217C17.9357 6.13111 17.7923 5.31026 17.4326 4.54181C16.8469 3.29164 15.9444 2.34016 14.7167 1.70234C13.483 1.06153 12.1647 0.89235 10.8254 1.1742C8.77798 1.60465 7.32381 2.81178 6.49061 4.74618C6.15411 5.52773 6.03845 6.35045 6.02685 7.19189C6.01861 7.78441 6.02535 8.37693 6.02535 8.96983V8.96946ZM4.02956 9.56722C4.03892 9.69897 4.04828 9.85431 4.06213 10.0096C4.08908 10.3117 4.24741 10.4685 4.55097 10.4914C4.63781 10.4977 4.72577 10.4891 4.81298 10.4955C4.95484 10.5056 5.01211 10.4356 4.99302 10.3046C4.95447 10.0426 5.00163 9.78207 4.99751 9.52081C4.98965 9.00464 4.98404 8.4881 4.99639 7.97231C5.00762 7.51454 4.98778 7.48459 4.52776 7.52614C4.5214 7.52651 4.51541 7.52689 4.50905 7.52764C4.23206 7.56132 4.0872 7.73725 4.061 8.01199C4.01197 8.52254 4.07822 9.03346 4.03031 9.56759L4.02956 9.56722ZM12.0101 15.5261C11.8484 15.5261 11.6867 15.5231 11.5254 15.5269C11.2342 15.5333 11.0436 15.7099 11.0343 15.9779C11.0253 16.2302 11.2192 16.4608 11.4894 16.475C11.8241 16.4926 12.1613 16.493 12.4959 16.4761C12.7808 16.4619 12.9795 16.2339 12.9694 15.9761C12.959 15.7036 12.7643 15.5314 12.4578 15.5265C12.3088 15.5239 12.1594 15.5261 12.0101 15.5265V15.5261Z" fill="currentColor"/>
<path d="M10.0064 22.4954C9.85664 22.5032 9.729 22.4609 9.62645 22.358C8.66299 21.3901 7.68905 20.4322 6.74468 19.4463C6.48791 19.1783 6.28054 19.0959 5.92009 19.2348C5.0255 19.5799 4.08824 19.8075 3.20414 20.1837C2.44168 20.5078 1.91541 21.0696 1.63318 21.8478C1.43368 22.3984 1.25738 22.9576 1.06948 23.5124C0.993123 23.7381 0.894307 23.9477 0.622937 23.9873C0.19361 24.0499 -0.0908612 23.7081 0.0457598 23.2743C0.238526 22.6619 0.437656 22.0511 0.659993 21.4488C0.833295 20.9787 1.09344 20.555 1.4363 20.1811C1.93412 19.6379 2.54536 19.2775 3.23184 19.0398C4.17995 18.7115 5.1318 18.393 6.08516 18.0808C6.3715 17.9869 6.59383 17.7949 6.84312 17.6436C7.04 17.5242 7.22716 17.3884 7.4203 17.2626C7.51874 17.1986 7.58462 17.1133 7.6213 17.0017C7.74669 16.6229 7.86647 16.2423 8.00234 15.8672C8.13597 15.4993 8.49829 15.3697 8.79848 15.5685C8.99163 15.6965 9.06948 15.9189 8.992 16.1824C8.90067 16.4934 8.80298 16.8026 8.69143 17.1069C8.64502 17.2342 8.67197 17.2918 8.78314 17.3607C9.81622 18.0015 10.8471 18.646 11.8745 19.2958C11.9887 19.3681 12.0643 19.3351 12.1605 19.2749C13.3175 18.5495 14.4778 17.8297 15.6322 17.1009C15.8871 16.94 16.1202 16.9448 16.3632 17.108C16.6581 17.3064 16.9602 17.4943 17.2491 17.7013C17.5355 17.9064 17.8405 18.064 18.1767 18.1725C19.0189 18.4447 19.8592 18.7224 20.6972 19.0072C21.7112 19.352 22.5381 19.9389 23.0786 20.8866C23.2586 21.2022 23.3866 21.5398 23.5 21.8834C23.6449 22.3213 23.7927 22.7581 23.9365 23.1964C23.9615 23.2728 23.9814 23.3533 23.987 23.433C24.0065 23.7081 23.868 23.9159 23.6318 23.978C23.3619 24.0491 23.1205 23.9529 23.0116 23.6931C22.8914 23.4064 22.8049 23.1059 22.7013 22.812C22.55 22.3835 22.437 21.9414 22.2341 21.5308C21.8542 20.7616 21.2164 20.3008 20.4296 20.0272C19.5582 19.7244 18.6805 19.4403 17.8076 19.142C17.6759 19.0971 17.5916 19.1248 17.4954 19.2213C16.4796 20.2428 15.46 21.2605 14.4404 22.2783C14.1387 22.5792 13.8508 22.5822 13.545 22.2813C13.1138 21.8572 12.6752 21.4391 12.2642 20.9955C11.8438 20.5419 11.3561 20.1855 10.8321 19.8659C9.95396 19.3306 9.08258 18.7845 8.21345 18.235C8.06971 18.1441 7.95892 18.1377 7.82604 18.2429C7.70889 18.3354 7.58087 18.4147 7.45324 18.4929C7.36153 18.5487 7.34731 18.594 7.43003 18.6763C8.25687 19.4991 9.08109 20.3237 9.90381 21.1505C9.98129 21.2284 10.0348 21.219 10.1048 21.1464C10.265 20.9806 10.4282 20.817 10.5933 20.656C10.8369 20.4184 11.1274 20.3985 11.3426 20.601C11.5788 20.8237 11.5927 21.1284 11.3535 21.3814C11.0368 21.7168 10.7063 22.0395 10.3769 22.3629C10.2755 22.4628 10.1452 22.5074 10.0052 22.4954H10.0064ZM16.6394 18.5933C16.6368 18.5442 16.6091 18.5292 16.5833 18.512C16.4219 18.4061 16.2599 18.3005 16.0997 18.1931C16.0087 18.1321 15.9286 18.1497 15.8406 18.2051C14.891 18.8014 13.9414 19.3973 12.9881 19.9879C12.8627 20.0658 12.8735 20.123 12.966 20.214C13.277 20.5198 13.5855 20.8282 13.8913 21.1393C13.9669 21.2164 14.0219 21.2295 14.1061 21.1449C14.9232 20.3229 15.7437 19.5039 16.5627 18.6838C16.5926 18.6539 16.6181 18.6187 16.6394 18.5933Z" fill="currentColor"/>
<path d="M17.0234 8.91598C17.0294 10.1748 16.7913 11.3819 16.2482 12.522C16.0274 12.985 15.7549 13.4177 15.4192 13.8074C15.1987 14.0634 14.909 14.0982 14.675 13.9081C14.4287 13.7082 14.3992 13.4189 14.6148 13.1479C15.5509 11.971 15.9349 10.6101 15.9649 9.13008C15.9698 8.89314 15.9675 8.65621 15.9623 8.41927C15.9462 7.70398 15.3162 7.09312 14.6024 7.05793C13.7 7.01376 12.7972 7.06654 11.8955 7.02911C11.1948 7.00029 10.6056 6.7233 10.1377 6.20003C10.0445 6.0956 9.99548 6.07052 9.88394 6.19441C9.33184 6.80827 8.62853 7.06841 7.80992 7.0366C7.71036 7.03285 7.61042 7.03547 7.51085 7.03136C7.21441 7.019 6.98009 6.78319 6.98645 6.50621C6.99319 6.21874 7.20393 6.0125 7.50674 6.00427C7.76201 5.99715 8.01729 6.0125 8.27107 5.96309C8.96278 5.82834 9.42579 5.29833 9.45798 4.59801C9.46772 4.38166 9.53734 4.18964 9.72711 4.06986C10.064 3.85726 10.4854 4.06387 10.515 4.46326C10.5558 5.01947 10.7557 5.4765 11.2494 5.77594C11.5196 5.93989 11.8165 5.99977 12.1256 6.00127C12.924 6.00501 13.7221 6.00127 14.5204 6.00277C15.8867 6.00539 17.0066 7.1167 17.0234 8.48515C17.0253 8.62851 17.0234 8.77187 17.0234 8.9156V8.91598Z" fill="currentColor"/>
<path d="M8.03627 9.02776C8.05162 10.4052 8.36566 11.6943 9.15956 12.8419C9.23741 12.9546 9.32799 13.0586 9.40884 13.1691C9.59712 13.4262 9.5683 13.7077 9.33585 13.9023C9.1094 14.0921 8.81595 14.0685 8.60372 13.8271C8.25224 13.4262 7.97489 12.9752 7.74357 12.4961C7.36589 11.7138 7.1488 10.8836 7.0395 10.0253C6.97474 9.51772 6.96726 9.00567 6.98747 8.49437C6.9987 8.20915 7.23975 7.99094 7.51561 7.99318C7.79073 7.99543 8.02018 8.21627 8.0344 8.50411C8.04301 8.67816 8.0359 8.85333 8.0359 9.02776H8.03627Z" fill="currentColor"/>
<path d="M11.9918 23.992C11.6474 23.9925 11.4751 23.8223 11.4749 23.4814C11.4749 23.3815 11.4831 23.2808 11.473 23.1824C11.455 23.0072 11.5441 22.9413 11.7013 22.9439C11.9255 22.9477 12.1497 22.9593 12.3739 22.9641C12.4844 22.9668 12.53 23.0218 12.5293 23.1285C12.5274 23.3654 12.5278 23.6023 12.5285 23.8396C12.5289 23.9504 12.4743 23.9961 12.3661 23.9931C12.2414 23.9897 12.1164 23.9923 11.9918 23.9923V23.992Z" fill="currentColor"/>
</g>
<defs>
<clipPath id="clip0_632_4732">
<rect width="23.9779" height="24" fill="white" transform="translate(0.0109863)"/>
</clipPath>
</defs>
</svg>
