<svg width="18" height="25" viewBox="0 0 18 25" fill="none" xmlns="http://www.w3.org/2000/svg">
<path d="M9.7855 24.5H8.07122C7.61671 24.4995 7.18095 24.3188 6.85956 23.9974C6.53817 23.676 6.35741 23.2402 6.35693 22.7857V10.7857H2.07122C1.61671 10.7852 1.18095 10.6045 0.859563 10.2831C0.538175 9.9617 0.35741 9.52594 0.356934 9.07143V7.35714C0.35741 6.90263 0.538175 6.46687 0.859563 6.14549C1.18095 5.8241 1.61671 5.64333 2.07122 5.64286H6.35693V2.21429C6.35741 1.75978 6.53817 1.32402 6.85956 1.00263C7.18095 0.681241 7.61671 0.500476 8.07122 0.5H9.7855C10.24 0.500476 10.6758 0.681241 10.9972 1.00263C11.3185 1.32402 11.4993 1.75978 11.4998 2.21429V5.64286H15.7855C16.24 5.64333 16.6758 5.8241 16.9972 6.14549C17.3185 6.46687 17.4993 6.90263 17.4998 7.35714V9.07143C17.4993 9.52594 17.3185 9.9617 16.9972 10.2831C16.6758 10.6045 16.24 10.7852 15.7855 10.7857H11.4998V22.7857C11.4993 23.2402 11.3185 23.676 10.9972 23.9974C10.6758 24.3188 10.24 24.4995 9.7855 24.5ZM2.07122 7.35714V9.07143H8.07122V22.7857H9.7855V9.07143H15.7855V7.35714H9.7855V2.21429H8.07122V7.35714H2.07122Z" fill="currentColor"/>
</svg>
