<svg width='24' height="18" viewBox="0 0 34 28" fill="none" xmlns="http://www.w3.org/2000/svg">
                <g clipPath="url(#clip0_1_4409)">
                    <path d="M16.7974 27.9946C12.8576 27.9946 8.91786 27.9898 4.97809 28C4.46321 28.0012 4.08126 27.8253 3.76006 27.423C2.37964 25.6933 1.3601 23.7799 0.719515 21.6569C-0.085283 18.9901 -0.20919 16.2889 0.31892 13.5649C0.854249 10.8047 2.02656 8.32575 3.8166 6.15939C5.65055 3.94004 7.90194 2.2826 10.5822 1.19792C13.0008 0.219234 15.509 -0.133092 18.09 0.0439743C20.6692 0.220439 23.074 1.00399 25.3079 2.31271C26.5524 3.04206 27.6802 3.92498 28.6968 4.94101C29.9166 6.15939 30.9193 7.54461 31.7145 9.08099C32.5854 10.7631 33.1701 12.5362 33.4305 14.4099C33.6964 16.3214 33.6525 18.2258 33.2711 20.1254C32.7953 22.4947 31.851 24.6532 30.4585 26.6202C30.2384 26.931 30.0086 27.2363 29.765 27.5284C29.4853 27.8639 29.122 28.0018 28.6769 28.0006C25.6093 27.9916 22.5417 27.9958 19.4741 27.9958C18.5821 27.9958 17.6894 27.9958 16.7974 27.9958V27.9946ZM16.7986 25.6186C20.487 25.6186 24.1759 25.6174 27.8643 25.6223C28.0917 25.6223 28.2547 25.5711 28.3978 25.3735C30.0188 23.1439 30.959 20.6536 31.1593 17.909C31.3656 15.0814 30.808 12.3971 29.43 9.90429C27.8372 7.02305 25.5299 4.90909 22.5206 3.59133C20.336 2.63493 18.0407 2.24586 15.6558 2.45063C13.8092 2.60903 12.0462 3.0794 10.3903 3.91535C8.67185 4.78261 7.17775 5.94198 5.91401 7.40428C4.40907 9.14483 3.38112 11.1323 2.82895 13.3577C2.32971 15.3681 2.2852 17.4001 2.65873 19.4442C3.04789 21.5738 3.89179 23.5011 5.13026 25.2681C5.32154 25.541 5.52965 25.6271 5.85266 25.6259C9.50131 25.6156 13.1494 25.6192 16.798 25.6192L16.7986 25.6186Z" fill="currentColor" />
                    <path d="M16.8865 22.7981C15.8868 22.8017 15.0182 22.1777 14.7036 21.2816C14.3963 20.4071 14.7096 19.3989 15.4254 18.8141C17.1018 17.4445 18.7667 16.0599 20.4335 14.6789C21.3056 13.9562 22.1688 13.2226 23.0445 12.5041C23.6178 12.0338 24.3377 12.0585 24.8147 12.5427C25.2911 13.0263 25.3043 13.7466 24.834 14.3158C22.8226 16.7507 20.8052 19.1809 18.7986 21.6194C18.4708 22.0175 18.1562 22.4126 17.6606 22.6162C17.3869 22.7282 17.1036 22.7752 16.8865 22.7975V22.7981Z" fill="currentColor" />
                    <path d="M7.84593 7.61667C8.08773 7.60763 8.26938 7.73411 8.42998 7.88769C8.70426 8.15088 8.97553 8.41768 9.23538 8.69533C9.54815 9.02898 9.55297 9.49333 9.26184 9.77579C8.97914 10.0504 8.52381 10.0486 8.20201 9.74869C7.89465 9.46262 7.59691 9.16449 7.31361 8.85433C7.09226 8.61221 7.04233 8.31891 7.19271 8.01778C7.32443 7.75398 7.5524 7.6257 7.84593 7.61667Z" fill="currentColor" />
                    <path d="M26.6806 8.34754C26.6704 8.58122 26.5813 8.76672 26.428 8.9215C26.1603 9.19132 25.8968 9.46475 25.622 9.72673C25.2707 10.061 24.8382 10.0604 24.5303 9.73697C24.2343 9.4262 24.2518 9.04798 24.5886 8.70167C24.8809 8.40054 25.1793 8.10483 25.4812 7.81273C25.7074 7.5941 25.9744 7.56038 26.2559 7.69047C26.5374 7.82056 26.6698 8.05363 26.6812 8.34694L26.6806 8.34754Z" fill="currentColor" />
                    <path d="M28.4322 16.2843C28.6427 16.2843 28.8532 16.277 29.0632 16.2861C29.4349 16.3017 29.7104 16.5655 29.7416 16.9233C29.7753 17.3027 29.5588 17.6448 29.1889 17.702C28.6638 17.7827 28.1284 17.7881 27.6045 17.6978C27.216 17.6309 26.9946 17.2967 27.0325 16.9317C27.0704 16.5643 27.3525 16.3023 27.7411 16.2861C27.9708 16.2764 28.2018 16.2843 28.4322 16.2843Z" fill="currentColor" />
                    <path d="M16.2061 5.06181C16.2061 4.87149 16.1958 4.68057 16.2085 4.49146C16.2367 4.08071 16.5627 3.76573 16.9465 3.76272C17.3471 3.75971 17.6815 4.0783 17.6984 4.50591C17.7128 4.87571 17.7128 5.2473 17.6984 5.6171C17.6803 6.0694 17.3808 6.36632 16.9651 6.36993C16.5465 6.37354 16.2277 6.05494 16.2067 5.60264C16.1982 5.42256 16.2055 5.24249 16.2055 5.06181H16.2061Z" fill="currentColor" />
                    <path d="M5.17702 16.2866C5.39657 16.2866 5.61671 16.2757 5.83566 16.2884C6.17129 16.3082 6.42933 16.56 6.47805 16.8948C6.53038 17.2562 6.36317 17.5947 6.02092 17.6724C5.45311 17.8013 4.86966 17.8006 4.30185 17.6706C3.98486 17.5977 3.78757 17.2345 3.82607 16.9207C3.86577 16.5949 4.15689 16.3082 4.48771 16.289C4.71628 16.2757 4.94665 16.2866 5.17642 16.2859L5.17702 16.2866Z" fill="currentColor" />
                </g>
                <defs>
                    <clipPath id="clip0_1_4409">
                        <rect width="33.6" height="28" fill="white" />
                    </clipPath>
                </defs>
            </svg>