<?xml version="1.0" encoding="UTF-8"?>
<svg id="Layer_1" data-name="Layer 1" xmlns="http://www.w3.org/2000/svg" width="44" height="44" viewBox="0 0 48 48">
  <path d="M27.973,37.9528h-6.0923v.001c-3.2189,0-6.4373,.0045-9.6556-.003-.7721-.002-1.429-.257-1.8692-.9463-.6973-1.0926-.0784-2.627,1.1865-2.915,.26-.0594,.5215-.0923,.7906-.0923,5.0192,.002,10.0387,.0016,15.058,.0016,.2071-.3981,.4949-.7476,.8387-1.0374-5.3793,.0007-10.7587,.0024-16.1378-.0029-.6643-.0005-1.2643,.1562-1.8068,.5385-.0584,.041-.1228,.1198-.1962,.0819-.0878-.0459-.0474-.1507-.0474-.2291-.002-2.7282-.002-5.4569-.002-8.1851,0-3.9761-.0024-7.9521,.0025-11.9282,.001-.7941,.2615-1.4709,.9813-1.8992,.3833-.2281,.8085-.297,1.2463-.297,5.0242-.0015,10.0485-.001,15.0726-.001h4.2921c.3274,.0005,.3279,.0015,.3279,.3369,.0005,1.1809-.0075,2.3624,.0065,3.5433,.003,.2585-.0858,.4392-.2595,.6124-1.5703,1.5652-3.137,3.134-4.7048,4.7017-.4536,.4537-.9079,.9067-1.3641,1.3577-.0093-.2192-.1108-.294-.4119-.2917-1.4687,.0118-2.9373,.0052-4.4059,.0052h-3.9271c-.5982,0-.8958,.2369-.8928,.7106q.0026,.3546,.4416,.3556h8.3011c.1005,0,.1859-.0002,.265-.0013-.0173,.0662-.0374,.1306-.0372,.2074,.0039,1.2806-.0035,2.562,.0064,3.8427,.002,.2266-.0614,.3973-.2191,.5536-.7916,.7821-1.5771,1.5697-2.3679,2.3528-.2955,.292-.2985,.3454,.0085,.6259,.4507,.4123,.4587,.4203,.9034-.016,.7173-.7038,1.4286-1.414,2.1309-2.1328,.1986-.2031,.3998-.3045,.6947-.3005,1.2474,.016,2.4951,.0035,3.743,.0095,.2405,.001,.4277-.0679,.5974-.2456,.4073-.4262,.8301-.8375,1.2484-1.2533,.0579-.0579,.1247-.1068,.2031-.1732v.0015c.0614,.1078,.0399,.1927,.0399,.273,.0008,1.2042,.0005,2.4083,.0005,3.6125,.3309-.0916,.6753-.1505,1.0341-.1508-.0007-1.5008,.0005-3.0016-.0015-4.5024,0-.225,.0555-.3983,.2147-.5549,.5211-.5121,1.0262-1.0407,1.5538-1.5463,1.2024-1.153,2.248-2.4197,2.9772-3.9326,.7352-1.5248,1.1915-3.124,1.2349-4.8171,.0399-1.5543,.0115-3.1105,.014-4.6658,.0005-.2341-.0614-.4352-.305-.5166-.2371-.0789-.4587-.0504-.6409,.1438-.1193,.1268-.2431,.2501-.3664,.3734-1.2209,1.2213-2.4447,2.4397-3.6616,3.6655-.3145,.317-.607,.6554-.9094,.9843l-.0005-.0005c-.0355-.026-.0709-.0515-.1064-.0774v-.2695c0-1.0811,.0015-2.1627,0-3.2438-.0005-.4502-.1647-.6149-.6183-.6149-6.8036-.0005-13.6067-.0024-20.4103,.002-1.6481,.001-2.9643,1.3162-2.9648,2.9633-.004,7.6851-.0024,15.3701-.001,23.0557,0,.1492,.007,.2994,.0275,.4472,.1902,1.3826,1.5159,2.535,3.0112,2.53,6.0973-.0208,12.1947-.0112,18.292-.0095-.926-.0258-1.7599-.4158-2.3624-1.0377Zm4.6389-21.8053c1.7026-1.7025,3.401-3.409,5.1021-5.1125,.0574-.0574,.1252-.1048,.1851-.1547,.0759,.0494,.0526,.1138,.0526,.1677-.0035,1.2134,.0344,2.4272-.0819,3.6381-.1203,1.2518-.4437,2.4482-.9603,3.5947-.6624,1.4694-1.6442,2.6997-2.7906,3.8203-1.3835,1.3517-2.7382,2.7332-4.1003,4.1063-.1797,.1812-.3634,.278-.6319,.2715-.7562-.0185-1.5134-.0065-2.2701-.0065h-.294c.2117-.3139,.4712-.5196,.6998-.7497,1.392-1.4021,2.7911-2.7971,4.1892-4.1937,.9573-.9564,1.9167-1.9102,2.8754-2.8654,.0175-.0175,.0354-.035,.0524-.053,.167-.1756,.162-.3508-.015-.5255-.0534-.0524-.1093-.1023-.1612-.1562-.3379-.3524-.3294-.3448-.6648-.0074-1.1291,1.1365-2.2645,2.267-3.3972,3.4-1.121,1.1216-2.241,2.2437-3.362,3.3652-.321,.321-.6444,.6394-.9664,.9594l-.0594-.0365,.001,.0005v-2.7411c0-.1722,.1338-.2651,.2356-.3669,2.1188-2.1202,4.2426-4.235,6.3619-6.3544Zm-10.291,11.8615h-2.5684c-.9893,0-1.9781-.0055-2.9669,.0045-.2286,.0025-.3-.0729-.2995-.3,.002-.7411-.006-.7411,.7263-.7411h5.4604c.3434,0,.3434,.001,.3448,.3454,.0023,.4609-.2299,.6913-.6968,.6913Zm-5.7789-12.0663q-.5366,0-.5397-.3556c-.0037-.4738,.3601-.7106,1.0912-.7106h4.7999c1.795,0,3.59,.0067,5.3849-.0051,.3945-.0026,.5146,.0765,.5093,.3351-.0156,.7358,0,.7363-1.0998,.7363h-10.1458Zm-.5397,2.8589c-.0037-.4738,.3601-.7107,1.0912-.7107h4.7999c1.795,0,3.59,.0067,5.3849-.0051,.3945-.0026,.5146,.0765,.5093,.3351-.0156,.7358,0,.7363-1.0998,.7363h-10.1458q-.5366,0-.5397-.3556Zm.8328,6.7117c-.3429,0-.3429-.001-.3448-.3459-.0024-.4608,.2301-.6913,.6973-.6913h3.0671c1.1471,0,2.2941,.0065,3.441-.005,.252-.0025,.3289,.0744,.3254,.326-.01,.7157,0,.7162-.7028,.7162h-6.4832Zm4.4044,3.9501c.2221-.001,.2995,.0759,.282,.29-.0129,.1568-.0139,.3165,0,.4732,.0204,.2256-.0803,.2835-.291,.281-.7475-.0095-1.4949-.0035-2.243-.0035-.7311,0-1.4621-.0085-2.1932,.005-.2441,.0045-.3299-.0813-.3069-.3163,.014-.1398,.012-.283,0-.4233-.0185-.2191,.0524-.308,.2905-.3065,1.4874,.0095,2.9748,.0085,4.4617,.0005Z"/>
  <path d="M37.892,31.5234c-.1985-2.5251-2.3168-4.5191-4.8921-4.5191-2.2028,0-4.0938,1.4308-4.7039,3.5175-1.7405,.6041-2.9297,2.253-2.9297,4.1162,0,2.4052,1.9569,4.3621,4.3621,4.3621h7.0884c2.1047,0,3.8168-1.7121,3.8168-3.8168,0-1.717-1.1286-3.1909-2.7416-3.6598Zm-2.3255,2.9548l-2.181,2.181c-.1063,.1063-.2459,.1597-.3855,.1597s-.2792-.0534-.3855-.1597l-2.181-2.181c-.1559-.156-.2028-.3904-.1183-.5944,.0845-.2034,.2835-.3364,.5038-.3364h1.0905v-2.181c0-.602,.4886-1.0905,1.0905-1.0905s1.0905,.4886,1.0905,1.0905v2.181h1.0905c.2203,0,.4193,.133,.5038,.3364,.0845,.204,.0376,.4384-.1183,.5944Z" fill="#8d9eff"/>
</svg>