<svg width="21" height="20" viewBox="0 0 21 20" fill="none" xmlns="http://www.w3.org/2000/svg">
<path d="M16.1004 7.68C15.8729 4.78562 13.4448 2.5 10.4929 2.5C7.96792 2.5 5.80042 4.14 5.10105 6.53188C3.10605 7.22438 1.74292 9.11438 1.74292 11.25C1.74292 14.0069 3.98605 16.25 6.74292 16.25H14.8679C17.2804 16.25 19.2429 14.2875 19.2429 11.875C19.2429 9.90688 17.9492 8.2175 16.1004 7.68ZM13.4348 11.0669L10.9348 13.5669C10.8129 13.6888 10.6529 13.75 10.4929 13.75C10.3329 13.75 10.1729 13.6888 10.051 13.5669L7.55104 11.0669C7.37229 10.8881 7.31854 10.6194 7.41542 10.3856C7.5123 10.1525 7.74042 10 7.99292 10H9.24292V7.5C9.24292 6.81 9.80292 6.25 10.4929 6.25C11.1829 6.25 11.7429 6.81 11.7429 7.5V10H12.9929C13.2454 10 13.4735 10.1525 13.5704 10.3856C13.6673 10.6194 13.6135 10.8881 13.4348 11.0669Z" fill="#8D9EFF"/>
</svg>
