<svg width="25" height="17" viewBox="0 0 25 17" fill="none" xmlns="http://www.w3.org/2000/svg">
<path d="M24.5517 16.203C24.5651 16.1616 24.5742 16.118 24.5742 16.0721V0.927317C24.5742 0.881136 24.5651 0.837235 24.5514 0.795615C24.5494 0.789914 24.5483 0.784212 24.546 0.778511C24.5278 0.729764 24.501 0.685864 24.4673 0.64738C24.465 0.644814 24.4648 0.641679 24.4625 0.639113C24.461 0.637688 24.4593 0.637118 24.4579 0.635692C24.422 0.597493 24.3795 0.566706 24.3319 0.543615C24.3282 0.541905 24.3254 0.539624 24.3216 0.537914C24.2766 0.517674 24.2276 0.506272 24.176 0.502851C24.1708 0.502566 24.166 0.501425 24.1609 0.501425C24.156 0.50114 24.1517 0.5 24.1469 0.5H0.427886C0.42304 0.5 0.418479 0.50114 0.413632 0.501425C0.409071 0.50171 0.40451 0.502566 0.399949 0.502851C0.347782 0.506272 0.297895 0.517959 0.252284 0.538484C0.249434 0.539624 0.247153 0.54162 0.244303 0.54276C0.195841 0.565851 0.152796 0.597208 0.116592 0.635977C0.115167 0.637402 0.113457 0.637688 0.112031 0.639113C0.109751 0.641394 0.109466 0.64453 0.107185 0.647095C0.0735473 0.685579 0.0464659 0.729764 0.0282216 0.778511C0.0259411 0.784212 0.0248008 0.789914 0.0228054 0.7959C0.00912213 0.83752 0 0.881421 0 0.927602V16.0727C0 16.1194 0.00940716 16.1639 0.0233754 16.2061C0.0253709 16.2118 0.0265112 16.2172 0.0285067 16.2229C0.0470361 16.2719 0.0744024 16.3161 0.108325 16.3546C0.110321 16.3569 0.110891 16.3597 0.112887 16.362C0.114597 16.364 0.116878 16.3652 0.118873 16.3672C0.132841 16.3817 0.148235 16.3945 0.164199 16.4071C0.171325 16.4125 0.177597 16.419 0.185009 16.4242C0.203823 16.4373 0.224063 16.4478 0.244873 16.4575C0.250004 16.4598 0.254565 16.4635 0.259696 16.4655C0.311293 16.4875 0.368022 16.5 0.427601 16.5H24.1463C24.2059 16.5 24.2626 16.4877 24.3142 16.4655C24.3222 16.4621 24.3296 16.457 24.3373 16.453C24.355 16.4441 24.3727 16.435 24.3889 16.4239C24.3975 16.4179 24.4052 16.4102 24.4134 16.4036C24.428 16.392 24.4422 16.3803 24.4548 16.3669C24.4571 16.3646 24.4596 16.3629 24.4619 16.3606C24.4642 16.358 24.4648 16.3546 24.467 16.3521C24.5004 16.3139 24.5272 16.27 24.5454 16.2215C24.5483 16.2152 24.5497 16.2092 24.5517 16.203ZM0.855487 1.89712L8.05258 8.47107L0.855487 15.0975V1.89712ZM15.6066 8.14894C15.5769 8.16832 15.5456 8.18457 15.5208 8.21194C15.5114 8.2222 15.5082 8.2356 15.5 8.24643L12.2873 11.1809L1.52996 1.35492H23.0445L15.6066 8.14894ZM8.68657 9.05004L11.9988 12.0755C12.0806 12.1502 12.1838 12.1875 12.2873 12.1875C12.3907 12.1875 12.4939 12.1502 12.5755 12.0755L15.8466 9.08767L23.0426 15.6448H1.52368L8.68657 9.05004ZM16.4809 8.50841L23.719 1.89712V15.1043L16.4809 8.50841Z" fill="#0E60BF"/>
</svg>
