<svg width="30" height="30" viewBox="0 0 30 30" fill="none" xmlns="http://www.w3.org/2000/svg">
<g clip-path="url(#clip0_1872_908)">
<path d="M0.00957962 17.1209C0.00957962 13.5885 0.0352048 10.0561 -0.00376684 6.52479C-0.018181 5.20888 1.08744 4.20153 2.2694 4.26025C2.68635 4.28107 3.10596 4.25812 3.52397 4.26559C4.01939 4.27413 4.31675 4.5576 4.32049 5.00976C4.32422 5.47793 4.02687 5.76567 3.51756 5.77475C3.12625 5.78169 2.73439 5.77582 2.34308 5.77688C1.72433 5.77795 1.522 5.976 1.522 6.58831C1.52093 9.66695 1.522 12.745 1.522 15.8237C1.522 19.7565 1.522 23.6887 1.522 27.6215C1.522 28.2583 1.74942 28.4884 2.38739 28.4884C8.3933 28.489 14.3992 28.489 20.4051 28.4884C21.0596 28.4884 21.263 28.3128 21.3677 27.6722C21.4269 27.3102 21.7926 27.0108 22.1434 27.0374C22.5251 27.0668 22.8587 27.4266 22.8577 27.8088C22.8555 28.8786 21.9869 29.8417 20.9283 29.9597C20.6534 29.9901 20.379 30.0018 20.1029 30.0018C14.2214 30.0008 8.34044 30.0008 2.45892 30.0013C1.91492 30.0013 1.38907 29.9127 0.939027 29.5903C0.331496 29.1536 0.00584261 28.5653 0.00691033 27.7976C0.0127828 24.2385 0.00957962 20.68 0.00957962 17.1209Z" fill="#D5D5D5"/>
<path d="M29.2302 19.2638C29.1566 23.2638 26.0169 26.3686 22.0942 26.3696C18.1484 26.3707 14.9896 23.1944 14.9805 19.283C14.9714 15.3411 18.0875 12.0997 22.1673 12.137C26.1104 12.1733 29.1539 15.2749 29.2302 19.2638ZM22.0968 13.5656C18.9561 13.5485 16.4796 16.1237 16.4091 19.1068C16.3322 22.3589 18.994 24.9096 22.0173 24.9422C25.1889 24.9769 27.7835 22.407 27.7888 19.2659C27.7942 16.1467 25.2594 13.5501 22.0968 13.5651V13.5656Z" fill="#D5D5D5"/>
<path d="M11.405 8.64526C9.60907 8.64526 7.81263 8.64526 6.01673 8.64526C5.25011 8.64526 4.94688 8.34524 4.94795 7.58185C4.94901 6.89854 4.91058 6.21256 5.09529 5.54207C5.46152 4.21335 6.32423 3.37202 7.62952 2.97378C7.80356 2.92093 7.88844 2.83658 7.94022 2.66149C8.43725 0.986307 9.86478 -0.0835012 11.5854 0.00511562C13.0039 0.0777174 14.0412 0.79199 14.6802 2.0748C14.8121 2.33958 14.8051 2.69138 15.0032 2.87609C15.1927 3.05332 15.528 3.05599 15.7853 3.18304C17.0612 3.81244 17.7477 4.84381 17.8609 6.2478C17.9031 6.76882 17.8759 7.29625 17.8689 7.82101C17.8631 8.25769 17.6228 8.53582 17.1909 8.61536C17.0521 8.64099 16.908 8.64419 16.7665 8.64419C14.9792 8.64579 13.1918 8.64526 11.405 8.64526ZM11.4023 7.13343C12.7989 7.13343 14.1949 7.13343 15.5915 7.13343C16.1168 7.13343 16.372 6.86883 16.357 6.33962C16.3277 5.30237 15.4719 4.42902 14.4351 4.37723C13.8116 4.34627 13.5153 4.05053 13.4854 3.42754C13.4342 2.37321 12.5357 1.51587 11.4696 1.5052C10.3554 1.49399 9.40406 2.34118 9.33466 3.40565C9.28768 4.1226 9.06987 4.33826 8.34489 4.3783C7.89912 4.40286 7.52435 4.5865 7.19336 4.87584C6.61572 5.38085 6.4545 6.04547 6.45823 6.77523C6.46037 7.1313 6.4593 7.13236 6.81165 7.1329C8.34169 7.1329 9.87119 7.1329 11.4012 7.1329L11.4023 7.13343Z" fill="#D5D5D5"/>
<path d="M9.63711 14.3164C8.13483 14.3164 6.63309 14.3185 5.13081 14.3153C4.59428 14.3143 4.28838 14.0377 4.28518 13.568C4.28251 13.1628 4.52648 12.8745 4.92955 12.8163C5.03418 12.8014 5.14256 12.8046 5.24879 12.8046C8.18181 12.804 11.1148 12.8046 14.0479 12.8046C14.1365 12.8046 14.2262 12.8019 14.3142 12.811C14.744 12.8558 15.0072 13.1526 15.0003 13.5797C14.9933 13.9886 14.7253 14.2721 14.303 14.3111C14.2059 14.3201 14.1076 14.3164 14.0099 14.3164C12.5525 14.3164 11.0945 14.3164 9.63711 14.3164Z" fill="#D5D5D5"/>
<path d="M21.3635 8.62231C21.3635 7.96462 21.3662 7.30694 21.363 6.64925C21.3598 6.04068 21.0934 5.7775 20.4874 5.7759C20.0961 5.77536 19.7053 5.77963 19.314 5.77429C18.8362 5.76789 18.4908 5.44171 18.4962 5.01144C18.5015 4.58864 18.8384 4.26941 19.3039 4.26567C19.8372 4.26087 20.3748 4.22884 20.9028 4.28329C22.0388 4.39967 22.8273 5.27569 22.8637 6.50779C22.9037 7.87547 22.8818 9.2453 22.8695 10.6141C22.8653 11.1223 22.5545 11.4388 22.1173 11.4452C21.6651 11.4516 21.3726 11.1821 21.3678 10.7299C21.3598 10.0279 21.3656 9.32537 21.3656 8.62338H21.3646L21.3635 8.62231Z" fill="#D5D5D5"/>
<path d="M8.91924 22.8578C7.63958 22.8578 6.35992 22.86 5.08026 22.8562C4.62862 22.8552 4.32378 22.592 4.28908 22.1921C4.24798 21.7192 4.53252 21.3844 5.00819 21.3487C5.07012 21.3439 5.13258 21.3455 5.19451 21.3455C7.69136 21.3455 10.1888 21.3455 12.6856 21.3455C12.8922 21.3455 13.0945 21.3519 13.2702 21.4832C13.5457 21.6893 13.6588 21.9941 13.5718 22.3032C13.4837 22.616 13.2061 22.8429 12.8639 22.8536C12.4822 22.8653 12.1 22.8584 11.7177 22.8584C10.7845 22.8584 9.85136 22.8584 8.9187 22.8584L8.91924 22.8578Z" fill="#D5D5D5"/>
<path d="M8.57943 18.5878C7.42416 18.5878 6.26942 18.5905 5.11415 18.5862C4.6214 18.5846 4.31336 18.323 4.2872 17.9018C4.25837 17.4379 4.53598 17.115 5.00044 17.0797C5.12429 17.0701 5.24922 17.0749 5.37361 17.0749C7.54161 17.0749 9.70961 17.0749 11.8776 17.0749C11.9753 17.0749 12.0735 17.0712 12.1707 17.0803C12.5924 17.1203 12.8604 17.4054 12.8658 17.8138C12.8716 18.2403 12.6074 18.5366 12.1782 18.5809C12.0815 18.591 11.9828 18.5873 11.8851 18.5873C10.7832 18.5873 9.68131 18.5873 8.57943 18.5873V18.5878Z" fill="#D5D5D5"/>
<path d="M21.3514 22.1217C21.0807 22.1307 20.8741 22.0133 20.7065 21.8078C20.0888 21.0508 19.469 20.2954 18.8503 19.5395C18.6351 19.2768 18.5107 18.9886 18.6693 18.6549C18.9266 18.1131 19.5635 18.0442 19.9601 18.5161C20.3541 18.9854 20.739 19.4626 21.1272 19.9367C21.3396 20.1966 21.3407 20.1988 21.5457 19.9495C22.425 18.8791 23.3026 17.8072 24.1814 16.7363C24.3965 16.4742 24.6485 16.2884 25.0104 16.3882C25.3286 16.4758 25.532 16.684 25.5902 17.0155C25.6335 17.2611 25.5406 17.465 25.3863 17.6524C24.3378 18.9293 23.292 20.2084 22.244 21.4864C22.1313 21.6236 22.015 21.7581 21.8981 21.8916C21.7539 22.0565 21.5671 22.1238 21.3519 22.1222L21.3514 22.1217Z" fill="#D5D5D5"/>
</g>
<defs>
<clipPath id="clip0_1872_908">
<rect width="29.2341" height="30" fill="white"/>
</clipPath>
</defs>
</svg>
