<svg width="30" height="30" viewBox="0 0 30 30" fill="none" xmlns="http://www.w3.org/2000/svg">
<g clip-path="url(#clip0_722_11557)">
<path d="M8.65592 20.321C8.90542 19.8468 9.13947 19.4166 9.35995 18.9803C9.92262 17.8677 10.4848 16.755 10.9641 15.602C11.4379 14.4631 11.7225 13.2826 11.8676 12.0585C12.0806 10.2586 12.1016 8.45123 12.1527 6.64387C12.1639 6.25394 12.1691 5.86448 12.1747 5.47454C12.1868 4.66191 12.8586 3.99767 13.6703 3.97379C14.1267 3.96022 14.5391 4.0618 14.8841 4.367C15.0072 4.47607 15.0718 4.39603 15.1602 4.32909C15.8676 3.7903 16.8342 3.84741 17.4165 4.46952C17.6749 4.7457 17.82 5.07478 17.828 5.46144C17.8519 6.65417 17.8678 7.84691 17.9099 9.03917C17.9581 10.4023 18.0522 11.7626 18.2867 13.1094C18.5086 14.3807 18.9973 15.559 19.5324 16.7231C20.0599 17.8714 20.6544 18.985 21.2339 20.1066C21.2648 20.1661 21.276 20.2424 21.3664 20.2789C21.4216 20.1796 21.4764 20.079 21.5326 19.9798C21.7137 19.6614 21.9314 19.5734 22.2745 19.7186C22.6981 19.8974 23.1129 20.0972 23.5295 20.2924C24.4329 20.7156 25.3345 21.1425 26.238 21.5662C27.1765 22.0062 28.116 22.4443 29.055 22.8839C29.2741 22.9864 29.4918 23.0903 29.7113 23.1914C29.9117 23.2836 29.9968 23.4409 29.9964 23.6586C29.9959 23.8777 29.9014 24.0265 29.7048 24.1225C28.6192 24.6524 27.5346 25.1846 26.45 25.7178C25.415 26.2266 24.3815 26.7387 23.346 27.2462C22.1631 27.8262 20.9788 28.4024 19.7954 28.9805C19.2356 29.2543 18.6757 29.5287 18.1159 29.8025C18.0176 29.8502 17.9216 29.9041 17.82 29.9425C17.6112 30.0206 17.3987 30.03 17.2274 29.8671C17.0547 29.7028 17.0519 29.4875 17.1333 29.2801C17.2213 29.0554 17.3252 28.8363 17.4343 28.6215C17.5073 28.4778 17.4919 28.401 17.3266 28.3448C16.3567 28.0134 15.6288 27.381 15.0942 26.5164C15.0212 26.3984 14.9833 26.3923 14.907 26.5145C14.3701 27.3758 13.6459 28.0134 12.6751 28.3448C12.5108 28.401 12.493 28.4792 12.5679 28.6224C12.6652 28.8087 12.7495 29.002 12.8356 29.194C12.9382 29.4215 12.969 29.6527 12.7818 29.8484C12.5932 30.0459 12.3572 30.0277 12.1316 29.9233C11.3747 29.5736 10.6215 29.2155 9.86644 28.8607C8.43451 28.1875 7.00211 27.5149 5.57017 26.8413C4.35029 26.2674 3.13087 25.6916 1.91099 25.1172C1.41012 24.8813 0.91065 24.643 0.407905 24.4118C0.182746 24.3079 0.00673833 24.1843 0.00299349 23.8997C-0.000751357 23.6179 0.160745 23.4854 0.38684 23.3735C2.06359 22.5426 3.73801 21.7075 5.41242 20.872C6.12394 20.5167 6.83312 20.1572 7.5437 19.8005C7.62 19.7621 7.69865 19.726 7.77963 19.6984C8.07875 19.5954 8.29501 19.6764 8.45089 19.9475C8.51268 20.0547 8.56979 20.1642 8.65545 20.3215L8.65592 20.321ZM15.4875 19.815C15.4875 21.2268 15.486 22.6386 15.4889 24.0499C15.4889 24.2367 15.501 24.424 15.5226 24.6098C15.6803 25.9874 16.4106 26.9199 17.7039 27.4194C17.9076 27.498 18.004 27.447 18.0943 27.248C18.4454 26.4747 18.8147 25.7094 19.1789 24.9417C19.67 23.9067 20.1559 22.8689 20.6581 21.8395C20.7766 21.5971 20.7653 21.4014 20.6418 21.1636C19.9808 19.8913 19.3025 18.6274 18.6954 17.3279C18.2067 16.2822 17.7428 15.2247 17.4615 14.1013C17.175 12.9568 17.0509 11.7846 16.9713 10.6111C16.8642 9.03168 16.8403 7.44855 16.8562 5.86541C16.8576 5.71609 16.8445 5.57144 16.8014 5.4268C16.7013 5.08836 16.4592 4.92967 16.1157 4.98584C15.7402 5.04763 15.4907 5.36547 15.4903 5.82796C15.486 8.51115 15.4893 11.1939 15.4851 13.8771C15.4851 14.0306 15.5413 14.0957 15.6859 14.1364C16.69 14.4196 17.3252 15.199 17.438 16.2419C17.5523 17.2952 17.6852 18.3461 17.8097 19.3979C17.8593 19.8154 17.9216 20.2321 17.953 20.651C17.975 20.9459 17.7615 21.1758 17.4914 21.1996C17.2503 21.2212 17.0041 21.0101 16.9596 20.74C16.889 20.3098 16.8492 19.8754 16.7911 19.4433C16.6516 18.4093 16.5501 17.3705 16.4293 16.3337C16.3764 15.8763 16.1831 15.4995 15.7767 15.2547C15.7037 15.2107 15.6199 15.1456 15.5399 15.1817C15.4449 15.2247 15.4893 15.3352 15.4893 15.4152C15.487 16.8814 15.4875 18.3479 15.4875 19.814V19.815ZM14.5152 19.8403C14.5152 18.3582 14.5152 16.8767 14.5152 15.3947C14.5152 15.147 14.4623 15.1166 14.2484 15.2421C13.8987 15.4471 13.6717 15.7495 13.6104 16.1483C13.5195 16.7409 13.4521 17.3368 13.3796 17.9318C13.2663 18.8596 13.16 19.7883 13.0453 20.7156C13.0093 21.0068 12.764 21.2202 12.5131 21.1987C12.2337 21.1748 12.0347 20.9422 12.0483 20.6285C12.0623 20.3093 12.126 19.9952 12.1658 19.6788C12.31 18.5272 12.442 17.3743 12.5674 16.2204C12.6788 15.1952 13.322 14.413 14.3148 14.1378C14.4754 14.0933 14.5185 14.0133 14.5185 13.8569C14.5147 11.1897 14.5152 8.52192 14.5161 5.85465C14.5161 5.65383 14.4586 5.46893 14.3631 5.29666C14.2385 5.07244 13.9479 4.94418 13.681 4.98444C13.3885 5.02891 13.2541 5.15576 13.1895 5.46799C13.1642 5.58923 13.1497 5.71515 13.1493 5.83873C13.1479 7.28892 13.1366 8.73818 13.0496 10.187C12.9751 11.4256 12.86 12.6576 12.5922 13.8696C12.287 15.25 11.7 16.5275 11.0868 17.7895C10.5115 18.9738 9.8964 20.1389 9.29442 21.3101C9.22795 21.4393 9.21858 21.5507 9.28318 21.6846C9.59869 22.3371 9.90857 22.992 10.218 23.6478C10.7933 24.8673 11.3681 26.0871 11.9392 27.3084C12.0038 27.4465 12.0787 27.4938 12.2299 27.44C12.6451 27.293 13.0304 27.0978 13.3665 26.8076C14.18 26.1049 14.5044 25.1884 14.5124 24.1454C14.5236 22.7102 14.5152 21.2755 14.5157 19.8403H14.5152ZM6.33271 22.7669C6.10802 22.7715 5.92031 22.9644 5.92219 23.1886C5.92406 23.4143 6.11317 23.6034 6.33833 23.6052C6.57145 23.6071 6.76946 23.404 6.76056 23.1718C6.75214 22.9466 6.55741 22.7622 6.33271 22.7669ZM23.6653 22.7669C23.4415 22.7641 23.2482 22.9499 23.2416 23.1746C23.2351 23.3923 23.4261 23.5963 23.6451 23.6057C23.8759 23.616 24.0805 23.4185 24.0805 23.1863C24.0805 22.9672 23.8843 22.7697 23.6653 22.7669Z" fill="currentColor"/>
<path d="M11.9254 3.60165C11.9352 3.80621 11.8336 3.9546 11.6497 4.04307C11.4652 4.13154 11.2742 4.11984 11.1263 3.9766C10.712 3.5759 10.3001 3.17146 9.90456 2.7525C9.71264 2.54888 9.744 2.2741 9.93639 2.07796C10.1185 1.89212 10.4101 1.87293 10.6123 2.06626C11.0233 2.459 11.4198 2.86766 11.8215 3.27023C11.9109 3.35964 11.9291 3.47432 11.9254 3.60212V3.60165Z" fill="currentColor"/>
<path d="M18.0753 3.58735C18.0682 3.43475 18.1305 3.31491 18.2349 3.21052C18.6047 2.84212 18.9703 2.46904 19.3438 2.10439C19.569 1.88438 19.8545 1.87642 20.0558 2.06881C20.2725 2.27572 20.2838 2.56547 20.06 2.79719C19.6813 3.18946 19.2928 3.57237 18.9029 3.95388C18.7489 4.10461 18.5583 4.13644 18.3622 4.0489C18.1665 3.96183 18.0626 3.80596 18.0753 3.58641V3.58735Z" fill="currentColor"/>
<path d="M9.15443 7.65367C8.88995 7.65367 8.62547 7.65741 8.36146 7.65273C8.04268 7.64712 7.83156 7.44489 7.83203 7.15514C7.8325 6.86959 8.0497 6.65847 8.36146 6.65567C8.88995 6.65098 9.41891 6.65052 9.9474 6.65567C10.2446 6.65847 10.4614 6.86959 10.4665 7.14203C10.4717 7.42711 10.254 7.64571 9.9474 7.65226C9.68339 7.65788 9.41891 7.6532 9.15443 7.6532V7.65367Z" fill="currentColor"/>
<path d="M20.8286 7.65361C20.572 7.65361 20.3155 7.65735 20.059 7.6522C19.7426 7.64565 19.5324 7.44015 19.5352 7.14946C19.538 6.86532 19.7561 6.65795 20.0698 6.65514C20.5908 6.65092 21.1118 6.65092 21.6323 6.65514C21.9459 6.65748 22.1669 6.86579 22.1692 7.14759C22.172 7.44109 21.9497 7.64893 21.6211 7.65314C21.3566 7.65689 21.0926 7.65408 20.8281 7.65314L20.8286 7.65361Z" fill="currentColor"/>
<path d="M15.4864 1.30381C15.4864 1.56875 15.4911 1.83323 15.4855 2.09818C15.4789 2.42071 15.3001 2.60374 15.0005 2.60655C14.7037 2.60935 14.5193 2.42352 14.5165 2.10146C14.5118 1.56407 14.5109 1.02669 14.517 0.489769C14.5207 0.161626 14.6934 -0.00267937 15.0094 0.000597373C15.3071 0.00340601 15.4775 0.172861 15.4845 0.486492C15.4906 0.75893 15.4859 1.03137 15.4859 1.30381H15.4864Z" fill="currentColor"/>
</g>
<defs>
<clipPath id="clip0_722_11557">
<rect width="29.9939" height="30" fill="white" transform="translate(0.00292969)"/>
</clipPath>
</defs>
</svg>
