<svg width="24" height="24" viewBox="0 0 24 24" fill="none" xmlns="http://www.w3.org/2000/svg">
<path d="M8.50121 16.0003C7.67279 16.0003 7.00121 16.6719 7.00121 17.5003C7.00121 18.3287 7.67279 19.0003 8.50121 19.0003H15.5012C16.3297 19.0003 17.0012 18.3287 17.0012 17.5003C17.0012 16.6719 16.3297 16.0003 15.5012 16.0003H8.50121ZM19.9908 4.09204C19.9116 2.92125 18.9369 1.99609 17.746 1.99609H6.24609L6.09204 2.00128C4.92125 2.08044 3.99609 3.05522 3.99609 4.24609V19.7442L4.00128 19.8982C4.08044 21.069 5.05522 21.9942 6.24609 21.9942H17.746L17.9 21.989C19.0708 21.9098 19.996 20.935 19.996 19.7442V4.24609L19.9908 4.09204ZM6.24609 3.49609H17.746L17.8478 3.50294C18.2138 3.5526 18.496 3.86639 18.496 4.24609V19.7442L18.4891 19.846C18.4395 20.212 18.1257 20.4942 17.746 20.4942H6.24609L6.14432 20.4873C5.77824 20.4377 5.49609 20.1239 5.49609 19.7442V4.24609L5.50293 4.14432C5.5526 3.77824 5.86639 3.49609 6.24609 3.49609Z" fill="currentColor"/>
</svg>
