<svg width="30" height="30" viewBox="0 0 30 30" fill="none" xmlns="http://www.w3.org/2000/svg">
<g clip-path="url(#clip0_842_4057)">
<path d="M14.975 30C13.2032 30 11.4315 30 9.66025 30C9.13372 30 8.99348 29.8598 8.99248 29.3367C8.99148 28.8376 8.99248 28.3386 8.99198 27.8395C8.99149 27.5061 8.99049 27.5051 8.66209 27.5046C6.03393 27.5046 3.40577 27.5046 0.777612 27.5046C0.70275 27.5046 0.627888 27.5061 0.553026 27.5041C0.197181 27.4946 0.0120223 27.3189 0.0115232 26.9636C0.00852872 24.9842 0.00852872 23.0044 0.0115232 21.025C0.0120223 20.6467 0.182209 20.483 0.567499 20.4805C1.2747 20.4765 1.98189 20.4681 2.68809 20.4845C2.94712 20.4905 3.01 20.4012 3.0085 20.1546C2.99902 18.4912 3.00701 16.8278 3.00002 15.1643C2.99902 14.8973 3.07239 14.6942 3.26852 14.5015C4.1504 13.6336 5.0173 12.7508 5.8907 11.8749C6.17218 11.5929 6.17368 11.5949 6.45166 11.8814C6.56146 11.9947 6.66677 12.1134 6.78355 12.2193C6.89834 12.3236 6.88437 12.4039 6.77956 12.5077C6.2141 13.0697 5.65363 13.6361 5.09167 14.2016C4.78124 14.5135 4.47331 14.8279 4.16138 15.1379C4.07205 15.2267 4.0396 15.3275 4.0401 15.4513C4.0421 17.0484 4.0431 18.6454 4.0401 20.242C4.0401 20.4097 4.0945 20.4815 4.27018 20.481C5.43454 20.4765 6.59889 20.4746 7.76325 20.482C8.01079 20.4835 7.99582 20.3358 7.99582 20.1706C7.99532 17.7421 7.99382 15.3131 7.99732 12.8845C7.99881 11.8255 8.37811 10.9072 9.04738 10.0967C9.62731 9.39445 10.367 8.93879 11.2264 8.67029C11.4275 8.6074 11.415 8.55051 11.2922 8.41426C10.6804 7.73251 10.2567 6.95045 10.077 6.04762C9.57691 3.53724 10.9579 1.11869 13.3674 0.277741C15.5409 -0.480862 17.9485 0.361088 19.2127 2.28005C20.4005 4.08273 20.2767 6.64252 18.8194 8.28799C18.6282 8.50359 18.6372 8.52106 18.9097 8.57347C20.9435 8.96375 22.4996 10.8298 22.5056 12.904C22.5121 15.3076 22.5071 17.7116 22.5076 20.1152C22.5076 20.3568 22.625 20.4779 22.8599 20.4785C23.9579 20.4785 25.0559 20.4726 26.1534 20.483C26.3934 20.4855 26.4673 20.4102 26.4658 20.1706C26.4568 18.6404 26.4548 17.1097 26.4678 15.5796C26.4698 15.3275 26.378 15.1558 26.2113 14.9911C25.4197 14.2091 24.6317 13.424 23.8441 12.6375C23.5866 12.38 23.5896 12.338 23.8506 12.0805C24.3208 11.6169 24.3292 11.6084 24.7949 12.067C25.6413 12.9 26.4753 13.7449 27.3167 14.5829C27.4645 14.7301 27.4999 14.9063 27.4994 15.1059C27.4964 16.7779 27.4974 18.4498 27.4979 20.1212C27.4979 20.3588 27.6173 20.4777 27.8562 20.478C28.3803 20.4785 28.9043 20.4755 29.4283 20.4795C29.8256 20.4825 29.9913 20.6452 29.9918 21.0425C29.9943 22.9969 29.9943 24.9518 29.9918 26.9062C29.9918 27.3344 29.8166 27.5031 29.3784 27.5031C26.7168 27.5041 24.0552 27.5036 21.3936 27.5036C21.1374 27.5036 21.0094 27.6304 21.0094 27.8839C21.0094 28.3915 21.0118 28.8985 21.0089 29.4061C21.0064 29.8218 20.8307 29.998 20.4154 29.9985C18.6023 30 16.7891 29.999 14.976 29.999L14.975 30ZM14.9989 21.5156C10.4583 21.5156 5.91815 21.5156 1.37751 21.5156C1.04612 21.5156 1.04562 21.5166 1.04562 21.848C1.04562 23.2699 1.04562 24.6923 1.04562 26.1142C1.04562 26.3497 1.16606 26.4675 1.40695 26.4675C4.07654 26.4675 6.74562 26.4675 9.41521 26.4685C9.87186 26.4685 10.0271 26.6262 10.0286 27.0849C10.0306 27.6254 10.0356 28.1659 10.0261 28.7064C10.0226 28.903 10.0945 28.9659 10.2881 28.9654C13.4313 28.9614 16.575 28.9614 19.7182 28.9654C19.9174 28.9654 19.9783 28.892 19.9753 28.7009C19.9663 28.1854 19.9718 27.6698 19.9723 27.1542C19.9728 26.5923 20.098 26.467 20.662 26.467C23.3146 26.467 25.9677 26.467 28.6203 26.467C28.9537 26.467 28.9552 26.466 28.9552 26.1366C28.9552 24.7227 28.9552 23.3093 28.9552 21.8954C28.9552 21.6419 28.827 21.515 28.5704 21.5146C24.0468 21.5146 19.5226 21.5146 14.9989 21.5146V21.5156ZM15.2415 20.4785C17.1874 20.4785 19.1333 20.4785 21.0792 20.4785C21.3384 20.4785 21.4682 20.345 21.4685 20.0778C21.4685 17.8489 21.47 15.6205 21.467 13.3916C21.467 13.168 21.4455 12.9439 21.4281 12.7203C21.3023 11.1148 20.0601 9.88954 18.7016 9.6435C18.3542 9.58061 18.3088 9.59808 18.1546 9.90601C17.2727 11.6683 16.3889 13.4295 15.51 15.1928C15.4022 15.4084 15.2475 15.5252 15.0029 15.5262C14.7589 15.5267 14.5987 15.4159 14.4929 15.1978C14.2748 14.7491 14.0467 14.3054 13.8236 13.8592C13.1573 12.5282 12.49 11.1981 11.8288 9.86509C11.7519 9.71037 11.6676 9.65647 11.4969 9.71087C11.2019 9.8052 10.9209 9.92747 10.6629 10.0962C9.53448 10.8338 9.0384 11.9093 9.03341 13.2264C9.02442 15.5297 9.03091 17.8334 9.03141 20.1367C9.03141 20.4775 9.03241 20.4785 9.37927 20.4785C11.3337 20.4785 13.2876 20.4785 15.242 20.4785H15.2415ZM14.961 8.97223C17.136 8.96724 18.9591 7.30979 18.9501 5.00454C18.9412 2.7981 17.2493 1.07627 15.0004 1.07477C12.761 1.07328 11.0587 2.79311 11.0492 5.00304C11.0392 7.30281 12.8419 8.9323 14.961 8.97173V8.97223ZM12.9397 9.61754C12.9662 9.70838 12.9722 9.7488 12.9891 9.78324C13.6205 11.0459 14.2528 12.3081 14.8866 13.5698C14.9141 13.6247 14.9251 13.717 15.0084 13.7065C15.0803 13.6975 15.0937 13.6117 15.1222 13.5543C15.7475 12.3071 16.3719 11.0594 16.9952 9.81169C17.0192 9.76377 17.0681 9.71486 17.0087 9.64C15.6742 10.182 14.3307 10.1875 12.9397 9.61754Z" fill="currentColor"/>
<path d="M13.5222 22.9971C13.5172 23.5755 13.5831 23.5116 13.0006 23.5111C12.4237 23.5106 12.4861 23.5775 12.4866 22.9911C12.4866 22.4127 12.4212 22.477 13.0066 22.477C13.5885 22.477 13.5147 22.4157 13.5222 22.9976V22.9971Z" fill="currentColor"/>
<path d="M15.5188 22.9961C15.5128 23.5765 15.5812 23.5107 14.9983 23.5112C14.4178 23.5112 14.4837 23.5755 14.4837 22.9921C14.4837 22.4127 14.4188 22.4771 15.0027 22.4771C15.5827 22.4771 15.5128 22.4122 15.5188 22.9961Z" fill="currentColor"/>
<path d="M17.011 22.4749C17.572 22.4814 17.5146 22.4125 17.5136 22.983C17.5126 23.5804 17.5845 23.5095 16.9821 23.5105C16.4171 23.5115 16.4795 23.5699 16.4795 23.0039C16.4795 22.4075 16.4101 22.4814 17.011 22.4754V22.4749Z" fill="currentColor"/>
<path d="M15.5184 17.5077C15.5114 18.0866 15.5808 18.0197 14.9954 18.0202C14.414 18.0202 14.4838 18.0811 14.4828 17.4987C14.4818 16.9227 14.4195 16.9851 15.0044 16.9861C15.5803 16.9871 15.5119 16.9198 15.5189 17.5077H15.5184Z" fill="currentColor"/>
</g>
<defs>
<clipPath id="clip0_842_4057">
<rect width="29.9838" height="29.9998" fill="white" transform="translate(0.00830078 0.00012207)"/>
</clipPath>
</defs>
</svg>
