<svg width="24" height="25" viewBox="0 0 24 25" fill="none" xmlns="http://www.w3.org/2000/svg">
<path d="M8.49731 16.4998C7.66889 16.4998 6.99731 17.1714 6.99731 17.9998C6.99731 18.8282 7.66889 19.4998 8.49731 19.4998H15.4973C16.3258 19.4998 16.9973 18.8282 16.9973 17.9998C16.9973 17.1714 16.3258 16.4998 15.4973 16.4998H8.49731ZM19.9869 4.59156C19.9077 3.42077 18.933 2.49561 17.7421 2.49561H6.24219L6.08814 2.5008C4.91735 2.57996 3.99219 3.55474 3.99219 4.74561V20.2437L3.99738 20.3977C4.07654 21.5685 5.05132 22.4937 6.24219 22.4937H17.7421L17.8961 22.4885C19.0669 22.4093 19.9921 21.4345 19.9921 20.2437V4.74561L19.9869 4.59156ZM6.24219 3.99561H17.7421L17.8439 4.00246C18.2099 4.05212 18.4921 4.36591 18.4921 4.74561V20.2437L18.4852 20.3455C18.4356 20.7115 18.1218 20.9937 17.7421 20.9937H6.24219L6.14042 20.9868C5.77434 20.9372 5.49219 20.6234 5.49219 20.2437V4.74561L5.49903 4.64384C5.5487 4.27776 5.86249 3.99561 6.24219 3.99561Z" fill="currentColor"/>
</svg>
