<svg width="30" height="24" viewBox="0 0 30 24" fill="none" xmlns="http://www.w3.org/2000/svg">
<path d="M12.483 23.9369C12.483 23.6189 12.5474 23.2844 12.4652 22.9897C12.3802 22.6854 12.2184 22.2604 11.9799 22.1645C10.6927 21.6518 10.398 20.6306 10.409 19.4078C10.409 19.2762 10.3925 19.146 10.3884 19.0733C9.20405 19.0733 8.06629 19.1337 6.93949 19.0541C6.01557 18.9883 5.06972 18.8636 4.19377 18.5785C1.19172 17.6052 -0.128363 14.392 1.27945 11.5394C1.68109 10.7252 2.26643 10.0041 2.69138 9.19945C3.29453 8.05894 3.82092 6.87868 4.39391 5.7231C4.46245 5.58602 4.6105 5.48732 4.72153 5.3708C4.81612 5.49829 4.97924 5.61892 4.99432 5.75463C5.08754 6.64016 5.65368 7.13228 6.39665 7.4599C7.89768 8.12063 9.49329 8.19328 11.0944 8.10281C11.2945 8.09184 11.5618 7.71898 11.6482 7.46402C12.4899 4.99794 13.2986 2.52228 14.1335 0C14.2198 0.15353 14.4008 0.339959 14.4337 0.549692C14.9751 4.01371 17.6194 5.93557 21.6893 4.47567C22.557 4.1645 22.5598 4.17135 23.3795 4.69637C21.9292 7.02262 20.4762 9.35024 19.0121 11.6971C20.3912 11.6532 21.6249 11.5984 22.86 11.5819C23.8113 11.5682 24.7956 11.756 25.7058 11.5668C26.4871 11.4037 27.2438 10.913 27.8949 10.4154C28.3391 10.0768 28.6845 9.84236 29.2849 10.1439C29.2644 11.7327 28.8942 13.2886 28.2047 14.7635C26.8682 17.6203 24.6927 19.438 21.5399 19.9575C20.9203 20.0603 20.2692 19.9452 19.6345 19.9794C18.4803 20.0411 17.3055 20.0233 16.1828 20.2495C14.6626 20.5565 13.7291 21.6573 13.1108 23.0377C12.9655 23.3626 12.8052 23.6792 12.6516 24L12.4803 23.9383L12.483 23.9369ZM4.33497 7.95202C3.7277 9.60247 3.08617 11.0912 2.63791 12.6347C2.1458 14.3304 2.41859 15.9013 3.958 17.0336C4.84765 17.6888 5.86752 17.9753 6.95868 18.037C8.48438 18.1247 9.94566 17.8095 11.3919 17.3626C11.6153 17.294 11.9484 17.305 12.1156 17.4311C12.228 17.5147 12.1746 17.8753 12.1293 18.1001C12.0512 18.5003 11.9018 18.8855 11.8209 19.2858C11.6633 20.0644 11.9662 20.6594 12.6585 21.0541C13.0053 21.2515 13.2575 21.2625 13.5276 20.902C14.8435 19.1446 16.7092 18.6662 18.7147 19.0596C22.1088 19.7231 26.3925 16.913 27.47 13.7574C27.5879 13.4147 27.6153 13.0404 27.6715 12.7526C25.8949 12.7526 24.2322 12.7567 22.5707 12.7526C20.42 12.7457 18.3665 13.0007 16.9093 14.8883C16.4858 14.5716 16.1074 14.2879 15.7058 13.9877C17.1739 11.2652 19.4727 9.13091 20.7489 6.23166C18.483 6.14393 16.3309 6.02193 14.4145 4.8636C13.921 6.2865 13.4453 7.65593 12.908 9.20082C11.1328 9.20082 9.26574 9.24606 7.40145 9.183C6.33908 9.14736 5.24107 9.05277 4.3336 7.95339L4.33497 7.95202Z" fill="currentColor"/>
</svg>
