<svg width="33" height="32" viewBox="0 0 33 32" fill="none" xmlns="http://www.w3.org/2000/svg">
<g clip-path="url(#clip0_722_11041)">
<path d="M27.0047 20.8074C25.2847 20.8074 23.5647 20.8101 21.8447 20.8037C21.6489 20.8032 21.5127 20.8675 21.385 21.0106C19.9246 22.6408 18.4589 24.2661 16.9979 25.8957C16.8346 26.0776 16.6367 26.1297 16.4031 26.1292C14.8784 26.126 13.3531 26.1308 11.8283 26.1234C11.6054 26.1223 11.4532 26.1792 11.3138 26.3681C10.4397 27.5513 9.54593 28.7196 8.67395 29.9039C8.46327 30.1907 8.22332 30.3859 7.87219 30.4636C6.41977 30.786 4.9647 31.0999 3.52026 31.4547C2.86108 31.6165 2.18914 31.7255 1.54274 31.9538C1.28258 32.0458 0.963365 31.9719 0.671286 31.9703C0.601591 31.9703 0.56435 31.9266 0.542537 31.8585C0.388783 31.3819 0.581374 30.9701 1.06498 30.8514C2.15722 30.5828 3.25531 30.3407 4.35128 30.0869C5.3951 29.8454 6.43839 29.6001 7.48328 29.3628C7.62427 29.3309 7.71524 29.2607 7.7993 29.1474C8.7314 27.8971 9.67308 26.6543 10.5999 25.3998C10.7978 25.1317 11.0234 24.9774 11.3596 25.0226C11.6229 25.0583 11.7235 24.9614 11.7113 24.6853C11.6905 24.2161 11.7113 23.7458 11.7022 23.276C11.6995 23.1393 11.7756 22.961 11.5681 22.8903C11.3128 22.8036 11.0212 22.8727 10.8994 23.0557C10.5701 23.5494 10.2163 24.0299 9.921 24.5438C9.23576 25.736 8.26482 26.6772 7.29761 27.6258C6.81719 28.0966 6.34316 28.5738 5.86487 29.0473C5.48661 29.4219 5.18974 29.4203 4.81999 29.0484C4.35766 28.5845 3.89321 28.1227 3.42981 27.6598C3.10794 27.3385 3.10635 27.0028 3.42343 26.6862C4.23157 25.8797 5.0445 25.0779 5.84359 24.2624C6.1112 23.9889 6.25804 23.6255 6.4618 23.3042C6.72302 22.8929 6.96297 22.4684 7.21887 22.0539C7.31942 21.8911 7.36411 21.7544 7.23217 21.5735C6.63471 20.7542 6.5565 19.8673 6.91881 18.9294C7.37209 17.7563 7.81686 16.5794 8.27546 15.4079C8.35952 15.1935 8.34303 15.0477 8.18289 14.8626C6.97307 13.4645 7.27207 11.2305 8.79737 10.175C10.7861 8.79863 13.4637 9.92332 13.8441 12.31C13.9441 12.9367 13.8957 13.5682 13.5919 14.1508C13.5036 14.3199 13.5334 14.3864 13.7361 14.3838C14.3299 14.3758 14.9241 14.3731 15.5179 14.3849C15.7269 14.3891 15.8451 14.2625 15.968 14.1407C16.5973 13.5182 17.2501 12.9159 17.8401 12.2584C18.5913 11.421 19.5101 10.8134 20.4369 10.208C20.8599 9.93183 21.2791 9.64986 21.7015 9.37374C21.8106 9.30245 21.8851 9.21041 21.9207 9.08486C22.1671 8.22458 22.4118 7.36377 22.6634 6.50562C22.7214 6.30877 22.6948 6.20609 22.4879 6.09117C21.3073 5.43732 20.6907 4.43872 20.7529 3.06929C20.8104 1.80255 21.4377 0.88056 22.5608 0.334174C24.5553 -0.636232 26.8185 0.614018 27.1415 2.71178C27.2367 3.33158 27.2 3.95192 26.9127 4.53076C26.8473 4.6627 26.8621 4.74782 26.9744 4.85263C28.4274 6.20556 29.4898 7.82024 30.1777 9.68019C30.4208 10.3378 30.5943 11.0177 30.6991 11.7104C30.7672 12.1605 30.6172 12.5887 30.457 13.0027C30.4027 13.1431 30.3964 13.2639 30.4272 13.4107C30.8465 15.4212 31.5902 17.3322 32.2286 19.2752C32.3601 19.6742 32.5383 20.0413 32.5053 20.4823C32.4861 20.7361 32.4164 20.8138 32.1643 20.8127C30.4442 20.8037 28.7242 20.8079 27.0042 20.8079L27.0047 20.8074ZM15.47 22.8621H15.471C15.471 23.4915 15.47 24.1208 15.4721 24.7502C15.4721 24.8433 15.4476 24.9503 15.5631 25.0061C15.7589 25.1008 16.2701 24.9965 16.4218 24.8268C16.6575 24.5624 16.8894 24.2943 17.1267 24.0309C18.2104 22.8254 19.2979 21.6235 20.3789 20.4153C20.7402 20.0115 21.0647 19.5609 21.7164 19.6971C21.8585 19.7269 21.908 19.6146 21.9335 19.4859C22.2016 18.1223 22.4714 16.7593 22.7464 15.3968C22.8092 15.0861 22.8411 14.761 23.0476 14.4987C23.3327 14.1369 23.6216 13.7778 23.9089 13.4176C24.2127 13.0367 24.5154 12.6547 24.8218 12.2759C24.958 12.1073 24.9165 11.912 24.8176 11.7827C24.7165 11.6508 24.6021 11.8264 24.509 11.8838C23.5812 12.4552 22.6544 13.0282 21.7351 13.6129C21.3323 13.8688 20.8631 14.0502 20.5455 14.4072C19.6033 15.4654 18.6823 16.5433 17.779 17.635C17.4943 17.9787 17.1879 18.2 16.7373 18.217C16.4633 18.2276 16.1909 18.2643 15.9174 18.2888C14.9039 18.3793 13.8904 18.4702 12.8764 18.5591C12.7774 18.5676 12.7109 18.6022 12.679 18.7022C12.6412 18.8203 12.5976 18.9363 12.5513 19.0517C12.4912 19.2028 12.5252 19.272 12.7003 19.2986C13.1903 19.3725 13.6787 19.4593 14.166 19.5524C14.9321 19.6987 15.4631 20.3328 15.4694 21.1075C15.4748 21.6922 15.4705 22.2774 15.4705 22.8626L15.47 22.8621ZM24.0669 19.7013C24.3329 19.7013 24.5989 19.6992 24.8649 19.7024C24.9926 19.704 25.0559 19.6572 25.0719 19.521C25.1368 18.9671 25.207 18.4138 25.2831 17.8616C25.3709 17.2216 25.4002 16.5736 25.5342 15.9394C25.5747 15.7479 25.6582 15.6016 25.8199 15.4813C26.8648 14.7035 27.9102 13.9268 28.9423 13.1319C29.4696 12.726 29.6425 12.1642 29.5036 11.5199C29.3036 10.5899 28.9966 9.69508 28.5667 8.84438C27.9938 7.71065 27.2484 6.70566 26.3349 5.8225C26.1907 5.68311 26.0881 5.66024 25.9136 5.79431C25.3805 6.20343 24.7782 6.44816 24.0946 6.43912C23.9137 6.43699 23.8493 6.5253 23.8057 6.68065C23.5705 7.51646 23.3029 8.34375 23.0981 9.18647C22.9667 9.72754 22.7177 10.1212 22.2288 10.4117C21.5212 10.832 20.8524 11.3177 20.1608 11.7652C19.9677 11.8902 19.9155 12.0088 20.0475 12.2142C20.1619 12.3919 20.2555 12.5866 20.3342 12.7835C20.4194 12.9963 20.5013 13.0399 20.7162 12.9021C21.7611 12.2334 22.8177 11.5827 23.8722 10.9288C24.0068 10.8453 24.094 10.732 24.1627 10.5937C24.418 10.0771 24.6825 9.56527 24.9314 9.04549C25.0267 8.84704 25.1448 8.8114 25.3315 8.91301C25.5177 9.01463 25.7103 9.10614 25.9008 9.2003C26.0263 9.26255 26.0668 9.35193 26.0003 9.48174C25.9396 9.60038 25.8891 9.72435 25.8204 9.83767C25.6789 10.0707 25.6502 10.3064 25.7242 10.574C25.8577 11.0608 25.9678 11.554 26.0843 12.045C26.1375 12.269 26.1285 12.4866 25.9758 12.6765C25.5927 13.1532 25.2155 13.6342 24.824 14.1039C24.3191 14.7099 23.8647 15.3079 23.7578 16.1538C23.6179 17.2578 23.3428 18.3447 23.1125 19.4359C23.0635 19.6678 23.1423 19.7157 23.3497 19.7051C23.5886 19.6928 23.8286 19.7024 24.068 19.7013H24.0669ZM12.8099 23.5638H12.8109C12.8109 23.9713 12.8131 24.3794 12.8099 24.7869C12.8088 24.9343 12.8498 25.0242 13.0184 25.0226C13.3994 25.0184 13.7808 25.0194 14.1617 25.0226C14.3102 25.0237 14.366 24.9529 14.3655 24.8103C14.3634 23.6138 14.3692 22.4168 14.3591 21.2203C14.3565 20.8963 14.183 20.734 13.8542 20.6755C13.1307 20.5462 12.4061 20.4259 11.6847 20.2855C11.2633 20.2036 11.0989 19.9237 11.2042 19.5045C11.2558 19.2986 11.3287 19.098 11.3936 18.8959C11.4202 18.8129 11.4809 18.7155 11.3442 18.6825C11.1915 18.6453 11.1936 18.5309 11.1814 18.4154C11.1638 18.2484 11.1611 18.0771 11.1202 17.9153C11.0547 17.6584 11.1553 17.553 11.4016 17.5318C11.9746 17.4823 12.5476 17.4259 13.1206 17.3737C14.2751 17.2684 15.4295 17.1625 16.5846 17.0599C16.7069 17.0492 16.7974 17.0061 16.8793 16.9098C17.5858 16.0799 18.3003 15.2574 19.0047 14.4263C19.5852 13.7411 19.5804 13.7374 19.1345 12.9441C19.1303 12.9362 19.1255 12.9287 19.1218 12.9207C19.0521 12.775 18.9824 12.7409 18.8483 12.876C18.07 13.6618 17.2783 14.4349 16.5053 15.226C16.3207 15.4148 16.1276 15.492 15.8722 15.4904C14.8528 15.484 13.8335 15.4904 12.8141 15.4856C12.6045 15.4845 12.422 15.5266 12.2342 15.6298C11.3878 16.0964 10.4961 16.1379 9.5853 15.8516C9.4076 15.7958 9.33046 15.8277 9.26928 16.0011C9.14585 16.3517 9.00273 16.6959 8.86867 17.0428C8.56914 17.8196 8.26216 18.5937 7.97327 19.3741C7.77323 19.9136 7.81048 20.4339 8.16055 20.9138C8.49944 21.3788 8.9889 21.5208 9.52624 21.5677C10.452 21.6485 11.3825 21.6826 12.3018 21.8278C12.6673 21.8858 12.8046 22.0486 12.8088 22.421C12.8136 22.802 12.8099 23.1834 12.8099 23.5643V23.5638ZM12.7583 12.8C12.6604 11.5545 11.8693 10.7229 10.6557 10.7304C9.4076 10.7384 8.58137 11.5965 8.58616 12.8127C8.59095 14.0571 9.45442 14.8881 10.6685 14.8834C11.9108 14.8786 12.6753 14.0082 12.7588 12.8H12.7583ZM23.9626 1.15136C22.8044 1.15349 21.8723 2.07282 21.8878 3.23103C21.9037 4.40148 22.7241 5.3123 23.9637 5.30697C25.1932 5.30165 26.0359 4.45521 26.0391 3.22943C26.0428 1.98982 25.1341 1.18381 23.9621 1.15083L23.9626 1.15136ZM8.48934 22.5354C8.29994 22.4822 8.24461 22.5604 8.19247 22.6487C8.0169 22.9456 7.84027 23.2425 7.66311 23.5383C7.22366 24.273 6.80708 25.0184 6.14046 25.5935C5.67335 25.9967 5.25997 26.4623 4.82211 26.899C4.57206 27.1486 4.5726 27.198 4.82956 27.4502C4.91149 27.5306 4.99236 27.6125 5.07376 27.6939C5.25465 27.8751 5.43748 27.8718 5.62227 27.6838C5.95159 27.3502 6.29209 27.0278 6.6113 26.6857C7.23643 26.0154 7.97381 25.4504 8.46539 24.6539C8.81812 24.082 9.20863 23.533 9.58423 22.9754C9.69277 22.8147 9.68478 22.7243 9.46453 22.7009C9.11339 22.6636 8.75801 22.6402 8.48934 22.5354ZM30.3884 19.7013C30.5565 19.7013 30.7252 19.6955 30.8933 19.7029C31.0853 19.7114 31.1423 19.6636 31.0726 19.4566C30.6336 18.1478 30.2112 16.8337 29.7766 15.5239C29.6616 15.1776 29.6127 14.8174 29.5148 14.4678C29.4643 14.287 29.3791 14.2354 29.2153 14.3662C28.9732 14.5594 28.7226 14.7418 28.4752 14.928C28.3768 15.0025 28.3119 15.0946 28.339 15.2233C28.5407 16.173 28.6311 17.1492 29.0158 18.0553C29.1541 18.3809 29.2914 18.7075 29.419 19.0379C29.6749 19.7019 29.6717 19.7029 30.3884 19.7019V19.7013ZM27.3255 19.7013C27.6001 19.7013 27.8756 19.6896 28.1496 19.7051C28.3933 19.7184 28.4071 19.6396 28.3311 19.4295C28.1049 18.8054 27.79 18.2133 27.6325 17.5658C27.5139 17.0758 27.417 16.58 27.3277 16.0836C27.2867 15.8564 27.2101 15.8782 27.0526 15.9841C26.751 16.1879 26.5201 16.4198 26.5711 16.8231C26.5775 16.8742 26.5573 16.9279 26.5509 16.9806C26.4504 17.8063 26.3541 18.632 26.2477 19.4571C26.2232 19.6481 26.2865 19.7114 26.4748 19.7045C26.7579 19.6934 27.042 19.7019 27.3255 19.7019V19.7013Z" fill="currentColor"/>
</g>
<defs>
<clipPath id="clip0_722_11041">
<rect width="32.0197" height="32" fill="white" transform="translate(0.490234)"/>
</clipPath>
</defs>
</svg>
