<svg width="25" height="12" viewBox="0 0 25 12" fill="none" xmlns="http://www.w3.org/2000/svg">
<g clip-path="url(#clip0_2193_72292)">
<path d="M17.3246 11.5465C16.6387 11.5465 15.9521 11.5274 15.2673 11.5528C14.7667 11.5715 14.3094 11.1427 14.3169 10.6058C14.3244 10.0845 14.6967 9.67444 15.2628 9.6692C16.4722 9.65835 17.6819 9.66733 18.8913 9.66434C19.6378 9.66246 20.3334 9.48099 20.9586 9.05966C21.7758 8.50886 22.3083 7.75975 22.5178 6.79399C22.7502 5.72346 22.5485 4.72888 21.8982 3.8518C21.2067 2.91859 20.2713 2.39174 19.0937 2.37528C17.8597 2.35807 16.6249 2.37116 15.3904 2.37004C15.0578 2.37004 14.7629 2.27537 14.5452 2.00746C14.2877 1.6909 14.2383 1.34104 14.425 0.979583C14.5901 0.659658 14.8583 0.460594 15.2299 0.459471C16.6017 0.455355 17.9742 0.427292 19.3444 0.471445C20.3536 0.503999 21.28 0.86022 22.1126 1.44057C23.066 2.1055 23.7474 2.98482 24.1627 4.0677C24.486 4.91073 24.5575 5.78782 24.4625 6.67986C24.3532 7.704 23.9596 8.61588 23.3317 9.42561C22.69 10.2529 21.8735 10.8482 20.8909 11.2131C20.2537 11.4496 19.5988 11.5727 18.9148 11.5498C18.3854 11.5322 17.8552 11.5465 17.3249 11.5465H17.3246Z" fill="currentColor"/>
<path d="M7.67016 11.5464C7.12161 11.5464 6.57268 11.5401 6.02413 11.5479C4.79944 11.5659 3.70907 11.1786 2.73396 10.4549C1.61066 9.62088 0.894105 8.50583 0.621327 7.14231C0.34331 5.75185 0.534891 4.41228 1.28101 3.17973C2.06642 1.88206 3.19345 1.03192 4.65463 0.633421C5.12423 0.505451 5.60505 0.448576 6.09598 0.453066C7.31169 0.464291 8.52741 0.455311 9.74312 0.45793C10.2535 0.459053 10.6891 0.860924 10.6965 1.37131C10.7029 1.81209 10.435 2.20985 9.93695 2.33595C9.81534 2.36663 9.69111 2.37149 9.56576 2.37112C8.38746 2.37037 7.20879 2.38684 6.03087 2.367C4.33283 2.33857 2.79046 3.63885 2.47091 5.30882C2.12703 7.10526 3.17848 8.88113 4.85145 9.45737C5.27764 9.60405 5.71207 9.66017 6.1551 9.66242C7.32703 9.66878 8.49934 9.66392 9.67128 9.66504C10.1951 9.66579 10.5259 9.91836 10.6688 10.4209C10.814 10.932 10.3714 11.5389 9.83966 11.5438C9.11637 11.5502 8.39308 11.5453 7.67016 11.5457V11.5464Z" fill="currentColor"/>
<path d="M12.4976 6.95002C10.6649 6.95002 8.83212 6.95189 6.99938 6.94889C6.41341 6.94777 5.99657 6.50399 6.02913 5.93037C6.05719 5.43944 6.48001 5.06302 7.02482 5.0604C8.02838 5.05553 9.03231 5.05853 10.0359 5.05853C12.6667 5.05853 15.2972 5.05965 17.9281 5.05815C18.3404 5.05815 18.6742 5.19286 18.8718 5.57415C19.1992 6.20652 18.7659 6.94141 18.0523 6.9474C16.9365 6.95675 15.8207 6.95076 14.7049 6.95076C13.9693 6.95076 13.2336 6.95076 12.498 6.95076V6.95002H12.4976Z" fill="currentColor"/>
</g>
<defs>
<clipPath id="clip0_2193_72292">
<rect width="24" height="11.1065" fill="currentColor" transform="translate(0.5 0.446777)"/>
</clipPath>
</defs>
</svg>
