<svg width="20" height="20" viewBox="0 0 20 20" fill="none" xmlns="http://www.w3.org/2000/svg">
<path d="M17.4995 8.33337C17.4995 14.1667 9.99951 19.1667 9.99951 19.1667C9.99951 19.1667 2.49951 14.1667 2.49951 8.33337C2.49951 6.34425 3.28969 4.4366 4.69621 3.03007C6.10273 1.62355 8.01039 0.833374 9.99951 0.833374C11.9886 0.833374 13.8963 1.62355 15.3028 3.03007C16.7093 4.4366 17.4995 6.34425 17.4995 8.33337Z" stroke="currentColor" stroke-width="1.66667" stroke-linecap="round" stroke-linejoin="round"/>
<path d="M9.99951 10.8334C11.3802 10.8334 12.4995 9.71409 12.4995 8.33337C12.4995 6.95266 11.3802 5.83337 9.99951 5.83337C8.6188 5.83337 7.49951 6.95266 7.49951 8.33337C7.49951 9.71409 8.6188 10.8334 9.99951 10.8334Z" stroke="currentColor" stroke-width="1.66667" stroke-linecap="round" stroke-linejoin="round"/>
</svg>
