<svg width="24" height="24" viewBox="0 0 24 24" fill="none" xmlns="http://www.w3.org/2000/svg">
<g clip-path="url(#clip0_668_5393)">
<path d="M3.23585 7.53014C1.76597 6.4992 1.76747 4.64053 2.74414 3.60473C3.75749 2.52964 5.38528 2.48361 6.45925 3.52914C7.42507 4.46951 7.62826 6.39068 6.04351 7.53313C6.28936 7.60647 6.52473 7.67645 6.75973 7.74717C6.99748 7.81877 7.18209 7.75092 7.31356 7.54361C7.39027 7.42274 7.46324 7.29888 7.54332 7.18025C7.7278 6.90596 7.96393 6.69716 8.26778 6.55234C8.70822 6.34278 9.15539 6.15755 9.62652 6.0307C9.68302 6.01535 9.76984 6.02396 9.78181 5.95249C9.79267 5.88812 9.71857 5.85108 9.67442 5.80879C9.13856 5.29613 8.81075 4.67121 8.67641 3.94525C8.38491 2.37284 9.31668 0.75366 10.8217 0.211438C12.6314 -0.441176 14.5608 0.463277 15.1715 2.2864C15.6168 3.61558 15.2983 4.78983 14.3262 5.79195C14.2794 5.83985 14.1911 5.87802 14.2045 5.9465C14.2214 6.03182 14.325 6.01498 14.3924 6.03519C14.9256 6.19422 15.4432 6.39106 15.9281 6.66572C16.2447 6.84497 16.4232 7.14994 16.6174 7.43995C16.7069 7.57354 16.739 7.77823 16.8775 7.83586C17.0085 7.89049 17.1634 7.75204 17.3138 7.71537C17.5178 7.6656 17.7176 7.59936 17.9455 7.53238C17.1679 6.96247 16.7439 6.22678 16.7723 5.26507C16.7925 4.57878 17.05 3.98679 17.5406 3.5123C18.5835 2.50344 20.1971 2.53712 21.2033 3.5688C22.1208 4.50955 22.3184 6.40864 20.7479 7.53575C20.9294 7.58851 21.1 7.63791 21.2703 7.68805C21.6482 7.79956 22.0101 7.9485 22.3562 8.13784C22.7832 8.37135 22.9774 8.76464 23.1162 9.20395C23.3643 9.98829 23.6192 10.77 23.8714 11.5528C23.9447 11.78 23.984 12.0101 23.978 12.2511C23.9582 13.08 23.9481 13.9092 23.9301 14.7381C23.9099 15.6807 23.0724 16.3198 22.1553 16.0968C21.9053 16.0362 21.9046 16.0362 21.9046 16.291C21.9038 17.426 21.9042 18.5609 21.9031 19.6959C21.9031 20.1098 21.8248 20.4963 21.5592 20.8354C21.0839 21.4419 20.1959 21.6186 19.5422 21.2114C19.3959 21.1205 19.2948 21.1126 19.1425 21.2088C18.3047 21.7372 17.1312 21.2795 16.8558 20.3294C16.8015 20.1423 16.7753 19.9541 16.7761 19.7584C16.7802 18.9164 16.7753 18.0745 16.7802 17.2329C16.7809 17.0795 16.7518 17.0099 16.5811 17.0638C16.2354 17.1734 15.8926 17.1352 15.5528 17.0245C15.3313 16.9522 15.3294 16.956 15.3294 17.1839C15.3294 18.7615 15.3305 20.3392 15.3283 21.9172C15.3268 22.9466 14.6555 23.7702 13.6481 23.9555C13.1149 24.0535 12.6018 23.9686 12.149 23.6509C12.0293 23.5671 11.9518 23.5809 11.8351 23.6546C11.2042 24.0528 10.5306 24.1149 9.85553 23.8036C9.10076 23.4559 8.67155 22.8418 8.6592 22.0074C8.636 20.405 8.65134 18.8023 8.65097 17.1996C8.65097 16.9627 8.64797 16.9545 8.42158 17.0289C8.07282 17.1435 7.72443 17.1667 7.3768 17.0417C7.22038 16.9855 7.19793 17.0488 7.19868 17.1857C7.20204 18.0651 7.20092 18.9441 7.1998 19.8235C7.19868 20.7968 6.40125 21.525 5.43879 21.4217C5.2225 21.3985 5.00509 21.3387 4.82809 21.2051C4.68851 21.0995 4.58448 21.1201 4.44453 21.2069C3.54943 21.7615 2.33364 21.238 2.12296 20.2078C2.08592 20.0263 2.07768 19.8362 2.07693 19.6499C2.07244 18.5336 2.07469 17.4174 2.07394 16.3011C2.07394 16.0373 2.07319 16.0373 1.81424 16.0998C0.916525 16.3165 0.0738158 15.6844 0.0494925 14.7669C0.0270402 13.9193 0.0188077 13.0714 0.000845856 12.2238C-0.0032704 12.0285 0.0188077 11.8387 0.0786805 11.6527C0.35634 10.7932 0.643356 9.93627 0.906796 9.07223C1.07369 8.52477 1.44041 8.18948 1.94671 7.97245C2.33701 7.80518 2.73366 7.65849 3.14978 7.5683C3.17261 7.56344 3.19356 7.54959 3.23547 7.53088L3.23585 7.53014ZM11.9885 14.1689C12.6808 14.1689 13.3731 14.1689 14.0653 14.1689C14.2512 14.1689 14.3442 14.0752 14.3445 13.8879C14.3445 12.653 14.3456 11.4181 14.3445 10.1832C14.3445 10.056 14.3486 9.93066 14.4403 9.83187C14.5133 9.75329 14.5892 9.73495 14.642 9.8547C14.6671 9.91157 14.6876 9.9707 14.7067 10.0298C14.8867 10.5807 15.0678 11.1311 15.2445 11.6827C15.3013 11.8601 15.3717 12.0352 15.3586 12.2283C15.3148 12.8569 15.3432 13.4878 15.3126 14.1165C15.2931 14.5218 15.28 14.9267 15.2886 15.3316C15.2976 15.7619 15.6969 16.1331 16.1257 16.132C16.5676 16.1309 16.9482 15.7705 16.9669 15.3372C17.0171 14.1846 17.0399 13.0317 17.0328 11.878C17.032 11.7852 17.0376 11.6864 17.01 11.6C16.6451 10.4474 16.2743 9.29713 15.9061 8.1457C15.8009 7.81715 15.5906 7.58514 15.277 7.44519C15.0663 7.35127 14.8598 7.24724 14.645 7.16491C14.1368 6.96958 13.6062 6.85806 13.0703 6.76975C12.8903 6.74019 12.7653 6.79295 12.6643 6.95573C12.5232 7.18325 12.3593 7.39654 12.1999 7.61209C12.1367 7.6974 12.1131 7.77936 12.1296 7.88862C12.2392 8.62169 12.3403 9.35588 12.4462 10.0893C12.5644 10.9088 12.6845 11.7283 12.8054 12.5478C12.8316 12.7256 12.826 12.882 12.6827 13.0272C12.4776 13.2353 12.2942 13.4654 12.1075 13.691C12.0177 13.7996 11.9541 13.7831 11.8721 13.6813C11.712 13.4822 11.5544 13.2787 11.3737 13.0998C11.178 12.9063 11.123 12.7039 11.2109 12.4423C11.2558 12.3091 11.2509 12.1594 11.2704 12.0176C11.3658 11.3264 11.4601 10.6353 11.5582 9.94488C11.6581 9.2425 11.7614 8.54049 11.8639 7.83811C11.8759 7.75728 11.8444 7.69404 11.7988 7.6308C11.642 7.41338 11.4676 7.20533 11.3393 6.97257C11.2191 6.75516 11.0526 6.74169 10.8509 6.77761C10.2238 6.88912 9.60818 7.04105 9.02031 7.29326C8.56565 7.4886 8.1892 7.72921 8.0369 8.25871C7.76148 9.2163 7.43255 10.1585 7.13581 11.1102C7.06396 11.3403 6.9547 11.5629 6.94946 11.811C6.92626 12.9834 7.00035 14.1543 7.01569 15.3263C7.01943 15.6062 7.15714 15.8281 7.39326 15.9786C7.68552 16.1649 7.98488 16.1889 8.29023 15.9984C8.57538 15.8203 8.70597 15.5692 8.69774 15.2324C8.67753 14.4286 8.67042 13.6244 8.64872 12.8203C8.63562 12.3327 8.64835 11.8582 8.83508 11.3904C9.02891 10.9055 9.1655 10.3977 9.33052 9.90072C9.34848 9.84684 9.35597 9.76863 9.44391 9.77499C9.51351 9.78023 9.55243 9.83037 9.58461 9.88575C9.6486 9.99427 9.63774 10.1148 9.63774 10.2326C9.63924 11.4612 9.63924 12.69 9.63999 13.9186C9.63999 14.1633 9.64523 14.1685 9.89258 14.1689C10.5912 14.1697 11.2895 14.1689 11.9881 14.1689H11.9885ZM14.3426 18.5347H14.3445C14.3445 17.4249 14.3445 16.315 14.3445 15.2047C14.3445 14.9581 14.3411 14.9551 14.093 14.9547C12.7025 14.9544 11.3119 14.9544 9.92139 14.9544C9.64111 14.9544 9.64036 14.9547 9.64074 15.2305C9.64336 16.8808 9.63662 18.5314 9.66431 20.1816C9.67442 20.7863 9.66618 21.3914 9.66731 21.9961C9.66843 22.4242 9.88547 22.7225 10.26 22.892C10.6687 23.0772 11.0635 23.0275 11.4126 22.7296C11.6869 22.4961 11.7658 22.1851 11.7658 21.8401C11.7647 19.8572 11.7658 17.8743 11.7655 15.8914C11.7655 15.7492 11.7539 15.6122 11.9683 15.6178C12.1966 15.6238 12.2213 15.6365 12.2213 15.8749C12.2213 17.6397 12.2213 19.4044 12.2213 21.1692C12.2213 21.4247 12.2138 21.6807 12.2242 21.9359C12.2546 22.6622 12.8428 23.1173 13.5396 22.9597C14.0328 22.8482 14.34 22.437 14.3422 21.8644C14.3464 20.7545 14.3434 19.6446 14.3434 18.5344L14.3426 18.5347ZM2.83208 12.2627H2.83283C2.83283 12.7492 2.83545 13.2356 2.83096 13.7221C2.82983 13.8508 2.87549 13.898 3.00534 13.8976C3.94684 13.8942 4.88871 13.8954 5.83058 13.8961C5.92226 13.8961 5.99149 13.8819 5.98476 13.7648C5.96792 13.4661 5.95445 13.1675 5.94135 12.8685C5.92451 12.4887 5.87736 12.101 5.94995 11.731C6.03602 11.2928 6.19656 10.8692 6.3279 10.4403C6.50153 9.87453 6.67778 9.30948 6.85441 8.74443C6.87985 8.6636 6.88247 8.60111 6.7863 8.56444C6.35372 8.39941 5.91141 8.27593 5.45039 8.22241C5.31755 8.20707 5.22624 8.25048 5.15327 8.36499C5.05635 8.51729 4.94634 8.66136 4.83969 8.8073C4.77009 8.90234 4.74127 9.00039 4.76073 9.12163C4.80526 9.39817 4.83445 9.67732 4.87374 9.95498C5.0006 10.849 5.13007 11.7429 5.25655 12.6369C5.27414 12.7604 5.28537 12.8858 5.19144 12.992C5.03465 13.1694 4.87898 13.3483 4.72593 13.5286C4.66082 13.6053 4.60768 13.6012 4.54444 13.5256C4.38017 13.3299 4.21364 13.1361 4.04563 12.9434C3.99511 12.8854 3.99024 12.824 4.00147 12.7522C4.04226 12.494 4.08267 12.2358 4.1171 11.9764C4.22936 11.1244 4.33938 10.2719 4.48681 9.42548C4.53696 9.13847 4.54781 8.87316 4.32404 8.64639C4.26341 8.58502 4.20953 8.51167 4.17211 8.43421C4.06696 8.21792 3.89108 8.19959 3.68452 8.23514C3.21564 8.31522 2.76397 8.45143 2.32391 8.63105C1.95195 8.78297 1.70123 9.01535 1.58785 9.43035C1.40112 10.1148 1.14928 10.7812 0.941223 11.46C0.854407 11.7429 0.708841 12.015 0.737655 12.3274C0.785553 12.8438 0.75674 13.3621 0.77994 13.8789C0.794909 14.2146 0.774702 14.554 0.843181 14.8851C0.937481 15.3417 1.44565 15.5355 1.8236 15.2672C2.01669 15.1302 2.11024 14.9469 2.105 14.7093C2.08853 13.9863 2.07881 13.263 2.05822 12.5404C2.05149 12.3113 2.09265 12.0954 2.1645 11.8806C2.29285 11.4967 2.41372 11.1098 2.54245 10.7258C2.56976 10.6443 2.56752 10.5099 2.69362 10.5256C2.81487 10.5406 2.81374 10.6686 2.82796 10.7655C2.83582 10.8205 2.83208 10.8774 2.83208 10.9335C2.83208 11.3762 2.83208 11.8193 2.83208 12.262V12.2627ZM21.1457 12.2758C21.1457 11.8144 21.1445 11.3526 21.1468 10.8912C21.1472 10.8112 21.1576 10.73 21.1726 10.651C21.1846 10.5885 21.2149 10.5271 21.2882 10.5204C21.3698 10.5129 21.3885 10.5848 21.408 10.642C21.4682 10.819 21.5195 10.999 21.5816 11.1753C21.7979 11.7886 22.0011 12.403 21.9128 13.0699C21.9031 13.1436 21.9098 13.2195 21.9083 13.2944C21.8971 13.7868 21.8814 14.2789 21.8761 14.7714C21.8731 15.0386 22.031 15.2156 22.2537 15.3297C22.4573 15.4341 22.6597 15.4071 22.8569 15.2833C23.1054 15.1269 23.1626 14.8889 23.1709 14.6232C23.1941 13.8445 23.2165 13.0654 23.2412 12.2867C23.245 12.1725 23.2311 12.061 23.1971 11.9544C22.9029 11.0342 22.6069 10.1151 22.3083 9.19647C22.2548 9.03182 22.1504 8.89711 21.9977 8.81141C21.442 8.49895 20.8407 8.32457 20.2143 8.22728C20.0515 8.20183 19.9273 8.24 19.836 8.39305C19.7405 8.55321 19.6241 8.70102 19.5141 8.8522C19.464 8.92105 19.4363 8.99328 19.4483 9.07897C19.5291 9.64626 19.6096 10.2136 19.6911 10.7805C19.7869 11.4462 19.8831 12.1115 19.9808 12.7769C19.9905 12.8442 19.9733 12.8981 19.9295 12.9486C19.7663 13.1368 19.601 13.3239 19.4434 13.517C19.3648 13.6132 19.3079 13.5979 19.2361 13.5118C19.1167 13.3681 18.9966 13.2237 18.8656 13.0904C18.7362 12.9587 18.6946 12.8124 18.7204 12.6317C18.8638 11.6393 18.9985 10.6454 19.1444 9.65337C19.2496 8.93715 19.2522 8.94014 18.8219 8.36012C18.7403 8.25011 18.6523 8.20782 18.5221 8.22354C18.0993 8.2748 17.6914 8.3822 17.2917 8.52777C17.1428 8.58203 17.1072 8.65649 17.1563 8.80992C17.4414 9.70651 17.7165 10.6061 17.9997 11.5034C18.0342 11.6127 18.0514 11.7197 18.0532 11.8327C18.0633 12.4502 18.0364 13.0669 18.0143 13.6836C18.0083 13.8475 18.0645 13.9002 18.2284 13.8991C19.1328 13.8927 20.0369 13.8924 20.9414 13.8995C21.1131 13.901 21.1513 13.8359 21.1487 13.6791C21.1408 13.2113 21.1457 12.7436 21.1457 12.2758ZM2.83283 17.2538H2.83358C2.83358 18.0954 2.8362 18.9374 2.83133 19.779C2.83021 19.9541 2.87287 20.112 2.95183 20.2625C3.10637 20.5558 3.46374 20.7209 3.79154 20.6557C4.15377 20.5839 4.39064 20.3208 4.4333 19.9713C4.48981 19.5111 4.44827 19.05 4.45014 18.5905C4.45201 18.0932 4.45426 17.5951 4.44603 17.0971C4.43592 16.4879 4.46474 15.8779 4.43705 15.2683C4.43106 15.1381 4.43704 15.0191 4.62377 15.0127C4.81611 15.006 4.81312 15.1224 4.81312 15.2556C4.812 16.2532 4.81237 17.2509 4.81237 18.2485C4.81237 18.7724 4.80601 19.2959 4.81462 19.8198C4.82472 20.4207 5.33401 20.8092 5.8796 20.6258C6.2104 20.5147 6.43829 20.2714 6.43867 19.7494C6.43941 18.6769 6.43867 17.6045 6.44166 16.5324C6.44166 16.407 6.39825 16.3045 6.3309 16.2031C6.11984 15.8835 6.00571 15.5325 6.00085 15.1478C5.99898 14.9858 5.98625 14.823 5.99561 14.6617C6.00609 14.4851 5.94359 14.4222 5.76136 14.4237C4.86364 14.4312 3.96555 14.4323 3.06783 14.423C2.87249 14.4211 2.82647 14.4903 2.82834 14.6733C2.83657 15.5336 2.83208 16.3939 2.83208 17.2546L2.83283 17.2538ZM21.1442 17.2415H21.1449C21.1449 16.3748 21.1449 15.5082 21.1449 14.6419C21.1449 14.5311 21.1513 14.4264 20.9896 14.4267C20.0421 14.429 19.0943 14.4286 18.1468 14.4267C18.0222 14.4267 17.9859 14.487 17.987 14.6007C17.9893 14.8125 17.987 15.0247 17.9806 15.2365C17.9687 15.638 17.862 16.0115 17.6274 16.3412C17.5537 16.4448 17.5353 16.553 17.5357 16.675C17.538 17.6288 17.5376 18.5826 17.5376 19.5365C17.5376 19.6925 17.5402 19.8475 17.5638 20.0024C17.6289 20.4357 18.063 20.7433 18.4952 20.6572C18.9128 20.5742 19.1639 20.2475 19.1643 19.7711C19.1661 18.2938 19.165 16.816 19.165 15.3387C19.165 15.2762 19.1665 15.2141 19.1676 15.1516C19.1702 15.0142 19.2675 15.0169 19.3652 15.0165C19.4666 15.0161 19.5325 15.0453 19.531 15.1647C19.5201 16.086 19.5261 17.0072 19.531 17.9289C19.5347 18.601 19.5085 19.2734 19.5448 19.9455C19.562 20.2621 19.7828 20.5446 20.0878 20.6325C20.6326 20.7897 21.1382 20.4076 21.1423 19.8231C21.1487 18.9628 21.1438 18.1025 21.1438 17.2422L21.1442 17.2415ZM14.3486 3.3716C14.3943 2.11988 13.3551 1.00176 12.0027 0.994648C10.7035 0.987538 9.63438 2.04317 9.63176 3.33605C9.62914 4.6757 10.6593 5.73358 11.9758 5.74293C13.3001 5.75229 14.3954 4.64502 14.3486 3.3716ZM4.63088 7.16454C5.6345 7.16603 6.44278 6.36786 6.44653 5.37135C6.45064 4.35052 5.66032 3.56244 4.65109 3.53737C3.70735 3.5138 2.81861 4.32956 2.82385 5.34216C2.82909 6.35476 3.62278 7.16304 4.63051 7.16454H4.63088ZM19.348 3.54223C18.341 3.54036 17.5357 4.33368 17.5316 5.33168C17.5275 6.34989 18.3204 7.16042 19.3255 7.16454C20.3374 7.16865 21.1498 6.36748 21.1524 5.36274C21.155 4.34565 20.3602 3.54411 19.348 3.54223Z" fill="#562B08"/>
</g>
<defs>
<clipPath id="clip0_668_5393">
<rect width="23.9787" height="24" fill="white"/>
</clipPath>
</defs>
</svg>
