<svg width="25" height="24" viewBox="0 0 25 24" fill="none" xmlns="http://www.w3.org/2000/svg">
<path d="M12.5 2.25C12.4953 2.25 12.4953 2.25 12.4906 2.25C12.4906 2.25 12.4906 2.25 12.4859 2.25C12.4812 2.25 12.4766 2.25 12.4766 2.25C7.1 2.26406 2.75 6.62344 2.75 12C2.75 17.3766 7.1 21.7359 12.4766 21.75C12.4812 21.75 12.4859 21.75 12.4859 21.75H12.4906C12.4953 21.75 12.4953 21.75 12.5 21.75C17.8859 21.75 22.25 17.3859 22.25 12C22.25 6.61406 17.8859 2.25 12.5 2.25ZM12.8891 8.08594C13.925 8.05781 14.9281 7.92188 15.8984 7.6875C16.1891 8.83594 16.3719 10.1625 16.4 11.6156H12.8891V8.08594ZM12.8891 7.30313V3.09375C13.9391 3.38437 15.0078 4.78594 15.6828 6.9375C14.7828 7.15312 13.85 7.275 12.8891 7.30313ZM12.1109 3.08438V7.30781C11.1406 7.27969 10.1984 7.15312 9.29375 6.93281C9.97813 4.76719 11.0516 3.35625 12.1109 3.08438ZM12.1109 8.08594V11.6109H8.57656C8.60469 10.1578 8.7875 8.83125 9.07812 7.68281C10.0531 7.91719 11.0703 8.05781 12.1109 8.08594ZM7.78906 11.6109H3.54219C3.62656 9.60469 4.37656 7.76719 5.57187 6.31406C6.43906 6.79219 7.3625 7.18594 8.32812 7.47656C8.00938 8.71875 7.82188 10.1203 7.78906 11.6109ZM7.78906 12.3891C7.81719 13.875 8.00469 15.2812 8.32344 16.5234C7.35781 16.8188 6.43906 17.2078 5.56719 17.6859C4.37187 16.2328 3.62656 14.3953 3.5375 12.3891H7.78906ZM8.57656 12.3891H12.1109V15.9094C11.0703 15.9375 10.0531 16.0781 9.07812 16.3172C8.7875 15.1688 8.60469 13.8422 8.57656 12.3891ZM12.1109 16.6922V20.9203C11.0516 20.6437 9.97813 19.2375 9.29375 17.0719C10.1984 16.8469 11.1406 16.7203 12.1109 16.6922ZM12.8891 20.9062V16.6875C13.85 16.7156 14.7828 16.8422 15.6875 17.0578C15.0078 19.2141 13.9437 20.6156 12.8891 20.9062ZM12.8891 15.9094V12.3891H16.4C16.3719 13.8375 16.1891 15.1641 15.8984 16.3125C14.9281 16.0781 13.925 15.9375 12.8891 15.9094ZM17.1828 12.3891H21.4578C21.3734 14.3953 20.6234 16.2281 19.4281 17.6859C18.5516 17.2031 17.6234 16.8094 16.6484 16.5141C16.9672 15.2719 17.1547 13.875 17.1828 12.3891ZM17.1828 11.6109C17.1547 10.125 16.9672 8.72344 16.6531 7.48125C17.6281 7.18594 18.5562 6.79219 19.4281 6.31406C20.6234 7.76719 21.3734 9.60469 21.4578 11.6156H17.1828V11.6109ZM18.8937 5.71406C18.1156 6.12656 17.3 6.46875 16.4422 6.72656C15.9875 5.25938 15.3453 4.06406 14.5906 3.27656C16.25 3.675 17.7312 4.5375 18.8937 5.71406ZM10.3813 3.28594C9.62656 4.06875 8.98906 5.26406 8.53906 6.72187C7.69063 6.46406 6.87969 6.12656 6.11094 5.71406C7.25937 4.54219 8.73125 3.68437 10.3813 3.28594ZM6.10625 18.2812C6.875 17.8687 7.69062 17.5312 8.53437 17.2734C8.98906 18.7359 9.62656 19.9266 10.3813 20.7141C8.73125 20.3156 7.25938 19.4578 6.10625 18.2812ZM14.5906 20.7234C15.35 19.9359 15.9875 18.7406 16.4469 17.2687C17.3047 17.5266 18.1203 17.8687 18.8984 18.2812C17.7359 19.4625 16.25 20.325 14.5906 20.7234Z" fill="#282828"/>
</svg>
