<svg width="26" height="24" viewBox="0 0 26 24" fill="none" xmlns="http://www.w3.org/2000/svg">
<g clip-path="url(#clip0_632_4699)">
<path d="M13.0047 23.9995C9.34407 23.9995 5.68349 23.9995 2.02336 23.9995C1.95611 23.9995 1.88887 24.0004 1.82163 23.999C1.26264 23.9865 0.996366 23.7256 0.991435 23.1675C0.985607 22.5327 0.989641 21.8975 0.989641 21.2623C0.989641 19.6414 0.987848 18.02 0.990986 16.399C0.991883 15.9678 1.06361 15.5509 1.30926 15.1824C1.73153 14.549 2.35373 14.3253 3.08217 14.3245C4.27009 14.3231 5.45756 14.3245 6.64548 14.3236C6.8726 14.3236 6.98632 14.2067 6.98662 13.973C6.98662 13.5996 6.97989 13.2257 6.9893 12.8523C6.99379 12.6744 6.9243 12.6188 6.75217 12.6201C6.08738 12.6264 5.4226 12.621 4.75781 12.6233C4.4624 12.6242 4.19792 12.5565 4.07464 12.2588C3.94644 11.9495 4.0352 11.6886 4.27457 11.4497C6.862 8.87123 9.44135 6.28515 12.0315 3.70938C12.2628 3.47942 12.399 3.25708 12.3744 2.9137C12.3412 2.45602 12.4004 2.4856 11.9494 2.48022C11.4505 2.47395 11.1645 2.20006 11.1936 1.76837C11.2143 1.45772 11.4249 1.2421 11.7383 1.21834C11.8423 1.21027 11.9472 1.21475 12.0521 1.21431C12.2616 1.21401 12.3666 1.10568 12.3672 0.88931C12.3672 0.784863 12.3627 0.679519 12.3744 0.575968C12.4116 0.250971 12.703 -0.00812956 13.0145 -6.06732e-05C13.3131 0.00755994 13.5968 0.271592 13.6264 0.58314C13.6408 0.731518 13.6367 0.881689 13.6331 1.03096C13.63 1.16544 13.6883 1.22058 13.8214 1.21565C13.9554 1.21027 14.0904 1.21117 14.2249 1.217C14.5503 1.23089 14.7695 1.42768 14.8049 1.73116C14.8444 2.07275 14.6686 2.34933 14.3522 2.43585C14.1997 2.47754 14.0429 2.49322 13.8855 2.48157C13.7084 2.46857 13.6466 2.53357 13.6273 2.72095C13.5816 3.16294 13.7268 3.47763 14.0514 3.79814C16.5967 6.3125 19.1209 8.84882 21.6509 11.3784C21.7769 11.5044 21.9154 11.62 21.9625 11.807C22.0727 12.2458 21.7926 12.6138 21.321 12.6201C20.6486 12.6286 19.9762 12.6309 19.3042 12.6183C19.0805 12.6143 18.9976 12.6775 19.0093 12.9084C19.0267 13.2585 19.0133 13.6104 19.0137 13.9614C19.0137 14.2025 19.1313 14.3233 19.3665 14.3236C20.532 14.3236 21.6971 14.3227 22.8626 14.3245C23.1163 14.3249 23.3736 14.3303 23.6166 14.4078C24.5073 14.6916 25.0008 15.3384 25.0062 16.2982C25.0192 18.5915 25.0134 20.8849 25.0085 23.1783C25.0071 23.7485 24.7292 23.9977 24.1222 23.9977C20.9996 23.9995 17.8769 23.9986 14.7543 23.9986C14.1715 23.9986 13.5888 23.9986 13.006 23.9986L13.0047 23.9995ZM8.25388 17.4449C8.25388 19.1183 8.25657 20.7912 8.25029 22.4646C8.24939 22.6659 8.30408 22.7443 8.51567 22.7358C8.89625 22.7206 9.27728 22.7318 9.65831 22.7313C9.95238 22.7313 9.95462 22.7291 9.95462 22.4287C9.95462 21.2337 9.95059 20.0386 9.95641 18.8435C9.9591 18.3257 10.0147 17.8111 10.2384 17.3364C10.8207 16.1027 11.9723 15.4326 13.3279 15.5724C14.3723 15.6805 15.1501 16.2229 15.6611 17.145C15.9798 17.7201 16.0444 18.3459 16.0439 18.9865C16.0439 20.1296 16.0439 21.2722 16.0439 22.4153C16.0439 22.7304 16.0448 22.7313 16.3497 22.7318C16.7231 22.7327 17.0969 22.7206 17.4699 22.7363C17.6873 22.7452 17.7492 22.6708 17.7487 22.4565C17.7429 19.1326 17.7438 15.8082 17.7474 12.4843C17.7474 12.3148 17.6994 12.1902 17.5779 12.0696C16.1116 10.6101 14.6476 9.14781 13.1907 7.67928C13.0347 7.52193 12.9477 7.53807 12.8011 7.686C11.3537 9.14333 9.90127 10.5957 8.44439 12.0441C8.30588 12.1822 8.2485 12.3216 8.2494 12.5157C8.25567 14.159 8.25298 15.8024 8.25298 17.4458L8.25388 17.4449ZM14.7758 20.5751C14.7758 19.948 14.7838 19.3209 14.774 18.6942C14.7574 17.6435 14.0554 16.8827 13.1347 16.8227C12.0664 16.7527 11.2308 17.5556 11.225 18.67C11.2183 19.939 11.2264 21.2081 11.2196 22.4772C11.2187 22.6717 11.2793 22.7372 11.4761 22.7354C12.4914 22.7277 13.5063 22.7277 14.5216 22.7354C14.7162 22.7367 14.7834 22.6757 14.7803 22.479C14.7704 21.8447 14.7767 21.2099 14.7762 20.5756L14.7758 20.5751ZM4.61705 20.3214C5.31905 20.3214 6.02149 20.3147 6.72348 20.3255C6.93193 20.3286 6.99155 20.256 6.99065 20.0538C6.98393 18.6498 6.98393 17.2454 6.99065 15.8414C6.99155 15.6415 6.92296 15.5872 6.73065 15.5886C5.49073 15.5957 4.25082 15.5908 3.0109 15.5935C2.4909 15.5949 2.25959 15.8275 2.2587 16.3502C2.25601 17.5901 2.26139 18.83 2.25377 20.0699C2.25242 20.2676 2.31652 20.3281 2.51107 20.3259C3.21307 20.3165 3.91506 20.3223 4.6175 20.3223L4.61705 20.3214ZM19.0124 17.9442C19.0124 18.6539 19.0164 19.363 19.0097 20.0726C19.0079 20.251 19.0581 20.3255 19.2495 20.3246C20.6683 20.3187 22.0871 20.3196 23.5063 20.3237C23.6744 20.3241 23.7461 20.2784 23.7452 20.0959C23.739 18.8341 23.7452 17.5717 23.7394 16.3098C23.7372 15.8347 23.4933 15.5953 23.0132 15.5935C21.7585 15.589 20.5042 15.5953 19.2495 15.5881C19.0577 15.5872 19.0079 15.6594 19.0097 15.8378C19.0169 16.5398 19.0124 17.2418 19.0128 17.9438L19.0124 17.9442ZM19.8067 11.3515C19.7296 11.2623 19.6987 11.2215 19.6624 11.1852C17.4981 9.02006 15.3321 6.8567 13.1714 4.68796C13.0208 4.53689 12.937 4.58127 12.8101 4.70813C10.6642 6.85984 8.51432 9.00795 6.36666 11.1579C6.31824 11.2063 6.23845 11.2408 6.25324 11.3564C6.48365 11.3564 6.71586 11.3363 6.94268 11.3614C7.25603 11.3963 7.46761 11.2699 7.68278 11.0516C9.2589 9.45129 10.8462 7.86217 12.4318 6.27081C12.8159 5.88485 13.153 5.86826 13.5381 6.24615C14.3096 7.00328 15.0577 7.78417 15.8306 8.54085C16.737 9.42843 17.621 10.3393 18.5148 11.2399C18.5677 11.2932 18.6206 11.3506 18.7022 11.3506C19.0505 11.3524 19.3988 11.3511 19.8067 11.3511V11.3515ZM4.61571 22.7318C5.33249 22.7318 6.04883 22.7282 6.76562 22.7345C6.92924 22.7358 6.99513 22.6811 6.98886 22.5148C6.97944 22.2763 6.98124 22.037 6.98796 21.7985C6.99244 21.6447 6.93103 21.5869 6.77727 21.5873C5.33653 21.5905 3.89578 21.5905 2.45549 21.5873C2.31384 21.5873 2.25153 21.6371 2.25556 21.7837C2.26228 22.015 2.26721 22.2472 2.25377 22.4776C2.24256 22.674 2.31473 22.7381 2.51063 22.7354C3.21217 22.726 3.91372 22.7318 4.61571 22.7318ZM21.3591 22.7318C22.0759 22.7318 22.7922 22.7277 23.509 22.7345C23.6829 22.7363 23.752 22.6775 23.7439 22.5014C23.7336 22.2705 23.7336 22.0383 23.7439 21.8074C23.7511 21.6407 23.6861 21.5824 23.522 21.5864C23.201 21.5945 22.8801 21.5887 22.5591 21.5887C21.4617 21.5887 20.3644 21.5923 19.2675 21.5856C19.0729 21.5842 18.9971 21.6447 19.0093 21.8424C19.0227 22.058 19.0214 22.2754 19.0093 22.4915C18.9994 22.6771 19.0693 22.7381 19.254 22.7358C19.9556 22.7273 20.6571 22.7322 21.3591 22.7322V22.7318Z" fill="currentColor"/>
<path d="M12.9993 13.7982C11.9741 13.7991 11.1928 13.0254 11.1906 12.0061C11.1883 10.9598 11.9674 10.1789 13.0123 10.1807C14.0362 10.1825 14.8081 10.958 14.8081 11.985C14.8081 13.0268 14.0389 13.7978 12.9993 13.7987V13.7982ZM13.5386 11.9957C13.5399 11.6515 13.3409 11.4502 13.0002 11.4502C12.6582 11.4502 12.4592 11.6515 12.4605 11.9949C12.4614 12.3252 12.6586 12.5247 12.9881 12.5287C13.3319 12.5332 13.5373 12.3342 13.5386 11.9957Z" fill="currentColor"/>
<path d="M4.01974 17.9738C4.01974 17.7645 4.01436 17.5556 4.02108 17.3467C4.03139 17.0222 4.23311 16.7967 4.5469 16.7465C4.8329 16.7007 5.157 16.88 5.2229 17.1777C5.33855 17.699 5.33362 18.2334 5.2229 18.7547C5.15745 19.0636 4.85038 19.2178 4.52046 19.1712C4.21698 19.1281 4.03005 18.9107 4.02063 18.5785C4.01481 18.3773 4.01974 18.1751 4.01974 17.9734V17.9738Z" fill="currentColor"/>
<path d="M21.9801 17.9587C21.9801 18.1681 21.9851 18.377 21.9788 18.5859C21.9689 18.8997 21.7587 19.1363 21.4678 19.1722C21.1262 19.2143 20.8276 19.0444 20.7662 18.7226C20.6716 18.229 20.6739 17.7252 20.7608 17.2307C20.8191 16.899 21.1271 16.7018 21.4382 16.7439C21.7676 16.7883 21.9721 17.0236 21.9801 17.3764C21.9846 17.5705 21.981 17.7646 21.9806 17.9592L21.9801 17.9587Z" fill="currentColor"/>
</g>
<defs>
<clipPath id="clip0_632_4699">
<rect width="24.0247" height="24" fill="white" transform="translate(0.987671)"/>
</clipPath>
</defs>
</svg>
