<svg width="40" height="40" viewBox="0 0 40 40" fill="none" xmlns="http://www.w3.org/2000/svg">
<path d="M20.5417 29.8164C19.979 29.8162 19.4171 29.7703 18.8617 29.6793C16.1453 29.2335 13.7168 27.7277 12.1096 25.4928C10.5025 23.2578 9.84817 20.4763 10.2903 17.7593C10.5377 16.2125 11.134 14.7423 12.034 13.4602C12.9339 12.178 14.114 11.1176 15.4846 10.3593C15.7158 10.23 15.9793 10.17 16.2437 10.1862C16.5081 10.2024 16.7623 10.2942 16.976 10.4507C17.1945 10.6002 17.3648 10.8099 17.4662 11.0544C17.5677 11.2989 17.5959 11.5676 17.5475 11.8278L16.8046 11.7707L17.5075 11.8964C17.1109 13.9998 17.4815 16.1757 18.5519 18.0293C19.6223 19.8829 21.3217 21.2914 23.3417 21.9993C24.8974 22.5391 26.5709 22.6439 28.1817 22.3021C28.4366 22.2521 28.7004 22.2743 28.9434 22.3661C29.1863 22.458 29.3988 22.6159 29.5568 22.822C29.7148 23.0282 29.8121 23.2744 29.8377 23.5329C29.8634 23.7913 29.8162 24.0518 29.7017 24.285C28.8204 25.9513 27.5023 27.3464 25.8887 28.3208C24.2751 29.2952 22.4267 29.8122 20.5417 29.8164ZM16.1017 11.6507C15.0088 12.2704 14.0584 13.1132 13.3126 14.1244C12.5667 15.1355 12.042 16.2922 11.7725 17.5194C11.503 18.7467 11.4948 20.0168 11.7484 21.2474C12.0021 22.478 12.5118 23.6415 13.2446 24.6621C14.1278 25.8967 15.3105 26.8863 16.6816 27.5379C18.0526 28.1894 19.5668 28.4815 21.0818 28.3866C22.5968 28.2918 24.0628 27.8131 25.3418 26.9956C26.6208 26.1781 27.6709 25.0486 28.3932 23.7135C26.5552 24.083 24.652 23.9568 22.8789 23.3478C20.5393 22.5275 18.5703 20.8976 17.3274 18.7524C16.0845 16.6073 15.6498 14.0883 16.1017 11.6507Z" fill="currentColor"/>
<rect x="0.5" y="0.5" width="39" height="39" rx="19.5" stroke="currentColor"/>
</svg>
