<svg width="31" height="31" viewBox="0 0 31 31" fill="none" xmlns="http://www.w3.org/2000/svg">
<g clip-path="url(#clip0_409_5444)">
<path d="M12.3247 12.8052C13.7934 12.8052 15.262 12.8118 16.7307 12.8C17.0534 12.7975 17.1518 12.8765 17.1474 13.1351C17.1346 13.8709 17.1474 13.8714 16.2475 13.8714C13.4802 13.8714 10.7136 13.8714 7.94628 13.8714C7.50722 13.8714 7.50722 13.8704 7.50466 13.5158C7.50168 13.0421 7.79928 12.8052 8.39748 12.8052C9.70635 12.8052 11.0159 12.8052 12.3247 12.8052Z" fill="white"/>
<path d="M24.6087 5.70798C24.9111 5.37905 25.2036 5.04063 25.5181 4.72368C26.735 3.49781 27.9588 2.27942 29.1797 1.05804C29.303 0.934751 29.4268 0.811464 29.5461 0.684684C29.7283 0.490521 29.9499 0.46207 30.187 0.540933C30.4306 0.622292 30.4925 0.823443 30.492 1.05754C30.4895 2.61284 30.5179 4.16914 30.478 5.72345C30.4346 7.41652 29.9783 9.01574 29.2431 10.5406C28.5139 12.0535 27.4682 13.3203 26.2658 14.4733C25.7382 14.9789 25.2331 15.5075 24.712 16.0196C24.5528 16.1763 24.4973 16.3495 24.4973 16.5746C24.5033 20.9745 24.5018 25.3744 24.5018 29.7743C24.5018 30.3577 24.3686 30.49 23.7816 30.49C17.0363 30.49 10.291 30.4775 3.54567 30.5005C2.05026 30.5055 0.724558 29.353 0.534387 27.9704C0.513923 27.8226 0.506935 27.6724 0.506935 27.5232C0.505438 19.8375 0.50394 12.1523 0.507933 4.46713C0.508432 2.81998 1.82465 1.50476 3.47279 1.50376C10.2765 1.49927 17.0797 1.50127 23.8834 1.50177C24.3371 1.50177 24.5013 1.66648 24.5018 2.1167C24.5033 3.19783 24.5018 4.27945 24.5018 5.36058C24.5018 5.45042 24.5018 5.54027 24.5018 5.63011C24.5373 5.65607 24.5727 5.68152 24.6082 5.70748L24.6087 5.70798ZM23.4242 17.3408C23.3458 17.4072 23.279 17.4561 23.2211 17.514C22.8028 17.9298 22.38 18.3411 21.9727 18.7673C21.803 18.945 21.6158 19.0139 21.3753 19.0129C20.1274 19.0069 18.8796 19.0194 17.6322 19.0034C17.3373 18.9994 17.1361 19.1008 16.9375 19.3039C16.2352 20.0227 15.5239 20.7329 14.8066 21.4367C14.3619 21.873 14.3539 21.865 13.9032 21.4527C13.5962 21.1722 13.5992 21.1188 13.8947 20.8268C14.6854 20.0436 15.471 19.256 16.2626 18.4739C16.4203 18.3176 16.4837 18.1469 16.4817 17.9203C16.4718 16.6395 16.4792 15.3582 16.4753 14.0775C16.4748 13.8564 16.5416 13.6856 16.7059 13.5264C17.3138 12.9369 17.9078 12.333 18.5067 11.734C20.0745 10.1662 21.6413 8.59747 23.2116 7.03218C23.3853 6.85898 23.4741 6.6783 23.4711 6.41974C23.4571 5.23879 23.4651 4.05734 23.4646 2.87638C23.4646 2.54097 23.4641 2.53997 23.1367 2.53947C21.7062 2.53947 20.2752 2.53947 18.8446 2.53947C13.8204 2.53947 8.79607 2.53897 3.77178 2.54047C3.33403 2.54047 2.90877 2.60935 2.52544 2.83745C1.80568 3.26571 1.54514 3.94254 1.54414 4.73666C1.53915 8.71277 1.54164 12.6889 1.54164 16.665C1.54164 19.3933 1.54164 22.122 1.54364 24.8503C1.54364 24.9287 1.50321 25.0335 1.59106 25.0794C1.66443 25.1173 1.72882 25.0385 1.78722 24.9975C2.32978 24.6152 2.92974 24.4585 3.59408 24.459C10.0988 24.4655 16.604 24.463 23.1088 24.4625C23.4636 24.4625 23.4646 24.4615 23.4651 24.1036C23.4651 21.9408 23.4656 19.7781 23.4641 17.6153C23.4641 17.535 23.4856 17.4501 23.4242 17.3423V17.3408ZM13.3831 29.4533C16.5851 29.4533 19.787 29.4533 22.989 29.4533C23.5086 29.4533 23.4641 29.5022 23.4651 28.9901C23.4666 27.9589 23.4656 26.9277 23.4651 25.8965C23.4651 25.6323 23.3339 25.5 23.0713 25.4997C16.6594 25.4997 10.2471 25.5002 3.83517 25.4977C3.56613 25.4977 3.30459 25.5306 3.04454 25.59C1.77973 25.878 1.1608 27.4124 1.85809 28.505C2.29833 29.1943 2.95519 29.4493 3.72735 29.4513C6.94577 29.4588 10.1642 29.4543 13.3831 29.4543V29.4533ZM17.5159 17.1097C17.5359 17.1217 17.5554 17.1342 17.5753 17.1462C17.8973 16.8262 18.2207 16.5078 18.5417 16.1868C19.6627 15.0653 20.7828 13.9432 21.9038 12.8216C23.0364 11.6886 24.1719 10.5581 25.301 9.42154C25.6364 9.08413 25.6279 9.07664 25.9658 9.42903C26.0177 9.48293 26.0736 9.53285 26.127 9.58526C26.304 9.75995 26.309 9.93515 26.142 10.1108C26.125 10.1288 26.1071 10.1463 26.0896 10.1638C25.1308 11.1191 24.1714 12.0729 23.2141 13.0293C21.816 14.4259 20.4169 15.8209 19.0248 17.223C18.7962 17.4531 18.5367 17.6588 18.325 17.9727C18.4563 17.9727 18.5377 17.9727 18.619 17.9727C19.3757 17.9727 20.1329 17.9607 20.8891 17.9792C21.1576 17.9857 21.3413 17.8889 21.521 17.7077C22.8831 16.3346 24.2378 14.953 25.6214 13.6013C26.7679 12.4807 27.7497 11.2504 28.4121 9.78092C28.9287 8.6344 29.2521 7.43798 29.3724 6.18615C29.4887 4.97525 29.4508 3.76135 29.4543 2.54795C29.4543 2.49405 29.4777 2.42966 29.4018 2.38024C29.3419 2.43016 29.2741 2.47758 29.2167 2.53498C27.5156 4.23852 25.8171 5.94507 24.1145 7.64761C21.9952 9.76694 19.8714 11.8818 17.7525 14.0021C17.6507 14.1039 17.5169 14.1968 17.5169 14.369C17.5169 15.2829 17.5169 16.1963 17.5169 17.1102L17.5159 17.1097Z" fill="white"/>
<path d="M11.757 15.9764C12.9041 15.9764 14.0511 15.9829 15.1981 15.9714C15.4501 15.9689 15.527 16.0458 15.5235 16.2974C15.5135 17.0131 15.5235 17.0136 14.8207 17.0136C12.6595 17.0136 10.4987 17.0136 8.33747 17.0136C7.99457 17.0136 7.99457 17.0126 7.99257 16.6677C7.99024 16.2069 8.22267 15.9764 8.68986 15.9764C9.71209 15.9764 10.7348 15.9764 11.757 15.9764Z" fill="white"/>
<path d="M13.3959 9.59113C15.1909 9.59113 16.9859 9.5978 18.7809 9.586C19.1754 9.58343 19.2956 9.66245 19.2902 9.92106C19.2746 10.6569 19.2902 10.6574 18.1904 10.6574C14.8081 10.6574 11.4267 10.6574 8.04442 10.6574C7.50779 10.6574 7.50779 10.6563 7.50467 10.3018C7.50102 9.82801 7.86476 9.59113 8.59589 9.59113C10.1956 9.59113 11.7961 9.59113 13.3959 9.59113Z" fill="white"/>
<path d="M13.3959 6.37659C15.1909 6.37659 16.9859 6.38326 18.7809 6.37146C19.1754 6.36889 19.2956 6.44791 19.2902 6.70652C19.2746 7.44231 19.2902 7.44283 18.1904 7.44283C14.8081 7.44283 11.4267 7.44283 8.04442 7.44283C7.50779 7.44283 7.50779 7.4418 7.50467 7.08724C7.50102 6.61348 7.86476 6.37659 8.59589 6.37659C10.1956 6.37659 11.7961 6.37659 13.3959 6.37659Z" fill="white"/>
<path d="M11.2549 19.5093C10.2656 19.5093 9.27679 19.5038 8.28801 19.5138C8.05941 19.5163 7.98803 19.4409 7.98853 19.2138C7.99052 18.4726 7.98254 18.4726 8.71477 18.4726C10.5351 18.4726 12.355 18.4726 14.1753 18.4726C14.5187 18.4726 14.5187 18.4736 14.5202 18.818C14.5225 19.2789 14.2903 19.5093 13.8234 19.5093C12.9674 19.5093 12.1114 19.5093 11.2554 19.5093H11.2549Z" fill="white"/>
<path d="M10.4903 22.0045C9.75909 22.0045 9.02786 21.996 8.29663 22.0095C8.05255 22.014 7.9667 21.9282 7.98966 21.6931C8.00364 21.5533 8.00164 21.4101 7.98966 21.2698C7.97119 21.0507 8.04207 20.9618 8.28016 20.9633C9.76758 20.9728 11.255 20.9718 12.7419 20.9638C12.964 20.9628 13.0414 21.0397 13.0239 21.2538C13.011 21.4106 13.01 21.5703 13.0239 21.727C13.0444 21.9526 12.9436 22.0105 12.7329 22.008C11.9852 21.9985 11.2375 22.0045 10.4893 22.0045H10.4903Z" fill="white"/>
</g>
<defs>
<clipPath id="clip0_409_5444">
<rect width="29.9945" height="30" fill="white" transform="translate(0.505493 0.5)"/>
</clipPath>
</defs>
</svg>
