<svg width="13" height="16" viewBox="0 0 13 16" fill="none" xmlns="http://www.w3.org/2000/svg">
<g clip-path="url(#clip0_680_11839)">
<path fill-rule="evenodd" clip-rule="evenodd" d="M12.2351 4.44734V14.3157C12.2351 14.9698 11.7031 15.5 11.0471 15.5H1.93878C1.28253 15.5 0.750732 14.9698 0.750732 14.3157V1.6843C0.750732 1.03016 1.28253 0.5 1.93878 0.5H8.27487L12.2351 4.44734Z" fill="#FF6666"/>
<path fill-rule="evenodd" clip-rule="evenodd" d="M12.2349 4.22633V4.71758H8.99752C8.32721 4.71758 8.01807 4.17383 8.01807 3.50328V0.5H8.50838L12.2349 4.22633Z" fill="#ED4444"/>
<path fill-rule="evenodd" clip-rule="evenodd" d="M10.2879 8.13258C10.1621 8.09102 10.0408 8.06995 9.92394 8.06995C9.79117 8.06995 9.69996 8.09737 9.65002 8.15221C9.60038 8.20705 9.57556 8.30403 9.57556 8.44344V8.70985H10.1335V9.24498H9.57556V11.4487H8.89958V9.24498H8.5512V8.70985H8.89958V8.44344C8.89958 8.10401 8.98386 7.85867 9.15242 7.70714C9.32098 7.5556 9.5744 7.47998 9.91326 7.47998C10.0723 7.47998 10.2409 7.50163 10.4189 7.54521L10.2879 8.13258ZM7.45641 11.1823C7.33056 11.2885 7.19779 11.3731 7.05809 11.4357C6.9184 11.4983 6.75965 11.5295 6.58156 11.5295C6.23578 11.5295 5.9711 11.4051 5.78782 11.1563C5.60425 10.9072 5.51275 10.5557 5.51275 10.1014C5.51275 9.63665 5.61348 9.27557 5.81524 9.01782C6.01699 8.76036 6.30014 8.63134 6.66526 8.63134C6.79457 8.63134 6.92705 8.65789 7.06329 8.711C7.19952 8.76411 7.31238 8.83165 7.40128 8.91333V7.5608H8.07726V11.4487H7.45641V11.1823ZM7.40128 9.46953C7.3297 9.40517 7.24109 9.34802 7.13545 9.29837C7.02981 9.24902 6.92186 9.22419 6.81189 9.22419C6.63034 9.22419 6.48458 9.30212 6.37461 9.4577C6.26435 9.61356 6.20951 9.82455 6.20951 10.091C6.20951 10.3539 6.25454 10.56 6.3443 10.7098C6.43436 10.8596 6.57348 10.9343 6.76225 10.9343C6.87395 10.9343 6.98796 10.9087 7.10399 10.8573C7.22002 10.8059 7.31931 10.7427 7.40128 10.6679V9.46953ZM4.51206 11.352C4.34609 11.4703 4.14809 11.5295 3.91747 11.5295C3.61354 11.5295 3.35435 11.4348 3.1396 11.2449V12.48H2.46362V8.70985H3.08707V8.97857C3.21292 8.87062 3.34511 8.78576 3.48394 8.72399C3.62278 8.66222 3.7821 8.63134 3.96192 8.63134C4.30944 8.63134 4.57411 8.75314 4.75566 8.99704C4.93721 9.24065 5.02813 9.5948 5.02813 10.0595C5.02813 10.3539 4.98368 10.6131 4.8945 10.8377C4.80531 11.0622 4.67802 11.2337 4.51206 11.352ZM4.19254 9.44731C4.09989 9.29837 3.96192 9.22419 3.77864 9.22419C3.66867 9.22419 3.55552 9.24988 3.43949 9.30097C3.32317 9.35235 3.22331 9.41556 3.1396 9.49031V10.6887C3.21118 10.7534 3.29979 10.8102 3.40543 10.8599C3.51107 10.9095 3.6196 10.9343 3.73159 10.9343C3.9166 10.9343 4.06294 10.8556 4.17031 10.698C4.27769 10.5404 4.33137 10.3311 4.33137 10.0702C4.33137 9.80377 4.2849 9.59624 4.19254 9.44731Z" fill="white"/>
</g>
<defs>
<clipPath id="clip0_680_11839">
<rect width="11.4844" height="15" fill="white" transform="translate(0.750732 0.5)"/>
</clipPath>
</defs>
</svg>
