<svg width="24" height="24" viewBox="0 0 24 24" fill="none" xmlns="http://www.w3.org/2000/svg">
<g clip-path="url(#clip0_632_3275)">
<path d="M10.9695 13.8C10.7775 13.8 10.5855 13.7265 10.4392 13.5802L7.31096 10.4528C7.16996 10.3118 7.09121 10.1212 7.09121 9.9225C7.09121 9.72375 7.16996 9.5325 7.31096 9.39225L9.13646 7.5675C9.70646 6.9975 9.70646 6.06975 9.13646 5.49975L7.05146 3.41475C6.49871 2.86275 5.53571 2.862 4.98296 3.41475C4.94996 3.44775 4.91321 3.47775 4.87421 3.50475C4.78796 3.56475 2.6947 5.06175 3.0382 8.15325C3.08395 8.565 2.7877 8.9355 2.37595 8.98125C1.96795 9.0285 1.5937 8.73075 1.54795 8.319C1.13245 4.5855 3.5347 2.62875 3.9682 2.3085C5.09095 1.2315 7.00645 1.2495 8.1112 2.3535L10.1962 4.4385C11.3512 5.5935 11.3512 7.47225 10.1962 8.62725L8.90245 9.9225L11.4997 12.5198C11.793 12.813 11.793 13.287 11.4997 13.5802C11.3535 13.7273 11.1615 13.8 10.9695 13.8Z" fill="currentColor"/>
<path d="M7.31992 17.4495C7.12792 17.4495 6.93592 17.376 6.78967 17.2298C4.94692 15.387 3.56767 13.5885 2.68942 11.8838C2.49967 11.5155 2.64442 11.0633 3.01267 10.8735C3.38242 10.6838 3.83317 10.8293 4.02292 11.1968C4.82992 12.7635 6.11692 14.4368 7.85017 16.1693C8.14342 16.4625 8.14342 16.9365 7.85017 17.2298C7.70317 17.3768 7.51192 17.4495 7.31992 17.4495Z" fill="currentColor"/>
<path d="M16.4939 22.4865C13.5412 22.4865 10.2697 20.7098 6.75595 17.1953C6.4627 16.902 6.4627 16.428 6.75595 16.1348C7.0492 15.8415 7.5232 15.8415 7.81645 16.1348C11.2207 19.5398 14.3999 21.2063 17.0294 20.9618C19.3469 20.7428 20.4704 19.128 20.4817 19.1108C20.5079 19.0718 20.5379 19.035 20.5717 19.002C20.8477 18.7268 20.9999 18.3585 20.9999 17.9685C20.9999 17.5785 20.8477 17.211 20.5717 16.935L18.4867 14.8493C18.2107 14.5733 17.8432 14.4218 17.4517 14.4218C17.0609 14.4218 16.6942 14.5733 16.4189 14.8493L14.5927 16.674C14.2994 16.9673 13.8254 16.9673 13.5322 16.674L10.4054 13.5473C10.1122 13.254 10.1122 12.78 10.4054 12.4868C10.6987 12.1935 11.1727 12.1935 11.4659 12.4868L14.0624 15.0833L15.3577 13.7888C15.9164 13.2293 16.6597 12.921 17.4517 12.921C18.2437 12.921 18.9877 13.2293 19.5472 13.788L21.6322 15.8745C22.1917 16.4333 22.4999 17.1773 22.4999 17.9685C22.4999 18.738 22.2082 19.4633 21.6772 20.0168C21.4042 20.3858 19.9319 22.194 17.1704 22.455C16.9477 22.4768 16.7212 22.4865 16.4939 22.4865Z" fill="currentColor"/>
</g>
<defs>
<clipPath id="clip0_632_3275">
<rect width="24" height="24" fill="white"/>
</clipPath>
</defs>
</svg>
