<svg width="21" height="32" viewBox="0 0 21 32" fill="none" xmlns="http://www.w3.org/2000/svg">
<g clip-path="url(#clip0_842_4041)">
<path d="M15.0874 12.6627C15.0077 12.1156 15.0331 11.6406 15.3665 11.2209C15.7735 10.7077 16.4719 10.5052 17.1302 10.728C17.7174 10.9265 18.1386 11.5046 18.1254 12.1451C18.1198 12.408 18.201 12.5734 18.4091 12.7399C19.2283 13.3961 19.6551 14.2553 19.6556 15.3146C19.6556 15.7185 19.6571 15.7185 20.051 15.7226C20.5093 15.7267 20.6681 15.8789 20.6696 16.3266C20.6722 17.1219 20.6722 17.9166 20.6696 18.7119C20.6681 19.1494 20.5077 19.3093 20.0743 19.3139C19.8799 19.3159 19.685 19.3139 19.4907 19.3149C19.1501 19.3164 19.1486 19.3164 19.1486 19.6493C19.1481 21.451 19.1486 23.2523 19.1481 25.054C19.1481 27.1429 19.1481 29.2324 19.1481 31.3214C19.1481 31.865 19.0141 32.0005 18.4787 32.0005C13.1583 32.0005 7.83836 32.0005 2.51796 32.0005C1.99369 32.0005 1.85361 31.8624 1.85361 31.3422C1.8531 27.4601 1.85361 23.5776 1.85361 19.6955C1.85361 19.4428 1.72961 19.3161 1.4816 19.3154C1.28721 19.3154 1.09232 19.3174 0.89794 19.3139C0.49801 19.3073 0.334079 19.1418 0.332556 18.7338C0.329511 17.9217 0.329003 17.1097 0.332556 16.2976C0.334079 15.8941 0.501562 15.7257 0.904031 15.7241C1.7922 15.7206 2.68037 15.7145 3.56804 15.7282C3.80404 15.7317 3.89235 15.651 3.92889 15.4247C4.15626 14.0219 4.95917 13.0748 6.2493 12.5115C6.96136 12.2004 7.66479 11.869 8.37127 11.5441C8.61742 11.431 8.6301 11.3259 8.4073 11.1742C7.66631 10.6687 7.07961 10.0261 6.66648 9.22932C6.56549 9.03494 6.47971 8.83091 6.40511 8.62486C6.34015 8.44469 6.23966 8.34014 6.04781 8.27568C5.39818 8.05694 5.01144 7.47633 5.07133 6.81299C5.11193 6.36688 5.33271 6.01161 5.72249 5.7817C5.87271 5.69288 5.92397 5.58681 5.92702 5.41425C5.93869 4.74686 5.87576 4.07743 5.95442 3.41206C6.1077 2.11736 6.82737 1.20991 7.96321 0.642495C9.668 -0.209133 11.4083 -0.213701 13.1136 0.625239C14.3286 1.2231 15.0721 2.22192 15.3426 3.56686C15.4645 4.17234 15.433 4.77883 15.4244 5.38634C15.4218 5.56448 15.4634 5.68273 15.6233 5.78322C16.1029 6.0852 16.3318 6.53893 16.2709 7.09568C16.2034 7.71131 15.8177 8.09957 15.2437 8.29395C15.0823 8.34876 14.9955 8.43048 14.9346 8.5873C14.4763 9.76324 13.7023 10.6737 12.6122 11.3132C12.5624 11.3422 12.4883 11.3559 12.4832 11.4218C12.4772 11.4975 12.5558 11.5041 12.6071 11.5274C13.4201 11.8999 14.2342 12.2719 15.0884 12.6627H15.0874ZM10.4729 30.9479C12.8994 30.9479 15.3264 30.9479 17.7529 30.9479C18.0914 30.9479 18.0929 30.9463 18.0929 30.6119C18.0929 26.9592 18.0934 23.3066 18.0929 19.6539C18.0929 19.3159 18.0914 19.3144 17.7559 19.3144C12.9197 19.3144 8.08299 19.3144 3.24677 19.3144C2.90825 19.3144 2.90673 19.3154 2.90673 19.6509C2.90673 23.2949 2.90673 26.9394 2.90673 30.5835C2.90673 30.9474 2.90774 30.9484 3.2686 30.9484C5.6697 30.9484 8.07132 30.9484 10.4724 30.9484L10.4729 30.9479ZM10.5267 16.7767C9.63044 16.7767 8.73465 16.7767 7.83836 16.7767C5.7839 16.7767 3.72994 16.7793 1.67547 16.7732C1.45825 16.7727 1.36842 16.8341 1.38111 17.061C1.39684 17.3391 1.38415 17.6187 1.38466 17.8979C1.385 18.1388 1.5068 18.2594 1.75008 18.2597C5.14847 18.2597 8.54687 18.2597 11.9458 18.2597C14.3976 18.2597 16.849 18.2567 19.3008 18.2638C19.5409 18.2643 19.6378 18.1993 19.6206 17.9496C19.6023 17.6801 19.617 17.4091 19.6165 17.1381C19.6165 16.7772 19.616 16.7762 19.2521 16.7762C16.344 16.7762 13.4359 16.7762 10.5277 16.7762L10.5267 16.7767ZM14.9143 7.22866C14.9955 7.22866 15.1264 7.18602 15.1574 7.00839C15.1868 6.83938 15.1036 6.72824 14.9463 6.68154C14.727 6.61658 14.5052 6.56989 14.3824 6.33846C14.3352 6.24913 14.2433 6.31054 14.1789 6.34252C13.9515 6.4562 13.7165 6.54756 13.4714 6.61658C11.6895 7.12004 10.1298 6.77747 8.85342 5.38989C8.71486 5.23915 8.61336 5.22444 8.44942 5.32543C8.08553 5.55027 7.68306 5.67969 7.26232 5.74211C7.10854 5.76495 7.03241 5.82788 7.01972 5.97608C6.98623 6.36586 6.81874 6.62673 6.39547 6.67951C6.23965 6.6988 6.12901 6.81502 6.1615 6.98555C6.19347 7.15456 6.31832 7.2383 6.49443 7.23272C7.03698 7.21597 7.16944 7.30884 7.30445 7.84327C7.58206 8.94003 8.21901 9.77085 9.17113 10.3621C9.76849 10.7331 10.409 10.964 11.1221 10.7483C12.6223 10.2956 13.5876 9.30444 14.0353 7.80723C14.1946 7.27433 14.2687 7.21394 14.9143 7.22815V7.22866ZM10.508 15.7221C12.2249 15.7221 13.9414 15.7221 15.6583 15.7221C15.9928 15.7221 16.0243 15.681 15.9441 15.3496C15.7502 14.5497 15.2691 13.9782 14.5352 13.625C13.85 13.2951 13.1527 12.9906 12.465 12.6653C12.2812 12.5785 12.1787 12.5952 12.0488 12.7719C11.2642 13.8402 9.76849 13.8666 8.99502 12.8191C8.83007 12.5952 8.69964 12.5876 8.47582 12.6942C7.81248 13.0114 7.13747 13.3037 6.47413 13.6209C5.73923 13.9727 5.25556 14.5411 5.05813 15.3399C4.97287 15.6845 5.00332 15.7221 5.35707 15.7221C7.07403 15.7221 8.79048 15.7221 10.5074 15.7221H10.508ZM7.0451 3.98506C7.0451 4.12666 7.0522 4.27892 7.04358 4.43067C7.03241 4.62454 7.11869 4.66261 7.29125 4.62048C7.69321 4.52202 8.04442 4.32662 8.36771 4.07489C8.81484 3.72622 9.1087 3.78763 9.3919 4.27283C9.69439 4.7905 10.1207 5.17927 10.6673 5.42897C11.7001 5.90097 12.7142 5.79743 13.7313 5.35233C14.1982 5.1478 14.3931 4.87374 14.3591 4.33322C14.2799 3.07405 13.514 1.92349 12.3726 1.47484C11.1967 1.01248 10.0177 0.996241 8.83514 1.43982C7.89368 1.79306 6.93294 2.62286 7.04561 3.98506H7.0451ZM17.8072 15.7216C18.0264 15.7216 18.2041 15.716 18.3817 15.7231C18.5482 15.7297 18.6071 15.6536 18.602 15.4937C18.5923 15.1867 18.535 14.8867 18.4416 14.5979C18.303 14.1696 18.0503 13.8158 17.6803 13.5494C17.5869 13.4819 17.5103 13.4616 17.4047 13.5235C17.1596 13.6686 16.8926 13.7438 16.6059 13.7296C16.4064 13.7194 16.4115 13.7981 16.5064 13.9326C16.7485 14.2751 16.8962 14.6593 17.0124 15.0598C17.0728 15.2684 17.0007 15.549 17.1799 15.6769C17.3601 15.8058 17.6235 15.7018 17.8077 15.7216H17.8072ZM10.5156 12.4856C10.8318 12.479 11.0601 12.3151 11.2165 12.0395C11.2398 11.9989 11.2621 11.936 11.2469 11.8999C11.2231 11.8441 11.1581 11.8796 11.1119 11.8872C10.7089 11.9542 10.309 11.9486 9.90958 11.8578C9.85527 11.8456 9.78625 11.8182 9.75072 11.8852C9.72027 11.9426 9.75833 11.9999 9.78777 12.0501C9.94866 12.3237 10.1786 12.4841 10.5156 12.4861V12.4856ZM16.1187 12.1542C16.0938 12.3633 16.3344 12.6389 16.5622 12.6617C16.7703 12.6825 17.0469 12.4338 17.0642 12.211C17.0794 12.0116 16.85 11.7502 16.6307 11.7187C16.4227 11.6883 16.1461 11.9238 16.1187 12.1547V12.1542Z" fill="currentColor"/>
<path d="M9.97274 25.5238C9.97274 24.898 9.96614 24.2722 9.97629 23.6464C9.97984 23.4333 9.90321 23.3602 9.69563 23.3708C9.451 23.3835 9.20536 23.3795 8.96022 23.3708C8.62525 23.3597 8.44914 23.1694 8.45219 22.8369C8.45523 22.5182 8.62931 22.3335 8.95261 22.3223C9.21449 22.3137 9.47688 22.3132 9.73877 22.3208C9.9164 22.3264 9.97984 22.2507 9.97426 22.0792C9.96665 21.8259 9.96817 21.5717 9.97426 21.3184C9.98339 20.9779 10.1666 20.7992 10.496 20.7987C10.8269 20.7982 11.0142 20.9753 11.0243 21.3123C11.0319 21.5656 11.0345 21.8198 11.0243 22.0731C11.0167 22.2639 11.0964 22.3279 11.2796 22.3213C11.5329 22.3121 11.7871 22.3137 12.0404 22.3223C12.3769 22.3335 12.5515 22.5233 12.5474 22.8567C12.5434 23.1749 12.3698 23.3587 12.0455 23.3703C11.8003 23.379 11.5542 23.3856 11.3101 23.3703C11.0817 23.3556 11.0218 23.449 11.0233 23.6657C11.0309 24.9 11.0284 26.1348 11.0259 27.3691C11.0253 27.7239 10.8756 27.9071 10.5792 27.9371C10.2052 27.9751 9.97832 27.7807 9.97477 27.4001C9.96918 26.7743 9.97324 26.1485 9.97324 25.5228H9.97223L9.97274 25.5238Z" fill="currentColor"/>
</g>
<defs>
<clipPath id="clip0_842_4041">
<rect width="20.3422" height="32" fill="white" transform="translate(0.329102)"/>
</clipPath>
</defs>
</svg>
