<svg width="26" height="41" viewBox="0 0 26 41" fill="none" xmlns="http://www.w3.org/2000/svg">
<g clip-path="url(#clip0_133_3252)">
<path d="M19.0202 16.3284C18.9206 15.6446 18.9523 15.0507 19.3691 14.5261C19.8779 13.8847 20.7509 13.6316 21.5737 13.9101C22.3077 14.1581 22.8343 14.8807 22.8178 15.6814C22.8108 16.01 22.9123 16.2168 23.1724 16.4249C24.1963 17.2452 24.7299 18.3192 24.7305 19.6432C24.7305 20.1482 24.7324 20.1482 25.2247 20.1533C25.7976 20.1584 25.9962 20.3487 25.9981 20.9082C26.0012 21.9023 26.0012 22.8958 25.9981 23.8899C25.9962 24.4368 25.7957 24.6366 25.2539 24.6423C25.0109 24.6449 24.7673 24.6423 24.5243 24.6436C24.0986 24.6455 24.0967 24.6455 24.0967 25.0617C24.0961 27.3138 24.0967 29.5653 24.0961 31.8175C24.0961 34.4287 24.0961 37.0406 24.0961 39.6518C24.0961 40.3312 23.9286 40.5006 23.2593 40.5006C16.6088 40.5006 9.95896 40.5006 3.30847 40.5006C2.65312 40.5006 2.47803 40.3281 2.47803 39.6778C2.47739 34.8252 2.47803 29.972 2.47803 25.1194C2.47803 24.8035 2.32302 24.6451 2.01301 24.6443C1.77003 24.6443 1.52641 24.6468 1.28344 24.6423C0.783523 24.6341 0.578609 24.4273 0.576706 23.9172C0.572899 22.9022 0.572265 21.8871 0.576706 20.8721C0.578609 20.3677 0.787964 20.1571 1.29105 20.1552C2.40126 20.1507 3.51148 20.1431 4.62106 20.1603C4.91606 20.1647 5.02644 20.0638 5.07212 19.7809C5.35634 18.0274 6.35997 16.8436 7.97263 16.1394C8.86271 15.7505 9.742 15.3362 10.6251 14.9302C10.9328 14.7887 10.9486 14.6574 10.6701 14.4677C9.7439 13.8359 9.01052 13.0327 8.49412 12.0367C8.36787 11.7937 8.26065 11.5387 8.1674 11.2811C8.08619 11.0559 7.96058 10.9252 7.72077 10.8446C6.90873 10.5712 6.42531 9.84544 6.50017 9.01627C6.55093 8.45863 6.82689 8.01454 7.31412 7.72716C7.5019 7.61613 7.56598 7.48354 7.56978 7.26784C7.58438 6.4336 7.50571 5.59682 7.60404 4.76511C7.79563 3.14674 8.69522 2.01242 10.115 1.30315C12.246 0.238615 14.4214 0.232905 16.553 1.28158C18.0718 2.02891 19.0012 3.27742 19.3393 4.9586C19.4916 5.71545 19.4522 6.47357 19.4415 7.23295C19.4383 7.45563 19.4903 7.60345 19.6901 7.72906C20.2897 8.10653 20.5758 8.67369 20.4997 9.36963C20.4153 10.1392 19.9331 10.6245 19.2156 10.8675C19.0139 10.936 18.9054 11.0381 18.8293 11.2342C18.2564 12.7041 17.2889 13.8422 15.9262 14.6416C15.864 14.6777 15.7714 14.6948 15.7651 14.7773C15.7575 14.8718 15.8558 14.8801 15.9199 14.9093C16.9362 15.3749 17.9538 15.84 19.0215 16.3284H19.0202ZM13.2522 39.1849C16.2853 39.1849 19.319 39.1849 22.3521 39.1849C22.7753 39.1849 22.7772 39.183 22.7772 38.7649C22.7772 34.1991 22.7778 29.6332 22.7772 25.0674C22.7772 24.6449 22.7753 24.643 22.3559 24.643C16.3107 24.643 10.2647 24.643 4.21948 24.643C3.79633 24.643 3.79442 24.6443 3.79442 25.0636C3.79442 29.6186 3.79442 34.1743 3.79442 38.7294C3.79442 39.1842 3.79569 39.1855 4.24676 39.1855C7.24814 39.1855 10.2502 39.1855 13.2515 39.1855L13.2522 39.1849ZM13.3194 21.4709C12.1991 21.4709 11.0793 21.4709 9.95896 21.4709C7.39088 21.4709 4.82343 21.4741 2.25535 21.4665C1.98382 21.4659 1.87153 21.5426 1.88739 21.8262C1.90706 22.1739 1.8912 22.5234 1.89183 22.8724C1.89226 23.1735 2.04451 23.3243 2.34861 23.3247C6.5966 23.3247 10.8446 23.3247 15.0932 23.3247C18.1581 23.3247 21.2222 23.3209 24.2871 23.3298C24.5871 23.3304 24.7083 23.2492 24.6867 22.9371C24.6639 22.6002 24.6823 22.2614 24.6817 21.9226C24.6817 21.4716 24.681 21.4703 24.2262 21.4703C20.591 21.4703 16.9558 21.4703 13.3207 21.4703L13.3194 21.4709ZM18.8039 9.53585C18.9054 9.53585 19.0691 9.48256 19.1078 9.26052C19.1446 9.04926 19.0405 8.91032 18.8438 8.85196C18.5698 8.77075 18.2925 8.71239 18.139 8.4231C18.08 8.31144 17.9652 8.38821 17.8846 8.42817C17.6004 8.57028 17.3067 8.68447 17.0003 8.77075C14.7729 9.40009 12.8233 8.97186 11.2278 7.23739C11.0546 7.04897 10.9277 7.03058 10.7228 7.15682C10.2679 7.43787 9.76484 7.59964 9.23891 7.67767C9.04669 7.70622 8.95152 7.78489 8.93566 7.97013C8.89379 8.45736 8.68444 8.78344 8.15534 8.84942C7.96058 8.87353 7.82228 9.01881 7.86288 9.23197C7.90285 9.44323 8.05891 9.5479 8.27905 9.54092C8.95723 9.51999 9.12282 9.63609 9.29157 10.3041C9.63859 11.6751 10.4348 12.7136 11.6249 13.4527C12.3716 13.9164 13.1722 14.2051 14.0636 13.9355C15.9389 13.3696 17.1455 12.1306 17.7051 10.2591C17.9043 9.59295 17.9969 9.51745 18.8039 9.53522V9.53585ZM13.2959 20.1527C15.4422 20.1527 17.5877 20.1527 19.7339 20.1527C20.152 20.1527 20.1913 20.1013 20.0911 19.687C19.8488 18.6872 19.2473 17.9728 18.33 17.5313C17.4735 17.1189 16.6018 16.7383 15.7422 16.3316C15.5126 16.2231 15.3844 16.2441 15.222 16.4648C14.2412 17.8003 12.3716 17.8333 11.4048 16.5238C11.1986 16.2441 11.0356 16.2346 10.7558 16.3678C9.92661 16.7643 9.08285 17.1297 8.25368 17.5262C7.33505 17.9659 6.73046 18.6764 6.48368 19.6749C6.3771 20.1057 6.41516 20.1527 6.85734 20.1527C9.00355 20.1527 11.1491 20.1527 13.2953 20.1527H13.2959ZM8.96739 5.48135C8.96739 5.65835 8.97627 5.84868 8.96548 6.03836C8.95152 6.28071 9.05937 6.32829 9.27507 6.27563C9.77752 6.15256 10.2165 5.90831 10.6207 5.59364C11.1796 5.15781 11.5469 5.23457 11.9009 5.84106C12.279 6.48816 12.8119 6.97411 13.4952 7.28624C14.7862 7.87624 16.0537 7.74682 17.3251 7.19045C17.9087 6.93478 18.1523 6.5922 18.1098 5.91656C18.0109 4.34259 17.0535 2.90439 15.6268 2.34358C14.1568 1.76563 12.6831 1.74533 11.2049 2.2998C10.0281 2.74135 8.82718 3.77861 8.96802 5.48135H8.96739ZM22.42 20.152C22.6941 20.152 22.9161 20.145 23.1382 20.1539C23.3462 20.1622 23.4198 20.067 23.4135 19.8672C23.4014 19.4834 23.3297 19.1084 23.213 18.7474C23.0398 18.212 22.7239 17.7698 22.2614 17.4368C22.1447 17.3524 22.0489 17.327 21.9169 17.4044C21.6105 17.5858 21.2768 17.6797 20.9184 17.662C20.669 17.6493 20.6754 17.7476 20.794 17.9157C21.0966 18.344 21.2812 18.8242 21.4265 19.3248C21.502 19.5855 21.4119 19.9363 21.6359 20.0962C21.8611 20.2573 22.1903 20.1273 22.4206 20.152H22.42ZM13.3055 16.107C13.7007 16.0988 13.9862 15.8939 14.1816 15.5494C14.2108 15.4986 14.2387 15.42 14.2196 15.3749C14.1898 15.3051 14.1086 15.3496 14.0509 15.3591C13.5472 15.4428 13.0473 15.4358 12.548 15.3223C12.4801 15.3071 12.3938 15.2728 12.3494 15.3565C12.3113 15.4282 12.3589 15.4999 12.3957 15.5627C12.5968 15.9047 12.8842 16.1051 13.3055 16.1077V16.107ZM20.3093 15.6928C20.2782 15.9541 20.579 16.2986 20.8638 16.3272C21.1239 16.3532 21.4697 16.0423 21.4912 15.7638C21.5103 15.5145 21.2235 15.1878 20.9494 15.1484C20.6893 15.1104 20.3436 15.4047 20.3093 15.6934V15.6928Z" fill="#FF006B"/>
<path d="M12.6267 32.405C12.6267 31.6228 12.6184 30.8405 12.6311 30.0583C12.6356 29.7919 12.5398 29.7005 12.2803 29.7138C11.9745 29.7297 11.6675 29.7246 11.361 29.7138C10.9423 29.6999 10.7222 29.462 10.726 29.0464C10.7298 28.648 10.9474 28.4171 11.3515 28.4031C11.6789 28.3924 12.0069 28.3917 12.3342 28.4012C12.5563 28.4082 12.6356 28.3137 12.6286 28.0993C12.6191 27.7827 12.621 27.4649 12.6286 27.1483C12.64 26.7226 12.869 26.4993 13.2808 26.4987C13.6944 26.498 13.9285 26.7194 13.9412 27.1407C13.9507 27.4572 13.9539 27.7751 13.9412 28.0917C13.9317 28.3302 14.0313 28.4101 14.2603 28.4019C14.5769 28.3905 14.8947 28.3924 15.2113 28.4031C15.6319 28.4171 15.8501 28.6544 15.845 29.0712C15.84 29.469 15.623 29.6986 15.2176 29.7132C14.9112 29.724 14.6035 29.7322 14.2984 29.7132C14.0129 29.6948 13.938 29.8115 13.9399 30.0824C13.9494 31.6253 13.9463 33.1688 13.9431 34.7117C13.9424 35.1551 13.7553 35.3842 13.3848 35.4216C12.9172 35.4692 12.6337 35.2262 12.6292 34.7504C12.6222 33.9682 12.6273 33.1859 12.6273 32.4037H12.6261L12.6267 32.405Z" fill="#FF006B"/>
</g>
<defs>
<clipPath id="clip0_133_3252">
<rect width="25.4277" height="40" fill="white" transform="translate(0.572266 0.5)"/>
</clipPath>
</defs>
</svg>
