<svg width="19" height="18" viewBox="0 0 19 18" fill="none" xmlns="http://www.w3.org/2000/svg">
<path d="M18.125 17.125C18.0264 17.1253 17.9291 17.1022 17.8411 17.0576C17.7531 17.0131 17.6769 16.9484 17.6187 16.8687L16.2938 15.0437C14.4866 12.5663 11.7765 10.9002 8.75 10.4062V12.75C8.75 12.8661 8.71768 12.9798 8.65666 13.0786C8.59564 13.1773 8.50832 13.2571 8.40451 13.309C8.30069 13.3609 8.18447 13.3829 8.06887 13.3725C7.95327 13.3621 7.84286 13.3196 7.75 13.25L0.25 7.625C0.172377 7.56678 0.109375 7.49129 0.065983 7.40451C0.0225907 7.31772 0 7.22203 0 7.125C0 7.02797 0.0225907 6.93228 0.065983 6.84549C0.109375 6.75871 0.172377 6.68322 0.25 6.625L7.75 1C7.84286 0.930358 7.95327 0.887949 8.06887 0.877526C8.18447 0.867102 8.30069 0.889075 8.40451 0.940983C8.50832 0.992891 8.59564 1.07268 8.65666 1.17142C8.71768 1.27015 8.75 1.38393 8.75 1.5V4.15C11.5388 4.59594 14.0775 6.02125 15.9102 8.17013C17.7429 10.319 18.7498 13.0507 18.75 15.875V16.5C18.7499 16.6318 18.7081 16.7602 18.6307 16.8668C18.5532 16.9735 18.4441 17.0529 18.3188 17.0938C18.256 17.1132 18.1907 17.1237 18.125 17.125ZM8.125 9.06875H8.1875C9.99012 9.2547 11.7335 9.81763 13.3045 10.721C14.8754 11.6244 16.2388 12.848 17.3062 14.3125L17.4062 14.4437C17.0856 12.0949 15.9885 9.92074 14.2897 8.26724C12.5909 6.61373 10.3879 5.57586 8.03125 5.31875C7.87768 5.30176 7.73584 5.22848 7.63311 5.11306C7.53039 4.99764 7.47406 4.84826 7.475 4.69375V2.75L1.66875 7.125L7.5 11.5V9.69375C7.50021 9.60654 7.51866 9.52033 7.55418 9.44067C7.58971 9.36102 7.6415 9.28968 7.70625 9.23125C7.82087 9.12706 7.9701 9.06915 8.125 9.06875Z" fill="currentColor"/>
</svg>
