<svg width="26" height="24" viewBox="0 0 26 24" fill="none" xmlns="http://www.w3.org/2000/svg">
<g clip-path="url(#clip0_632_4706)">
<path d="M22.3976 17.2719C22.3976 19.3006 22.3956 21.329 22.4 23.3578C22.4003 23.604 22.3502 23.815 22.1189 23.9359C21.8888 24.0561 21.684 23.9798 21.4797 23.8463C17.6151 21.3227 13.7486 18.802 9.88209 16.2812C9.8226 16.2424 9.76114 16.199 9.69421 16.1798C9.52042 16.1301 9.46562 16.186 9.50084 16.3606C9.88249 18.2575 10.2645 20.1543 10.6446 22.0516C10.8258 22.9577 10.3585 23.7386 9.5118 23.9535C8.71916 24.1543 7.87798 23.6901 7.67601 22.8943C7.49869 22.1941 7.37657 21.4797 7.23448 20.7708C6.93699 19.2889 6.64107 17.8069 6.34868 16.3242C6.32402 16.1997 6.25982 16.1688 6.14592 16.1692C5.8132 16.1708 5.47971 16.1798 5.14856 16.1586C4.5395 16.1199 4.09484 15.8079 3.80792 15.2775C3.7449 15.1609 3.67796 15.1249 3.55192 15.1268C3.11587 15.1335 2.67474 15.1652 2.26139 14.9777C1.5165 14.6399 1.05188 14.0762 1.02213 13.2496C0.985724 12.253 0.988464 11.2533 1.01821 10.2563C1.04874 9.2292 1.84921 8.43264 2.87436 8.35514C3.10139 8.33792 3.33077 8.34144 3.55897 8.34496C3.67483 8.34692 3.74372 8.316 3.8044 8.20444C4.12341 7.61534 4.62405 7.30572 5.29574 7.30298C6.71114 7.29711 8.12654 7.30024 9.54233 7.30298C9.67151 7.30298 9.77993 7.27206 9.89031 7.20473C13.7631 4.84364 17.6386 2.48529 21.5126 0.124196C21.7169 -0.00027794 21.9228 -0.0527293 22.1385 0.070179C22.3483 0.189956 22.4 0.389193 22.4 0.621309C22.3964 3.17851 22.3984 5.73531 22.3972 8.29251C22.3972 8.6902 22.1463 8.92975 21.7913 8.87769C21.5654 8.84442 21.3999 8.6812 21.3701 8.453C21.3584 8.36297 21.3576 8.27098 21.3576 8.17978C21.3568 6.02066 21.3576 3.86155 21.356 1.70243C21.356 1.63393 21.3912 1.54077 21.3231 1.50202C21.2531 1.4621 21.1951 1.54547 21.1372 1.5807C17.6171 3.72103 14.0986 5.86331 10.5773 8.00168C10.4446 8.08231 10.3917 8.16882 10.3921 8.32617C10.3972 10.6156 10.3964 12.9055 10.3929 15.1949C10.3929 15.3202 10.4309 15.3969 10.5366 15.4658C13.9893 17.7138 17.4402 19.9645 20.8914 22.2144C21.0061 22.2892 21.1216 22.3628 21.2358 22.4379C21.3196 22.4927 21.3545 22.4622 21.3556 22.371C21.3564 22.3123 21.3564 22.2536 21.3564 22.1948C21.3564 18.5616 21.3564 14.9284 21.3564 11.2952C21.3564 11.1973 21.3548 11.099 21.3638 11.002C21.3901 10.7256 21.6014 10.5315 21.8696 10.5299C22.144 10.5287 22.3698 10.7342 22.3937 11.0098C22.4 11.081 22.3964 11.1531 22.3964 11.2251C22.3964 13.2405 22.3964 15.2564 22.3964 17.2719H22.3976ZM9.34819 11.7359C9.34819 10.6728 9.34623 9.60966 9.35054 8.54655C9.35093 8.40289 9.32079 8.33792 9.15678 8.3387C7.89168 8.34496 6.6262 8.33987 5.3611 8.3434C4.9 8.34457 4.65301 8.58608 4.65223 9.04209C4.64831 10.8423 4.64831 12.6421 4.65184 14.4422C4.65262 14.8838 4.9094 15.1284 5.35054 15.1292C6.61563 15.1304 7.88112 15.1264 9.14621 15.1335C9.31178 15.1343 9.35288 15.085 9.35171 14.9253C9.34506 13.8621 9.34819 12.799 9.34858 11.7359H9.34819ZM3.60868 11.7234C3.60868 11.1499 3.61534 10.5765 3.60516 10.003C3.60164 9.80225 3.70967 9.5259 3.54762 9.41904C3.40201 9.32314 3.14327 9.38459 2.93621 9.40025C2.42579 9.439 2.04689 9.84844 2.04415 10.3624C2.03984 11.2811 2.03945 12.2001 2.04415 13.1188C2.04689 13.6046 2.40348 14.0074 2.88611 14.0708C3.05951 14.0935 3.23761 14.0766 3.41258 14.0899C3.56445 14.1017 3.61338 14.0492 3.61181 13.8927C3.60398 13.1693 3.60829 12.446 3.60829 11.7226L3.60868 11.7234ZM7.90499 16.1704C7.79422 16.1704 7.68266 16.1766 7.57228 16.1688C7.42275 16.1583 7.37735 16.2064 7.4114 16.3606C7.50652 16.7931 7.58833 17.2288 7.67562 17.6633C7.99972 19.2791 8.32421 20.8953 8.64714 22.5115C8.66945 22.6231 8.7082 22.7237 8.78923 22.8055C8.9505 22.9683 9.1834 23.0035 9.38224 22.8955C9.59361 22.7804 9.68051 22.564 9.62258 22.2692C9.50397 21.6684 9.37989 21.0687 9.25933 20.4683C9.00608 19.2036 8.75831 17.9377 8.49918 16.6742C8.37236 16.0561 8.51405 16.1876 7.90499 16.1704Z" fill="currentColor"/>
<path d="M23.4222 17.7407C23.5936 17.7462 23.7208 17.8041 23.8269 17.9098C24.1632 18.2457 24.5025 18.5784 24.8341 18.9185C25.0533 19.1436 25.0548 19.4693 24.8509 19.6712C24.6423 19.8779 24.3452 19.885 24.1174 19.6662C23.7608 19.3237 23.412 18.9722 23.0672 18.6179C22.9055 18.4519 22.8836 18.2472 22.9764 18.039C23.0644 17.8417 23.232 17.7529 23.4226 17.7411L23.4222 17.7407Z" fill="currentColor"/>
<path d="M23.4499 6.77049C23.2358 6.76971 23.0706 6.68164 22.979 6.48475C22.8893 6.29295 22.8921 6.09019 23.0389 5.93636C23.4064 5.55041 23.783 5.17151 24.1713 4.80631C24.3564 4.63212 24.6672 4.66657 24.8477 4.84271C25.0269 5.01807 25.0676 5.32847 24.8985 5.51792C24.5349 5.9254 24.1431 6.30665 23.7415 6.67733C23.6624 6.75014 23.5571 6.76971 23.4499 6.77049Z" fill="currentColor"/>
<path d="M23.9619 11.4778C24.1381 11.4778 24.3146 11.4692 24.49 11.4798C24.8023 11.4986 25.0039 11.7154 24.9984 12.0113C24.993 12.2955 24.7894 12.5069 24.4837 12.5171C24.1385 12.5284 23.7921 12.5292 23.4472 12.5171C23.1313 12.5057 22.9278 12.2893 22.929 11.9949C22.9305 11.7021 23.1368 11.4943 23.4535 11.4782C23.6226 11.4696 23.7925 11.4767 23.9619 11.4767V11.4778Z" fill="currentColor"/>
</g>
<defs>
<clipPath id="clip0_632_4706">
<rect width="24.0114" height="24" fill="white" transform="translate(0.994385)"/>
</clipPath>
</defs>
</svg>
