<svg width="100" height="100" viewBox="0 0 100 100" fill="none" xmlns="http://www.w3.org/2000/svg">
<g clip-path="url(#clip0_1309_49494)">
<path d="M50 0C22.5 0 0 22.5 0 50C0 77.5 22.5 100 50 100C77.5 100 100 77.5 100 50C100 22.5 77.5 0 50 0ZM50 16.6667C59.1667 16.6667 66.6667 25.8333 66.6667 37.5C66.6667 49.1667 59.1667 58.3333 50 58.3333C40.8333 58.3333 33.3333 49.1667 33.3333 37.5C33.3333 25.8333 40.8333 16.6667 50 16.6667ZM77.5 81.25C70.4167 87.5 60.4167 91.6667 50 91.6667C39.5833 91.6667 29.5833 87.5 22.5 81.25C20.8333 79.5833 20.4167 77.0833 22.0833 75.4167C26.6667 70 32.9167 66.25 39.5833 64.1667C42.9167 65.8333 46.25 66.6667 50 66.6667C53.75 66.6667 57.0833 65.8333 60.4167 64.1667C67.5 66.25 73.3333 70 77.9167 75.4167C79.5833 77.0833 79.5833 79.5833 77.5 81.25Z" fill="#5EA7FD"/>
<rect x="70" y="69" width="29" height="30.5" rx="14.5" fill="#0E60BF"/>
<path fill-rule="evenodd" clip-rule="evenodd" d="M90.3335 79.25V77.5833H92.0002V79.25H93.6668V80.9167H92.0002V82.5833H90.3335V80.9167H88.6668V79.25H90.3335ZM80.281 79.1211C80.3401 79.0391 80.4056 78.9386 80.4892 78.8031C80.5361 78.7272 80.7071 78.4444 80.735 78.3987C81.4258 77.2687 81.928 76.75 82.8335 76.75H87.0002V78.4167H82.8335C82.7612 78.4167 82.5339 78.6514 82.157 79.268C82.1328 79.3076 81.9593 79.5946 81.9076 79.6784C81.8051 79.8444 81.72 79.9749 81.634 80.0944C81.2605 80.6137 80.8871 80.9167 80.3335 80.9167H77.8335C77.3733 80.9167 77.0002 81.2898 77.0002 81.75V89.25C77.0002 89.7102 77.3733 90.0833 77.8335 90.0833H91.1668C91.6271 90.0833 92.0002 89.7102 92.0002 89.25V84.25H93.6668V89.25C93.6668 90.6307 92.5475 91.75 91.1668 91.75H77.8335C76.4528 91.75 75.3335 90.6307 75.3335 89.25V81.75C75.3335 80.3693 76.4528 79.25 77.8335 79.25H80.1803C80.2081 79.2183 80.2421 79.1753 80.281 79.1211ZM84.5002 89.25C82.199 89.25 80.3335 87.3845 80.3335 85.0833C80.3335 82.7821 82.199 80.9167 84.5002 80.9167C86.8013 80.9167 88.6668 82.7821 88.6668 85.0833C88.6668 87.3845 86.8013 89.25 84.5002 89.25ZM84.5002 87.5833C85.8809 87.5833 87.0002 86.464 87.0002 85.0833C87.0002 83.7026 85.8809 82.5833 84.5002 82.5833C83.1195 82.5833 82.0002 83.7026 82.0002 85.0833C82.0002 86.464 83.1195 87.5833 84.5002 87.5833Z" fill="white"/>
</g>
<defs>
<clipPath id="clip0_1309_49494">
<rect width="100" height="100" fill="white"/>
</clipPath>
</defs>
</svg>
