<svg width="24" height="24" viewBox="0 0 24 24" fill="none" xmlns="http://www.w3.org/2000/svg">
<g clip-path="url(#clip0_632_4713)">
<path d="M11.9971 23.9978C8.67582 23.9978 5.35417 23.9951 2.0329 24C1.32002 24.0011 0.767849 23.7086 0.355031 23.1422C0.100673 22.7934 -0.000471601 22.3971 -9.6993e-05 21.9633C0.00477291 18.5794 0.00252526 15.1956 0.00252526 11.8118C0.00252526 9.32063 0.00814438 6.82948 -0.000471601 4.33834C-0.00346846 3.43629 0.397362 2.80395 1.1949 2.40836C1.42828 2.29261 1.67927 2.24766 1.9385 2.24728C2.94357 2.24691 3.94902 2.24653 4.95409 2.24616C5.14864 2.24616 5.24604 2.15176 5.24629 1.96295C5.24629 1.56325 5.24366 1.16392 5.24741 0.764208C5.2519 0.306063 5.56395 -0.00186454 6.01498 8.49764e-06C6.45327 0.00188154 6.76345 0.312057 6.76832 0.760837C6.77281 1.19164 6.77394 1.62244 6.76757 2.05323C6.76532 2.20008 6.81926 2.24915 6.96461 2.24878C8.32556 2.24503 9.68651 2.24503 11.0478 2.24878C11.1958 2.24915 11.2445 2.19521 11.2423 2.05099C11.2359 1.63292 11.2385 1.21449 11.2408 0.79605C11.243 0.316552 11.5442 0.00150693 11.9963 8.49764e-06C12.459 -0.00148993 12.7605 0.313555 12.7628 0.804292C12.7647 1.21636 12.768 1.62843 12.7609 2.0405C12.7583 2.19259 12.8066 2.24953 12.9643 2.24915C14.3193 2.24466 15.6739 2.24466 17.0288 2.24915C17.1817 2.24953 17.239 2.2012 17.2364 2.04462C17.2289 1.62019 17.2315 1.19538 17.2349 0.770951C17.2386 0.309435 17.5473 8.49764e-06 17.9961 8.49764e-06C18.4441 8.49764e-06 18.752 0.310933 18.7561 0.772824C18.7595 1.18489 18.7663 1.59734 18.7531 2.00903C18.7472 2.20345 18.8168 2.25178 19.0015 2.25028C20.0066 2.24279 21.0117 2.24353 22.0171 2.24803C22.9911 2.25253 23.7939 2.9242 23.9733 3.88095C23.9962 4.00269 23.9999 4.12894 23.9999 4.25331C24.001 10.1657 24.0018 16.0782 23.9999 21.9906C23.9999 23.1343 23.1304 23.9966 21.98 23.9974C18.6524 23.9993 15.3247 23.9981 11.9971 23.9981V23.9978ZM11.9963 22.475C15.2303 22.475 18.4643 22.475 21.6983 22.475C22.3318 22.475 22.4782 22.3278 22.4782 21.6921C22.4782 16.0044 22.4782 10.3167 22.4782 4.62904C22.4782 4.53539 22.4797 4.44173 22.4775 4.34808C22.4689 3.98509 22.2666 3.77306 21.907 3.77156C20.9206 3.76744 19.9339 3.77193 18.9476 3.76744C18.7977 3.76669 18.7528 3.82475 18.755 3.96711C18.761 4.39154 18.7595 4.81634 18.7561 5.24077C18.7524 5.70341 18.4452 6.01546 17.9983 6.01621C17.551 6.01733 17.2386 5.70529 17.2349 5.24639C17.2311 4.82196 17.2289 4.39716 17.2364 3.97272C17.239 3.81764 17.185 3.76632 17.0303 3.76707C15.6754 3.77156 14.3208 3.77156 12.9658 3.76707C12.81 3.76669 12.7583 3.82063 12.7609 3.97422C12.768 4.39865 12.7662 4.82346 12.762 5.24789C12.7579 5.70753 12.4462 6.01771 11.9975 6.01621C11.5528 6.01509 11.2445 5.70079 11.2408 5.23927C11.2378 4.81484 11.2359 4.39004 11.2419 3.96561C11.2441 3.82176 11.1962 3.76707 11.0478 3.76744C9.68689 3.77119 8.32594 3.77119 6.96461 3.76744C6.81964 3.76707 6.76532 3.81539 6.76719 3.96261C6.77356 4.39341 6.77244 4.82421 6.76794 5.25501C6.76345 5.70341 6.4529 6.01396 6.01498 6.01621C5.56583 6.01846 5.25153 5.70791 5.24703 5.25089C5.24329 4.83882 5.23804 4.42637 5.24966 4.01468C5.2549 3.83037 5.20395 3.76369 5.00916 3.76557C4.06028 3.77456 3.1114 3.76931 2.16214 3.77006C2.09396 3.77006 2.02353 3.77006 1.95723 3.7843C1.65305 3.84873 1.52493 4.04203 1.52493 4.43124C1.52493 10.2062 1.52493 15.9815 1.52493 21.7565C1.52493 22.3042 1.69425 22.4746 2.23744 22.4746C5.49016 22.4746 8.74288 22.4746 11.9956 22.4746L11.9963 22.475Z" fill="currentColor"/>
<path d="M6.75747 11.2618C6.32105 11.2618 5.88463 11.2569 5.44821 11.2644C5.29238 11.267 5.24255 11.2086 5.24405 11.0565C5.24967 10.4332 5.2493 9.80982 5.24443 9.1861C5.2433 9.04337 5.2905 8.98681 5.43847 8.98756C6.3173 8.99205 7.19651 8.99205 8.07571 8.98756C8.22331 8.98681 8.27126 9.04225 8.27013 9.18572C8.26526 9.80907 8.26339 10.4328 8.27126 11.0561C8.2735 11.2273 8.2027 11.267 8.04799 11.2648C7.61794 11.2577 7.18752 11.2622 6.75747 11.2622V11.2618Z" fill="currentColor"/>
<path d="M11.9926 11.2618C11.5626 11.2618 11.1322 11.2558 10.7021 11.2648C10.5365 11.2682 10.4863 11.2082 10.4882 11.0472C10.495 10.4302 10.4946 9.81283 10.4886 9.19548C10.4871 9.04414 10.5358 8.98607 10.6924 8.9872C11.5652 8.99244 12.438 8.99244 13.3109 8.9872C13.4667 8.98645 13.5165 9.04302 13.515 9.19511C13.5094 9.81209 13.5087 10.4294 13.5154 11.0468C13.5173 11.2071 13.4682 11.2686 13.3019 11.2652C12.8658 11.2562 12.4291 11.2622 11.9926 11.2622V11.2618Z" fill="currentColor"/>
<path d="M17.2406 11.2618C16.8042 11.2618 16.3677 11.258 15.9313 11.264C15.7871 11.2659 15.7328 11.2153 15.7339 11.0689C15.7391 10.4392 15.7391 9.80944 15.7339 9.1801C15.7328 9.03025 15.7938 8.98755 15.9343 8.9883C16.8072 8.99204 17.68 8.99279 18.5528 8.98792C18.7057 8.98717 18.7615 9.03775 18.76 9.19283C18.754 9.81618 18.7536 10.4395 18.76 11.0633C18.7615 11.2217 18.6993 11.2674 18.5498 11.2652C18.1134 11.2584 17.677 11.2629 17.2406 11.2629V11.2618Z" fill="currentColor"/>
<path d="M6.75319 15.0079C6.31677 15.0079 5.88035 15.0041 5.44394 15.0101C5.30159 15.012 5.24352 14.9652 5.24465 14.8168C5.24989 14.1871 5.24989 13.5574 5.24465 12.9281C5.24352 12.7801 5.30084 12.7336 5.44356 12.7344C6.32277 12.7385 7.2016 12.7381 8.0808 12.7344C8.21454 12.734 8.2711 12.7786 8.27035 12.9179C8.26623 13.5537 8.26623 14.1897 8.27035 14.8254C8.2711 14.9644 8.21566 15.0109 8.08155 15.0098C7.63914 15.0049 7.19635 15.0079 6.75357 15.0079H6.75319Z" fill="currentColor"/>
<path d="M12.0087 12.7359C12.4451 12.7359 12.8816 12.7397 13.318 12.7337C13.4633 12.7318 13.5158 12.7843 13.5146 12.93C13.5094 13.5597 13.5094 14.1894 13.5146 14.8188C13.5158 14.9694 13.4532 15.0106 13.3131 15.0098C12.4403 15.0061 11.5674 15.0053 10.6946 15.0102C10.541 15.0109 10.4871 14.9585 10.4882 14.8045C10.4942 14.1812 10.4946 13.5578 10.4882 12.9341C10.4867 12.7749 10.5511 12.7311 10.6995 12.7333C11.1359 12.7397 11.5723 12.7356 12.0087 12.7356V12.7359Z" fill="currentColor"/>
<path d="M17.2364 15.0079C16.8063 15.0079 16.3759 15.0019 15.9459 15.0109C15.7795 15.0143 15.7308 14.9528 15.7323 14.7925C15.7391 14.1755 15.7387 13.5582 15.7327 12.9408C15.7312 12.7887 15.7814 12.7321 15.9369 12.7329C16.8097 12.7381 17.6825 12.7381 18.5554 12.7329C18.712 12.7318 18.7603 12.7902 18.7588 12.9416C18.7532 13.5585 18.7524 14.1759 18.7592 14.7932C18.761 14.9543 18.7105 15.0143 18.5449 15.0109C18.1088 15.0023 17.6721 15.0079 17.2356 15.0079H17.2364Z" fill="currentColor"/>
<path d="M6.7532 18.754C6.31678 18.754 5.88037 18.7506 5.44395 18.7562C5.30197 18.7581 5.24316 18.7117 5.24466 18.5629C5.2499 17.9332 5.2499 17.3035 5.24466 16.6742C5.24353 16.5262 5.3001 16.4794 5.4432 16.4801C6.32203 16.4842 7.20123 16.4839 8.08044 16.4805C8.21417 16.4801 8.27111 16.5243 8.26999 16.664C8.26587 17.2998 8.26587 17.9358 8.26999 18.5715C8.27074 18.7102 8.21567 18.7574 8.08119 18.7559C7.63878 18.751 7.19599 18.754 6.7532 18.754Z" fill="currentColor"/>
<path d="M11.9908 18.754C11.5667 18.754 11.1427 18.7488 10.719 18.7566C10.5557 18.7596 10.4852 18.7158 10.4879 18.5371C10.4969 17.9201 10.495 17.3028 10.489 16.6854C10.4875 16.5318 10.5407 16.4783 10.695 16.4794C11.5679 16.4843 12.4407 16.4839 13.3135 16.4801C13.4529 16.4794 13.5166 16.5198 13.5154 16.6708C13.5098 17.3005 13.5102 17.9302 13.5154 18.5596C13.5166 18.7049 13.4649 18.7581 13.3191 18.7563C12.8767 18.7503 12.434 18.754 11.9912 18.754H11.9908Z" fill="currentColor"/>
<path d="M17.2428 18.754C16.8064 18.754 16.37 18.7506 15.9336 18.7562C15.7916 18.7581 15.7328 18.712 15.7339 18.5633C15.7391 17.9336 15.7391 17.3039 15.7339 16.6745C15.7328 16.5269 15.789 16.4797 15.9321 16.4805C16.8113 16.4846 17.6901 16.4842 18.5693 16.4809C18.7027 16.4805 18.76 16.5243 18.7592 16.664C18.7551 17.2997 18.7551 17.9358 18.7592 18.5715C18.76 18.7101 18.7053 18.7573 18.5708 18.7562C18.1284 18.7514 17.6856 18.7543 17.2428 18.7543V18.754Z" fill="currentColor"/>
</g>
<defs>
<clipPath id="clip0_632_4713">
<rect width="24.0015" height="24" fill="white" transform="translate(-0.000732422)"/>
</clipPath>
</defs>
</svg>
