<svg width="16" height="16" viewBox="0 0 16 16" fill="none" xmlns="http://www.w3.org/2000/svg">
<path fill-rule="evenodd" clip-rule="evenodd" d="M6.58821 0C2.94964 0 0 2.94964 0 6.58821C0 10.2268 2.94964 13.1764 6.58821 13.1764C8.06804 13.1764 9.43393 12.6885 10.5338 11.8648L14.3933 15.7243C14.7609 16.0919 15.3568 16.0919 15.7243 15.7243C16.0919 15.3568 16.0919 14.7609 15.7243 14.3933L11.8648 10.5338C12.6885 9.43393 13.1764 8.06804 13.1764 6.58821C13.1764 2.94964 10.2268 0 6.58821 0ZM1.88234 6.58821C1.88234 3.98923 3.98923 1.88234 6.58821 1.88234C9.18718 1.88234 11.2941 3.98923 11.2941 6.58821C11.2941 9.18718 9.18718 11.2941 6.58821 11.2941C3.98923 11.2941 1.88234 9.18718 1.88234 6.58821Z" fill="#0E60BF"/>
</svg>
