<svg width="24" height="25" viewBox="0 0 24 25" fill="none" xmlns="http://www.w3.org/2000/svg">
<path d="M12.295 9.51453C11.6795 9.45374 11.0602 9.58469 10.522 9.88945C9.98377 10.1942 9.5529 10.6579 9.28838 11.217C9.02385 11.7761 8.9386 12.4033 9.0443 13.0127C9.15001 13.6221 9.44149 14.184 9.87885 14.6213C10.3162 15.0587 10.8781 15.3502 11.4875 15.4559C12.0969 15.5616 12.7241 15.4763 13.2832 15.2118C13.8423 14.9473 14.306 14.5164 14.6107 13.9782C14.9155 13.44 15.0464 12.8207 14.9856 12.2052C14.9163 11.5151 14.6106 10.8703 14.1202 10.3799C13.6299 9.88958 12.985 9.58384 12.295 9.51453ZM19.5185 12.5C19.5165 12.8261 19.4926 13.1517 19.4467 13.4745L21.566 15.1367C21.6582 15.2132 21.7204 15.3199 21.7414 15.4379C21.7625 15.556 21.741 15.6776 21.6808 15.7812L19.676 19.25C19.6151 19.3527 19.5199 19.4305 19.4072 19.4699C19.2945 19.5093 19.1716 19.5076 19.06 19.4652L16.9553 18.6177C16.8393 18.5714 16.7136 18.5547 16.5895 18.5691C16.4653 18.5834 16.3467 18.6283 16.2442 18.6997C15.923 18.9209 15.5855 19.1174 15.2346 19.2875C15.1242 19.3411 15.0288 19.4211 14.9567 19.5203C14.8846 19.6196 14.838 19.7351 14.8211 19.8566L14.5056 22.1014C14.4849 22.22 14.4237 22.3276 14.3324 22.406C14.2411 22.4844 14.1253 22.5287 14.005 22.5312H9.99533C9.87699 22.5292 9.76288 22.4869 9.6718 22.4113C9.58071 22.3357 9.51809 22.2314 9.49424 22.1155L9.17924 19.8739C9.16155 19.7511 9.11378 19.6345 9.04018 19.5346C8.96658 19.4346 8.86943 19.3544 8.75737 19.3011C8.40684 19.1319 8.07045 18.9349 7.75143 18.7119C7.64929 18.6408 7.53106 18.5963 7.40742 18.5823C7.28377 18.5683 7.15859 18.5853 7.04315 18.6317L4.93893 19.4788C4.82742 19.5212 4.7045 19.523 4.59182 19.4837C4.47915 19.4444 4.38395 19.3666 4.32299 19.2641L2.31815 15.7953C2.25787 15.6917 2.23633 15.57 2.25736 15.452C2.27839 15.334 2.34063 15.2272 2.43299 15.1508L4.22408 13.7445C4.32221 13.6666 4.39933 13.5655 4.44845 13.4502C4.49756 13.335 4.51712 13.2093 4.50533 13.0845C4.48846 12.8891 4.47815 12.6941 4.47815 12.4986C4.47815 12.3031 4.48799 12.1109 4.50533 11.9197C4.51583 11.7957 4.49531 11.6711 4.44564 11.557C4.39597 11.4429 4.31871 11.343 4.2208 11.2662L2.43065 9.86C2.33978 9.78317 2.27886 9.67681 2.25855 9.55957C2.23824 9.44232 2.25983 9.32167 2.31955 9.21875L4.3244 5.75C4.38528 5.64734 4.48045 5.56946 4.59313 5.5301C4.70581 5.49074 4.82877 5.49242 4.94033 5.53484L7.04502 6.38234C7.16109 6.42856 7.2868 6.44525 7.41091 6.43094C7.53501 6.41662 7.65362 6.37174 7.75612 6.30031C8.07733 6.07912 8.41486 5.88262 8.7658 5.7125C8.87614 5.65887 8.97157 5.57891 9.04367 5.47966C9.11578 5.38042 9.16234 5.26494 9.17924 5.14344L9.49471 2.89859C9.51543 2.78004 9.57668 2.67236 9.66799 2.59396C9.7593 2.51555 9.87501 2.4713 9.99533 2.46875H14.005C14.1234 2.4708 14.2375 2.51309 14.3286 2.58867C14.4196 2.66425 14.4823 2.7686 14.5061 2.88453L14.8211 5.12609C14.8388 5.24894 14.8866 5.36551 14.9602 5.46544C15.0338 5.56537 15.1309 5.64557 15.243 5.69891C15.5935 5.8681 15.9299 6.06514 16.2489 6.28813C16.3511 6.35919 16.4693 6.40373 16.5929 6.41772C16.7166 6.43172 16.8418 6.41473 16.9572 6.36828L19.0614 5.52125C19.1729 5.47879 19.2959 5.47704 19.4085 5.51631C19.5212 5.55558 19.6164 5.63336 19.6774 5.73594L21.6822 9.20469C21.7425 9.30832 21.764 9.42999 21.743 9.54802C21.722 9.66604 21.6597 9.77278 21.5674 9.84922L19.7763 11.2555C19.6777 11.3331 19.6001 11.4342 19.5506 11.5494C19.5011 11.6647 19.4812 11.7905 19.4927 11.9155C19.5081 12.1095 19.5185 12.3045 19.5185 12.5Z" stroke="#D5D5D5" stroke-width="1.5" stroke-linecap="round" stroke-linejoin="round"/>
</svg>
