<svg width="16" height="17" viewBox="0 0 16 17" fill="none" xmlns="http://www.w3.org/2000/svg">
<g clip-path="url(#clip0_668_9668)">
<path d="M7.98219 16.4988C6.05714 16.4988 4.13176 16.5018 2.20671 16.4977C1.21589 16.4955 0.287326 15.6713 0.0622594 14.6075C0.0226398 14.4194 0 14.2288 0 14.0341C0.00133175 10.6771 -0.00199763 7.31971 0.00233057 3.96235C0.00399526 2.61783 0.987161 1.51927 2.1894 1.50693C2.8606 1.50021 3.53214 1.50544 4.20334 1.50432C4.41975 1.50432 4.43041 1.49086 4.43274 1.25276C4.43374 1.16567 4.43007 1.07783 4.43673 0.99148C4.45871 0.71226 4.6608 0.501444 4.90018 0.503313C5.13424 0.504808 5.33134 0.729455 5.34232 1.0098C5.34599 1.10324 5.34998 1.19706 5.34266 1.28976C5.33 1.4546 5.39559 1.50806 5.53709 1.50656C6.08078 1.50133 6.62447 1.50432 7.16815 1.50432C8.24987 1.50432 9.33192 1.50432 10.4136 1.50394C10.6517 1.50394 10.6527 1.50095 10.6543 1.23183C10.6557 1.04643 10.6284 0.850188 10.7526 0.696935C10.8801 0.53957 11.0389 0.455468 11.2307 0.523871C11.4231 0.592648 11.5323 0.751134 11.5593 0.973538C11.5719 1.07783 11.5709 1.18548 11.5646 1.29051C11.5549 1.45535 11.6215 1.50768 11.762 1.50656C12.4056 1.5017 13.0492 1.50806 13.6927 1.5032C14.2767 1.49871 14.7948 1.69084 15.2372 2.12481C15.7133 2.59167 15.988 3.17851 15.992 3.88796C16.0037 6.01183 15.9973 8.13607 15.998 10.2599C15.998 11.4684 15.9913 12.6768 16 13.8849C16.0077 14.9237 15.6071 15.6896 14.8107 16.1987C14.4711 16.4158 14.0979 16.4999 13.7081 16.4999C11.7997 16.4988 9.89092 16.4996 7.98252 16.4996V16.4988H7.98219ZM8.01548 6.5228C5.73486 6.5228 3.45423 6.5228 1.17361 6.5228C0.914581 6.5228 0.911584 6.52616 0.911584 6.81286C0.911584 9.1367 0.910585 11.4602 0.913249 13.784C0.913249 13.9638 0.926899 14.1462 0.957863 14.3223C1.07006 14.9558 1.60443 15.4462 2.1894 15.4477C3.8764 15.4518 5.56306 15.45 7.25006 15.45C9.42514 15.45 11.6006 15.4492 13.7756 15.45C14.1382 15.45 14.4415 15.302 14.7009 15.0164C15.0168 14.6684 15.0854 14.2311 15.0858 13.7653C15.0868 11.4542 15.0864 9.14268 15.0861 6.83155C15.0861 6.62596 14.9932 6.52305 14.8074 6.5228C12.5434 6.5228 10.2795 6.5228 8.01548 6.5228ZM7.99484 5.49974C10.2808 5.49974 12.5664 5.49974 14.8524 5.49974C15.0801 5.49974 15.0858 5.49301 15.0861 5.23809C15.0868 4.85196 15.0911 4.46547 15.0851 4.07972C15.0714 3.21664 14.5687 2.57559 13.8262 2.53896C13.1231 2.5042 12.4173 2.53074 11.7128 2.52812C11.6039 2.52775 11.5649 2.58681 11.5659 2.70044C11.5669 2.82491 11.5716 2.9505 11.5603 3.07385C11.5363 3.33962 11.3269 3.53885 11.0915 3.53025C10.8554 3.52165 10.674 3.32616 10.6573 3.05741C10.6517 2.96433 10.655 2.87051 10.6547 2.77707C10.654 2.61135 10.5804 2.52837 10.4339 2.52812C8.86947 2.52812 7.30499 2.52812 5.74018 2.52812C5.48027 2.52812 5.34798 2.67639 5.34332 2.97293C5.34299 2.99797 5.34332 3.02264 5.34166 3.04769C5.32434 3.3284 5.14356 3.52539 4.89852 3.53025C4.65514 3.53511 4.45305 3.32616 4.4354 3.04694C4.42874 2.94153 4.42841 2.835 4.4324 2.72959C4.43773 2.59055 4.39278 2.52625 4.25961 2.527C3.58275 2.53149 2.90555 2.51205 2.22902 2.5341C1.49922 2.55803 0.982167 3.15609 0.930229 3.84797C0.895936 4.3025 0.919908 4.75665 0.911917 5.2108C0.906923 5.49936 0.911917 5.50049 1.16994 5.50049C3.44458 5.50049 5.71921 5.50049 7.99417 5.50049L7.99484 5.49974Z" fill="#FF8023"/>
<rect x="3.5" y="9.5" width="3" height="3" rx="0.5" stroke="#FF8023"/>
<rect x="9.5" y="9.5" width="3" height="3" rx="0.5" stroke="#FF8023"/>
</g>
<defs>
<clipPath id="clip0_668_9668">
<rect width="16" height="16" fill="white" transform="translate(0 0.5)"/>
</clipPath>
</defs>
</svg>
