<svg width="40" height="40" viewBox="0 0 40 40" fill="none" xmlns="http://www.w3.org/2000/svg">
<rect x="0.5" y="0.5" width="38.9895" height="39" rx="19.4948" fill="currentColor" fill-opacity="0.06"/>
<path d="M19.9765 25.3106C17.0966 25.3532 14.6792 22.937 14.6783 20.0199C14.6775 17.069 17.0611 14.6842 20.0103 14.6846C22.937 14.6846 25.2969 17.1091 25.3181 19.9794C25.3394 22.879 22.8819 25.3933 19.977 25.3106H19.9765ZM16.5289 20.012C16.533 21.9289 18.0684 23.4768 19.9903 23.478C21.9548 23.4793 23.4693 21.9327 23.4722 20.0128C23.4747 18.0538 21.8997 16.5284 19.9799 16.5351C18.0776 16.5418 16.526 18.103 16.5293 20.0124L16.5289 20.012Z" fill="currentColor"/>
<path d="M20.8702 10.8186C20.8702 11.4447 20.8715 12.0709 20.8698 12.6971C20.8681 13.2026 20.5572 13.5812 20.1172 13.6188C19.5908 13.6639 19.2117 13.36 19.1266 12.8236C19.1178 12.7689 19.1136 12.7129 19.1136 12.6574C19.1128 11.4401 19.112 10.2225 19.1136 9.0052C19.1141 8.718 19.1846 8.45125 19.4046 8.24879C19.683 7.9929 20.0116 7.92903 20.3526 8.08223C20.6832 8.23084 20.8615 8.51303 20.8665 8.87788C20.8757 9.52492 20.869 10.172 20.869 10.8186H20.8698H20.8702Z" fill="currentColor"/>
<path d="M29.1891 20.8759C28.5629 20.8759 27.9368 20.878 27.3106 20.8755C26.7867 20.8734 26.4043 20.5407 26.3693 20.0644C26.3346 19.5919 26.6736 19.2066 27.1912 19.1327C27.2597 19.1231 27.3298 19.1197 27.3991 19.1193C28.5955 19.1185 29.7923 19.1172 30.9887 19.1193C31.4633 19.1201 31.8248 19.3527 31.943 19.7221C32.1287 20.3019 31.738 20.8638 31.1294 20.873C30.4823 20.8826 29.8353 20.8751 29.1882 20.8751V20.8759H29.1891Z" fill="currentColor"/>
<path d="M20.8694 29.1853C20.8694 29.8323 20.8757 30.4793 20.8673 31.1264C20.859 31.763 20.2554 32.1696 19.6676 31.9316C19.3082 31.7859 19.1249 31.4812 19.1212 31.1105C19.107 29.8306 19.1095 28.5503 19.1212 27.2705C19.1245 26.8852 19.319 26.5879 19.6818 26.4368C19.9974 26.3049 20.3021 26.3638 20.5601 26.585C20.7701 26.7649 20.8719 27.0045 20.8711 27.2863C20.869 27.9196 20.8703 28.5524 20.8703 29.1857L20.8694 29.1853Z" fill="currentColor"/>
<path d="M10.8246 20.876C10.1984 20.876 9.57264 20.8777 8.94648 20.8756C8.42885 20.8739 8.03478 20.5346 8.00222 20.067C7.96924 19.5936 8.30654 19.2092 8.82291 19.1336C8.89805 19.1228 8.97528 19.1198 9.05167 19.1194C10.2339 19.1186 11.4165 19.1194 12.5987 19.1182C12.7819 19.1182 12.9585 19.1453 13.1251 19.2259C13.5062 19.4095 13.6903 19.7928 13.5997 20.2156C13.5217 20.5788 13.1777 20.8681 12.7857 20.8731C12.132 20.8814 11.4783 20.8752 10.8246 20.8752V20.876Z" fill="currentColor"/>
<path d="M28.7508 27.8964C28.7024 28.2542 28.5421 28.541 28.1768 28.6867C27.8124 28.8319 27.5018 28.7238 27.2401 28.4708C26.75 27.9975 26.2733 27.5095 25.7911 27.0277C25.3925 26.6295 24.993 26.2321 24.5956 25.8326C24.209 25.4435 24.1473 24.9685 24.4315 24.5957C24.7183 24.2196 25.2806 24.1361 25.6384 24.4442C26.2027 24.9301 26.7003 25.4861 27.2317 26.0071C27.6392 26.4066 28.0382 26.814 28.4419 27.2168C28.6264 27.4013 28.7316 27.6218 28.7512 27.8964H28.7508Z" fill="currentColor"/>
<path d="M12.1199 11.2754C12.3503 11.2842 12.5678 11.3472 12.7398 11.5183C13.6648 12.4417 14.5924 13.3626 15.5108 14.2927C15.8439 14.63 15.8264 15.1593 15.4958 15.4945C15.1668 15.8276 14.6287 15.8531 14.2944 15.5237C13.3589 14.6012 12.4292 13.6724 11.5075 12.7356C11.2382 12.4618 11.1969 12.1136 11.3497 11.7667C11.4912 11.4457 11.7646 11.2925 12.1199 11.2754Z" fill="currentColor"/>
<path d="M24.2607 14.9452C24.2607 14.6538 24.33 14.4518 24.4987 14.2835C25.4237 13.3614 26.3442 12.4343 27.2718 11.5151C27.5978 11.192 28.1622 11.2011 28.479 11.5167C28.8213 11.8578 28.8347 12.3838 28.4928 12.734C27.9451 13.2946 27.3886 13.8469 26.8339 14.4004C26.4561 14.7778 26.0812 15.1589 25.6926 15.525C25.4187 15.783 25.0935 15.8352 24.7492 15.6699C24.4227 15.5133 24.2674 15.2437 24.2607 14.9452Z" fill="currentColor"/>
<path d="M11.2732 27.8615C11.2824 27.6507 11.343 27.4382 11.5179 27.2641C12.4387 26.3474 13.3538 25.4253 14.2759 24.5102C14.617 24.1717 15.1434 24.1801 15.4965 24.5128C15.8246 24.8221 15.8513 25.3514 15.522 25.6945C14.9171 26.3249 14.2943 26.9381 13.6769 27.5568C13.3584 27.8757 13.0432 28.1988 12.713 28.5052C12.4479 28.7511 12.1374 28.827 11.7896 28.6722C11.4473 28.5198 11.2837 28.2543 11.2728 27.8615H11.2732Z" fill="currentColor"/>
<rect x="0.5" y="0.5" width="38.9895" height="39" rx="19.4948" stroke="white"/>
</svg>
