<svg width="23" height="30" viewBox="0 0 23 30" fill="none" xmlns="http://www.w3.org/2000/svg">
<g clip-path="url(#clip0_842_8437)">
<path d="M0.243269 15.9357C0.243269 11.5029 0.243269 7.07045 0.243269 2.63757C0.243269 2.55188 0.242333 2.46573 0.244206 2.38004C0.252166 2.02043 0.398258 1.87387 0.764426 1.87152C1.2795 1.86778 1.79457 1.87012 2.30964 1.87012C3.55048 1.87012 4.79134 1.8645 6.03218 1.87527C6.27193 1.87714 6.34638 1.80316 6.33514 1.56763C6.31781 1.20943 6.32718 0.849813 6.33233 0.491137C6.33748 0.155874 6.49856 -0.00145645 6.82118 -5.17134e-05C7.14052 0.00135302 7.29785 0.160088 7.30206 0.498629C7.30675 0.873226 7.31003 1.24782 7.30113 1.62242C7.29691 1.79941 7.35076 1.87293 7.53993 1.87293C10.4899 1.86871 13.4398 1.86871 16.3898 1.87293C16.5714 1.87293 16.6403 1.8144 16.6356 1.62991C16.6258 1.25578 16.6304 0.880717 16.6342 0.506121C16.6379 0.162429 16.7896 0.00369425 17.1076 0.000416532C17.4405 -0.00332943 17.6007 0.156342 17.6044 0.507058C17.6086 0.873694 17.6156 1.2408 17.6021 1.60743C17.5946 1.81533 17.6709 1.87527 17.8732 1.87433C19.2859 1.86731 20.6981 1.87012 22.1108 1.87059C22.6446 1.87059 22.7565 1.9825 22.7565 2.51396C22.7565 8.78048 22.7565 15.047 22.7565 21.314C22.7565 21.4076 22.7607 21.5018 22.7528 21.5949C22.7289 21.8787 22.5416 22.044 22.2536 22.0402C21.9567 22.0365 21.7891 21.8801 21.7872 21.5743C21.7816 20.5597 21.784 19.5454 21.784 18.5308C21.784 13.4189 21.784 8.30755 21.784 3.19572C21.784 2.9616 21.6699 2.84438 21.4417 2.84407C20.2631 2.84407 19.085 2.84969 17.9064 2.83892C17.6695 2.83658 17.5894 2.90681 17.6011 3.14468C17.6189 3.50289 17.6091 3.8625 17.6039 4.22118C17.5988 4.55551 17.4363 4.71564 17.1165 4.71518C16.7985 4.71471 16.6389 4.55363 16.6347 4.21603C16.63 3.84143 16.6272 3.46684 16.6356 3.09224C16.6398 2.91618 16.5878 2.84079 16.3977 2.84126C13.4478 2.84547 10.4978 2.84501 7.54789 2.84126C7.36715 2.84126 7.29645 2.89839 7.30113 3.08381C7.31096 3.45794 7.30675 3.833 7.30253 4.2076C7.29832 4.55691 7.1349 4.71986 6.80526 4.71518C6.48966 4.71096 6.33654 4.54989 6.3328 4.20666C6.32858 3.83207 6.32437 3.45747 6.3342 3.08287C6.33935 2.89651 6.26678 2.84079 6.0865 2.84126C4.54925 2.84594 3.01153 2.84875 1.47429 2.83892C1.23314 2.83751 1.21347 2.94989 1.21394 3.14C1.21769 5.64511 1.21628 8.15022 1.21628 10.6553C1.21628 16.6568 1.21628 22.6579 1.21628 28.6594C1.21628 28.906 1.3399 29.0293 1.58713 29.0293C8.18939 29.0293 14.7916 29.0293 21.3939 29.0293C21.653 29.0293 21.7827 28.8961 21.783 28.6299C21.783 27.6854 21.7811 26.7414 21.7844 25.797C21.7858 25.4669 21.9389 25.2997 22.2344 25.2857C22.5683 25.2697 22.7523 25.4331 22.7537 25.7698C22.7574 27.0107 22.7574 28.2515 22.7537 29.4924C22.7528 29.8524 22.6001 29.9985 22.2335 29.999C21.0394 30.0009 19.8454 29.9999 18.6514 29.9999C12.7515 29.9999 6.85161 29.9999 0.951724 29.9999C0.850115 29.9999 0.748506 30.0046 0.647365 29.9957C0.418861 29.9761 0.274173 29.8361 0.249357 29.609C0.239055 29.5163 0.243738 29.4217 0.243738 29.3285C0.243738 24.8647 0.243738 20.4009 0.243738 15.9371L0.243269 15.9357Z" fill="currentColor"/>
<path d="M19.4776 16.647C19.4776 19.6349 19.4776 22.6228 19.4776 25.6111C19.4776 26.1445 19.3666 26.2554 18.8333 26.2554C13.934 26.2554 9.03479 26.2554 4.13507 26.2554C3.64529 26.2554 3.5212 26.1337 3.5212 25.6519C3.5212 19.6368 3.52074 13.6222 3.5212 7.6071C3.5212 7.15477 3.65419 7.02179 4.10651 7.02179C9.02917 7.02179 13.9518 7.02179 18.875 7.02179C19.3559 7.02179 19.4776 7.14634 19.4776 7.6366C19.4781 10.6404 19.4776 13.6437 19.4776 16.6475V16.647ZM4.49375 16.6138C4.49375 19.3835 4.49375 22.1531 4.49375 24.9223C4.49375 25.1621 4.613 25.2821 4.85149 25.2824C9.28296 25.2824 13.714 25.2824 18.1454 25.2824C18.3849 25.2824 18.5046 25.1629 18.5046 24.9237C18.5046 19.4003 18.5046 13.8764 18.5046 8.35301C18.5046 8.11389 18.3853 7.99402 18.1468 7.9934C13.7079 7.9934 9.26845 7.9934 4.82948 7.9934C4.60597 7.9934 4.49406 8.105 4.49375 8.32819C4.49375 11.0899 4.49375 13.8516 4.49375 16.6133V16.6138Z" fill="currentColor"/>
<path d="M21.7833 23.653C21.7833 23.5752 21.7809 23.4975 21.7833 23.4202C21.794 23.1028 21.9514 22.9459 22.259 22.9431C22.5793 22.9403 22.745 23.0995 22.753 23.4259C22.7572 23.6043 22.761 23.7836 22.7493 23.9611C22.7315 24.2359 22.5568 24.3815 22.2646 24.3806C21.9729 24.3797 21.8053 24.2336 21.7856 23.955C21.7786 23.8548 21.7847 23.7532 21.7847 23.6525H21.7828L21.7833 23.653Z" fill="currentColor"/>
<path d="M4.24405 28.1279C4.16632 28.1279 4.08859 28.1298 4.01133 28.1279C3.68262 28.1181 3.52248 27.957 3.52295 27.6386C3.52389 27.3216 3.68356 27.1638 4.01789 27.1577C4.19629 27.1545 4.37562 27.1493 4.55309 27.1624C4.82467 27.1826 4.96561 27.3614 4.96046 27.6574C4.95578 27.9364 4.81203 28.1017 4.54653 28.1242C4.44633 28.1326 4.34472 28.1256 4.24405 28.1256V28.1284V28.1279Z" fill="currentColor"/>
<path d="M6.12037 27.1571C6.1981 27.1571 6.27583 27.1548 6.35309 27.1571C6.67899 27.1683 6.83819 27.3336 6.83398 27.6534C6.82976 27.9578 6.67009 28.1184 6.35356 28.1268C6.17516 28.1315 5.99629 28.1348 5.81835 28.1236C5.54115 28.1062 5.396 27.9344 5.396 27.6422C5.396 27.3496 5.54162 27.1805 5.81788 27.1599C5.91809 27.1524 6.0197 27.1585 6.12037 27.1585V27.1566V27.1571Z" fill="currentColor"/>
<path d="M7.97893 28.1275C7.9012 28.1275 7.82347 28.1299 7.74621 28.1275C7.42968 28.1168 7.27188 27.9585 7.2686 27.6518C7.26533 27.3315 7.42406 27.1662 7.75137 27.1583C7.92977 27.1536 8.10864 27.1503 8.28657 27.1615C8.56143 27.1784 8.70705 27.3526 8.70612 27.6452C8.70518 27.9365 8.55909 28.1051 8.28142 28.1252C8.18121 28.1327 8.07961 28.1266 7.97893 28.1266V28.1285V28.1275Z" fill="currentColor"/>
<path d="M7.05348 10.7691C7.29557 10.7508 7.43698 10.9662 7.58447 11.1353C7.74508 11.3193 7.83826 11.3062 8.00074 11.1367C8.49708 10.6188 9.00887 10.115 9.52114 9.61207C9.79365 9.3447 10.0854 9.33112 10.305 9.55588C10.5082 9.76378 10.533 9.98479 10.3349 10.1992C9.99219 10.5715 9.63258 10.9283 9.27484 11.287C8.90071 11.662 8.52705 12.038 8.14122 12.4005C7.90756 12.6201 7.71605 12.6276 7.47771 12.415C7.18178 12.1509 6.90224 11.8676 6.633 11.5764C6.50283 11.4359 6.44008 11.2598 6.54872 11.0599C6.6522 10.8693 6.80016 10.7686 7.05348 10.7696V10.7691Z" fill="currentColor"/>
<path d="M7.03915 22.007C7.22083 21.999 7.351 22.1283 7.48398 22.2673C7.78506 22.5825 7.78834 22.5792 8.09177 22.2762C8.53847 21.8295 8.98471 21.3819 9.43282 20.9366C9.50446 20.8654 9.57798 20.7938 9.66086 20.7362C9.87531 20.5873 10.1647 20.6177 10.3206 20.7975C10.5159 21.0218 10.5252 21.2451 10.3112 21.4652C9.78447 22.0084 9.24693 22.5403 8.71266 23.076C8.52536 23.2637 8.33994 23.4534 8.14608 23.6341C7.91992 23.8444 7.72747 23.8687 7.50131 23.6707C7.19742 23.4047 6.91132 23.1163 6.63599 22.8203C6.50722 22.6817 6.43746 22.5057 6.54515 22.3038C6.64676 22.1133 6.79239 22.0084 7.03868 22.0074L7.03915 22.007Z" fill="currentColor"/>
<path d="M7.04005 15.9199C7.29243 15.9007 7.44133 16.1105 7.58227 16.2837C7.75833 16.5 7.85901 16.4317 8.01493 16.2715C8.50893 15.7621 9.01276 15.262 9.51987 14.7647C9.80691 14.4833 10.1131 14.48 10.3356 14.738C10.5186 14.9506 10.5205 15.1623 10.3075 15.3833C9.85795 15.8487 9.39719 16.3034 8.94019 16.7618C8.67563 17.0268 8.41388 17.2942 8.14183 17.5513C7.92082 17.7601 7.72228 17.7788 7.49659 17.5789C7.1941 17.3111 6.90894 17.0221 6.63408 16.7257C6.50437 16.5857 6.43929 16.4087 6.55026 16.2093C6.66451 16.0032 6.7886 15.918 7.04145 15.9204L7.04005 15.9199Z" fill="currentColor"/>
<path d="M14.2845 10.8031C13.6846 10.8031 13.0853 10.8049 12.4855 10.8026C12.1118 10.8007 11.9489 10.6471 11.9512 10.3105C11.9535 9.98644 12.117 9.83285 12.4761 9.83238C13.6987 9.83004 14.9213 9.83004 16.1439 9.83238C16.5021 9.83285 16.665 9.98784 16.6664 10.3123C16.6683 10.6396 16.5053 10.8002 16.1532 10.8021C15.5305 10.8059 14.9072 10.8031 14.2845 10.8031Z" fill="currentColor"/>
<path d="M14.2957 12.2075C13.6884 12.2075 13.0806 12.2099 12.4733 12.2066C12.116 12.2047 11.9526 12.0502 11.9512 11.7257C11.9498 11.3979 12.1118 11.2373 12.4648 11.2368C13.6954 11.234 14.9259 11.234 16.156 11.2368C16.5058 11.2378 16.6688 11.4012 16.6664 11.7299C16.6641 12.0455 16.5025 12.2047 16.1645 12.2066C15.5417 12.2103 14.9185 12.2075 14.2952 12.208L14.2957 12.2075Z" fill="currentColor"/>
<path d="M14.3229 15.4502C14.9302 15.4502 15.5375 15.4478 16.1453 15.4511C16.5035 15.453 16.6655 15.6065 16.6664 15.9324C16.6678 16.2593 16.5044 16.4204 16.1518 16.4208C14.9213 16.4236 13.6912 16.4236 12.4607 16.4208C12.1109 16.4199 11.9484 16.2565 11.9512 15.9278C11.954 15.6122 12.1156 15.4539 12.4541 15.4516C13.0769 15.4478 13.7001 15.4506 14.3229 15.4502Z" fill="currentColor"/>
<path d="M14.2947 17.8266C13.6874 17.8266 13.0801 17.829 12.4723 17.8257C12.1146 17.8238 11.9526 17.6697 11.9512 17.3443C11.9498 17.017 12.1123 16.8569 12.4658 16.8559C13.6963 16.8536 14.9264 16.8531 16.157 16.8559C16.5072 16.8569 16.6697 17.0198 16.6669 17.3485C16.6641 17.6637 16.5021 17.8229 16.164 17.8252C15.5412 17.8294 14.918 17.8261 14.2952 17.8266H14.2947Z" fill="currentColor"/>
<path d="M14.2831 22.0408C13.6832 22.0408 13.0839 22.0427 12.4841 22.0403C12.1137 22.0389 11.9484 21.8825 11.9512 21.5463C11.9535 21.2223 12.1165 21.0701 12.4766 21.0696C13.6992 21.0678 14.9218 21.0673 16.1443 21.0696C16.5016 21.0701 16.665 21.2265 16.6664 21.5505C16.6674 21.8778 16.5049 22.0375 16.1518 22.0394C15.5291 22.0431 14.9058 22.0403 14.2826 22.0408H14.2831Z" fill="currentColor"/>
<path d="M14.2976 23.4458C13.6978 23.4458 13.0984 23.4472 12.4986 23.4453C12.1193 23.4439 11.9535 23.2964 11.9512 22.9663C11.9489 22.6306 12.1132 22.4751 12.4859 22.4747C13.7006 22.4728 14.9157 22.4728 16.1303 22.4747C16.5053 22.4751 16.6683 22.6287 16.6664 22.9649C16.6646 23.2955 16.4988 23.4439 16.1195 23.4453C15.5122 23.4477 14.9049 23.4458 14.2971 23.4458H14.2976Z" fill="currentColor"/>
</g>
<defs>
<clipPath id="clip0_842_8437">
<rect width="22.5151" height="30" fill="white" transform="translate(0.242676)"/>
</clipPath>
</defs>
</svg>
