<svg width="16" height="16" viewBox="0 0 16 16" fill="none" xmlns="http://www.w3.org/2000/svg">
<path d="M10.3619 2.66669C10.5185 2.66669 10.6687 2.73693 10.7794 2.86195C10.8902 2.98697 10.9524 3.15654 10.9524 3.33335V6.13335L14.0305 3.70002C14.0748 3.66499 14.1267 3.64435 14.1807 3.64035C14.2346 3.63636 14.2885 3.64915 14.3364 3.67735C14.3843 3.70555 14.4245 3.74806 14.4525 3.80026C14.4805 3.85245 14.4953 3.91233 14.4952 3.97335V12.0267C14.4953 12.0877 14.4805 12.1476 14.4525 12.1998C14.4245 12.252 14.3843 12.2945 14.3364 12.3227C14.2885 12.3509 14.2346 12.3637 14.1807 12.3597C14.1267 12.3557 14.0748 12.3351 14.0305 12.3L10.9524 9.86669V12.6667C10.9524 12.8435 10.8902 13.0131 10.7794 13.1381C10.6687 13.2631 10.5185 13.3334 10.3619 13.3334H2.09524C1.93863 13.3334 1.78844 13.2631 1.67771 13.1381C1.56697 13.0131 1.50476 12.8435 1.50476 12.6667V3.33335C1.50476 3.15654 1.56697 2.98697 1.67771 2.86195C1.78844 2.73693 1.93863 2.66669 2.09524 2.66669H10.3619ZM9.77143 4.00002H2.68571V12H9.77143V4.00002ZM5.28381 5.88602C5.32875 5.88588 5.37279 5.90022 5.41076 5.92735L7.98229 7.77535C8.01569 7.79947 8.04318 7.83269 8.06222 7.87195C8.08126 7.91121 8.09124 7.95526 8.09124 8.00002C8.09124 8.04478 8.08126 8.08883 8.06222 8.12809C8.04318 8.16735 8.01569 8.20057 7.98229 8.22469L5.41076 10.0734C5.37494 10.0991 5.33363 10.1135 5.29118 10.115C5.24873 10.1165 5.2067 10.1051 5.16953 10.0819C5.13235 10.0587 5.10141 10.0246 5.07996 9.98318C5.0585 9.9418 5.04733 9.89464 5.04762 9.84669V6.15335C5.04762 6.00602 5.1539 5.88602 5.28381 5.88602ZM13.3143 5.89335L10.9524 7.76002V8.23869L13.3143 10.1054V5.89335Z" fill="#FF1515"/>
</svg>
