<svg width="24" height="24" viewBox="0 0 24 24" fill="none" xmlns="http://www.w3.org/2000/svg">
<g clip-path="url(#clip0_668_10423)">
<path d="M17.1436 14.8939C17.049 15.0413 16.9958 15.148 16.921 15.2359C16.6583 15.5457 16.3148 15.606 15.9361 15.5293C15.5469 15.4507 15.3374 15.176 15.2434 14.8205C15.1338 14.4041 15.1357 13.9689 15.0915 13.5419C15.0268 12.9162 14.9856 12.2883 14.9239 11.6623C14.888 11.2967 14.6496 11.0119 14.504 10.6901C14.4883 10.655 14.4614 10.6321 14.4146 10.6441C14.2529 10.6856 14.1107 10.9184 14.1339 11.0898C14.1785 11.418 14.3289 11.7061 14.47 11.9976C14.6556 12.3811 14.7981 12.7782 14.8767 13.1976C14.8921 13.2796 14.9115 13.3589 14.8225 13.4139C14.7458 13.4611 14.7862 13.5239 14.8049 13.5797C14.9935 14.147 15.0627 14.7364 15.0855 15.3276C15.1244 16.3435 15.093 17.3591 14.9561 18.3687C14.937 18.5105 14.9213 18.6535 14.9145 18.7964C14.9078 18.9367 14.8449 18.9977 14.7038 18.9936C14.3046 18.982 14.3412 18.9749 14.3409 19.3772C14.3401 20.4623 14.3427 21.5475 14.339 22.6327C14.3368 23.2935 13.9573 23.8152 13.3616 23.951C12.8789 24.061 12.4437 23.9514 12.0998 23.5768C12.0149 23.484 11.9685 23.469 11.8712 23.5701C11.4689 23.9892 10.9218 24.1138 10.417 23.8915C9.88865 23.6584 9.63532 23.2243 9.63008 22.6593C9.61923 21.5307 9.62671 20.4017 9.62634 19.2728C9.62634 19.0877 9.53292 18.9944 9.34606 18.9929C9.17244 18.9916 9.07502 18.9027 9.05382 18.7261C8.92734 17.6794 8.83977 16.6302 8.87757 15.5753C8.90189 14.9021 8.96289 14.2323 9.17131 13.5853C9.18815 13.5326 9.22071 13.4757 9.17131 13.4274C9.05531 13.314 9.1062 13.1868 9.13165 13.0596C9.23418 12.5525 9.46731 12.0964 9.68472 11.6342C9.76554 11.4625 9.81643 11.284 9.843 11.0984C9.85572 11.0082 9.86957 10.9147 9.79772 10.8323C9.57096 10.573 9.54402 10.5902 9.36365 10.8806C9.02463 11.4262 9.00891 12.0358 8.95952 12.6435C8.90301 13.3387 8.86036 14.0362 8.7683 14.727C8.66727 15.4844 7.77106 15.817 7.16748 15.3478C7.0178 15.2314 6.95157 15.0627 6.86662 14.9092C6.8206 14.9115 6.82546 14.9422 6.82584 14.9631C6.82958 15.4881 6.73528 16.0056 6.71133 16.5284C6.7031 16.7084 6.64098 16.8158 6.44004 16.7873C6.26379 16.7623 6.21664 16.8491 6.21776 17.0149C6.22338 17.8942 6.22038 18.7736 6.21963 19.653C6.21963 20.035 6.13731 20.3819 5.81475 20.6334C5.36122 20.9866 4.80778 20.9698 4.38419 20.5795C4.30935 20.5106 4.25995 20.4549 4.15705 20.5536C3.79707 20.9002 3.38171 20.9911 2.92294 20.7681C2.48326 20.5544 2.29578 20.1798 2.29391 19.7053C2.29055 18.826 2.29279 17.9466 2.29204 17.0672C2.29204 16.8046 2.29204 16.7974 2.0316 16.7892C1.8924 16.7847 1.84338 16.711 1.83103 16.5939C1.79623 16.2657 1.75207 15.9379 1.73411 15.6086C1.68734 14.7494 1.65216 13.8899 1.7618 13.0323C1.78089 12.8833 1.81344 12.7381 1.8445 12.5918C1.87743 12.4358 1.92308 12.2932 1.88005 12.1117C1.82841 11.8951 1.9257 11.6578 2.01588 11.4438C2.13675 11.1568 2.26547 10.8727 2.3927 10.5884C2.44696 10.4667 2.47428 10.3418 2.47615 10.2082C2.47764 10.0839 2.38634 10.0364 2.30551 9.98253C2.23853 9.938 2.22319 10.0072 2.19961 10.0473C2.00129 10.3829 1.87219 10.7343 1.85086 11.1336C1.81606 11.7925 1.74983 12.45 1.69407 13.1078C1.65029 13.6242 1.30416 13.9779 0.843144 13.9812C0.372402 13.9846 -0.0201329 13.6134 0.00119648 13.1453C0.0262678 12.6045 0.079404 12.0646 0.13254 11.5254C0.182309 11.0172 0.218232 10.5053 0.31253 10.005C0.486532 9.07996 0.785143 8.19685 1.34045 7.42001C1.65067 6.98557 2.03384 6.63756 2.52779 6.42202C2.58616 6.39658 2.63705 6.36664 2.68158 6.32062C2.82228 6.17468 2.98693 6.06466 3.17852 5.98309C3.07674 5.99955 2.97421 6.01415 2.8728 6.03323C2.39607 6.12379 1.96125 6.00966 1.54626 5.77541C1.39396 5.68972 1.39284 5.61862 1.51184 5.49364C1.75095 5.24292 1.9272 4.94993 2.03085 4.61577C2.06677 4.49976 2.08249 4.40547 1.91709 4.39162C1.80745 4.38227 1.80184 4.29096 1.7966 4.21013C1.75656 3.61665 1.84562 3.04301 2.07912 2.49518C2.38634 1.7741 2.93379 1.3404 3.69866 1.19783C4.18324 1.10728 4.67195 1.11064 5.12173 1.34863C5.32979 1.45865 5.54757 1.54471 5.75563 1.64912C6.31543 1.92977 6.52984 2.44579 6.6335 3.02729C6.69749 3.3854 6.64285 3.73378 6.56801 4.08253C6.45688 4.60304 6.57175 5.07528 6.90367 5.48653C7.02192 5.63284 6.98001 5.7073 6.8438 5.793C6.41309 6.06392 5.95395 6.12865 5.46413 6.00105C5.40425 5.98533 5.34289 5.97411 5.27777 5.95989C5.7197 6.16869 6.1085 6.45757 6.5044 6.727C7.15139 7.16705 7.51623 7.82976 7.7864 8.54785C7.7995 8.58265 7.81035 8.61857 7.82495 8.653C7.82906 8.66273 7.84216 8.66872 7.86012 8.68443C8.01878 8.31547 8.20513 7.96522 8.43676 7.64079C8.82555 7.09596 9.31388 6.67423 9.93618 6.41454C9.98108 6.39583 10.0267 6.36851 10.0593 6.33296C10.2535 6.12117 10.4806 5.96438 10.7617 5.89253C10.8066 5.88093 10.8518 5.86372 10.835 5.80684C10.817 5.74622 10.7665 5.7683 10.7254 5.77803C10.4466 5.84314 10.1701 5.91162 9.8778 5.90114C9.46431 5.88655 9.07739 5.79449 8.72153 5.5797C8.54341 5.47231 8.53331 5.44312 8.66727 5.2897C8.97598 4.93645 9.19452 4.53569 9.3296 4.08702C9.39396 3.87336 9.38274 3.84828 9.17169 3.8524C9.08862 3.8539 9.03062 3.83107 9.03136 3.74463C9.03997 2.68452 9.12192 1.64126 9.87556 0.798188C10.3369 0.281793 10.9443 0.0583962 11.6208 0.0138665C12.0201 -0.0123274 12.4272 -0.0168178 12.8014 0.142965C13.182 0.305368 13.5652 0.475628 13.921 0.681063C14.449 0.985661 14.6762 1.5144 14.8049 2.09628C14.9175 2.60632 14.8314 3.09951 14.748 3.59757C14.6436 4.21949 14.7506 4.79239 15.1761 5.27585C15.3018 5.41842 15.2427 5.48653 15.1207 5.56548C14.5916 5.90862 14.0228 5.97822 13.4192 5.81844C13.353 5.80085 13.286 5.78551 13.2194 5.77017C13.1805 5.76119 13.1404 5.76156 13.13 5.80909C13.1202 5.85362 13.1509 5.87495 13.1902 5.88804C13.7283 6.06766 14.1399 6.46319 14.6223 6.73972C15.1907 7.06565 15.5514 7.61422 15.865 8.18263C15.9488 8.33456 16.027 8.48947 16.1232 8.67283C16.1887 8.52091 16.2459 8.38919 16.3017 8.2571C16.6081 7.5319 17.0583 6.92457 17.7536 6.52942C17.9485 6.41866 18.1427 6.31388 18.3074 6.15896C18.4133 6.05905 18.5562 6.02275 18.6898 5.96588C18.5663 5.9872 18.4425 6.00517 18.3197 6.03024C17.8494 6.12491 17.4179 6.01078 17.0078 5.78701C16.8252 5.68747 16.8248 5.65192 16.9588 5.49738C17.2016 5.21673 17.4052 4.91363 17.4871 4.54242C17.5073 4.45074 17.5212 4.38077 17.3876 4.39274C17.2952 4.40135 17.2544 4.34859 17.2495 4.25691C17.2084 3.46136 17.3109 2.70136 17.7857 2.02968C18.148 1.5174 18.6632 1.26781 19.265 1.178C19.7099 1.11177 20.1548 1.12786 20.5582 1.34901C20.7711 1.46576 20.9994 1.54322 21.2115 1.65248C21.7309 1.91966 21.9562 2.39527 22.0587 2.94721C22.1381 3.37417 22.0632 3.79178 22.0015 4.21051C21.9322 4.67938 22.0415 5.1011 22.3308 5.4753C22.464 5.64781 22.4632 5.67437 22.2821 5.793C21.8608 6.06915 21.4043 6.12341 20.9212 6.0033C20.8605 5.98833 20.7995 5.97598 20.7386 5.96326C20.7352 5.96251 20.7303 5.96999 20.7139 5.98384C20.9597 6.03959 21.1431 6.18029 21.3182 6.34457C21.4054 6.42614 21.5352 6.46131 21.6441 6.52081C22.2425 6.84674 22.641 7.36126 22.9561 7.94427C23.3235 8.62456 23.5563 9.35762 23.6764 10.1172C23.7785 10.762 23.8246 11.4161 23.8841 12.0668C23.917 12.4264 23.9716 12.7845 23.9705 13.1468C23.9694 13.5823 23.6509 13.9329 23.2161 13.9771C22.7985 14.0194 22.3689 13.7226 22.3091 13.3088C22.2387 12.8227 22.2043 12.331 22.1601 11.8412C22.1261 11.4629 22.1197 11.0808 22.0666 10.7055C22.0299 10.4458 21.857 10.2302 21.7407 9.99712C21.7242 9.96419 21.6909 9.95671 21.6621 9.97991C21.5962 10.0334 21.5049 10.0663 21.4956 10.1693C21.4825 10.3156 21.5143 10.4533 21.5741 10.5869C21.7017 10.8713 21.8421 11.1512 21.9476 11.4434C22.0381 11.6941 22.1702 11.9486 22.0464 12.2333C22.0277 12.276 22.0561 12.343 22.0711 12.3965C22.2978 13.2066 22.2918 14.0366 22.2645 14.8655C22.2477 15.3755 22.2267 15.8866 22.162 16.3941C22.1541 16.4558 22.1455 16.5175 22.1396 16.5797C22.1257 16.7312 22.0482 16.8057 21.8926 16.7858C21.7167 16.7634 21.6681 16.848 21.6692 17.0137C21.6748 17.8744 21.6733 18.735 21.6714 19.5957C21.6707 19.9665 21.6033 20.3115 21.3122 20.5828C20.898 20.969 20.2667 20.987 19.8562 20.5982C19.7406 20.4885 19.6822 20.4855 19.5576 20.5944C19.2227 20.8874 18.8354 20.9716 18.4114 20.7913C17.9474 20.5933 17.7498 20.2191 17.7453 19.7375C17.7371 18.8458 17.7431 17.9541 17.7423 17.062C17.7423 16.7978 17.7412 16.7881 17.4782 16.7888C17.2735 16.7896 17.2649 16.6552 17.2574 16.5149C17.2301 15.9925 17.132 15.4769 17.1436 14.8939ZM14.4034 7.1446C14.4928 7.42675 14.556 7.70478 14.5875 7.98992C14.5927 8.03819 14.623 8.09357 14.5755 8.12987C14.5283 8.16617 14.4816 8.12762 14.4378 8.10517C14.1048 7.93529 13.765 7.777 13.4417 7.59027C13.2823 7.49822 13.1827 7.53452 13.0671 7.64603C12.7666 7.93603 12.4549 8.21444 12.1604 8.51043C12.0313 8.64065 11.9404 8.62942 11.818 8.5108C11.5048 8.20733 11.1819 7.91358 10.8683 7.61048C10.774 7.51918 10.6958 7.50047 10.5731 7.56745C10.2509 7.74369 9.92009 7.90497 9.59191 8.07C9.53354 8.09918 9.47442 8.16729 9.40556 8.11789C9.34569 8.07486 9.38723 8.00077 9.39172 7.94165C9.41305 7.66923 9.48789 7.40766 9.56198 7.13936C9.23268 7.3549 8.96738 7.62807 8.75371 7.94988C8.06181 8.99314 7.79052 10.1838 7.56825 11.3884C7.44027 12.081 7.44551 12.7901 7.34223 13.4865C7.3224 13.6209 7.39537 13.6493 7.4979 13.6635C7.71381 13.6935 7.92972 13.7241 8.14563 13.7533C8.43377 13.7922 8.43527 13.7821 8.45809 13.485C8.50711 12.8455 8.56511 12.2068 8.62236 11.568C8.63359 11.4441 8.65904 11.324 8.71966 11.2103C8.87458 10.9184 9.01902 10.6213 9.17169 10.3283C9.22931 10.2183 9.25027 10.1131 9.21697 9.98814C9.16233 9.78233 9.14999 9.56979 9.17581 9.35724C9.18366 9.29138 9.1874 9.21579 9.2701 9.18997C9.45571 9.13235 9.62073 9.27492 9.60464 9.4695C9.56722 9.92415 9.70866 10.2965 10.1289 10.5188C10.2614 10.5891 10.3063 10.6845 10.2984 10.8192C10.2827 11.0935 10.2509 11.3626 10.1528 11.6245C9.9953 12.0447 9.74833 12.426 9.63046 12.8631C9.59266 13.0042 9.60613 13.0775 9.76966 13.1138C10.2681 13.2242 10.7632 13.3499 11.259 13.4716C11.369 13.4985 11.4483 13.4738 11.5131 13.3735C11.6212 13.2063 11.7421 13.0472 11.8547 12.8826C11.9621 12.7262 12.0025 12.7247 12.1084 12.8755C12.2266 13.0438 12.3528 13.2066 12.4643 13.3791C12.526 13.4746 12.5979 13.4978 12.7008 13.4727C13.2153 13.3488 13.7298 13.2238 14.2455 13.1052C14.3794 13.0745 14.3914 13.0105 14.3585 12.8893C14.2728 12.5739 14.1216 12.2868 13.9865 11.9931C13.8136 11.6174 13.6643 11.2372 13.6864 10.8099C13.6935 10.6737 13.7171 10.573 13.8548 10.5109C13.9618 10.4626 14.0509 10.3799 14.1276 10.2871C14.3304 10.042 14.3933 9.75726 14.3701 9.44742C14.3562 9.2607 14.4288 9.19297 14.6574 9.18885C14.8285 9.18586 14.7907 9.32319 14.7978 9.41861C14.8124 9.61806 14.8049 9.81863 14.7514 10.0125C14.7244 10.1101 14.7375 10.1958 14.7817 10.2826C14.9201 10.5547 15.0492 10.832 15.1982 11.0976C15.3022 11.2829 15.3471 11.4733 15.3636 11.6836C15.4133 12.3291 15.4799 12.9735 15.5342 13.619C15.5462 13.7612 15.6012 13.7964 15.7393 13.7705C15.9776 13.726 16.2193 13.6953 16.4603 13.6676C16.6149 13.6501 16.668 13.5771 16.6302 13.4282C16.57 13.1913 16.5689 12.9466 16.5468 12.7052C16.4641 11.7996 16.3986 10.893 16.1348 10.014C15.9091 9.26294 15.618 8.54448 15.169 7.89787C14.9628 7.60113 14.7169 7.33956 14.4019 7.14385L14.4034 7.1446ZM2.2303 7.10382C2.16107 7.15545 2.1229 7.17716 2.09372 7.20709C1.99755 7.30439 1.89651 7.39906 1.81082 7.50533C1.23044 8.22379 0.951287 9.0751 0.770924 9.9597C0.622741 10.686 0.589063 11.4296 0.507113 12.166C0.494016 12.285 0.544533 12.3404 0.657915 12.3538C0.81246 12.3725 0.969997 12.3811 1.12005 12.4182C1.27721 12.4567 1.32511 12.3875 1.33522 12.2528C1.35393 12.0043 1.37563 11.7562 1.3891 11.5074C1.41978 10.9322 1.46731 10.3631 1.80147 9.86316C1.93244 9.66708 2.01289 9.45827 1.92233 9.21317C1.89577 9.14133 1.91073 9.05264 1.91223 8.97182C1.91784 8.7009 1.99792 8.65075 2.24864 8.73832C2.38035 8.78434 2.36875 8.88388 2.36277 8.98155C2.34069 9.34751 2.47577 9.62667 2.80731 9.7973C2.9061 9.84819 2.92743 9.92902 2.9293 10.0289C2.93641 10.3885 2.80881 10.7126 2.66923 11.0337C2.57756 11.2447 2.45332 11.4419 2.38896 11.6649C2.36202 11.7574 2.34069 11.8509 2.47877 11.8842C2.87205 11.9789 3.26496 12.0765 3.65712 12.1768C3.74992 12.2008 3.80904 12.175 3.86143 12.0964C3.95835 11.9516 4.06425 11.8127 4.16341 11.669C4.23301 11.5684 4.29924 11.5725 4.36697 11.6672C4.45416 11.7888 4.54921 11.9059 4.62368 12.035C4.70188 12.1712 4.79543 12.2056 4.94736 12.1634C5.29536 12.0672 5.64599 11.9781 5.99923 11.9025C6.16762 11.8666 6.20654 11.7974 6.13806 11.6447C6.00522 11.3491 5.87387 11.0527 5.74927 10.7538C5.64224 10.4971 5.59061 10.2276 5.62017 9.9496C5.64 9.76325 5.84469 9.75314 5.94722 9.63976C6.13806 9.42834 6.19419 9.18623 6.17922 8.91494C6.16837 8.71624 6.32927 8.72934 6.44977 8.70613C6.57774 8.68144 6.60917 8.78172 6.6219 8.87789C6.64098 9.02084 6.63836 9.16416 6.59159 9.30336C6.54743 9.4347 6.56427 9.55295 6.63275 9.67831C6.87673 10.1266 7.13305 10.573 7.11359 11.1107C7.1121 11.1534 7.1252 11.1964 7.13567 11.2653C7.26515 10.6748 7.38302 10.1086 7.54692 9.55332C7.57573 9.45528 7.56862 9.35574 7.54579 9.25733C7.39986 8.63055 7.15775 8.04755 6.75137 7.54238C6.62976 7.3912 6.50328 7.24077 6.30233 7.1244C6.3521 7.33582 6.39738 7.51581 6.43555 7.69729C6.44902 7.76203 6.48457 7.84436 6.42918 7.89337C6.36707 7.94801 6.30046 7.88177 6.24246 7.85296C5.98651 7.72424 5.73093 7.59439 5.47872 7.45818C5.35 7.38858 5.25383 7.4028 5.14755 7.50945C4.91892 7.7392 4.67457 7.95287 4.44369 8.18001C4.32282 8.29863 4.22702 8.3121 4.09942 8.18263C3.87191 7.95212 3.62718 7.73883 3.39331 7.51431C3.28591 7.41103 3.18525 7.38484 3.04456 7.46342C2.77813 7.61198 2.50159 7.74295 2.22918 7.8799C2.1259 7.93192 2.07875 7.90797 2.09222 7.78336C2.11542 7.5667 2.16669 7.3564 2.2318 7.10307L2.2303 7.10382ZM16.8401 11.0965C16.891 10.8772 16.863 10.6508 16.949 10.4477C17.0366 10.2415 17.1376 10.0394 17.2503 9.84595C17.3749 9.6319 17.446 9.42198 17.3483 9.17501C17.3202 9.10428 17.3333 9.01447 17.3382 8.93402C17.3517 8.71661 17.4187 8.67695 17.6267 8.72522C17.7715 8.7589 17.7932 8.84609 17.7876 8.97219C17.7708 9.33329 17.9066 9.61656 18.2325 9.79206C18.322 9.84033 18.3515 9.91218 18.353 10.0061C18.3575 10.2778 18.3122 10.5397 18.203 10.7893C18.0758 11.0804 17.947 11.3712 17.822 11.6634C17.7794 11.7637 17.7618 11.8528 17.913 11.8879C18.3014 11.9778 18.6879 12.0747 19.0741 12.1738C19.1811 12.2015 19.2504 12.1746 19.3099 12.0818C19.4008 11.9403 19.5014 11.8049 19.5991 11.6679C19.6665 11.5732 19.7335 11.568 19.8027 11.6694C19.894 11.803 19.9969 11.9295 20.0803 12.0679C20.1526 12.1877 20.2431 12.1989 20.3644 12.1671C20.7139 12.0758 21.063 11.9819 21.4159 11.9052C21.5925 11.867 21.6321 11.7817 21.5655 11.629C21.4783 11.4296 21.3859 11.232 21.2965 11.0333C21.1524 10.7133 21.0315 10.3874 21.0364 10.0286C21.0379 9.92864 21.0592 9.84819 21.1577 9.79618C21.4847 9.6233 21.6239 9.34826 21.6044 8.98005C21.5936 8.77461 21.6703 8.70613 21.8832 8.70277C22.0812 8.69977 22.0449 8.85544 22.0527 8.97144C22.0587 9.06387 22.0666 9.1649 22.037 9.24985C21.9685 9.44742 22.0295 9.60983 22.1197 9.78158C22.3016 10.1273 22.5104 10.4641 22.5265 10.8746C22.5355 11.1048 22.5598 11.3341 22.5785 11.5639C22.5979 11.806 22.6182 12.0481 22.6391 12.2898C22.6481 12.3946 22.6926 12.4455 22.8109 12.4231C22.9759 12.3916 23.1435 12.3737 23.3104 12.3527C23.4242 12.3381 23.4736 12.2816 23.459 12.1634C23.3512 11.2806 23.3254 10.387 23.0926 9.52077C22.8951 8.78621 22.6286 8.08609 22.144 7.487C22.034 7.35079 21.9169 7.21832 21.738 7.11429C21.8013 7.35004 21.8477 7.55547 21.8742 7.76502C21.893 7.91134 21.8409 7.93304 21.7204 7.8713C21.4488 7.7321 21.173 7.6 20.9047 7.45444C20.7778 7.38559 20.6865 7.41028 20.5885 7.50421C20.3456 7.73696 20.0897 7.95661 19.8543 8.19685C19.7349 8.31884 19.6526 8.29901 19.5452 8.19535C19.3117 7.97046 19.0659 7.75791 18.8395 7.52666C18.7175 7.40205 18.6094 7.38708 18.4612 7.46941C18.2217 7.60262 17.9762 7.72536 17.7315 7.84885C17.6731 7.87841 17.6061 7.94464 17.544 7.89712C17.4755 7.84473 17.5197 7.75604 17.5339 7.68682C17.5702 7.50683 17.6155 7.32871 17.6578 7.14722C17.6312 7.14498 17.623 7.14198 17.6192 7.1446C17.5986 7.15807 17.5777 7.17192 17.5594 7.18801C16.924 7.74819 16.6059 8.48199 16.4151 9.28502C16.4005 9.34714 16.4061 9.40888 16.4259 9.4695C16.598 10.0031 16.7339 10.5457 16.8401 11.0954V11.0965ZM13.8873 20.9855C13.8873 20.3871 13.8843 19.7888 13.8896 19.1908C13.8907 19.0471 13.8417 18.9902 13.6946 18.9921C13.2523 18.9977 12.8097 18.9974 12.3673 18.9921C12.2296 18.9906 12.181 19.0423 12.1829 19.1792C12.1889 19.5905 12.1847 20.0017 12.1851 20.413C12.1851 21.1606 12.1795 21.9086 12.1877 22.6563C12.1937 23.1861 12.5702 23.5697 13.0592 23.5596C13.5128 23.5506 13.9143 23.1858 13.8926 22.6492C13.8705 22.0954 13.8873 21.54 13.8873 20.9855ZM10.0787 20.9956H10.0806C10.0806 21.5876 10.0728 22.1799 10.0829 22.7719C10.0918 23.2842 10.6041 23.6614 11.0999 23.5364C11.5449 23.4245 11.7772 23.1188 11.7795 22.6099C11.7847 21.4693 11.7795 20.3288 11.7836 19.1882C11.784 19.0426 11.7353 18.9895 11.589 18.9917C11.1591 18.9981 10.7287 19.0004 10.2991 18.9906C10.1248 18.9869 10.0739 19.0516 10.0758 19.2196C10.0832 19.8116 10.0787 20.4032 10.0787 20.9956ZM11.9774 5.4753C12.9432 5.4768 13.777 4.65057 13.7683 3.68738C13.7669 3.53209 13.7942 3.34648 13.6565 3.23086C13.3302 2.95694 13.072 2.637 12.9182 2.23698C12.877 2.12996 12.8227 2.12061 12.7408 2.20181C12.6128 2.32904 12.4852 2.45813 12.3475 2.57414C11.8019 3.03328 11.1838 3.36145 10.5061 3.58111C10.2015 3.67989 10.1813 3.72255 10.2434 4.04137C10.4013 4.85039 11.1549 5.47418 11.9774 5.4753ZM18.1697 18.3796C18.1697 18.8342 18.1674 19.2892 18.1704 19.7439C18.173 20.1413 18.4533 20.4406 18.8204 20.4448C19.1924 20.4489 19.4876 20.1619 19.491 19.7641C19.4981 18.8297 19.4921 17.895 19.4955 16.9602C19.4958 16.8292 19.4449 16.7836 19.3188 16.7855C19.0135 16.79 18.7078 16.7948 18.4032 16.7836C18.2273 16.7769 18.1611 16.8304 18.1659 17.0145C18.1775 17.4691 18.1693 17.9249 18.1697 18.3796ZM4.47138 18.3762C4.47138 18.8372 4.46726 19.2978 4.47362 19.7589C4.47923 20.1563 4.76662 20.447 5.13708 20.4455C5.49107 20.444 5.79043 20.145 5.79267 19.7663C5.79866 18.8323 5.79342 17.898 5.79679 16.964C5.79716 16.836 5.75151 16.7847 5.62279 16.787C5.30509 16.7918 4.9874 16.7948 4.67008 16.7855C4.51179 16.781 4.46651 16.8431 4.46876 16.9939C4.47587 17.4545 4.47138 17.9152 4.47138 18.3762ZM19.6945 5.6276C20.4736 5.63059 21.1423 4.97051 21.1374 4.20564C21.1363 4.03463 21.0892 3.88982 20.9533 3.77531C20.7352 3.59158 20.5717 3.36407 20.4616 3.10213C20.4122 2.98426 20.367 2.99698 20.2929 3.07631C20.126 3.25406 19.9385 3.40823 19.7398 3.55005C19.3506 3.82883 18.9214 4.02453 18.4679 4.16935C18.3381 4.21088 18.2827 4.27038 18.3029 4.4253C18.389 5.0794 19.0109 5.62498 19.6945 5.6276ZM4.29588 5.62797C4.47474 5.65117 4.66334 5.57746 4.84258 5.49364C5.38218 5.24105 5.66507 4.8096 5.68677 4.21388C5.69126 4.09189 5.69576 3.95306 5.5951 3.86363C5.35 3.64509 5.14681 3.39812 5.01509 3.09614C4.96345 2.97752 4.91592 3.00708 4.84296 3.0838C4.66259 3.27314 4.4609 3.43966 4.24424 3.58672C3.86068 3.84754 3.44457 4.04025 3.0019 4.1772C2.89862 4.20901 2.83239 4.24905 2.85259 4.38638C2.95737 5.09511 3.55983 5.6291 4.29588 5.62797ZM21.2205 18.4121C21.2205 17.932 21.2183 17.4519 21.2231 16.9722C21.2246 16.8356 21.1737 16.7825 21.0368 16.7851C20.7251 16.7907 20.4134 16.7907 20.1017 16.7851C19.9636 16.7825 19.9157 16.8393 19.9164 16.9741C19.9198 17.9028 19.9172 18.8316 19.9198 19.7603C19.9202 19.9246 19.9568 20.0818 20.0714 20.2113C20.2599 20.4234 20.5346 20.5016 20.782 20.4111C21.0435 20.3157 21.2145 20.0859 21.2186 19.7959C21.225 19.3345 21.2205 18.8735 21.2205 18.4121ZM2.7437 18.3953C2.7437 18.8563 2.74445 19.3173 2.74445 19.7787C2.74445 19.9329 2.7785 20.0747 2.88028 20.1955C3.06364 20.413 3.34242 20.5013 3.58415 20.4171C3.87453 20.3157 4.03993 20.0953 4.04217 19.7589C4.04853 18.8305 4.04329 17.9021 4.04703 16.9737C4.04741 16.8386 3.99989 16.7828 3.86181 16.7855C3.55646 16.7915 3.25111 16.7929 2.94577 16.7847C2.78935 16.7806 2.73921 16.8416 2.74145 16.9935C2.74782 17.4609 2.7437 17.9279 2.7437 18.3953ZM7.77855 15.1266C8.06331 15.1278 8.23357 15.0002 8.32039 14.7296C8.36155 14.6024 8.34882 14.4699 8.37015 14.3412C8.38475 14.2525 8.33086 14.223 8.25116 14.211C7.97425 14.1687 7.69772 14.1219 7.42119 14.077C7.35533 14.0662 7.29022 14.0639 7.28086 14.1526C7.26552 14.3012 7.23783 14.4512 7.24681 14.5986C7.26477 14.8954 7.50763 15.1255 7.77855 15.1266ZM16.7387 14.5231C16.7238 14.4063 16.7069 14.2899 16.6942 14.1728C16.6845 14.0811 16.6332 14.0624 16.5516 14.077C16.3383 14.1156 16.1243 14.1504 15.9106 14.1878C15.5896 14.2439 15.5656 14.2821 15.6349 14.614C15.6386 14.6323 15.6438 14.6503 15.6479 14.6682C15.7262 14.9945 15.9391 15.1618 16.2257 15.1225C16.5625 15.0765 16.735 14.8722 16.7387 14.5231ZM12.6536 6.00255C12.7041 5.81358 12.6188 5.78589 12.462 5.84538C12.3434 5.89029 12.2195 5.8959 12.0942 5.89852C11.8693 5.90338 11.6463 5.89852 11.4285 5.82967C11.3828 5.81545 11.2915 5.77391 11.2983 5.86297C11.3091 6.00629 11.2665 6.16607 11.3911 6.28806C11.5557 6.44934 11.7196 6.61174 11.879 6.77826C11.9587 6.86171 12.0212 6.8531 12.0968 6.77415C12.2304 6.63457 12.3662 6.49724 12.5077 6.36589C12.6154 6.26598 12.682 6.15522 12.6536 6.00255ZM6.83856 13.8873C6.8902 13.6748 6.94109 13.4626 6.91564 13.2422C6.82322 12.4391 6.71807 11.6372 6.6436 10.8327C6.61554 10.5296 6.44191 10.3025 6.33376 10.0413C6.29335 9.94361 6.23123 9.95895 6.15976 10.0229C6.02804 10.1404 6.05835 10.2838 6.09503 10.4215C6.16388 10.6815 6.29747 10.9162 6.40337 11.1616C6.5145 11.4195 6.58972 11.6885 6.66643 11.9579C6.70647 12.0982 6.58934 12.2019 6.62339 12.3366C6.75174 12.8448 6.82995 13.3608 6.83856 13.8873ZM17.138 13.8495C17.1425 13.3372 17.2166 12.8403 17.3367 12.3493C17.3468 12.3082 17.3637 12.2517 17.3449 12.2236C17.2435 12.0702 17.3071 11.9175 17.3483 11.7731C17.413 11.5463 17.4913 11.3229 17.5874 11.1059C17.6885 10.8787 17.8123 10.6602 17.8726 10.417C17.9089 10.271 17.9366 10.121 17.7887 10.0076C17.7367 9.96756 17.684 9.94249 17.6514 10.014C17.5421 10.2553 17.3655 10.4667 17.3356 10.7436C17.266 11.3925 17.1874 12.0402 17.1219 12.6895C17.083 13.0757 16.9767 13.4641 17.1373 13.8488L17.138 13.8495ZM0.424415 13.0397C0.427035 13.3395 0.590186 13.5254 0.828924 13.5284C1.08076 13.5318 1.22782 13.3503 1.25327 13.0203C1.26112 12.9185 1.23343 12.8728 1.12903 12.859C0.957275 12.8362 0.786266 12.8044 0.616379 12.7692C0.514971 12.7482 0.461461 12.7785 0.448738 12.8826C0.441254 12.9439 0.430028 13.0053 0.424415 13.0397ZM23.5409 13.0944C23.5439 12.8279 23.4938 12.7467 23.3535 12.7703C23.1765 12.8002 22.9998 12.8332 22.8228 12.8627C22.7708 12.8713 22.7184 12.8822 22.7188 12.9458C22.7192 13.1344 22.7338 13.3208 22.8936 13.4551C23.0178 13.5591 23.1664 13.555 23.2984 13.4996C23.4788 13.424 23.5245 13.25 23.5409 13.0944ZM3.72597 6.12117C3.72223 6.19713 3.75366 6.25513 3.80418 6.30565C3.88351 6.3846 3.96134 6.46468 4.0403 6.54401C4.30598 6.80895 4.24761 6.79211 4.50505 6.53765C4.62143 6.42277 4.76625 6.32623 4.77934 6.13314C4.78645 6.02912 4.76325 5.98833 4.66147 6.01864C4.39092 6.09909 4.12187 6.08562 3.85357 6.01303C3.7503 5.98496 3.71362 6.02388 3.72597 6.12117ZM19.1755 6.11294C19.1751 6.23081 19.2047 6.28133 19.3671 6.44373C19.5869 6.66326 19.8074 6.66238 20.0287 6.44111C20.1159 6.35392 20.2124 6.27534 20.2296 6.13838C20.2409 6.04782 20.2382 5.98346 20.1219 6.01639C19.8465 6.09385 19.5714 6.09273 19.296 6.01677C19.2088 5.99282 19.1632 6.02275 19.1755 6.11294Z" fill="currentColor"/>
</g>
<defs>
<clipPath id="clip0_668_10423">
<rect width="23.9704" height="24" fill="white"/>
</clipPath>
</defs>
</svg>
