<svg width="40" height="29" viewBox="0 0 40 29" fill="none" xmlns="http://www.w3.org/2000/svg">
<path d="M39.1642 4.83803C38.7041 3.10594 37.3487 1.74168 35.6276 1.27863C32.5083 0.4375 20 0.4375 20 0.4375C20 0.4375 7.49168 0.4375 4.37219 1.27872C2.65123 1.74176 1.29583 3.10594 0.83583 4.83812C-8.29286e-08 7.97769 0 14.5284 0 14.5284C0 14.5284 -8.29286e-08 21.0792 0.83583 24.2187C1.29583 25.9508 2.65123 27.2582 4.37219 27.7214C7.49168 28.5625 20 28.5625 20 28.5625C20 28.5625 32.5083 28.5625 35.6276 27.7213C37.3487 27.2581 38.7041 25.9508 39.1642 24.2186C40 21.0791 40 14.5283 40 14.5283C40 14.5283 40 7.97768 39.1642 4.83803Z" fill="#FF0000"/>
<path d="M15.9092 20.4756V8.58057L26.3637 14.5282L15.9092 20.4756Z" fill="white"/>
</svg>
