<svg width="24" height="24" viewBox="0 0 24 24" fill="none" xmlns="http://www.w3.org/2000/svg">
<g clip-path="url(#clip0_668_5077)">
<path d="M2.4181 20.728C2.4181 20.1982 2.41191 19.6684 2.42141 19.1386C2.42471 18.9541 2.3702 18.8744 2.17613 18.8851C1.94984 18.8975 1.7219 18.895 1.4952 18.8859C1.04965 18.8673 0.664797 18.7133 0.45255 18.2979C0.235761 17.8738 0.291507 17.4597 0.57932 17.0773C0.980277 16.5446 1.38123 16.0119 1.72892 15.4408C1.81192 15.3046 1.8144 15.2571 1.63519 15.2596C0.680488 15.2744 -0.109037 14.3709 0.0123649 13.3824C0.096603 12.6944 0.116837 11.9978 0.143677 11.3045C0.19199 10.0463 0.481455 8.84261 0.929073 7.67236C1.05171 7.3511 1.16899 7.02653 1.3131 6.71518C1.72975 5.81582 2.4338 5.23813 3.36413 4.92058C3.58505 4.84502 3.59 4.82685 3.44011 4.65631C3.21465 4.40029 3.04163 4.11248 2.92353 3.79411C2.87852 3.67353 2.83062 3.63058 2.6989 3.67559C1.92383 3.94235 1.18385 3.84779 0.471958 3.4522C0.227502 3.31634 0.142851 3.16315 0.179189 2.87987C0.227915 2.49998 0.343949 2.14197 0.518206 1.80336C0.907188 1.04894 1.54764 0.77062 2.36608 0.850316C2.65306 0.878395 2.94253 0.9073 3.21878 0.995255C3.33646 1.03283 3.41038 0.998971 3.48966 0.91432C4.21312 0.144203 5.10505 -0.125854 6.13366 0.0583131C6.70475 0.16072 7.19531 0.433668 7.58801 0.863943C7.70446 0.991538 7.80934 1.02829 7.98112 0.979976C8.32592 0.882937 8.68228 0.844948 9.04153 0.841644C9.79554 0.834211 10.296 1.22195 10.6297 1.86282C10.7998 2.18945 10.8824 2.5454 10.9451 2.90589C10.984 3.12805 10.9051 3.30189 10.7118 3.41256C10.0334 3.80154 9.32232 3.95845 8.55303 3.71524C8.27348 3.62687 8.27141 3.63471 8.15662 3.91757C8.04141 4.20126 7.87871 4.45934 7.67266 4.68067C7.5302 4.83387 7.58594 4.86649 7.74368 4.91604C8.46218 5.14068 9.04772 5.55897 9.49741 6.16185C9.81454 6.58676 9.97599 7.08847 10.1688 7.57367C10.5694 8.58246 10.8312 9.62883 10.9542 10.7058C11.0158 11.2442 11.0277 11.7889 11.0558 12.3311C11.0789 12.7774 11.1062 13.2242 11.1078 13.6706C11.1107 14.5233 10.41 15.2327 9.55521 15.2612C9.33554 15.2686 9.32026 15.2901 9.43877 15.478C9.78068 16.0194 10.1449 16.5454 10.5438 17.0459C11.0013 17.6203 10.8341 18.2702 10.4505 18.6064C10.2209 18.8075 9.94254 18.8744 9.64812 18.8859C9.42844 18.8946 9.20753 18.8975 8.98785 18.8859C8.79707 18.876 8.73678 18.9528 8.73802 19.1391C8.74422 20.0884 8.74463 21.0381 8.73885 21.9879C8.73637 22.4276 8.6509 22.8455 8.3957 23.2205C7.80439 24.0893 6.53256 24.2549 5.74881 23.5475C5.60635 23.4187 5.52954 23.4162 5.3813 23.5455C4.83334 24.024 4.19082 24.1219 3.53137 23.8523C2.85499 23.5756 2.45775 23.0446 2.42389 22.2972C2.40035 21.7752 2.41934 21.2516 2.41934 20.7284H2.41728L2.4181 20.728ZM5.55762 12.6028C6.23194 12.6028 6.90626 12.5966 7.58016 12.6065C7.7792 12.6094 7.84114 12.5445 7.83907 12.3472C7.82999 11.5217 7.83494 10.6958 7.83536 9.87039C7.83536 9.78781 7.83288 9.7044 7.84609 9.62346C7.88243 9.40254 8.05545 9.24522 8.26522 9.23283C8.4626 9.22127 8.65337 9.37446 8.71201 9.59043C8.74298 9.70481 8.74174 9.82208 8.74174 9.93894C8.74174 11.1703 8.74009 12.4021 8.74215 13.6334C8.74298 14.0687 9.08778 14.4023 9.50236 14.378C9.95576 14.3511 10.3034 13.9725 10.2531 13.5389C10.187 12.9715 10.1796 12.4008 10.1391 11.8322C10.1048 11.3528 10.1098 10.8718 10.0322 10.394C9.84964 9.27288 9.51103 8.20091 9.05557 7.16445C8.68021 6.31051 8.02778 5.78361 7.09827 5.68203C6.13325 5.57673 5.15915 5.6172 4.19165 5.65767C3.3121 5.69442 2.60847 6.13543 2.20338 6.90967C1.72438 7.82473 1.4089 8.81329 1.20367 9.82869C0.949307 11.0885 0.974496 12.3728 0.900168 13.6483C0.889845 13.8259 0.947242 13.9865 1.06988 14.1215C1.297 14.3709 1.62651 14.444 1.95645 14.3164C2.21659 14.2157 2.41645 13.9196 2.41687 13.6165C2.41893 12.3575 2.41769 11.0985 2.41852 9.83942C2.41852 9.75684 2.41604 9.67301 2.42967 9.59249C2.46353 9.39181 2.63448 9.24191 2.82649 9.23324C3.0309 9.22416 3.21754 9.36249 3.26007 9.56978C3.28361 9.68334 3.29104 9.80185 3.29146 9.91788C3.29435 10.7091 3.29269 11.5002 3.29393 12.2914C3.29393 12.6023 3.29558 12.6028 3.59702 12.6028C4.2507 12.6028 4.90437 12.6028 5.55762 12.6028ZM5.57745 13.4534C4.89611 13.4534 4.21518 13.4575 3.53385 13.4505C3.3567 13.4489 3.27989 13.5091 3.29187 13.6896C3.32862 14.2409 3.12257 14.7281 2.87605 15.2009C2.43875 16.0392 1.88997 16.8052 1.32136 17.5571C1.2524 17.648 1.15495 17.7367 1.22308 17.8697C1.29534 18.0101 1.43202 18.0126 1.56416 18.0093C2.32643 17.9895 3.08912 18.0002 3.85098 18.0014C4.6405 18.0027 5.43044 17.9965 6.22038 18.0089C7.05161 18.0217 7.88326 18.0208 8.71407 18.0068C9.01675 18.0018 9.31861 18.0266 9.62046 18.0097C9.73856 18.0031 9.86202 17.9944 9.91777 17.866C9.96897 17.7479 9.90166 17.6554 9.83353 17.5654C9.3025 16.8626 8.78386 16.1498 8.36184 15.3752C8.0699 14.8388 7.77259 14.2945 7.83453 13.6462C7.84981 13.4852 7.76268 13.4505 7.62104 13.4513C6.93971 13.4555 6.25878 13.453 5.57745 13.453V13.4534ZM3.29311 20.6582H3.29435C3.29435 21.1744 3.28402 21.6906 3.29682 22.2063C3.31458 22.9306 4.04795 23.3452 4.67065 22.9872C5.01668 22.7881 5.1385 22.4603 5.13932 22.08C5.1418 21.0893 5.13726 20.0983 5.14345 19.1077C5.14469 18.9301 5.0716 18.8835 4.90891 18.8859C4.4551 18.8925 4.00046 18.8958 3.54665 18.8843C3.34348 18.8793 3.28609 18.9594 3.2898 19.1514C3.2993 19.6536 3.29311 20.1557 3.29311 20.6582ZM7.83453 20.6867C7.83453 20.1714 7.82875 19.6556 7.83742 19.1403C7.84031 18.9578 7.78704 18.8797 7.59255 18.8847C7.15278 18.8954 6.71259 18.8954 6.27323 18.8847C6.07338 18.8797 6.01226 18.9545 6.0135 19.149C6.02052 20.159 6.01515 21.1694 6.01763 22.1799C6.01887 22.7109 6.42685 23.1313 6.9298 23.1263C7.4311 23.1214 7.82875 22.7146 7.83329 22.1919C7.83783 21.6901 7.83412 21.1884 7.83453 20.6867ZM5.70917 4.76078C6.3711 4.71081 6.98141 4.36023 7.33488 3.61613C7.50005 3.26886 7.48808 3.24449 7.12718 3.10162C7.07597 3.08139 7.02271 3.06611 6.97274 3.04381C6.45699 2.81257 5.93257 2.59206 5.65219 2.04864C5.58736 1.92311 5.5345 1.94293 5.47339 2.05525C5.2599 2.4463 4.92666 2.70066 4.52488 2.87533C4.28538 2.97939 4.04712 3.0851 3.80597 3.18503C3.70769 3.22591 3.66805 3.27588 3.70315 3.38943C3.94802 4.18845 4.72557 4.76326 5.70917 4.76078ZM1.84372 2.95627C1.95273 2.94388 2.06381 2.9414 2.16993 2.91745C2.50234 2.84312 2.7629 2.73948 2.8075 2.30673C2.85912 1.80914 2.90578 1.81781 2.39292 1.74142C1.67648 1.6353 1.36059 1.87521 1.13265 2.61023C1.09301 2.73783 1.14215 2.80224 1.25777 2.84601C1.44689 2.91786 1.64097 2.95296 1.84372 2.95627ZM9.23891 2.94677C9.47387 2.95338 9.68322 2.92654 9.88061 2.83569C9.94296 2.8072 9.99953 2.77829 9.99581 2.68745C9.97352 2.1655 9.50443 1.70674 8.98413 1.7216C8.77312 1.7278 8.56294 1.77198 8.35276 1.80006C8.26315 1.81203 8.21112 1.8525 8.24829 1.95284C8.32509 2.16055 8.354 2.37816 8.37753 2.59619C8.38703 2.68249 8.43411 2.72998 8.50802 2.76425C8.74669 2.87451 8.99032 2.96246 9.23932 2.94677H9.23891ZM4.93905 1.00227C4.37292 1.15465 3.80638 1.74885 3.7494 2.23653C4.40142 2.08911 4.89074 1.58781 4.93905 1.00227ZM6.18776 1.01384C6.2848 1.64562 6.77495 2.14073 7.39352 2.23157C7.28905 1.70095 6.67873 1.08404 6.18776 1.01384Z" fill="#18C90D"/>
<path d="M20.604 18.7923C20.604 19.9275 20.6094 21.0631 20.6023 22.1982C20.5945 23.4515 19.4057 24.2909 18.2177 23.8892C17.9868 23.8111 17.7762 23.6918 17.6057 23.5175C17.5033 23.4131 17.4335 23.4023 17.3175 23.5084C16.7732 24.006 16.1328 24.1196 15.456 23.8673C14.7713 23.6121 14.403 23.0802 14.3113 22.3547C14.2861 22.1561 14.2812 21.9575 14.2812 21.7576C14.282 19.6314 14.2816 17.5052 14.2812 15.3791C14.2812 15.1016 14.2804 15.1016 14.0136 15.1875C12.9912 15.5166 11.8899 14.7427 11.92 13.6675C11.9568 12.3568 11.9642 11.0396 12.2161 9.7446C12.4337 8.62515 12.7926 7.54616 13.3021 6.52911C13.7117 5.7115 14.408 5.19203 15.2792 4.91578C15.4357 4.86623 15.4894 4.83774 15.349 4.68165C14.0722 3.2624 14.5888 0.965265 16.3434 0.229008C18.3659 -0.619566 20.5222 1.00408 20.2551 3.18436C20.1878 3.73356 19.9635 4.22866 19.5886 4.64572C19.4164 4.83733 19.4156 4.85054 19.6493 4.92363C20.4219 5.16395 21.0252 5.6285 21.4811 6.29167C21.6817 6.58403 21.7982 6.91726 21.9283 7.24141C22.4729 8.59624 22.852 9.98741 22.885 11.4624C22.9007 12.1553 23.0011 12.8465 23.0201 13.5399C23.0547 14.796 21.8399 15.5562 20.81 15.1581C20.6036 15.0784 20.604 15.0735 20.604 15.3035C20.6036 16.4663 20.604 17.6291 20.6036 18.7919L20.604 18.7923ZM17.4492 13.7257C18.1165 13.7257 18.7842 13.7261 19.4515 13.7257C19.7236 13.7257 19.7282 13.7211 19.7286 13.4482C19.7298 12.2371 19.7273 11.0259 19.7319 9.8148C19.7335 9.43614 19.8954 9.23546 20.1758 9.2334C20.4496 9.23133 20.604 9.44151 20.604 9.81935C20.6044 11.0511 20.604 12.2829 20.6048 13.5147C20.6048 13.6175 20.6023 13.7203 20.6345 13.8211C20.7543 14.196 21.1102 14.4318 21.4745 14.374C21.8878 14.3083 22.1347 14.0284 22.1211 13.6018C22.1009 12.963 22.0629 12.3246 22.0311 11.6862C22.0071 11.2051 21.9658 10.7261 21.8915 10.25C21.7317 9.22348 21.4005 8.24897 21.0062 7.29303C20.5809 6.26318 19.8141 5.69168 18.7004 5.64832C17.8691 5.6157 17.035 5.62355 16.203 5.64832C15.2821 5.67558 14.5475 6.08892 14.1065 6.89992C13.6651 7.71133 13.3905 8.59583 13.1687 9.49313C12.9515 10.3727 12.895 11.2704 12.8702 12.1726C12.8586 12.605 12.826 13.0381 12.7789 13.468C12.7273 13.9416 13.0263 14.3509 13.4871 14.3793C13.8794 14.4037 14.2969 14.1118 14.2874 13.5849C14.2655 12.3671 14.2808 11.149 14.2804 9.93125C14.2804 9.80696 14.2791 9.68308 14.3171 9.56291C14.4166 9.24867 14.7598 9.13512 15.0108 9.33498C15.1595 9.45349 15.188 9.61949 15.188 9.79829C15.1863 11.0164 15.1867 12.2342 15.1872 13.4523C15.1872 13.7224 15.1909 13.7257 15.4671 13.7261C16.1278 13.7269 16.7885 13.7261 17.4488 13.7261L17.4492 13.7257ZM15.1876 18.5409C15.1876 19.1669 15.1876 19.7933 15.1876 20.4193C15.1876 21.0247 15.1822 21.6304 15.1905 22.2358C15.1991 22.8349 15.7867 23.252 16.3586 23.0744C16.7819 22.9431 17.0041 22.6318 17.0049 22.1524C17.0065 20.556 17.0053 18.9596 17.0057 17.3632C17.0057 17.2806 17.002 17.1972 17.0127 17.1158C17.0462 16.8561 17.2469 16.6839 17.4909 16.698C17.7197 16.7112 17.8696 16.8788 17.8799 17.1456C17.8869 17.331 17.8819 17.5164 17.8819 17.7018C17.8819 18.8638 17.8741 20.0258 17.8861 21.1878C17.8902 21.5788 17.8435 21.9715 17.9137 22.3613C18.01 22.8965 18.5616 23.2359 19.0803 23.0749C19.5019 22.944 19.7286 22.6215 19.7286 22.1309C19.7302 19.7091 19.7273 17.2868 19.7335 14.865C19.7339 14.6539 19.6642 14.5949 19.4593 14.5961C18.1243 14.6036 16.7897 14.604 15.4547 14.5961C15.2466 14.5949 15.1822 14.6577 15.1838 14.8662C15.1921 16.091 15.188 17.3157 15.1876 18.5405V18.5409ZM17.4492 4.76217C18.2775 4.76424 18.9841 4.25674 19.2838 3.44368C19.383 3.17528 19.3776 3.18064 19.1179 3.06998C18.5976 2.84823 18.0702 2.62814 17.7721 2.10124C17.6813 1.94061 17.6197 1.93153 17.5347 2.09546C17.3369 2.47701 16.9941 2.6876 16.6262 2.87301C16.3611 3.0068 16.0799 3.09888 15.8082 3.21492C15.586 3.30989 15.5712 3.34251 15.6653 3.56756C15.9593 4.26954 16.6915 4.75928 17.4492 4.76135V4.76217ZM16.9702 0.944619C16.5102 0.963614 15.6951 1.70317 15.6187 2.18796C15.598 2.31844 15.6624 2.3362 15.7607 2.29449C15.9441 2.21686 16.1229 2.13015 16.3058 2.05169C16.7402 1.86587 16.9074 1.47276 17.066 1.07387C17.0916 1.00945 17.116 0.930992 16.9702 0.944619ZM19.2479 2.12891C19.0935 1.66601 18.7892 1.35136 18.3899 1.11681C18.3217 1.07676 18.2891 1.10029 18.2994 1.18371C18.3494 1.58921 18.7916 2.04054 19.2475 2.12891H19.2479Z" fill="#18C90D"/>
</g>
<defs>
<clipPath id="clip0_668_5077">
<rect width="23.0214" height="24" fill="white"/>
</clipPath>
</defs>
</svg>
